<svg width="714" height="130" viewBox="0 0 714 130" fill="none" xmlns="http://www.w3.org/2000/svg">
<g clip-path="url(#clip0)">
<path fill-rule="evenodd" clip-rule="evenodd" d="M38.0844 39.5204C37.7645 39.8312 37.2011 39.6422 36.7544 39.6763C36.368 39.7058 35.9908 39.8221 35.6905 39.8321C30.2855 40.0149 27.8819 36.4139 24.4298 34.6891C24.039 34.1755 23.4608 33.8268 22.8342 33.5203C22.6901 33.231 22.3713 33.0959 22.2132 32.819C21.3952 32.2767 20.5688 31.7206 19.8196 31.1046C19.258 30.6433 18.729 30.1897 18.1345 29.702C17.6191 29.2786 17.1621 28.6864 16.6272 28.1435C16.4473 27.9607 16.2537 27.7864 16.0956 27.598C15.9426 27.4162 15.8905 27.1532 15.7409 26.9747C15.4309 26.6055 14.9702 26.3298 14.6769 25.9616C14.3625 25.5672 14.1024 25.2431 13.7902 24.8707C12.5545 23.3979 11.448 21.8447 10.0663 20.507C9.08871 22.3784 9.39313 25.6922 10.1549 27.598C10.4941 28.4458 11.0811 29.3585 11.6623 30.1695C12.2541 30.9959 12.8356 31.8186 13.5242 32.3514C14.0356 32.7472 14.6444 32.9333 14.9429 33.4424C15.2724 33.5544 15.6157 33.7005 15.9182 33.9099C16.2215 34.12 16.8481 34.4836 17.0709 34.9229C16.4085 34.9596 16.0435 34.7353 15.4753 34.6891C13.7127 33.6323 11.9142 31.9803 10.7756 30.0137C10.4882 29.5169 10.2598 29.1471 9.97759 28.5331C9.74447 28.026 9.57601 27.3399 9.35693 26.585C9.21617 26.0993 8.97381 25.6175 8.9136 25.1824C8.6838 23.5174 8.9897 20.8914 9.71159 19.7277C10.7785 19.6508 11.5071 20.8274 12.1056 21.5979C13.0898 22.8648 13.914 23.6804 14.8539 24.8707C15.2311 25.348 15.629 25.6879 16.0065 26.1954C16.4148 26.7435 17.1906 27.4055 17.6025 28.0656C18.4474 28.8815 19.4882 29.5257 20.1738 30.4812C21.3073 30.9056 21.9837 31.8732 22.9221 32.5073C23.3736 32.8118 23.9263 33.2251 24.4295 33.5982C25.3564 34.2852 26.4666 35.0245 27.4441 35.7801C27.8198 36.0704 28.2757 36.3515 28.6854 36.6372C29.0807 36.9132 29.4376 37.2749 29.8381 37.4944C30.6272 37.9275 31.6321 38.0337 32.3208 38.6633C33.8115 39.0587 35.2837 39.3071 37.2861 39.3646C37.4959 39.3708 37.9913 39.2286 38.0844 39.5204Z" fill="#030201"/>
<path fill-rule="evenodd" clip-rule="evenodd" d="M10.6869 25.0265C10.7456 25.0265 10.8047 25.0265 10.8639 25.0265C11.6914 25.4681 11.9818 26.3817 12.8145 26.8187C12.9035 27.0532 12.6169 26.9567 12.4598 26.9746C12.7218 27.6016 13.8249 27.4889 14.0555 28.1435C13.4012 28.199 13.0465 27.9915 12.6368 27.8318C12.3328 28.5935 13.0277 29.1503 13.7895 29.2344C13.9092 29.022 13.5338 28.5782 13.1688 28.5331C13.4887 27.8652 14.1146 28.5214 14.4098 28.7668C15.1232 29.3594 15.9008 30.0883 16.6264 30.637C17.6066 31.0968 18.3041 31.8994 19.1981 32.5072C19.7257 32.866 20.3973 33.265 20.7937 33.8319C21.9863 34.4202 23.0957 35.0816 23.9861 35.9359C25.001 36.3164 25.6796 36.9927 26.4687 37.5723C26.4968 37.8853 26.5308 38.1931 26.7347 38.3515C26.9309 38.2729 26.5164 38.0833 26.6461 37.806C27.3613 38.0349 27.8689 38.446 28.4198 38.8191C28.5302 39.1499 28.1246 39.0275 28.0651 39.2087C28.3322 39.4886 28.4852 39.0116 28.8627 39.1308C28.8147 39.7899 27.853 39.646 27.2671 39.8321C27.1238 39.4382 26.5345 39.4369 26.3804 39.0528C25.9475 39.3947 24.8066 39.6045 24.1638 39.2866C24.0906 39.0665 24.2887 39.0847 24.2525 38.897C23.0052 39.0061 22.2157 38.7129 21.8585 38.0398C21.8829 37.6716 22.4603 37.7895 22.7451 37.6502C21.9966 37.4236 20.8314 37.831 19.8191 37.6502C19.4556 37.5853 19.1567 37.4379 18.8434 37.3385C18.8434 37.2086 18.8434 37.0788 18.8434 36.9489C19.852 36.7456 20.7398 37.3025 21.9468 37.1827C21.9431 36.8223 21.2736 37.0469 21.1488 36.793C21.0712 36.5427 21.3789 36.6313 21.4151 36.4813C21.3039 36.0852 20.8174 36.0196 20.3508 35.9359C20.3563 36.3209 20.8266 36.2972 20.7054 36.793C20.2758 36.7291 20.1746 36.3761 19.9078 36.1696C19.7438 36.1813 19.8535 36.4336 19.7305 36.4813C19.6045 36.4745 19.4793 36.4684 19.4645 36.5593C18.7334 36.5739 18.0096 36.5356 17.4248 36.3255C17.3561 36.3008 17.311 36.1157 17.2478 36.0917C16.902 35.9602 16.3335 35.9862 16.2721 35.6242C17.314 34.9787 18.5568 36.3521 19.7301 36.0917C19.7227 35.5264 18.6894 35.8635 18.6661 35.3125C18.8431 35.3125 19.0208 35.3125 19.1981 35.3125C19.0862 35.0469 18.9377 34.8141 18.5771 34.767C18.256 34.6923 18.4869 35.1034 18.3111 35.1566C17.5855 34.9891 18.0924 33.7384 17.4244 33.5202C17.0941 33.4378 17.1385 33.6842 16.9815 33.754C16.5684 33.7835 16.8522 33.4683 16.5381 33.3644C16.3822 33.3127 16.1809 33.4313 16.0061 33.3644C15.9836 33.3556 16.0287 33.2183 16.0061 33.2085C15.8402 33.1364 15.3511 33.2306 15.3855 32.9748C15.6348 32.5572 16.3209 33.0098 16.6264 33.0527C16.5182 32.1088 14.937 32.4595 14.4098 31.8838C14.9192 31.6718 15.6282 31.9546 16.0948 32.0397C16.1195 31.7062 15.824 31.6543 15.9175 31.2604C15.214 31.2283 14.7659 30.7744 14.1441 31.1046C14.0935 30.5773 13.2157 30.7776 13.0801 30.3253C13.5076 30.1195 13.4367 30.3633 14.0555 30.3253C14.1774 29.4812 13.1551 29.2919 12.5485 29.5461C12.0971 28.8519 12.3187 27.5662 11.7505 26.9746C11.7258 26.797 11.7719 26.6817 11.9275 26.6629C11.5473 26.0885 10.8572 25.7856 10.6869 25.0265ZM14.4995 30.4812C14.9506 30.5526 15.2528 30.7542 15.7409 30.7929C15.3637 30.3974 14.9887 29.9997 14.4995 29.7019C14.4995 29.9617 14.4995 30.2214 14.4995 30.4812ZM16.7162 32.1955C16.922 32.1705 17.0568 32.2082 17.1595 32.2734C16.9881 31.9306 16.9589 31.4627 16.5389 31.3383C16.4683 31.738 16.7254 31.8497 16.7162 32.1955ZM17.0709 33.1306C17.2186 33.1306 17.3664 33.1306 17.5142 33.1306C17.5068 32.877 17.4008 32.7108 17.1595 32.6631C17.1004 32.6631 17.0413 32.6631 16.9826 32.6631C16.9175 32.9014 17.1351 32.8923 17.0709 33.1306ZM18.4009 33.2085C18.4585 32.8459 18.3698 32.6124 17.9575 32.6631C17.9217 33.0062 17.9335 33.3072 18.4009 33.2085ZM18.6669 34.2995C18.6037 34.0433 18.6247 33.7131 18.3122 33.6761C18.3229 33.9783 18.2047 34.3939 18.6669 34.2995ZM19.2875 34.4553C19.4652 34.4871 19.9451 34.6482 20.0855 34.4553C19.896 34.154 19.8657 33.7131 19.1992 33.8319C19.1309 34.1254 19.3067 34.2043 19.2875 34.4553ZM20.7058 35.4683C20.6234 35.0472 20.0885 35.0242 19.6418 34.9229C19.705 35.3609 20.0803 35.5248 20.7058 35.4683ZM21.8588 35.7021C21.8315 35.4118 21.4669 35.0118 21.2382 35.1566C21.5197 35.2729 21.2999 35.8297 21.8588 35.7021ZM24.2528 36.793C23.8971 36.5339 23.5125 36.3008 23.1002 36.0917C23.3488 36.394 23.6632 37.0495 24.2528 36.793ZM21.9475 36.5593C22.2054 36.5456 22.5737 36.833 22.7455 36.6372C22.5135 36.4255 22.3602 36.1446 21.8588 36.1696C21.7853 36.3901 21.9837 36.3716 21.9475 36.5593ZM23.5435 37.6502C23.4567 37.3109 23.1053 37.2038 22.6568 37.1827C22.7248 37.5385 23.1774 37.5564 23.5435 37.6502ZM24.7845 37.4944C24.5251 37.5145 24.5122 37.3184 24.2528 37.3385C24.1368 37.669 24.7468 37.7593 24.7845 37.4944ZM25.7602 37.5723C25.595 37.6466 25.4635 37.3388 25.4055 37.5723C25.4602 37.595 25.7469 37.7661 25.7602 37.5723ZM22.8342 38.1177C22.8441 38.2129 22.8604 38.3022 23.0111 38.2736C23.3259 38.0304 24.3433 38.4054 24.5185 38.0398C23.9746 38.0811 23.235 37.9509 22.8342 38.1177ZM25.3168 38.1957C25.2551 38.1346 24.8221 38.0223 24.7848 38.1957C24.8462 38.2567 25.2795 38.369 25.3168 38.1957ZM25.1391 38.7411C25.452 38.8087 25.6076 38.5509 25.3165 38.5074C25.2954 38.6184 25.1705 38.6389 25.1391 38.7411ZM27.7104 38.8191C27.593 38.8304 27.3805 38.557 27.3558 38.7411C27.4744 38.7294 27.6236 39.058 27.7104 38.8191Z" fill="#140C06"/>
<path fill-rule="evenodd" clip-rule="evenodd" d="M42.163 52.5337C42.0962 52.1633 42.3866 52.1068 42.5177 51.9103C42.8055 51.3321 42.9237 50.6048 43.4934 50.2739C43.4624 50.9223 43.1931 51.3607 42.8727 51.7545C43.0423 52.4321 42.4737 52.9273 42.4294 53.4688C42.3914 53.9315 42.8399 54.4104 42.4294 54.8715C42.0947 54.776 42.1671 54.3227 42.163 53.9364C41.3303 54.3474 41.8409 55.939 41.4537 56.7416C40.8456 56.5299 40.6103 57.0115 40.3011 57.2871C40.2615 57.9274 40.2756 58.6151 39.6804 58.7677C39.4912 58.4836 39.8126 58.0819 39.8577 57.7547C39.1473 57.5472 39.5045 58.9501 38.7051 58.9235C38.6932 58.7316 38.6918 58.5482 38.7934 58.456C38.4468 58.4433 38.0482 59.2774 37.2864 58.9235C37.1907 58.5021 37.5265 58.4595 37.4634 58.0664C37.1582 57.931 36.8645 58.4732 36.3994 58.456C36.0672 58.8651 36.1175 59.6109 35.3354 59.6248C35.1226 59.3618 35.5925 59.1599 35.69 58.9235C35.533 58.7173 35.3306 59.0381 35.2467 58.7677C35.2944 58.5238 35.5777 58.4868 35.8674 58.456C35.9978 58.0508 36.0591 57.5852 36.3107 57.2871C36.7799 57.3576 36.3964 57.6923 36.488 58.0664C38.0918 57.7478 37.5003 55.7143 37.6407 54.4039C38.0678 54.4958 38.019 55.0062 38.0837 55.4169C38.8214 55.3643 38.6958 54.2559 38.527 53.4688C38.1513 53.6331 37.6255 54.338 37.0197 54.5598C36.8187 54.0425 37.6477 53.8429 37.9954 53.4688C38.1561 53.2954 38.0829 53.086 38.35 53.0013C38.3696 52.7503 38.193 52.6714 38.2614 52.3779C38.5 52.324 38.4328 52.5389 38.5274 52.6117C39.233 52.0194 38.268 51.4922 38.3504 50.7415C38.5835 50.7184 38.4198 51.0438 38.7051 50.9753C38.8514 50.6626 38.9814 50.3353 39.1484 50.0402C39.0442 49.6642 38.786 49.4236 38.6164 49.1051C38.1875 49.6889 38.2632 50.7168 37.5524 51.0532C37.3573 50.5954 38.483 49.3814 38.3504 48.6375C38.2761 48.2203 37.9137 48.2648 37.7294 47.8583C37.9562 47.682 38.3548 47.8268 38.5274 47.9362C38.7989 47.5388 38.4897 46.9842 38.2614 46.7674C38.0312 46.8508 38.1369 47.2294 37.9067 47.3128C37.5225 47.2141 37.886 46.905 37.9067 46.6894C37.9946 45.7628 37.9085 44.3627 37.6407 43.6504C37.5354 43.3793 36.8298 43.6361 36.9314 43.1828C36.8988 42.8523 37.3152 43.1147 37.463 43.1049C37.3751 42.8189 37.1364 42.6646 37.1083 42.3257C36.6949 42.2429 36.409 42.5293 36.133 42.3257C36.1027 41.9874 36.3768 41.9169 36.6646 41.8581C36.6587 41.6296 36.4618 41.5688 36.31 41.4685C35.7277 41.6062 35.3812 41.951 34.6253 41.9361C34.65 41.8101 34.5414 41.8016 34.5366 41.7023C34.7114 41.2065 35.7347 41.4568 35.778 40.8451C35.5881 40.4662 34.6582 40.738 34.2706 40.5334C34.4376 39.9019 35.3306 40.2987 35.8663 40.3779C36.0525 40.5523 36.259 40.7081 36.4873 40.8454C36.706 40.8555 36.9144 40.8571 37.0189 40.7675C37.1593 40.6311 37.1375 40.3522 37.1963 40.1441C38.1553 39.6883 39.4953 39.5672 41.0085 39.5987C41.153 39.862 41.4992 39.9467 41.4519 40.3779C40.502 40.7941 39.41 40.2045 38.2599 40.3C38.895 40.6769 39.2766 41.2766 39.1465 42.326C39.4306 42.4919 39.6978 42.6728 40.0328 42.7935C40.3321 42.4237 39.8843 42.0435 39.8559 41.7026C40.4994 41.6968 40.5416 42.587 40.3875 43.0273C40.7869 43.4565 41.0902 43.64 41.4515 44.1183C41.4995 44.1819 41.7057 44.405 41.7179 44.43C42.0215 45.0761 41.818 45.9053 41.9839 46.6898C42.0574 47.0378 42.4346 47.3284 42.3385 47.7028C42.0555 47.7696 42.0644 47.5804 41.8952 47.5469C41.6613 47.8395 41.6477 48.509 41.8952 48.7937C42.5635 48.1132 42.6895 46.7911 42.9592 45.9884C43.6405 46.5794 42.7372 47.6761 42.6045 48.2482C42.5776 48.4917 42.8606 48.0502 42.8709 48.3262C43.2721 50.2382 41.1674 51.1493 42.0729 53.0795C42.2159 52.9029 42.8461 52.3048 42.163 52.5337ZM37.7297 40.6113C37.0259 40.6526 38.1642 40.586 37.7297 40.6113V40.6113ZM37.1981 41.1568C37.2251 41.3929 37.4722 41.4351 37.3751 41.7802C38.1265 41.6653 38.4476 41.9286 38.8824 42.0919C38.8163 41.4487 38.65 40.8935 38.0844 40.6893C38.0862 41.1062 37.4552 40.9675 37.1981 41.1568ZM38.7054 43.5725C38.7058 43.1565 38.4904 42.9299 38.4391 42.5594C38.1723 42.4822 38.0438 42.2838 37.6414 42.3257C37.7512 42.9565 38.019 43.4484 38.7054 43.5725ZM39.1488 43.8842C39.4772 44.0127 39.8108 44.5465 40.1241 44.4296C39.994 44.3621 39.8429 44.3131 39.8581 44.1179C39.9789 43.4403 39.6283 43.177 39.0601 43.1049C39.1517 43.3101 39.1661 43.5832 39.1488 43.8842ZM38.8828 45.2089C38.82 44.6144 38.8769 43.9153 38.1734 43.8842C38.2898 44.4313 38.2163 45.1449 38.8828 45.2089ZM41.5428 46.066C41.5206 45.0985 41.1641 44.4251 40.5674 43.9621C40.3701 45.1225 41.0621 45.5014 41.5428 46.066ZM40.1241 46.144C40.2977 45.2381 39.8263 44.8988 39.3261 44.5855C39.1964 45.4524 39.4868 45.9504 40.1241 46.144ZM38.7937 46.6894C38.9522 46.031 38.7708 45.681 38.3508 45.3647C38.1601 45.9427 38.2721 46.5258 38.7937 46.6894ZM41.3654 47.7804C41.6285 46.8359 41.2243 46.1832 40.5674 45.8323C40.27 46.7725 40.8929 47.2894 41.3654 47.7804ZM39.8581 47.7804C39.8507 47.1112 40.0025 46.3027 39.2371 46.2998C39.0021 47.0323 39.3106 47.5284 39.8581 47.7804ZM40.9221 49.3388C41.2564 48.5385 40.9731 47.8651 40.3901 47.4687C39.9626 48.158 40.2438 49.021 40.9221 49.3388ZM39.5034 49.1051C39.7997 48.5395 39.3852 47.9761 38.9714 47.7804C38.7102 48.4232 38.8658 48.8931 39.5034 49.1051ZM42.4294 49.4947C42.4944 49.2116 42.7416 48.682 42.5177 48.4038C42.4372 48.7775 41.8741 49.2324 42.4294 49.4947ZM41.6314 51.1311C41.7548 50.6944 42.0954 50.448 42.163 49.9622C41.8911 49.682 41.7991 49.2434 41.4537 49.0271C41.0414 49.6622 41.2106 50.6175 41.6314 51.1311ZM40.3011 50.5077C40.8423 50.1096 40.3155 49.3892 39.9464 49.1051C39.6224 49.5379 39.9364 50.2256 40.3011 50.5077ZM38.8828 51.3649C39.0904 51.624 39.1846 51.9824 39.5038 52.1441C39.9715 51.6805 40.1112 50.6295 39.3265 50.3519C39.2467 50.7496 39.008 51.0074 38.8828 51.3649ZM40.8334 52.1441C41.6606 51.9077 40.989 51.1356 40.9221 50.5856C40.8334 50.5856 40.7448 50.5856 40.6557 50.5856C40.3458 51.1256 40.6003 51.6691 40.8334 52.1441ZM40.0354 53.313C40.5408 53.0818 40.6328 52.0782 40.0354 51.8324C39.7997 52.3613 39.523 52.8691 40.0354 53.313ZM41.4541 54.2481C41.5431 54.1445 41.5383 53.9581 41.7205 53.9364C41.6466 53.362 41.7197 52.3756 41.3658 52.222C40.8988 52.7558 41.2298 53.6571 41.4541 54.2481ZM38.7937 53.2351C39.0571 53.2451 39.366 52.5977 38.9711 52.5337C38.9419 52.7935 38.7147 52.8795 38.7937 53.2351ZM39.1488 54.2481C39.7399 54.2078 39.6542 53.3919 39.3257 53.1571C39.0328 53.4312 38.8717 53.8555 39.1488 54.2481ZM40.4788 55.5728C40.6531 55.3621 40.768 55.0997 41.0104 54.9494C40.9472 54.3036 40.9476 53.6019 40.5674 53.2351C39.8899 53.7045 40.2368 54.8445 40.4788 55.5728ZM39.5034 56.6637C39.6372 56.4838 39.8825 56.3121 39.9464 55.9624C39.9944 55.7004 39.8012 54.3396 39.5917 54.4039C38.9711 54.8101 39.4103 55.9676 39.5034 56.6637ZM38.0844 56.1182C38.0585 56.1955 38.1786 56.4325 38.1731 56.5079C38.1199 57.2332 37.8254 58.143 37.8184 58.6897C38.1594 58.392 38.6511 58.2267 38.8824 57.8326C38.7856 57.5569 38.4472 58.1082 38.3508 57.8326C38.1875 57.5316 38.7546 57.4641 38.8824 57.0533C39.0435 56.5377 38.8362 55.8429 38.7937 55.339C38.629 55.5936 38.2167 55.729 38.0844 56.1182ZM40.3901 56.5858C40.8046 56.5601 40.7739 56.1436 41.1881 56.1182C41.1334 55.9069 41.3008 55.5 41.0994 55.4169C40.8231 55.7712 40.437 56.0296 40.3901 56.5858ZM39.4148 57.443C39.5636 57.3105 40.0738 57.0923 39.7694 56.8196C39.6604 56.9878 39.2592 57.3011 39.4148 57.443Z" fill="#030201"/>
<path fill-rule="evenodd" clip-rule="evenodd" d="M33.6511 47.079C33.0393 45.2939 32.8017 42.9224 30.5481 42.8711C29.5122 42.8478 29.0005 43.4815 27.8881 43.2608C27.7016 42.9569 27.8438 42.3646 27.7995 41.9361C27.9964 41.7555 28.1456 41.9627 28.4205 41.9361C29.3035 41.4117 30.4362 40.7847 31.8781 41.001C32.2849 41.3967 32.6226 41.8533 33.1195 42.1698C33.4616 42.8448 33.8491 44.1312 34.0948 45.2868C34.2673 46.0998 34.5311 46.7833 33.6511 47.079Z" fill="#030201"/>
<path fill-rule="evenodd" clip-rule="evenodd" d="M43.6708 42.1699C42.7967 42.4734 41.8066 41.8426 40.8335 41.6244C40.2949 41.5036 39.7677 41.5832 39.3262 41.3127C39.5852 40.8809 40.3639 40.9978 40.9222 41.001C41.6976 41.0052 42.52 41.0841 43.0502 41.1569C43.1787 41.563 43.6852 41.6377 43.6708 42.1699Z" fill="#030201"/>
<path fill-rule="evenodd" clip-rule="evenodd" d="M45.0894 44.1179C44.8456 44.3153 44.6007 44.3909 44.2028 44.2737C43.6058 43.526 42.5514 43.1792 41.5428 42.7932C42.2902 42.0724 43.5212 42.9633 44.3801 43.1048C44.6025 43.4549 44.9908 43.6591 45.0894 44.1179Z" fill="#030201"/>
<path fill-rule="evenodd" clip-rule="evenodd" d="M4.92352 42.8712C5.4086 42.9901 6.1449 42.8887 6.34218 43.2608C7.2621 43.316 7.99618 43.2076 8.73617 43.105C8.49862 43.9148 6.81581 43.7148 6.16485 43.7284C5.89553 43.4456 5.40232 43.3595 4.92352 43.2608C4.92352 43.131 4.92352 43.0011 4.92352 42.8712Z" fill="#030201"/>
<path fill-rule="evenodd" clip-rule="evenodd" d="M42.9614 44.3517C44.5792 44.4884 45.5859 45.1624 45.9761 46.3777C45.5379 46.6556 45.2734 46.0836 44.9121 45.9102C44.6594 45.7891 44.2822 45.8079 44.0254 45.6764C43.561 45.4391 43.3035 44.9455 42.9614 44.6634C42.9614 44.5595 42.9614 44.4556 42.9614 44.3517Z" fill="#030201"/>
<path fill-rule="evenodd" clip-rule="evenodd" d="M31.5234 48.9492C31.5929 49.1216 32.0724 48.9343 31.9667 49.2609C31.5275 49.7246 30.8776 49.6976 30.3707 49.9622C30.1997 50.0515 30.0061 50.2265 29.8391 50.3519C29.6599 50.4863 29.4412 50.6106 29.3071 50.7415C28.9318 51.1071 28.818 51.8178 28.1545 51.9883C26.9667 51.1201 28.8412 50.1694 29.4848 49.8064C28.4914 49.4067 27.406 49.0879 27.5342 47.7024C28.1999 47.6641 28.6299 47.4184 29.2188 47.3128C28.7493 46.9722 28.3111 46.604 27.8002 46.2998C27.7939 45.5151 28.8553 45.6686 29.2188 45.2089C31.9859 44.6192 32.9314 47.7037 31.5234 48.9492Z" fill="#030201"/>
<path fill-rule="evenodd" clip-rule="evenodd" d="M44.114 46.3778C44.1731 46.3778 44.2322 46.3778 44.2913 46.3778C45.4791 46.7629 46.7415 47.497 46.508 48.8714C46.0333 48.821 46.0037 48.3795 45.7987 48.0921C45.1148 47.6281 44.2466 47.3262 44.114 46.3778Z" fill="#030201"/>
<path fill-rule="evenodd" clip-rule="evenodd" d="M23.7208 47.157C23.8094 47.157 23.8981 47.157 23.9871 47.157C23.9007 48.0979 23.0765 48.6713 23.5438 49.6505C22.233 49.2093 23.4636 47.8463 23.7208 47.157Z" fill="#030201"/>
<path fill-rule="evenodd" clip-rule="evenodd" d="M33.4741 47.7803C33.4649 48.2917 32.9602 48.368 32.7648 48.7154C32.1234 48.4735 32.8601 47.4024 33.4741 47.7803Z" fill="#030201"/>
<path fill-rule="evenodd" clip-rule="evenodd" d="M46.6854 50.4299C46.5879 50.6815 46.4464 50.8948 46.3308 51.1312C45.6177 51.2384 45.5051 50.8182 45.4441 50.352C45.0957 49.5153 44.5464 48.8552 44.1141 48.0922C44.0997 48.0016 44.1337 47.9535 44.2028 47.9363C44.5512 47.7922 44.7407 48.375 45.0894 48.4818C45.518 49.2224 46.183 49.7546 46.6854 50.4299Z" fill="#030201"/>
<path fill-rule="evenodd" clip-rule="evenodd" d="M37.4641 48.7155C37.5528 48.7155 37.6415 48.7155 37.7301 48.7155C37.9669 49.9463 36.9783 50.5136 36.2228 51.209C35.8792 51.5256 35.5825 52.0149 35.0705 51.9883C35.0058 51.6081 35.471 51.5129 35.6912 51.287C36.2132 50.7512 36.7289 50.1704 37.2872 49.5726C37.2159 49.1726 37.3817 48.9807 37.4641 48.7155Z" fill="#030201"/>
<path fill-rule="evenodd" clip-rule="evenodd" d="M43.9367 52.6896C44.025 52.6896 44.1137 52.6896 44.2027 52.6896C44.864 53.3201 45.4684 55.012 44.8234 56.0403C44.1698 55.8841 44.4295 55.1094 44.38 54.5598C44.3158 53.8438 44.083 53.1867 43.9367 52.6896Z" fill="#030201"/>
<path fill-rule="evenodd" clip-rule="evenodd" d="M35.2475 53.0792C35.3491 53.6919 34.305 54.2325 33.7401 54.2481C33.7265 53.7815 34.7591 53.5945 34.9815 53.0792C35.0698 53.0792 35.1588 53.0792 35.2475 53.0792Z" fill="#030201"/>
<path fill-rule="evenodd" clip-rule="evenodd" d="M17.2482 55.4949C17.3915 55.4731 17.4008 55.5686 17.5142 55.5728C17.1517 56.2391 17.366 56.9787 17.4255 57.5209C16.4864 57.3699 16.7653 55.8988 17.2482 55.4949Z" fill="#030201"/>
<path fill-rule="evenodd" clip-rule="evenodd" d="M17.8689 55.6507C18.4304 55.9368 17.9801 57.1115 18.2235 57.6768C17.287 57.7371 17.5064 56.0134 17.8689 55.6507Z" fill="#030201"/>
<path fill-rule="evenodd" clip-rule="evenodd" d="M20.7949 55.9624C20.7782 56.2855 20.6216 56.4858 20.2632 56.5079C19.746 57.0797 19.8077 57.8651 19.7312 58.6898C19.3987 59.0697 18.5919 59.2203 18.2239 58.7677C18.1145 58.3492 18.6432 58.2917 18.8446 57.9885C19.067 57.6547 19.0182 57.2138 19.1996 56.8975C19.4933 56.3839 20.0985 55.8608 20.7949 55.9624Z" fill="#030201"/>
<path fill-rule="evenodd" clip-rule="evenodd" d="M27.0011 56.7417C27.5782 57.1378 27.2971 57.4011 27.0898 58.3001C26.8663 59.2706 26.7337 60.0979 26.1145 60.7158C25.1831 61.6457 23.6898 61.8327 22.3018 61.4171C21.9963 61.0184 22.3864 60.845 22.6565 60.6379C22.7928 60.5333 23.0019 60.5866 23.1885 60.482C23.6976 60.197 24.4342 59.4723 25.1388 59.3132C25.8392 58.5255 26.5116 57.7141 27.0011 56.7417ZM25.9375 59.6249C25.9298 59.4547 26.1802 59.121 26.0262 59.0794C25.9885 59.2749 25.5418 59.5086 25.9375 59.6249ZM24.1642 60.7158C24.6877 61.0635 25.393 60.4548 25.4942 59.9366C24.868 59.7684 24.3814 60.2772 24.1642 60.7158ZM23.3662 61.1054C23.5683 61.1272 23.6994 61.0866 23.7209 60.9496C23.4951 60.9093 23.3769 60.8168 23.3662 61.1054Z" fill="#030201"/>
<path fill-rule="evenodd" clip-rule="evenodd" d="M42.5178 56.7417C42.6065 56.7417 42.6951 56.7417 42.7842 56.7417C43.3513 57.8475 42.7853 59.6749 41.7202 60.0924C41.48 59.7635 41.9345 59.4784 42.0748 59.2352C42.1864 58.4765 42.4321 57.8352 42.4295 56.9754C42.4048 56.8498 42.5134 56.8413 42.5178 56.7417Z" fill="#030201"/>
<path fill-rule="evenodd" clip-rule="evenodd" d="M41.6315 58.6898C41.7582 58.9865 41.5151 59.3466 41.3655 59.7028C41.1837 60.1359 40.5878 61.2112 39.8582 61.0275C40.3152 60.2346 40.8146 59.4784 41.2768 58.6898C41.395 58.6898 41.5133 58.6898 41.6315 58.6898Z" fill="#030201"/>
<path fill-rule="evenodd" clip-rule="evenodd" d="M17.3369 59.3131C17.4396 59.3004 17.4947 59.3303 17.5139 59.391C17.9073 59.6391 17.5575 60.0829 17.5139 60.404C17.372 61.4518 18.1434 62.7525 19.1989 62.8197C19.7438 62.8544 19.7365 62.544 20.3512 62.5859C20.3734 63.1863 19.4184 63.5765 18.4009 63.5207C17.4729 63.1304 16.8821 62.1713 16.8936 61.0271C16.8999 60.4034 17.1866 59.8443 17.3369 59.3131Z" fill="#030201"/>
<path fill-rule="evenodd" clip-rule="evenodd" d="M37.6414 59.6248C37.7474 59.9716 37.2065 60.1505 36.932 60.2482C36.3812 60.4443 35.4328 60.5534 34.8923 60.482C35.353 59.9563 36.7174 60.095 37.2863 59.6248C37.4049 59.6248 37.5231 59.6248 37.6414 59.6248Z" fill="#030201"/>
<path fill-rule="evenodd" clip-rule="evenodd" d="M39.6808 59.7027C39.7011 60.1673 39.1629 60.4063 38.8828 60.6378C38.6128 60.8612 38.3538 61.3261 37.7302 61.1833C38.0689 60.4937 38.9212 60.256 39.3262 59.6248C39.5116 59.592 39.5611 59.6784 39.6808 59.7027Z" fill="#030201"/>
<path fill-rule="evenodd" clip-rule="evenodd" d="M18.0462 59.8586C18.2231 59.8586 18.4009 59.8586 18.5778 59.8586C18.6561 60.907 19.2269 61.5223 19.4645 62.4301C18.0381 62.4113 18.0248 61.1502 18.0462 59.8586Z" fill="#030201"/>
<path fill-rule="evenodd" clip-rule="evenodd" d="M37.2868 61.495C36.2538 61.4629 34.6467 61.3272 33.6511 61.7288C32.695 62.5009 31.6919 63.6406 29.8388 63.3652C29.831 63.2418 29.8813 63.0678 29.7501 63.0535C29.9345 62.5581 30.7798 62.4594 31.3461 62.1964C32.0499 61.8691 33.1848 61.2324 34.1834 61.1054C34.7184 61.0376 35.5315 61.1015 36.1341 61.1054C36.5985 61.1083 37.3141 60.8986 37.2868 61.495Z" fill="#030201"/>
<path fill-rule="evenodd" clip-rule="evenodd" d="M40.3901 62.2743C41.0802 62.5769 41.283 63.3077 41.8974 63.6769C41.8941 64.4276 41.6639 64.9782 41.0994 65.2354C41.0854 65.1441 40.9376 65.1698 40.8334 65.1574C40.5482 64.7733 40.8316 64.4438 41.0104 64.0668C40.7495 63.5597 40.1256 62.9866 40.3901 62.2743Z" fill="#030201"/>
<path fill-rule="evenodd" clip-rule="evenodd" d="M39.1487 66.4042C38.4701 66.4698 38.1793 65.5494 37.7297 65.1571C37.3385 65.1373 37.2317 64.8675 36.9321 64.7678C36.324 64.7883 35.3176 65.2438 34.5381 65.0795C34.6969 64.7373 35.1916 64.8263 35.6021 64.6899C36.341 64.4445 36.993 63.9565 37.9961 64.3782C38.2262 64.475 39.1517 65.2513 39.237 65.5471C39.308 65.7916 39.2644 66.1111 39.1487 66.4042Z" fill="#030201"/>
<path fill-rule="evenodd" clip-rule="evenodd" d="M24.7844 78.6383C25.1576 78.8555 24.9078 79.274 24.9618 79.5734C25.0652 80.1481 25.4394 80.5936 25.5824 81.054C24.7327 80.827 24.3119 79.5234 24.7844 78.6383Z" fill="#030201"/>
<path fill-rule="evenodd" clip-rule="evenodd" d="M19.4648 81.5994C19.2376 82.2296 19.1881 82.6072 19.3762 83.3134C18.072 83.4128 18.5645 81.5657 19.4648 81.5994Z" fill="#030201"/>
<path fill-rule="evenodd" clip-rule="evenodd" d="M25.2281 106.769C25.4342 106.744 25.5692 106.782 25.6721 106.847C25.6229 107.103 25.1774 107.158 25.2281 106.769Z" fill="#030201"/>
<path fill-rule="evenodd" clip-rule="evenodd" d="M9.0614 60.021C9.1236 60.0116 9.12761 60.053 9.17682 60.0548C9.15486 60.1482 9.1361 60.2444 8.98446 60.2237C8.96602 60.1175 9.03912 60.0917 9.0614 60.021Z" fill="#030201"/>
<path fill-rule="evenodd" clip-rule="evenodd" d="M24.6961 41.8581C26.1277 41.4542 26.7916 40.3753 28.4201 40.1438C28.2827 40.8029 27.4045 40.9091 26.9128 41.2347C26.4536 41.539 25.868 41.9682 25.4938 42.3257C25.3582 42.4555 25.3504 42.6529 25.2278 42.7932C24.8628 43.2111 24.3241 43.54 23.8978 43.8841C23.6617 44.8196 22.734 45.1472 22.3904 45.9881C22.1026 46.0465 22.076 46.3355 21.7698 46.3777C21.4942 46.941 21.3342 47.6057 20.7054 47.8583C19.8971 49.572 18.4396 51.2668 17.6911 53.1571C17.5707 53.461 17.4902 54.0097 17.3365 54.4818C17.1052 55.1909 16.8322 55.6296 16.6268 56.5079C16.5665 56.7663 16.4055 57.0666 16.5385 57.5209C16.6404 57.8712 17.1883 58.1673 17.0701 58.6118C16.6415 58.7397 15.9584 58.3917 15.8291 58.0663C15.5336 57.3261 15.5284 56.7173 15.7405 55.8845C16.0283 54.7536 16.486 53.6279 16.9818 52.5337C17.0509 52.3811 16.9929 52.2191 17.0701 52.0662C17.7857 50.6506 18.8567 48.9901 19.8188 47.6245C20.7812 46.2579 21.8891 45.0595 22.8334 43.9621C22.4858 43.8595 21.9301 43.7653 21.5921 43.8841C21.6165 44.3744 22.2478 43.8608 22.3901 44.1958C22.2744 44.4319 21.9741 44.5059 21.5921 44.5075C21.4561 45.2712 20.984 45.7394 20.0848 45.8323C19.8897 45.5209 20.4583 45.3033 20.6167 45.053C19.0684 45.1205 19.2993 46.7524 18.0454 47.079C17.7569 47.0729 17.5677 46.9794 17.5134 46.7673C17.1691 47.1667 16.8333 47.8992 16.0061 47.6245C15.8347 46.7466 16.7697 46.8407 16.9818 46.2998C15.9887 46.0761 14.9399 46.156 14.0554 46.3777C13.8323 46.1823 14.225 46.1313 14.3218 45.9881C13.2962 45.9163 12.4295 45.6105 11.7505 45.8323C11.4553 45.8858 11.6075 45.6712 11.6618 45.5985C10.8801 45.7293 9.98381 46.0439 9.17916 45.9102C9.34615 45.4433 10.0551 45.6131 10.5092 45.5206C11.0545 45.4095 11.5883 45.1394 12.1052 45.1309C12.2943 45.0946 12.274 45.2423 12.2821 45.3647C12.8865 45.2462 13.3483 45.003 13.9671 44.8972C12.6512 44.3738 11.4812 44.9306 9.97679 45.053C9.17141 45.1186 8.3276 45.5293 7.67184 45.2089C7.84067 44.9514 8.29102 44.9566 8.64717 44.8972C9.47472 44.7588 10.7305 44.7192 11.5732 44.5075C11.6256 44.228 11.0434 44.5056 11.1298 44.1958C10.265 44.4744 9.05946 44.454 8.02687 44.5855C7.9648 44.2971 8.16726 44.241 8.4702 44.2738C8.43067 44.0488 7.8004 44.3429 7.7605 44.1179C7.7605 44.04 7.7605 43.9621 7.7605 43.8841C7.79154 43.5997 8.33277 43.7634 8.5585 43.6504C9.11082 43.4864 9.54639 43.2195 10.2435 43.1828C10.3455 43.275 10.3436 43.4585 10.3322 43.6504C11.3489 43.5309 11.9308 43.0293 12.9035 42.8711C12.6819 43.5075 11.8222 43.5832 11.2185 43.8841C12.1366 44.4916 13.3247 43.9845 14.1445 43.6504C13.9254 43.4757 12.8012 43.916 12.7258 43.4166C12.9538 43.1137 13.6154 43.2744 14.0558 43.1828C14.5889 43.0721 15.3939 42.7692 16.2725 42.7932C16.5654 42.7387 16.7376 42.5783 16.9822 42.4815C16.9822 42.6374 16.9822 42.7932 16.9822 42.9491C18.467 42.9029 19.2624 42.252 20.7058 42.1698C20.9733 42.5013 20.357 42.6101 20.1742 42.7932C20.6422 42.85 20.8776 42.4893 21.2382 42.3257C21.9198 42.0159 22.792 41.9558 23.5435 41.7023C24.3219 41.4396 25.0342 41.1071 25.6715 40.7672C25.6245 40.7045 25.5791 40.6406 25.5828 40.5334C25.0098 40.5243 24.0511 40.849 23.5435 41.1568C22.055 41.411 20.2968 41.8873 18.6668 42.014C16.2581 42.2013 13.6886 41.9938 11.3075 42.1698C9.40452 42.3107 7.55546 42.3179 5.36688 42.014C3.51154 41.7565 2.14571 41.1023 0.756234 40.3776C0.290736 40.7769 0.826059 41.226 1.0226 41.5464C1.69905 42.6513 2.5654 43.6867 3.85992 44.5075C4.23639 44.7459 4.61174 45.2329 5.10125 45.5206C5.48104 45.7439 5.85676 45.8342 6.34221 46.066C7.70804 46.718 9.6635 47.4875 12.0169 47.3128C12.8828 47.2485 13.7237 46.9777 14.6768 46.8453C15.0951 46.6777 15.6289 46.2485 16.0955 46.3777C15.9071 47.7206 13.7115 48.0498 12.1055 48.17C11.6467 48.2044 11.2026 48.2096 10.6869 48.17C7.08258 47.8937 3.58764 45.8206 1.55386 43.4945C0.799828 42.6318 -0.530536 40.899 0.223867 39.6762C1.14267 39.4327 1.46113 40.1003 2.08586 40.3776C2.25876 40.4542 2.59938 40.4409 2.88386 40.5331C3.50009 40.7334 4.60842 41.1136 5.54348 41.2344C6.78074 41.3945 8.23117 41.2159 9.53383 41.3123C11.2891 41.4422 13.4584 41.225 15.5628 41.2344C18.5157 41.2477 22.0809 40.8513 24.6067 40.0655C25.0693 39.9217 25.7986 39.5256 26.6461 39.598C26.6161 40.0389 26.1052 40.0577 25.8484 40.2993C25.7871 40.613 26.2216 40.4905 26.2031 40.7669C25.9574 41.3565 25.0608 41.3737 24.6961 41.8581ZM23.9868 42.014C24.1398 42.0338 24.5118 41.8672 24.2528 41.7802C24.2432 41.9273 23.9595 41.8344 23.9868 42.014ZM23.1001 42.7932C23.3809 42.7283 23.5509 42.5659 23.7208 42.4036C23.3281 42.3701 23.1593 42.5335 23.1001 42.7932ZM19.2875 43.1049C20.0969 42.9708 19.2251 42.8757 19.2875 43.1049V43.1049ZM23.2771 43.2608C23.4345 43.2429 23.7212 43.3393 23.6321 43.1049C23.467 43.1156 23.3358 43.1562 23.2771 43.2608ZM21.1495 43.4166C21.4986 43.4637 21.6098 43.3017 21.7705 43.1828C21.5056 43.2101 21.23 43.228 21.1495 43.4166ZM14.8542 43.6504C15.1375 43.4835 15.6049 43.4789 15.8299 43.2608C15.3869 43.2377 14.7533 43.4549 14.8542 43.6504ZM15.5631 43.8841C15.9725 43.8361 16.0737 44.0591 16.4498 44.04C16.5732 43.7588 17.1347 43.863 17.0705 43.4166C16.4945 43.4929 15.9137 43.4617 15.5631 43.8841ZM17.1595 44.1179C17.7517 44.3153 18.164 43.9897 18.4008 43.6504C17.7203 43.5721 17.3431 43.7598 17.1595 44.1179ZM18.5782 44.1958C18.8445 44.1958 19.1102 44.1958 19.3762 44.1958C19.3832 43.9163 19.7194 43.926 19.8195 43.7283C19.1209 43.6338 18.788 43.8608 18.5782 44.1958ZM20.1742 44.1958C20.6419 44.2432 20.923 44.1267 20.9722 43.8062C20.4786 43.7364 20.3522 43.989 20.1742 44.1958ZM9.0022 44.1179C8.20753 44.1978 9.27263 44.1978 9.5342 44.1179C9.52016 44.0264 9.54935 43.8968 9.44553 43.8841C9.36462 44.0212 9.13483 44.0267 9.0022 44.1179ZM13.5242 44.3517C14.2963 44.4829 15.2129 44.7546 15.6522 44.1958C14.8361 43.9309 14.2121 43.9958 13.5242 44.3517ZM15.8295 44.7413C16.2839 44.8894 17.1078 44.8754 17.1595 44.4296C16.5451 44.3832 16.152 44.5312 15.8295 44.7413ZM17.4255 44.9751C18.0336 45.042 18.249 44.7634 18.5782 44.5855C18.017 44.5598 17.506 44.5783 17.4255 44.9751ZM18.9328 44.9751C19.467 45.0293 19.7131 44.8299 19.9085 44.5855C19.4471 44.5962 19.1556 44.7553 18.9328 44.9751ZM20.4402 44.7413C20.7993 44.6335 20.7206 44.9105 20.9722 44.8972C20.9522 44.7498 21.0723 44.7251 21.0605 44.5855C20.7808 44.5731 20.5255 44.5825 20.4402 44.7413ZM13.3465 45.5206C14.4984 45.7348 15.5048 45.8387 16.0951 45.1309C15.101 44.9248 13.9306 45.1183 13.3465 45.5206ZM15.8295 45.8323C16.0959 45.9358 16.5078 45.9115 16.8935 45.9102C16.8119 45.5007 17.2992 45.5913 17.3368 45.2868C16.5259 45.1975 16.3478 45.6644 15.8295 45.8323ZM17.7798 45.8323C18.4596 45.7673 18.945 45.8839 19.1988 45.3647C18.5541 45.3569 17.5086 45.2793 17.7798 45.8323ZM17.6028 46.6115C17.6195 46.3923 17.8921 46.3982 17.9575 46.2219C17.8393 46.2219 17.7211 46.2219 17.6028 46.2219C17.7181 46.4154 17.3427 46.5453 17.6028 46.6115Z" fill="#030201"/>
<path fill-rule="evenodd" clip-rule="evenodd" d="M26.1148 52.0662C26.0254 51.8938 25.8096 52.2581 25.4937 52.1442C25.4937 52.0403 25.4937 51.9364 25.4937 51.8325C23.9181 51.8779 23.822 50.4353 23.9868 49.183C24.1516 49.1723 24.2831 49.1317 24.3415 49.0272C24.3795 48.7083 24.1538 48.6204 23.9868 48.4817C24.0596 46.6236 25.1971 45.7014 26.2034 44.6634C26.4558 44.7673 26.1347 45.0099 26.1148 45.131C26.5644 44.8508 27.3406 44.8579 27.3557 44.1959C27.5944 44.142 27.5272 44.3569 27.6221 44.4297C27.9601 44.4264 28.1548 44.0199 28.5084 44.2738C28.4234 44.8384 27.6775 44.9498 27.2674 45.2868C26.8888 45.5979 26.7063 46.0037 26.2917 46.2998C25.6556 47.9031 25.8244 49.6405 26.7351 50.8974C26.9656 51.2152 27.4093 51.3217 27.3557 51.7545C26.9892 51.848 26.4798 51.8159 26.6464 52.3779C26.3645 52.3899 26.2563 52.5546 25.9371 52.5338C25.9386 52.3273 25.8883 52.075 26.1148 52.0662ZM24.7844 47.157C25.1768 47.1382 25.3064 46.8882 25.4054 46.6115C25.0729 46.683 24.8661 46.8648 24.7844 47.157ZM24.4297 47.9362C24.5823 47.9405 24.657 47.8762 24.6961 47.7804C24.5435 47.7762 24.4689 47.8405 24.4297 47.9362ZM24.8735 49.183C25.1321 49.2977 25.1321 48.8347 24.8735 48.9493C24.8735 49.0272 24.8735 49.1051 24.8735 49.183ZM24.2528 49.6506C24.4996 49.7756 24.4977 49.3142 24.3415 49.3389C24.3134 49.4444 24.2151 49.4876 24.2528 49.6506ZM25.4054 50.274C25.1601 50.5701 25.7306 50.6165 25.4054 50.274V50.274ZM24.5188 50.6636C24.4456 50.8837 24.644 50.8655 24.6075 51.0532C24.8579 51.1175 24.8372 50.9435 25.0508 50.9753C25.0508 50.8714 25.0508 50.7675 25.0508 50.6636C24.8849 50.511 24.726 50.6396 24.5188 50.6636ZM25.1391 51.4428C25.4505 51.4292 25.4309 51.7062 25.6711 51.7545C25.6101 51.4932 25.8196 51.4698 26.0257 51.4428C26.0612 51.1519 25.9552 50.9857 25.6711 50.9753C25.5577 51.187 25.217 51.1996 25.1391 51.4428Z" fill="#030201"/>
<path fill-rule="evenodd" clip-rule="evenodd" d="M45.5327 58.2222C44.7602 58.1411 43.9622 58.7115 43.0501 58.7677C42.9688 58.4365 43.2625 58.4349 43.5821 58.456C43.4276 57.241 43.5211 55.8082 43.3157 54.6377C44.5094 54.9689 44.3113 56.691 44.1137 57.8326C44.6413 57.8028 44.9195 57.5537 44.9117 57.0534C45.529 56.5829 46.9665 56.8332 47.0397 55.8845C47.2994 55.916 47.3992 56.0881 47.5717 56.1962C47.7475 56.0907 47.9167 55.9797 47.8377 55.6507C48.2075 55.9076 48.5053 55.8874 48.9903 55.7287C49.1126 55.628 49.0779 55.3904 49.079 55.1832C49.3945 55.2949 49.7222 55.5456 50.143 55.3391C50.2088 55.0537 49.9247 54.9062 50.143 54.7157C50.5014 54.6605 50.6491 54.7903 50.5863 55.1053C50.7452 55.115 50.7733 55.0098 50.941 55.0274C51.2347 55.0001 51.0799 54.5783 51.118 54.326C51.2953 54.326 51.4726 54.326 51.65 54.326C51.5539 54.7507 51.988 54.7559 51.7386 55.1053C52.4273 55.1913 51.9825 54.2806 52.3593 54.0923C52.7406 54.0686 52.5459 54.5517 52.714 54.7157C53.7325 54.866 52.9563 53.9104 53.4233 53.6247C53.8245 53.6358 53.7798 54.0384 53.778 54.404C54.1071 54.4335 54.3827 54.416 54.3986 54.1702C54.389 53.8942 54.1057 54.3358 54.1326 54.0923C54.133 53.8069 54.5475 53.8854 54.3986 53.4689C55.4556 53.6338 56.3072 53.0429 57.1473 52.7676C57.2123 52.8403 57.3087 52.8857 57.4133 52.9234C57.5149 53.1685 57.274 53.1127 57.2363 53.2351C57.3024 53.4111 57.7336 53.2656 57.9456 53.313C58.2889 52.9737 57.775 52.3435 58.4773 52.3779C58.6642 52.5513 58.3838 52.7536 58.4773 53.0793C58.8423 53.1403 58.9321 52.9598 59.2753 53.0013C59.3832 52.5627 59.0407 52.213 59.2753 51.9104C59.733 51.95 59.651 52.4637 59.8073 52.7676C60.1682 52.587 59.7075 52.1649 59.9842 51.9104C60.3799 51.9266 60.1963 52.4513 60.5162 52.5338C60.7316 52.4374 60.9862 52.3757 60.9592 52.0662C61.097 51.7377 60.4671 52.0834 60.6049 51.7545C60.6016 51.5182 60.916 51.5604 61.1365 51.5208C61.1343 51.7042 61.2891 51.7503 61.2252 51.9883C61.5252 52.0182 61.3645 51.6435 61.7568 51.7545C61.6574 51.2185 61.3427 50.8717 60.9588 50.5857C59.3366 50.4831 58.0602 51.3013 56.7028 51.5987C56.5565 51.6308 56.3227 51.5597 56.1712 51.5987C55.4094 51.7948 54.3388 52.2714 53.5112 52.5338C52.8015 52.7585 51.9725 52.8578 51.3829 53.2351C50.6288 53.2117 49.9786 53.6332 49.4326 53.8585C48.8703 54.0903 48.2027 54.1322 47.6589 54.326C47.4032 54.4173 47.2041 54.4978 46.7726 54.6377C46.3152 54.7858 45.72 55.3076 45.2653 54.9494C45.3694 54.6517 45.7836 54.6257 46.1519 54.5598C46.3182 54.4111 46.0991 54.4189 46.1519 54.1702C46.5919 54.1682 46.6126 54.439 46.9495 54.1702C46.8428 54.0566 46.562 54.0955 46.6835 53.7806C46.3141 54.0445 46.0658 53.9601 45.5309 54.0143C45.2416 53.5676 45.1988 52.9039 44.8216 52.5338C44.7307 51.6266 44.1743 51.1286 43.9353 50.3519C44.8522 50.3487 45.1138 51.2036 45.5309 51.9104C45.8874 52.514 46.2605 52.7783 45.9742 53.7026C47.4834 53.052 49.0653 52.2711 50.6735 51.5987C50.9355 51.4893 51.1183 51.3347 51.3829 51.2091C52.4047 50.7243 53.6549 50.297 54.7522 49.8064C55.2975 49.5629 55.8882 49.3236 56.4372 49.1051C57.0527 48.86 57.6844 48.5152 58.1219 48.4038C59.2612 48.1135 59.88 48.7074 60.0725 49.6506C60.4863 49.6506 60.9001 49.6506 61.3139 49.6506C62.2681 50.3211 62.8197 51.0951 62.8212 52.4559C62.772 52.6286 62.9904 52.5669 62.9982 52.6896C62.8666 53.2494 62.5722 53.666 62.4662 54.2481C61.4879 54.7338 60.357 54.7338 59.2742 54.9494C58.8526 55.0335 58.0258 55.3274 57.4122 55.4949C56.7919 55.6641 56.1974 55.8124 55.5502 55.9624C54.9635 56.0985 54.4345 56.3452 53.8655 56.5079C52.476 56.905 50.8065 57.0823 49.6092 57.6768C49.1304 57.7235 48.6878 57.8021 48.4565 58.0664C47.0995 58.2839 45.8009 58.5456 44.4665 59.0015C44.0173 59.1551 43.4941 59.6447 43.0479 59.0794C43.0549 58.8258 43.4498 58.9132 43.6685 58.8456C44.1868 58.546 44.8622 58.3865 45.5327 58.2222ZM58.3007 48.9493C54.9982 50.2808 51.7394 51.651 48.5474 53.0793C48.9793 53.0114 49.1355 53.1857 49.434 53.2351C49.7108 52.7919 50.2609 53.0724 50.764 52.8455C50.7544 52.2848 51.5728 52.7172 51.3847 52.1442C51.7083 52.1818 52.1003 52.4523 52.4491 52.2221C52.5799 51.8474 51.9392 52.1503 52.0057 51.8325C52.0807 51.7166 52.291 51.7198 52.4491 51.6766C52.7321 51.6877 52.7121 51.9646 52.9807 51.9883C53.1388 51.9451 53.349 51.9481 53.424 51.8325C53.2582 51.7445 52.997 51.7403 53.0694 51.4428C53.4868 51.2974 53.8256 51.9185 53.956 51.5208C53.8596 51.3454 53.3982 51.4912 53.5127 51.1312C54.096 51.1802 54.2383 51.2143 54.5767 50.9753C54.7644 51.111 55.0459 51.4412 55.3747 51.2091C55.3614 50.8831 54.7961 51.0422 54.9314 50.5857C55.32 50.6334 55.8058 50.5961 55.7294 51.0532C56.0002 51.1094 56.0522 50.9734 56.261 50.9753C56.2348 50.7126 55.8683 50.7493 55.8177 50.5078C55.9857 50.3694 56.4036 50.4509 56.7043 50.4298C56.8458 50.4873 56.684 50.8113 56.9703 50.7415C57.0837 50.737 57.0933 50.6415 57.2367 50.6636C57.2415 50.3217 56.943 50.2461 56.882 49.9623C57.4088 49.8886 57.5333 50.1691 57.6796 50.4298C58.1282 50.486 58.3506 50.3438 58.5663 50.1961C58.5172 50.0574 58.5209 49.8724 58.3893 49.8064C58.3192 50.0564 58.3155 50.3649 57.8573 50.274C57.9545 49.9292 57.7074 49.8866 57.68 49.6506C57.9903 49.5412 58.2475 49.8691 58.3897 49.6506C58.1525 49.559 57.9083 49.2464 58.2124 49.1051C58.4252 49.1561 58.7411 49.5178 59.0104 49.261C58.8042 49.1298 58.6324 48.9694 58.3007 48.9493ZM54.5767 51.4428C54.4877 51.4432 54.471 51.3799 54.3994 51.3649C54.157 51.4906 54.529 51.6263 54.5767 51.4428ZM61.4927 53.0013C61.8987 53.0176 61.963 52.3273 61.7587 52.0662C61.5038 52.1825 61.2204 52.6809 61.4927 53.0013ZM60.1627 53.2351C60.1926 53.4767 59.9573 53.6072 60.1627 53.7806C59.6787 54.2994 58.8519 54.0348 58.4776 54.6377C59.1548 54.4277 60.0223 54.3845 60.6943 54.1702C60.8576 53.7426 60.9378 53.2413 61.049 52.7676C60.995 52.7228 60.6282 52.5851 60.606 52.7676C61.0279 52.9293 60.4113 53.1825 60.1627 53.2351ZM47.5721 53.4689C47.9537 53.3672 47.9204 53.6299 48.0154 53.7806C48.3992 53.8062 48.6024 53.6731 48.7247 53.4689C48.4377 53.4614 48.3793 53.2526 48.2814 53.0793C48.1462 53.2978 47.7269 53.2672 47.5721 53.4689ZM56.084 53.7806C56.3929 53.6884 56.8927 53.7643 56.7934 53.313C56.5004 53.4192 56.0312 53.3705 56.084 53.7806ZM61.3153 53.7806C61.3379 53.6186 61.7047 53.7595 61.7583 53.6247C61.7417 53.4056 61.6042 53.2929 61.3153 53.313C61.2459 53.3672 61.1177 53.7478 61.3153 53.7806ZM59.276 53.9364C59.2919 53.7166 59.6975 53.8393 59.6307 53.5468C59.4164 53.5465 59.064 53.8195 59.276 53.9364ZM47.2174 53.7026C46.7674 53.4903 46.8875 53.9747 47.2174 53.7026V53.7026ZM57.8573 53.6247C57.7284 53.6673 57.3992 53.5338 57.414 53.7026C57.5426 53.6601 57.8721 53.7939 57.8573 53.6247ZM54.8427 54.0923C55.2417 54.0533 55.6695 54.0397 55.7294 53.7026C55.409 53.8108 54.9055 53.7578 54.8427 54.0923ZM47.3947 54.0923C47.4187 53.9315 47.7874 54.0738 47.7494 53.8585C47.5935 53.9033 47.2285 53.7643 47.2178 53.9364C47.3345 53.9374 47.2983 54.0731 47.3947 54.0923ZM54.9314 54.5598C55.0466 54.3497 55.5856 54.5118 55.6407 54.2481C55.3562 54.2621 54.767 54.4101 54.9314 54.5598ZM53.7787 54.9494C53.9571 54.7949 54.4618 54.9264 54.3994 54.5598C54.1633 54.616 53.5219 54.7186 53.7787 54.9494ZM55.6407 55.417C56.5894 55.2377 57.4336 54.9666 58.212 54.6377C57.2452 54.8215 56.2303 54.7738 55.6407 55.417ZM54.9314 55.1832C55.115 55.0588 55.3887 55.014 55.463 54.7936C55.2339 54.5679 54.7958 55.1014 54.9314 55.1832ZM52.5374 55.417C52.6401 55.4822 52.7753 55.5196 52.9807 55.4949C52.9098 55.1728 53.3029 55.2585 53.2467 54.9494C52.8846 54.9949 52.5008 55.0212 52.5374 55.417ZM51.562 55.6507C51.753 55.7956 52.165 55.6624 52.0937 55.3391C51.8144 55.3527 51.5654 55.3939 51.562 55.6507ZM54.3994 55.7287C54.5538 55.5527 55.0511 55.6777 55.1087 55.417C54.8401 55.4449 54.2508 55.593 54.3994 55.7287ZM50.4094 56.0404C50.8021 56.0482 51.0729 55.9482 51.1187 55.6507C50.6913 55.6131 50.5069 55.7887 50.4094 56.0404ZM52.2714 55.8845C52.3445 56.1047 52.1465 56.0865 52.1827 56.2741C52.7435 56.1436 53.3664 56.0676 53.7787 55.8066C53.2618 55.7897 52.7431 56.1141 52.2714 55.8845ZM48.3701 56.2741C48.6168 56.1793 48.8969 56.1137 49.0794 55.9624C48.7502 55.9848 48.4702 56.0504 48.3701 56.2741ZM49.434 56.3521C49.7762 56.367 49.9435 56.2284 49.9657 55.9624C49.6978 56.0124 49.4544 56.0842 49.434 56.3521ZM51.3843 56.5079C51.7006 56.5004 51.9932 56.4715 52.0937 56.2741C51.8136 56.3125 52.0608 55.8874 51.7394 55.9624C51.572 56.1011 51.3467 56.1891 51.3843 56.5079ZM48.1927 56.7417C48.5363 56.7287 49.2031 56.5949 48.9021 56.2741C48.7402 56.4956 48.3641 56.5287 48.1927 56.7417ZM49.877 56.8975C50.4559 56.8608 50.9691 56.766 51.0297 56.2741C50.4179 56.2819 50.0259 56.4826 49.877 56.8975ZM47.4834 56.6638C47.6131 56.5664 48.0542 56.4728 47.6603 56.3521C47.7058 56.5069 47.1716 56.5303 47.4834 56.6638ZM49.0794 57.2092C49.1355 57.0511 49.4939 57.1579 49.5227 56.9755C49.1806 56.8878 49.8641 56.6735 49.5227 56.5858C49.2733 56.656 48.8876 57.0099 49.0794 57.2092ZM46.2421 57.0534C46.4441 56.9969 46.6954 56.9839 46.8631 56.8975C46.8679 56.7634 46.7944 56.6979 46.6858 56.6638C46.5982 56.8469 46.2417 56.793 46.2421 57.0534ZM47.6603 56.8975C47.5854 56.8313 47.4073 56.954 47.3944 56.9755C47.3109 57.1121 47.7217 56.9514 47.6603 56.8975ZM47.7494 57.5209C48.2518 57.5706 48.7879 57.2414 48.5474 56.8975C48.3316 57.1495 47.6906 57.0281 47.7494 57.5209ZM45.2667 57.443C45.5774 57.4875 45.8449 57.0966 45.5327 57.0534C45.4529 57.1914 45.3185 57.281 45.2667 57.443ZM45.9761 57.5988C46.3004 57.5982 46.4512 57.445 46.5967 57.2872C46.3806 57.3833 46.0211 57.3531 45.9761 57.5988ZM45.6214 58.1443C46.2627 57.9547 47.152 57.9826 47.3947 57.443C47.3748 57.3826 47.3921 57.2894 47.3064 57.2872C46.9713 57.7726 46.1031 57.7885 45.6214 58.1443ZM43.8481 58.3781C43.9282 58.2148 44.3483 58.3505 44.3797 58.1443C44.0756 58.0648 43.6486 58.2726 43.8481 58.3781Z" fill="#0C0703"/>
<path fill-rule="evenodd" clip-rule="evenodd" d="M26.3807 81.2098C26.6604 82.0751 25.0404 82.0852 24.2528 81.8332C24.0355 81.4523 23.6461 81.2231 23.6321 80.6643C23.1688 80.8806 22.6043 81.0079 22.2131 81.2877C21.1941 81.3014 21.022 82.0592 20.1737 82.2228C19.7038 80.9309 22.0527 80.8251 22.922 80.1968C22.4953 79.6111 22.7979 78.3841 22.3014 77.8591C19.8604 78.2331 18.0047 79.1224 17.3364 81.054C17.6109 80.5942 17.881 80.1299 18.7551 80.1968C18.567 80.6978 18.2179 81.204 18.134 81.9111C18.0627 82.5173 18.3239 83.205 17.9571 83.7034C17.898 83.7034 17.8389 83.7034 17.7797 83.7034C17.3601 83.5267 17.4779 82.878 17.0704 82.6904C17.0704 82.5348 17.0704 82.3787 17.0704 82.2231C16.7409 82.1228 16.5425 81.9079 16.3611 81.6777C16.2687 81.0247 16.5192 80.6734 16.5384 80.1189C17.0431 79.6445 17.2356 79.0026 17.7794 78.6383C17.9364 78.5334 18.2766 78.4445 18.4887 78.3266C19.1844 77.9396 20.4154 77.5425 21.592 77.3915C22.0154 77.3373 22.2345 77.3279 22.5674 77.2357C22.6959 77.2003 23.2364 77.3636 23.0994 77.0019C22.8799 76.8396 22.6557 77.3357 22.124 77.1574C21.1842 76.7366 19.8627 76.6512 18.666 76.4564C17.8374 75.534 18.529 74.058 19.198 73.3391C19.0831 73.1804 18.768 73.1973 18.843 72.8719C17.4158 74.1629 16.1808 75.6233 14.587 76.7681C11.9473 77.0461 13.3941 73.4528 12.459 72.0927C12.0944 71.5622 10.9111 71.2095 10.863 70.6121C10.781 69.5939 12.7919 68.8189 13.6117 68.4299C13.8965 69.0195 13.0959 69.2024 12.725 69.4429C12.2647 69.742 11.9038 69.9826 11.661 70.378C11.9034 70.7102 12.3984 70.8209 12.725 71.0793C12.9393 70.8352 12.084 70.8667 12.1044 70.5339C12.2595 70.1345 12.8547 70.5663 13.257 70.456C13.8681 70.6329 14.5298 71.7148 14.9417 70.9235C14.7481 70.418 14.1551 70.2641 13.8777 69.8326C13.9978 69.4257 14.3945 70.0978 14.6757 69.8326C14.7377 69.5267 14.3768 69.6209 14.2324 69.4429C13.8707 68.9988 14.0454 68.2841 13.6117 67.8845C13.983 67.3562 13.7107 66.863 14.0546 66.326C14.4193 65.7578 15.7094 65.4363 16.5377 65.4685C16.8827 65.4821 17.6985 65.4539 17.513 66.0143C16.1834 66.0146 15.6809 66.7416 15.0303 67.339C14.938 68.3033 15.1238 69.0231 15.385 69.6764C15.4098 69.8803 15.3525 70.0118 15.119 69.9884C15.2923 70.3297 15.6909 70.4725 15.9166 70.7673C16.1143 70.7725 15.3736 70.3141 16.0053 70.3777C15.7131 69.8296 15.344 69.3488 15.296 68.5854C16.3393 68.5777 16.2643 69.5527 16.626 70.1439C16.9289 70.2024 16.739 69.8274 17.0693 69.9102C16.7261 69.5952 16.0496 68.7881 16.8033 68.4293C17.2758 68.6114 17.3652 69.1303 17.6013 69.5202C17.7325 69.43 17.8244 69.43 17.956 69.5202C17.857 69.3212 18.0106 69.0264 17.956 68.741C17.8182 68.0237 16.9607 67.1312 17.69 66.4812C17.878 66.3692 17.8758 66.5562 18.0446 66.637C18.6579 66.9309 18.7806 67.2396 19.3746 66.7149C19.3 66.339 18.9379 66.2153 19.02 65.7019C19.5453 65.6818 19.4633 66.1955 19.7293 66.4033C20.1578 66.2237 20.221 65.9477 19.9953 65.5458C20.4745 65.4522 20.4652 65.787 20.7933 65.6237C21.0626 65.5276 20.6972 65.3558 20.7933 65.1561C21.0763 65.0896 21.1299 65.224 21.2366 65.312C21.7066 65.1675 21.4417 64.7909 21.5913 64.4548C21.8946 64.4217 21.858 64.6883 22.0346 64.7665C22.3686 64.4107 22.7391 64.087 23.2756 63.909C23.2963 64.3165 22.7425 64.2198 22.7439 64.6103C22.7011 64.8558 23.1507 64.6688 23.1873 64.8441C22.809 65.1464 23.2183 65.3691 22.6553 65.6234C22.2164 65.5964 22.7292 65.4188 22.6553 65.2337C22.4222 65.2107 22.5858 65.5363 22.3006 65.4675C22.4554 65.7734 22.5045 65.998 22.1237 66.1688C21.7483 66.1088 22.0808 65.4273 21.769 65.3117C21.6123 65.3821 21.4945 65.486 21.4143 65.6234C21.5857 65.9143 21.6323 66.3149 21.5913 66.7922C22.2422 66.689 22.3154 66.0782 22.9213 65.9351C22.9904 66.0045 23.017 66.111 23.0099 66.2467C22.8999 66.5136 22.3889 66.4286 22.4783 66.8701C22.3305 66.8701 22.1824 66.8701 22.035 66.8701C21.8285 67.0526 21.9123 67.4896 21.6803 67.6494C21.4136 67.7276 21.5229 67.4757 21.503 67.3377C21.2732 67.551 21.295 67.9858 21.1483 68.2728C20.6747 68.0916 20.9751 67.2302 20.6167 66.9481C20.432 66.9938 20.33 67.1117 20.1734 67.1818C20.2517 67.3728 20.4394 67.4679 20.3503 67.8052C20.4205 68.1705 20.6725 67.9705 20.7937 68.1949C20.8099 68.5465 20.7072 68.7942 20.439 68.8962C20.0478 69.0062 20.4375 68.4296 20.173 68.4286C19.8361 68.4186 19.7544 68.6325 19.7297 68.8962C19.9118 69.1738 19.8047 68.5556 20.0843 68.6624C20.2166 68.8751 20.0773 69.4033 19.9957 69.6751C19.4408 69.315 19.4603 69.9816 19.2863 70.3764C18.9583 70.431 18.8947 70.2534 18.9317 69.9871C18.6819 70.2348 18.7163 70.7326 18.577 71.0777C18.355 71.091 18.2996 70.9582 18.2223 70.844C17.9523 71.4894 17.1273 71.6479 17.0697 72.4804C16.8281 72.5372 16.8916 72.3255 16.715 72.3245C16.6153 72.4979 16.6031 72.9826 16.2717 72.7141C15.9798 72.7953 16.2595 73.3784 15.74 73.2596C15.8372 72.8729 16.0881 72.4508 16.006 72.0128C15.9647 71.792 15.637 71.5982 15.6514 71.3894C15.3621 71.768 15.9661 72.3855 15.74 72.7141C15.2553 72.517 15.3551 71.8053 15.2081 71.3115C14.9251 71.2449 14.9339 71.4342 14.7651 71.4673C14.652 71.8959 15.1161 72.2388 15.2081 72.7141C15.3861 73.6336 15.0721 74.509 14.5874 75.0519C14.3166 74.9954 14.2641 75.1314 14.0554 75.1298C14.6624 73.6349 14.2486 71.643 12.9914 71.0777C13.2086 71.5764 13.7425 71.9372 13.8781 72.7141C14.0665 73.7937 13.4089 75.4155 14.3214 76.0649C15.3015 75.5577 16.0515 74.7408 16.804 73.9609C16.9651 73.794 17.203 73.6538 17.336 73.4937C17.4979 73.2986 17.5197 73.0651 17.6907 72.8703C17.8976 72.6339 18.2729 72.4846 18.4883 72.2469C18.7517 71.9563 18.9439 71.541 19.198 71.2339C19.8926 70.3923 20.8945 69.4819 21.4147 68.4283C22.4107 67.7715 22.6265 66.4286 23.8083 65.9347C24.3514 65.9253 24.2531 66.4789 24.961 66.3243C25.1006 67.0692 24.1922 67.1143 23.8083 66.7916C23.5578 66.9218 23.2955 67.0393 23.099 67.2591C22.8936 67.4883 22.8189 67.9208 22.567 68.2721C22.2906 68.6575 21.8765 68.9933 21.5917 69.3627C21.4509 69.5455 21.3135 69.7907 21.1483 69.9865C20.8487 70.341 20.4634 70.4248 20.7937 70.6875C21.1435 70.7875 21.0083 70.4605 21.237 70.4537C22.4174 70.741 23.3088 71.2823 24.2516 71.7784C24.2753 69.9813 25.7497 69.4582 26.291 68.116C25.9611 67.662 25.8125 66.2653 26.3796 65.9341C26.4838 66.6734 26.6999 67.315 27.089 67.8043C27.4318 67.2484 27.57 66.5123 27.9756 66.012C27.8877 65.7516 27.4344 65.8123 27.5323 65.3886C26.1853 65.1337 25.2558 65.7964 23.9856 65.8558C23.4924 65.512 23.5057 64.3214 24.0739 64.0636C23.7584 63.821 23.2154 63.7792 23.0099 63.4402C22.697 63.9704 22.1706 64.0269 21.5026 64.3753C21.0973 64.5866 20.4216 65.0399 19.907 65.2324C19.5139 65.3792 18.9136 65.3295 18.7543 65.7779C18.4662 65.6883 18.2087 66.0159 18.045 65.7779C18.1034 65.5682 18.5899 65.2165 18.8426 65.0769C20.0119 64.4308 21.3053 63.8733 22.3897 63.1288C22.2319 62.9817 21.8048 63.0713 21.8577 62.7392C21.4132 62.8067 21.0992 62.8635 21.1483 62.3496C23.007 62.2827 23.8168 63.3236 25.493 63.1288C26.2607 63.0395 27.1839 62.5762 27.7983 62.1937C28.5309 61.7379 28.7958 61.4732 29.3056 60.7911C29.4689 60.5723 29.5816 59.9154 30.1923 60.2456C29.5099 61.9057 28.1589 62.9785 26.3796 63.6743C26.9512 63.9516 27.2881 64.4344 27.7983 64.7652C28.0133 64.6941 28.0333 64.4519 28.0647 64.2194C28.4131 64.0584 28.7666 63.9016 29.04 63.674C30.6057 63.6227 31.1262 64.4899 31.2567 65.7C31.8363 64.7513 32.5183 64.0762 33.6503 63.4402C34.7084 62.8454 36.6956 62.9132 38.35 62.5051C38.5291 62.3408 39.0094 62.1479 39.3253 62.3492C39.1062 62.8006 38.4094 63.0613 37.7293 63.2843C36.5386 63.6749 34.674 63.784 33.7393 64.4535C33.5217 64.609 33.3396 64.9461 33.1186 65.1545C32.4762 65.7617 31.9948 66.2474 31.6113 67.2585C30.8033 67.3189 30.6279 66.824 30.4587 66.3234C30.0061 65.8377 29.3067 65.5695 28.5967 65.3104C28.2915 65.3279 28.3118 65.6315 28.1533 65.7776C28.1633 65.925 28.4467 65.8318 28.4197 66.0117C27.7998 67.6815 27.198 69.8332 27.0007 71.856C26.9501 72.3768 27.0402 72.8437 26.8237 73.2583C26.7698 73.3615 26.7535 73.6635 26.469 73.57C26.2119 73.3973 26.2252 72.9671 26.203 72.7128C26.0708 71.2008 26.6737 69.7676 26.9124 68.5829C26.3287 69.4413 25.299 70.105 25.2273 71.3881C25.1789 72.2596 25.749 73.2752 25.1387 74.1155C24.5261 74.1606 24.6314 73.5742 24.518 73.1804C24.2764 73.5655 24.5989 74.446 24.252 74.7389C23.8737 74.7077 24.1674 74.0856 24.0747 73.8038C23.7337 73.8414 24.0241 74.4346 23.6317 74.4272C23.317 74.2492 23.5807 73.834 23.5431 73.4921C23.4862 72.9804 23.2375 72.395 23.0111 72.0894C22.9671 72.47 23.2711 74.0687 22.6564 74.4272C22.3605 74.3525 22.6335 73.8918 22.6564 73.5697C22.6808 73.2323 22.6375 72.9223 22.6564 72.6346C22.339 73.6284 22.3139 74.8794 21.4154 75.3619C21.3859 75.6739 21.1738 75.8253 21.0604 76.0632C21.2082 76.0632 21.3563 76.0632 21.5037 76.0632C21.8425 75.7895 21.7509 75.1372 22.3904 75.1282C22.322 75.5097 22.1041 75.7593 22.0357 76.1412C22.4332 76.2548 22.3328 75.2606 22.922 75.2837C22.8171 75.659 22.6871 76.0123 22.4791 76.2967C22.6675 76.4168 22.8093 76.5779 23.0107 76.6863C23.3262 76.3516 22.8965 76.1821 22.922 75.9071C23.062 74.3921 27.6949 74.5626 29.6607 74.5048C29.7338 75.1879 28.3403 75.3334 27.5327 75.3619C26.7938 75.3879 26.1443 75.2584 25.493 75.4399C24.8051 75.6317 24.4201 76.0623 23.8083 76.2188C24.7508 77.7555 23.3033 81.3864 26.3807 81.2098ZM24.3414 64.9237C25.0138 64.9337 25.9045 64.4866 26.735 64.3782C25.9954 63.7902 24.4393 63.9379 24.3414 64.9237ZM22.1248 65.3133C22.4015 65.2451 22.5877 65.0967 22.5677 64.7678C22.2725 64.8201 22.0867 64.9681 22.1248 65.3133ZM20.9721 66.4042C21.0508 66.2656 21.2196 66.2062 21.1491 65.9367C20.8358 65.8899 20.6359 66.3403 20.9721 66.4042ZM19.9964 66.9497C20.2336 66.887 20.753 66.5481 20.3511 66.4042C20.1841 66.5429 19.9587 66.6309 19.9964 66.9497ZM21.2381 67.3393C21.3556 67.1789 21.4062 66.5571 21.2381 66.4042C20.9909 66.5701 20.9163 67.1007 21.2381 67.3393ZM18.5781 67.651C18.6527 67.2708 18.1728 66.9721 18.0465 67.0276C18.2711 67.1935 18.1418 67.6708 18.5781 67.651ZM19.1101 67.7289C19.3236 67.5789 19.6495 67.528 19.6417 67.1835C19.2656 67.1903 19.0831 67.3672 19.1101 67.7289ZM19.3761 68.1186C19.5013 68.0283 19.9609 67.552 19.7308 67.6513C19.6395 67.7841 19.1212 67.9397 19.3761 68.1186ZM18.6668 68.1965C18.7048 68.0478 18.9202 68.0552 18.8437 67.8069C18.5803 67.7143 18.4632 68.1354 18.6668 68.1965ZM19.5534 68.5861C19.6044 68.3673 20.1996 68.2241 19.9081 67.9627C19.9037 68.2225 19.2305 68.2975 19.5534 68.5861ZM18.8437 68.664C18.87 68.5718 19.201 68.3695 18.9324 68.2744C18.9065 68.3666 18.5755 68.5689 18.8437 68.664ZM18.9328 68.9757C19.157 69.0575 19.3259 68.7127 19.1101 68.664C19.1748 68.8767 18.9339 68.8208 18.9328 68.9757ZM19.1101 69.5212C19.1315 69.3842 19.2627 69.3436 19.4648 69.3653C19.4777 69.1722 19.4814 68.9874 19.2874 68.976C19.2882 69.1644 18.7761 69.2972 19.1101 69.5212ZM18.3121 69.677C18.3775 69.5007 18.6502 69.5069 18.6668 69.2877C18.4525 69.2871 18.1001 69.5601 18.3121 69.677ZM18.4891 70.2225C18.3679 69.9027 18.8807 69.7423 18.6664 69.5991C18.5648 69.7225 18.2035 70.0163 18.4891 70.2225ZM16.8048 70.5342C17.0634 70.6488 17.0634 70.1858 16.8048 70.3004C16.8048 70.3784 16.8048 70.4563 16.8048 70.5342ZM17.6914 71.0797C17.6135 70.7982 18.0376 70.5595 17.7797 70.3784C17.6131 70.4871 17.3009 70.956 17.6914 71.0797ZM15.4748 70.768C15.2938 70.7452 15.3008 70.5573 15.1201 70.5342C15.0828 70.7063 15.3858 70.9638 15.4748 70.768ZM17.0708 71.6251C17.1306 71.3186 17.4428 70.8147 16.9825 70.69C16.6973 70.9462 16.8731 71.3738 17.0708 71.6251ZM16.1841 71.2355C16.1893 71.1881 16.1971 71.1433 16.2724 71.1576C16.2628 71.0625 16.2462 70.9732 16.0955 71.0017C16.1091 71.0936 16.0803 71.2229 16.1841 71.2355ZM22.1248 72.4823C22.1695 71.9232 22.0653 71.4953 21.8584 71.1576C21.9356 71.6096 21.9005 72.1602 22.1248 72.4823ZM16.2724 72.1706C16.6725 72.1586 16.5388 71.6771 16.6271 71.3914C16.5137 71.3871 16.5044 71.2914 16.3611 71.3134C16.0851 71.482 16.207 71.8803 16.2724 72.1706ZM20.2628 73.4174C20.4996 73.4171 20.4553 73.6638 20.7057 73.6512C20.6699 73.4073 20.5406 73.2765 20.5288 73.0278C20.5014 72.458 21.1236 71.7346 20.6174 71.3134C20.821 72.0745 20.4124 72.7336 20.2628 73.4174ZM19.8194 73.0278C20.0928 72.9093 20.2081 71.892 20.0854 71.9372C20.0282 72.3284 19.8505 72.6138 19.8194 73.0278ZM21.4154 74.82C21.2111 75.2213 20.664 75.747 20.4397 75.9889C21.2887 75.8775 21.1047 74.859 21.7701 74.5863C21.8211 74.0336 22.2031 73.7723 22.1248 73.1057C21.6268 73.5327 21.7018 74.2567 21.4154 74.82Z" fill="#030201"/>
</g>
<g filter="url(#filter0_d)">
<path d="M78.2045 75.7025C75.6955 75.7025 73.588 75.1338 71.8819 73.9964C70.2092 72.8255 68.9547 71.27 68.1184 69.3297C67.3155 67.3894 66.914 65.2149 66.914 62.8063C66.914 59.4609 67.7002 56.1658 69.2725 52.9208C70.8448 49.6424 73.1029 46.9494 76.0468 44.8418C79.0241 42.7343 82.5033 41.6805 86.4842 41.6805C88.9932 41.6805 91.0841 42.2659 92.7567 43.4368C94.4629 44.5742 95.7174 46.113 96.5202 48.0533C97.3566 49.9936 97.7747 52.1681 97.7747 54.5767C97.7747 57.9221 96.9886 61.234 95.4163 64.5124C93.844 67.7574 91.5691 70.4336 88.5918 72.5412C85.6479 74.6487 82.1855 75.7025 78.2045 75.7025ZM78.3551 74.1469C81.2321 74.1469 83.8247 73.0764 86.133 70.9354C88.4747 68.761 90.2812 66.0011 91.5524 62.6557C92.8571 59.3104 93.5094 55.9818 93.5094 52.6699C93.5094 50.0271 92.9073 47.769 91.703 45.8956C90.4986 44.0222 88.7089 43.0855 86.3337 43.0855C83.5571 43.0855 81.0146 44.1895 78.7063 46.3974C76.3981 48.5719 74.5581 51.3485 73.1865 54.7273C71.8484 58.1061 71.1793 61.4347 71.1793 64.7131C71.1793 67.3225 71.7815 69.5471 72.9858 71.387C74.1901 73.227 75.9799 74.1469 78.3551 74.1469ZM95.7844 75.2509C94.9815 75.2509 94.5801 75.0669 94.5801 74.6989C94.5801 74.2975 95.1822 73.9964 96.3866 73.7957C97.7916 73.5281 98.9625 73.1099 99.8992 72.5412C100.836 71.9725 101.471 71.1361 101.806 70.0322L108.731 47.3508C108.898 46.849 108.982 46.3472 108.982 45.8454C108.982 45.2433 108.781 44.7749 108.38 44.4404C107.978 44.1058 107.343 43.8549 106.473 43.6877C105.636 43.5204 105.218 43.1859 105.218 42.6841C105.218 42.3161 105.737 42.1321 106.774 42.1321L108.229 42.1823C108.697 42.1823 109.751 42.2157 111.39 42.2826C113.03 42.3495 114.669 42.383 116.308 42.383C118.282 42.383 120.473 42.2659 122.882 42.0317C124.42 41.8979 125.491 41.831 126.093 41.831C126.26 41.831 126.361 41.8645 126.394 41.9314C126.461 41.9983 126.495 42.1321 126.495 42.3328C126.495 42.4666 126.377 42.9517 126.143 43.788C125.608 45.5611 125.274 46.8657 125.14 47.7021C125.106 47.8693 124.989 48.0533 124.788 48.2541C124.588 48.4548 124.42 48.5551 124.287 48.5551C124.119 48.5551 123.986 48.4213 123.885 48.1537C123.785 47.8861 123.735 47.6352 123.735 47.401C123.735 46.297 123.5 45.4273 123.032 44.7916C122.564 44.1226 121.811 43.788 120.774 43.788H114.652C114.15 43.788 113.732 43.8884 113.398 44.0891C113.097 44.2564 112.862 44.6578 112.695 45.2934L110.036 54.8778C109.935 55.2124 109.885 55.5134 109.885 55.7811C109.885 56.2494 110.086 56.4669 110.487 56.4334C111.022 56.3665 111.39 56.333 111.591 56.333C112.595 56.1992 113.381 56.1323 113.95 56.1323C115.455 56.1323 116.877 56.4836 118.215 57.1861C119.586 57.8886 120.69 58.8755 121.527 60.1467C122.397 61.4179 122.831 62.8732 122.831 64.5124C122.831 66.8207 122.213 68.7777 120.975 70.3834C119.77 71.9892 118.131 73.1935 116.057 73.9964C113.983 74.7658 111.658 75.1505 109.082 75.1505L105.921 75.1004C104.583 75.0335 103.512 75 102.709 75C101.405 75 100.2 75.0502 99.0963 75.1505C97.6912 75.2174 96.5873 75.2509 95.7844 75.2509ZM109.684 73.7455C111.424 73.7455 112.963 73.3608 114.301 72.5914C115.639 71.7885 116.676 70.7012 117.412 69.3297C118.148 67.9581 118.516 66.4192 118.516 64.7131C118.516 62.4048 117.931 60.6485 116.76 59.4442C115.622 58.2399 114.05 57.6377 112.043 57.6377C110.136 57.6377 108.982 58.3402 108.58 59.7453L107.828 62.2543C106.824 65.4993 106.105 67.9413 105.67 69.5806C105.536 69.982 105.469 70.4169 105.469 70.8852C105.469 71.8554 105.854 72.5746 106.623 73.043C107.393 73.5113 108.413 73.7455 109.684 73.7455ZM164.428 85.2367C164.193 85.2367 163.993 85.1196 163.825 84.8855C163.692 84.6847 163.625 84.4171 163.625 84.0826C163.625 83.5473 163.792 82.5772 164.126 81.1721C164.561 79.4326 164.779 78.0777 164.779 77.1076C164.779 76.2712 164.595 75.7025 164.227 75.4014C163.859 75.1338 163.223 75 162.32 75H145.761H128.599L126.341 75.0502C125.337 75.1171 124.384 75.1505 123.481 75.1505C122.678 75.1505 122.276 74.9665 122.276 74.5986C122.276 74.1302 122.895 73.7957 124.133 73.595C125.404 73.3608 126.374 72.9928 127.043 72.491C127.712 71.9557 128.214 71.1194 128.549 69.982L135.474 47.3006C135.607 46.8657 135.674 46.4309 135.674 45.996C135.674 45.3269 135.44 44.8084 134.972 44.4404C134.537 44.0724 133.851 43.788 132.914 43.5873C132.446 43.487 132.112 43.3699 131.911 43.2361C131.744 43.1022 131.66 42.9183 131.66 42.6841C131.66 42.3161 132.162 42.1321 133.165 42.1321C134.336 42.1321 135.323 42.1823 136.126 42.2826C137.13 42.3495 137.949 42.383 138.585 42.383C139.321 42.383 140.291 42.3495 141.495 42.2826C142.398 42.1823 143.436 42.1321 144.606 42.1321C145.409 42.1321 145.811 42.3161 145.811 42.6841C145.811 43.0855 145.209 43.3866 144.004 43.5873C142.7 43.8215 141.646 44.2229 140.843 44.7916C140.073 45.3603 139.521 46.1967 139.187 47.3006L132.162 70.5842C131.961 71.2198 131.861 71.7383 131.861 72.1397C131.861 72.675 132.045 73.0597 132.413 73.2939C132.781 73.4946 133.383 73.595 134.219 73.595H140.993C142.265 73.595 143.218 73.3942 143.854 72.9928C144.523 72.5579 145.025 71.755 145.359 70.5842L152.384 47.3006C152.518 46.8657 152.585 46.4309 152.585 45.996C152.585 45.3269 152.351 44.8084 151.883 44.4404C151.448 44.0724 150.762 43.788 149.825 43.5873C149.357 43.487 149.022 43.3699 148.822 43.2361C148.654 43.1022 148.571 42.9183 148.571 42.6841C148.571 42.3161 149.072 42.1321 150.076 42.1321C151.247 42.1321 152.234 42.1823 153.037 42.2826C154.04 42.3495 154.86 42.383 155.495 42.383C156.231 42.383 157.202 42.3495 158.406 42.2826C159.309 42.1823 160.346 42.1321 161.517 42.1321C162.32 42.1321 162.721 42.3161 162.721 42.6841C162.721 43.0855 162.119 43.3866 160.915 43.5873C159.61 43.8215 158.556 44.2229 157.754 44.7916C156.984 45.3603 156.432 46.1967 156.098 47.3006L149.072 70.5842C148.872 71.2198 148.771 71.7383 148.771 72.1397C148.771 72.675 148.955 73.0597 149.323 73.2939C149.691 73.4946 150.293 73.595 151.13 73.595H158.055C159.359 73.595 160.329 73.3775 160.965 72.9426C161.634 72.5077 162.136 71.7216 162.47 70.5842L169.496 47.3006C169.629 46.8657 169.696 46.4309 169.696 45.996C169.696 45.3269 169.462 44.8084 168.994 44.4404C168.559 44.0724 167.873 43.788 166.937 43.5873C166.468 43.487 166.134 43.3699 165.933 43.2361C165.766 43.1022 165.682 42.9183 165.682 42.6841C165.682 42.3161 166.184 42.1321 167.187 42.1321C168.358 42.1321 169.345 42.1823 170.148 42.2826C171.152 42.3495 171.971 42.383 172.607 42.383C173.343 42.383 174.313 42.3495 175.517 42.2826C176.421 42.1823 177.458 42.1321 178.628 42.1321C179.431 42.1321 179.833 42.3161 179.833 42.6841C179.833 43.0855 179.231 43.3866 178.026 43.5873C176.722 43.8215 175.668 44.2229 174.865 44.7916C174.096 45.3603 173.544 46.1967 173.209 47.3006L166.284 69.982C166.184 70.3165 166.134 70.6343 166.134 70.9354C166.134 72.2066 167.154 72.8423 169.195 72.8423C169.83 72.8423 170.148 73.1601 170.148 73.7957C170.148 73.896 169.931 74.4313 169.496 75.4014C169.094 76.3716 168.76 77.1577 168.492 77.7599C167.656 79.5329 166.786 81.4899 165.883 83.631C165.448 84.7015 164.963 85.2367 164.428 85.2367ZM172.307 75.2509C171.504 75.2509 171.102 75.0669 171.102 74.6989C171.102 74.2975 171.704 73.9964 172.909 73.7957C174.548 73.5281 175.719 73.1266 176.421 72.5914C177.157 72.0227 177.709 71.1696 178.077 70.0322L184.952 47.4512C185.186 46.7487 185.303 46.1465 185.303 45.6447C185.303 45.0091 185.069 44.5575 184.601 44.2898C184.132 44.0222 183.313 43.8048 182.142 43.6375C181.64 43.5706 181.289 43.4702 181.088 43.3364C180.921 43.2026 180.837 43.0186 180.837 42.7844C180.837 42.4165 181.356 42.2325 182.393 42.2325C182.995 42.2325 183.564 42.2492 184.099 42.2826C185.838 42.3495 187.294 42.383 188.465 42.383H196.543C199.554 42.383 201.428 42.2994 202.164 42.1321C202.933 41.9648 203.351 41.8812 203.418 41.8812C203.552 41.8812 203.669 41.9648 203.769 42.1321C203.903 42.2659 203.97 42.3997 203.97 42.5335C203.97 42.6674 203.853 43.0855 203.619 43.788C203.017 45.5276 202.632 46.9828 202.465 48.1537C202.431 48.4882 202.314 48.7391 202.113 48.9064C201.946 49.0402 201.779 49.1071 201.612 49.1071C201.444 49.1071 201.294 48.99 201.16 48.7559C201.06 48.5217 201.026 48.2206 201.06 47.8526C201.093 47.585 201.11 47.2337 201.11 46.7988C201.11 45.6614 200.892 44.8753 200.458 44.4404C200.023 44.0055 199.236 43.788 198.099 43.788H191.977C191.208 43.788 190.639 43.9051 190.271 44.1393C189.936 44.34 189.686 44.7247 189.518 45.2934L186.156 55.9316C186.022 56.2996 185.956 56.6174 185.956 56.885C185.956 57.3199 186.29 57.5206 186.959 57.4872L193.181 57.3366C193.984 57.3032 194.637 57.1359 195.138 56.8348C195.674 56.5003 196.175 56.0487 196.644 55.48C196.744 55.3462 196.895 55.1454 197.095 54.8778C197.33 54.5767 197.547 54.3426 197.748 54.1753C197.949 54.008 198.133 53.9244 198.3 53.9244C198.601 53.9244 198.751 54.1084 198.751 54.4764C198.751 54.7106 198.668 54.9949 198.501 55.3294C197.999 56.333 197.547 57.3534 197.146 58.3904C196.778 59.4275 196.443 60.6485 196.142 62.0536C195.975 62.7561 195.757 63.1073 195.49 63.1073C195.256 63.1073 195.088 62.9568 194.988 62.6557C194.888 62.3546 194.837 62.0536 194.837 61.7525C194.837 59.8791 194.202 58.9424 192.931 58.9424L187.16 58.842C186.457 58.842 185.922 58.9424 185.554 59.1431C185.186 59.3104 184.918 59.7286 184.751 60.3976L182.192 69.5304C181.891 70.5674 181.74 71.4038 181.74 72.0394C181.74 72.675 181.908 73.1099 182.242 73.3441C182.577 73.5782 183.129 73.6953 183.898 73.6953H191.676C193.081 73.6953 194.419 73.2437 195.69 72.3405C196.594 71.7048 197.497 70.6511 198.4 69.1791C198.434 69.1457 198.534 68.9951 198.701 68.7275C198.868 68.4264 199.069 68.2759 199.303 68.2759C199.538 68.2759 199.655 68.6104 199.655 69.2795C199.655 69.7144 199.42 70.4838 198.952 71.5878C198.517 72.6917 198.099 73.5615 197.698 74.1971C197.263 74.8996 196.711 75.2509 196.042 75.2509C195.44 75.2509 191.927 75.2007 185.504 75.1004C182.861 75 180.469 74.9498 178.328 74.9498C177.224 74.9498 176.237 75 175.368 75.1004C175.1 75.1004 174.665 75.1171 174.063 75.1505C173.494 75.2174 172.909 75.2509 172.307 75.2509ZM215.922 75.7025C214.048 75.7025 212.125 75.1673 210.151 74.0968C208.177 73.0263 206.538 71.5209 205.233 69.5806C203.929 67.6403 203.276 65.4323 203.276 62.9568C203.276 59.0428 204.213 55.4633 206.086 52.2183C207.96 48.9399 210.469 46.3639 213.613 44.4906C216.758 42.5837 220.12 41.6303 223.699 41.6303C225.606 41.6303 227.463 41.9481 229.269 42.5837C229.604 42.6841 230.072 42.8513 230.675 43.0855C231.31 43.2862 231.795 43.3866 232.13 43.3866C232.297 43.3866 232.648 43.2528 233.184 42.9852C233.284 42.9517 233.451 42.8848 233.685 42.7844C233.953 42.6841 234.17 42.6339 234.338 42.6339C234.672 42.6339 234.839 42.7677 234.839 43.0353C234.839 43.2026 234.789 43.3364 234.689 43.4368C234.053 44.3066 233.384 45.4607 232.682 46.8992C231.979 48.3042 231.528 49.5253 231.327 50.5623C231.293 50.7965 231.176 51.0307 230.976 51.2649C230.775 51.4656 230.591 51.5659 230.424 51.5659C230.156 51.5659 229.939 51.4321 229.771 51.1645C229.637 50.8969 229.604 50.5958 229.671 50.2613C229.805 49.5253 229.872 48.9399 229.872 48.505C229.872 47.401 229.554 46.4476 228.918 45.6447C228.316 44.8753 227.547 44.2731 226.61 43.8382C225.673 43.4033 224.653 43.1859 223.549 43.1859C221.107 43.1859 218.648 44.1058 216.172 45.9458C213.73 47.7523 211.706 50.2111 210.101 53.3222C208.495 56.3999 207.692 59.7453 207.692 63.3582C207.692 65.9007 208.16 67.9748 209.097 69.5806C210.067 71.1863 211.272 72.3572 212.71 73.0932C214.182 73.7957 215.704 74.1469 217.276 74.1469C218.882 74.1469 220.22 73.896 221.291 73.3942C222.395 72.859 223.298 72.1732 224.001 71.3369C224.703 70.5005 225.456 69.3966 226.259 68.025C226.459 67.7239 226.643 67.4897 226.811 67.3225C226.978 67.1552 227.179 67.0716 227.413 67.0716C227.547 67.0716 227.63 67.1552 227.664 67.3225C227.731 67.4563 227.764 67.7072 227.764 68.0752C227.764 68.4097 227.496 69.1958 226.961 70.4336C226.459 71.6379 225.907 72.7754 225.305 73.8459C224.737 74.9164 224.352 75.4516 224.151 75.4516C224.017 75.4516 223.833 75.368 223.599 75.2007C223.398 75.0335 223.265 74.9331 223.198 74.8996C222.83 74.5986 222.478 74.448 222.144 74.448C221.876 74.448 221.19 74.632 220.087 75C218.748 75.4683 217.36 75.7025 215.922 75.7025ZM236.137 75.2509C235.334 75.2509 234.933 75.0669 234.933 74.6989C234.933 74.4982 235.067 74.3477 235.334 74.2473C235.635 74.1135 236.12 73.9964 236.789 73.896C238.061 73.6619 239.098 73.227 239.901 72.5914C240.703 71.9557 241.272 71.0525 241.607 69.8816L247.729 48.4046C248.13 46.8992 248.331 45.8454 248.331 45.2433C248.331 44.5407 248.08 44.1895 247.578 44.1895H243.413C241.941 44.1895 240.754 44.4738 239.85 45.0425C238.981 45.5778 238.161 46.3138 237.392 47.2505C237.057 47.6184 236.773 48.0032 236.539 48.4046C235.903 49.2744 235.468 49.7093 235.234 49.7093C235.033 49.7093 234.883 49.6758 234.782 49.6089C234.715 49.5086 234.682 49.3246 234.682 49.0569C234.682 48.7224 234.849 48.2039 235.184 47.5014C235.284 47.2672 235.585 46.6483 236.087 45.6447C236.622 44.6076 237.024 43.5873 237.291 42.5837C237.358 42.3495 237.475 42.1321 237.642 41.9314C237.843 41.6972 238.01 41.5801 238.144 41.5801C238.345 41.5801 238.646 41.7808 239.048 42.1823C239.248 42.383 239.583 42.5335 240.051 42.6339C240.519 42.7343 241.456 42.7844 242.861 42.7844H260.775C262.147 42.7844 263.084 42.7343 263.586 42.6339C264.121 42.5001 264.505 42.3328 264.74 42.1321C264.773 42.0986 264.89 41.9983 265.091 41.831C265.292 41.6638 265.459 41.5801 265.593 41.5801C265.927 41.5801 266.095 41.7641 266.095 42.1321C266.095 42.4666 265.927 42.935 265.593 43.5371C265.359 43.9386 265.057 44.708 264.689 45.8454C264.355 46.9828 264.071 48.1537 263.836 49.358C263.736 49.8264 263.552 50.0605 263.284 50.0605C263.05 50.0605 262.866 49.9602 262.732 49.7595C262.632 49.5587 262.582 49.2744 262.582 48.9064C262.582 47.3006 262.314 46.113 261.779 45.3436C261.277 44.5742 260.424 44.1895 259.22 44.1895H254.202C253.734 44.1895 253.366 44.2898 253.098 44.4906C252.83 44.6913 252.563 45.0927 252.295 45.6949C252.061 46.297 251.76 47.2505 251.392 48.5551L245.32 69.8816C245.186 70.3165 245.119 70.7682 245.119 71.2365C245.119 72.6415 246.023 73.5281 247.829 73.896C248.331 73.9964 248.665 74.0968 248.833 74.1971C249 74.2975 249.084 74.4647 249.084 74.6989C249.084 75.0669 248.582 75.2509 247.578 75.2509C246.407 75.2509 245.437 75.2007 244.668 75.1004C243.664 75.0335 242.844 75 242.209 75C241.439 75 240.453 75.0335 239.248 75.1004C238.345 75.2007 237.308 75.2509 236.137 75.2509ZM257.919 75.2509C257.484 75.2509 257.183 75.2007 257.015 75.1004C256.815 75.0335 256.714 74.8996 256.714 74.6989C256.714 74.4647 256.865 74.2808 257.166 74.1469C257.434 74.0131 257.885 73.896 258.521 73.7957C259.826 73.5615 260.863 73.1601 261.632 72.5914C262.401 72.0227 262.97 71.1696 263.338 70.0322L270.213 47.4512C270.447 46.6148 270.564 46.0461 270.564 45.7451C270.564 45.1764 270.38 44.7582 270.012 44.4906C269.644 44.2229 269.042 44.0055 268.206 43.8382C267.67 43.7379 267.302 43.6375 267.102 43.5371C266.934 43.4033 266.851 43.2193 266.851 42.9852C266.851 42.7844 267.001 42.6339 267.302 42.5335C267.637 42.4332 268.038 42.383 268.507 42.383C269.276 42.383 269.962 42.4332 270.564 42.5335C271.233 42.6004 271.802 42.6339 272.27 42.6339C272.672 42.6339 273.173 42.6004 273.776 42.5335C274.378 42.4666 274.796 42.4165 275.03 42.383C276.034 42.2157 276.82 42.1321 277.389 42.1321C280.567 42.1321 282.908 42.751 284.414 43.9888C285.919 45.1931 286.672 46.7487 286.672 48.6555C286.672 50.1609 286.204 51.4823 285.267 52.6197C284.364 53.7571 283.209 54.6771 281.804 55.3796C280.433 56.0487 279.061 56.4669 277.69 56.6341C277.455 56.6676 277.338 56.7512 277.338 56.885C277.338 56.9854 277.405 57.069 277.539 57.1359C279.647 57.9388 281.219 58.9591 282.256 60.1969C283.293 61.4347 283.812 63.1575 283.812 65.3654C283.812 67.2723 283.226 68.9784 282.055 70.4838C280.884 71.9557 279.279 73.1099 277.238 73.9462C275.197 74.7826 272.906 75.2007 270.363 75.2007C269.226 75.2007 267.955 75.1338 266.55 75C265.646 74.8996 264.81 74.8495 264.041 74.8495C263.271 74.8495 262.318 74.9164 261.18 75.0502C259.976 75.184 258.889 75.2509 257.919 75.2509ZM272.019 56.3832C273.257 56.3832 274.796 56.1825 276.636 55.7811C278.442 55.0116 279.881 54.0415 280.951 52.8706C282.055 51.6663 282.607 50.2613 282.607 48.6555C282.607 47.217 282.055 46.0294 280.951 45.0927C279.847 44.1226 278.342 43.6375 276.435 43.6375C275.8 43.6375 275.331 43.7044 275.03 43.8382C274.762 43.9386 274.595 44.1393 274.528 44.4404L271.417 55.6305C271.384 55.6974 271.367 55.7978 271.367 55.9316C271.367 56.2327 271.584 56.3832 272.019 56.3832ZM270.213 73.9462C271.718 73.9462 273.207 73.5448 274.679 72.7419C276.184 71.9056 277.405 70.7849 278.342 69.3798C279.279 67.9748 279.747 66.4192 279.747 64.7131C279.747 62.4048 279.045 60.6485 277.639 59.4442C276.268 58.2399 274.21 57.6377 271.467 57.6377C270.932 57.6377 270.581 57.9555 270.414 58.5911L267.202 69.5806C267.068 69.982 267.001 70.4336 267.001 70.9354C267.001 71.7048 267.235 72.307 267.704 72.7419C268.139 73.1433 268.523 73.4444 268.858 73.6451C269.226 73.8459 269.678 73.9462 270.213 73.9462ZM299.381 75.7025C296.872 75.7025 294.764 75.1338 293.058 73.9964C291.385 72.8255 290.131 71.27 289.295 69.3297C288.492 67.3894 288.09 65.2149 288.09 62.8063C288.09 59.4609 288.876 56.1658 290.449 52.9208C292.021 49.6424 294.279 46.9494 297.223 44.8418C300.2 42.7343 303.679 41.6805 307.66 41.6805C310.169 41.6805 312.26 42.2659 313.933 43.4368C315.639 44.5742 316.894 46.113 317.696 48.0533C318.533 49.9936 318.951 52.1681 318.951 54.5767C318.951 57.9221 318.165 61.234 316.592 64.5124C315.02 67.7574 312.745 70.4336 309.768 72.5412C306.824 74.6487 303.362 75.7025 299.381 75.7025ZM299.531 74.1469C302.408 74.1469 305.001 73.0764 307.309 70.9354C309.651 68.761 311.457 66.0011 312.729 62.6557C314.033 59.3104 314.686 55.9818 314.686 52.6699C314.686 50.0271 314.083 47.769 312.879 45.8956C311.675 44.0222 309.885 43.0855 307.51 43.0855C304.733 43.0855 302.191 44.1895 299.883 46.3974C297.574 48.5719 295.734 51.3485 294.363 54.7273C293.025 58.1061 292.356 61.4347 292.356 64.7131C292.356 67.3225 292.958 69.5471 294.162 71.387C295.366 73.227 297.156 74.1469 299.531 74.1469ZM339.752 75.7025C337.243 75.7025 335.136 75.1338 333.429 73.9964C331.757 72.8255 330.502 71.27 329.666 69.3297C328.863 67.3894 328.462 65.2149 328.462 62.8063C328.462 59.4609 329.248 56.1658 330.82 52.9208C332.392 49.6424 334.65 46.9494 337.594 44.8418C340.572 42.7343 344.051 41.6805 348.032 41.6805C350.541 41.6805 352.632 42.2659 354.304 43.4368C356.01 44.5742 357.265 46.113 358.068 48.0533C358.904 49.9936 359.322 52.1681 359.322 54.5767C359.322 57.9221 358.536 61.234 356.964 64.5124C355.392 67.7574 353.117 70.4336 350.139 72.5412C347.195 74.6487 343.733 75.7025 339.752 75.7025ZM339.903 74.1469C342.78 74.1469 345.372 73.0764 347.681 70.9354C350.022 68.761 351.829 66.0011 353.1 62.6557C354.405 59.3104 355.057 55.9818 355.057 52.6699C355.057 50.0271 354.455 47.769 353.251 45.8956C352.046 44.0222 350.256 43.0855 347.881 43.0855C345.105 43.0855 342.562 44.1895 340.254 46.3974C337.946 48.5719 336.106 51.3485 334.734 54.7273C333.396 58.1061 332.727 61.4347 332.727 64.7131C332.727 67.3225 333.329 69.5471 334.533 71.387C335.738 73.227 337.527 74.1469 339.903 74.1469ZM353.51 75.2509C352.708 75.2509 352.306 75.0669 352.306 74.6989C352.306 74.4647 352.49 74.2473 352.858 74.0466C353.193 73.8124 353.644 73.6619 354.213 73.595C355.484 73.4277 356.722 73.0095 357.926 72.3405C359.131 71.6379 360.519 70.4503 362.091 68.7777L369.719 60.7489C370.153 60.2805 370.471 59.8791 370.672 59.5446C370.873 59.21 370.973 58.8253 370.973 58.3904C370.973 58.1228 370.923 57.7883 370.823 57.3868L368.213 48.4548C367.845 47.1836 367.427 46.2301 366.959 45.5945C366.524 44.9589 366.055 44.5407 365.554 44.34C365.052 44.1058 364.399 43.9219 363.597 43.788C363.128 43.7211 362.744 43.5873 362.442 43.3866C362.141 43.1859 361.991 42.9684 361.991 42.7343C361.991 42.5335 362.192 42.383 362.593 42.2826C362.994 42.1823 363.429 42.1321 363.898 42.1321C364.333 42.1321 365.186 42.1656 366.457 42.2325C366.825 42.2659 367.394 42.2994 368.163 42.3328C368.966 42.3663 369.652 42.383 370.22 42.383L373.03 42.3328C373.365 42.2994 373.8 42.2826 374.335 42.2826C375.138 42.2826 375.539 42.4666 375.539 42.8346C375.539 43.0688 375.372 43.2862 375.038 43.487C374.703 43.6877 374.252 43.8048 373.683 43.8382C372.813 43.9051 372.211 44.0724 371.876 44.34C371.542 44.5742 371.375 44.9924 371.375 45.5945C371.375 46.1632 371.559 47.1334 371.926 48.505L373.683 55.0785C373.85 55.5803 374.034 55.8312 374.235 55.8312C374.435 55.8312 374.703 55.6305 375.038 55.2291L380.407 48.9064C381.946 47.0999 382.715 45.812 382.715 45.0425C382.715 44.4738 382.28 44.0891 381.411 43.8884C381.076 43.8215 380.792 43.6877 380.557 43.487C380.323 43.2862 380.206 43.0855 380.206 42.8848C380.206 42.5168 380.708 42.3328 381.712 42.3328L385.575 42.383C385.676 42.383 386.73 42.3328 388.737 42.2325C389.64 42.1321 390.393 42.0819 390.995 42.0819C391.798 42.0819 392.199 42.2659 392.199 42.6339C392.199 42.8346 392.049 43.0186 391.748 43.1859C391.447 43.3197 390.978 43.4702 390.343 43.6375C389.372 43.9051 388.101 44.5742 386.529 45.6447C384.99 46.7152 383.602 47.9195 382.364 49.2577L375.74 56.4334C375.305 56.9352 375.021 57.3199 374.887 57.5875C374.787 57.8217 374.77 58.0893 374.837 58.3904L377.848 69.43C378.115 70.4002 378.416 71.1361 378.751 71.6379C379.086 72.1063 379.554 72.491 380.156 72.7921C380.792 73.0597 381.779 73.3608 383.117 73.6953C383.585 73.8291 383.903 73.9797 384.07 74.1469C384.271 74.2808 384.371 74.4647 384.371 74.6989C384.371 75.0669 383.869 75.2509 382.866 75.2509L380.206 75.1505C378.199 75.0167 376.727 74.9498 375.79 74.9498L371.425 75C370.622 75 370.22 74.816 370.22 74.448C370.22 74.1469 370.856 73.8124 372.127 73.4444C372.997 73.2102 373.616 72.9092 373.984 72.5412C374.385 72.1397 374.586 71.6045 374.586 70.9354C374.586 70.534 374.502 70.0322 374.335 69.43L372.127 61.4514C372.027 61.05 371.876 60.8492 371.676 60.8492C371.508 60.8492 371.341 60.9663 371.174 61.2005L363.848 69.982C363.112 70.8518 362.744 71.571 362.744 72.1397C362.744 72.7754 363.195 73.227 364.098 73.4946C364.6 73.6619 364.918 73.7957 365.052 73.896C365.219 73.9964 365.303 74.1637 365.303 74.3978C365.303 74.5986 365.152 74.7658 364.851 74.8996C364.55 75 364.199 75.0502 363.797 75.0502C363.195 75.0502 362.693 75.0335 362.292 75L359.482 74.9498C358.947 74.9498 358.328 74.9665 357.625 75C356.956 75.0335 356.438 75.0669 356.07 75.1004C355.099 75.2007 354.246 75.2509 353.51 75.2509ZM397.814 75.7025C395.305 75.7025 393.197 75.1338 391.491 73.9964C389.819 72.8255 388.564 71.27 387.728 69.3297C386.925 67.3894 386.523 65.2149 386.523 62.8063C386.523 59.4609 387.31 56.1658 388.882 52.9208C390.454 49.6424 392.712 46.9494 395.656 44.8418C398.633 42.7343 402.113 41.6805 406.094 41.6805C408.603 41.6805 410.693 42.2659 412.366 43.4368C414.072 44.5742 415.327 46.113 416.13 48.0533C416.966 49.9936 417.384 52.1681 417.384 54.5767C417.384 57.9221 416.598 61.234 415.026 64.5124C413.453 67.7574 411.178 70.4336 408.201 72.5412C405.257 74.6487 401.795 75.7025 397.814 75.7025ZM397.964 74.1469C400.841 74.1469 403.434 73.0764 405.742 70.9354C408.084 68.761 409.891 66.0011 411.162 62.6557C412.466 59.3104 413.119 55.9818 413.119 52.6699C413.119 50.0271 412.517 47.769 411.312 45.8956C410.108 44.0222 408.318 43.0855 405.943 43.0855C403.166 43.0855 400.624 44.1895 398.316 46.3974C396.007 48.5719 394.167 51.3485 392.796 54.7273C391.458 58.1061 390.789 61.4347 390.789 64.7131C390.789 67.3225 391.391 69.5471 392.595 71.387C393.799 73.227 395.589 74.1469 397.964 74.1469ZM421.05 75.2509C420.247 75.2509 419.846 75.0669 419.846 74.6989C419.846 74.4982 419.98 74.3477 420.248 74.2473C420.549 74.1135 421.034 73.9964 421.703 73.896C422.974 73.6619 424.011 73.227 424.814 72.5914C425.617 71.9557 426.185 71.0525 426.52 69.8816L432.642 48.4046C433.043 46.8992 433.244 45.8454 433.244 45.2433C433.244 44.5407 432.993 44.1895 432.491 44.1895H428.326C426.855 44.1895 425.667 44.4738 424.764 45.0425C423.894 45.5778 423.074 46.3138 422.305 47.2505C421.97 47.6184 421.686 48.0032 421.452 48.4046C420.816 49.2744 420.381 49.7093 420.147 49.7093C419.946 49.7093 419.796 49.6758 419.696 49.6089C419.629 49.5086 419.595 49.3246 419.595 49.0569C419.595 48.7224 419.762 48.2039 420.097 47.5014C420.197 47.2672 420.498 46.6483 421 45.6447C421.535 44.6076 421.937 43.5873 422.205 42.5837C422.271 42.3495 422.389 42.1321 422.556 41.9314C422.757 41.6972 422.924 41.5801 423.058 41.5801C423.258 41.5801 423.559 41.7808 423.961 42.1823C424.162 42.383 424.496 42.5335 424.964 42.6339C425.433 42.7343 426.369 42.7844 427.775 42.7844H445.689C447.06 42.7844 447.997 42.7343 448.499 42.6339C449.034 42.5001 449.419 42.3328 449.653 42.1321C449.686 42.0986 449.804 41.9983 450.004 41.831C450.205 41.6638 450.372 41.5801 450.506 41.5801C450.841 41.5801 451.008 41.7641 451.008 42.1321C451.008 42.4666 450.841 42.935 450.506 43.5371C450.272 43.9386 449.971 44.708 449.603 45.8454C449.268 46.9828 448.984 48.1537 448.75 49.358C448.649 49.8264 448.465 50.0605 448.198 50.0605C447.964 50.0605 447.78 49.9602 447.646 49.7595C447.545 49.5587 447.495 49.2744 447.495 48.9064C447.495 47.3006 447.228 46.113 446.692 45.3436C446.191 44.5742 445.338 44.1895 444.133 44.1895H439.115C438.647 44.1895 438.279 44.2898 438.011 44.4906C437.744 44.6913 437.476 45.0927 437.208 45.6949C436.974 46.297 436.673 47.2505 436.305 48.5551L430.233 69.8816C430.1 70.3165 430.033 70.7682 430.033 71.2365C430.033 72.6415 430.936 73.5281 432.742 73.896C433.244 73.9964 433.579 74.0968 433.746 74.1971C433.913 74.2975 433.997 74.4647 433.997 74.6989C433.997 75.0669 433.495 75.2509 432.491 75.2509C431.321 75.2509 430.35 75.2007 429.581 75.1004C428.577 75.0335 427.758 75 427.122 75C426.353 75 425.366 75.0335 424.162 75.1004C423.258 75.2007 422.221 75.2509 421.05 75.2509ZM442.782 75.2509C442.012 75.2509 441.628 75.0669 441.628 74.6989C441.628 74.4982 441.745 74.3477 441.979 74.2473C442.213 74.1135 442.665 73.9462 443.334 73.7455C444.538 73.411 445.374 73.1099 445.843 72.8423C446.311 72.5412 446.646 72.0561 446.846 71.387L454.323 47.3508C454.624 46.3138 454.775 45.628 454.775 45.2934C454.775 44.892 454.624 44.5909 454.323 44.3902C454.056 44.156 453.587 43.9553 452.918 43.788C452.45 43.6877 452.132 43.5706 451.965 43.4368C451.798 43.2695 451.714 43.0521 451.714 42.7844C451.714 42.4165 452.216 42.2325 453.219 42.2325C454.189 42.2325 455.109 42.2659 455.979 42.3328L457.986 42.383L460.094 42.3328C461.098 42.2659 462.051 42.2325 462.954 42.2325C463.757 42.2325 464.159 42.4165 464.159 42.7844C464.159 43.2528 463.54 43.5873 462.302 43.788C461.098 44.0222 460.161 44.4237 459.492 44.9924C458.823 45.5611 458.338 46.3472 458.037 47.3508L454.976 57.2363V57.3868C454.976 57.5875 455.143 57.6879 455.477 57.6879H472.288C472.421 57.6879 472.522 57.6377 472.589 57.5374C472.656 57.437 472.723 57.2865 472.789 57.0857L475.85 47.3006C476.018 46.7319 476.101 46.297 476.101 45.996C476.101 44.8585 475.349 44.1226 473.843 43.788C473.375 43.6877 473.057 43.5706 472.89 43.4368C472.723 43.2695 472.639 43.0521 472.639 42.7844C472.639 42.4165 473.141 42.2325 474.144 42.2325C475.081 42.2325 476.051 42.2659 477.055 42.3328L479.514 42.383L481.17 42.3328C481.906 42.2659 482.775 42.2325 483.779 42.2325C484.582 42.2325 484.983 42.4165 484.983 42.7844C484.983 43.2528 484.364 43.5873 483.127 43.788C481.989 43.9888 481.203 44.3567 480.768 44.892C480.367 45.3938 479.982 46.1967 479.614 47.3006L472.338 70.9354C472.204 71.3369 472.137 71.7216 472.137 72.0896C472.137 72.9928 472.773 73.5615 474.044 73.7957C474.512 73.896 474.83 74.0131 474.997 74.1469C475.198 74.2808 475.298 74.4647 475.298 74.6989C475.298 75.0669 474.797 75.2509 473.793 75.2509C472.656 75.2509 471.736 75.2007 471.033 75.1004C470.297 75.0335 469.628 75 469.026 75C468.424 75 467.688 75.0335 466.818 75.1004C466.082 75.2007 465.129 75.2509 463.958 75.2509C463.155 75.2509 462.753 75.0669 462.753 74.6989C462.753 74.2975 463.356 73.9964 464.56 73.7957C466.768 73.4277 468.206 72.2066 468.875 70.1325L471.987 60.3474C472.02 60.2805 472.053 60.1802 472.087 60.0464C472.12 59.8791 472.137 59.762 472.137 59.6951C472.137 59.6282 472.087 59.5947 471.987 59.5947H454.674C454.507 59.5947 454.373 59.7787 454.273 60.1467L451.312 69.7813C451.112 70.4169 451.011 70.9856 451.011 71.4874C451.011 72.1899 451.229 72.7084 451.664 73.043C452.099 73.3775 452.768 73.6284 453.671 73.7957C454.139 73.896 454.457 74.0131 454.624 74.1469C454.825 74.2808 454.925 74.4647 454.925 74.6989C454.925 75.0669 454.424 75.2509 453.42 75.2509C452.249 75.2509 451.262 75.2007 450.459 75.1004C449.456 75.0335 448.636 75 448.001 75C447.398 75 446.629 75.0335 445.692 75.1004C444.956 75.2007 443.986 75.2509 442.782 75.2509ZM478.208 75.2509C477.438 75.2509 477.054 75.0669 477.054 74.6989C477.054 74.2975 477.656 73.9964 478.86 73.7957C480.064 73.5615 480.917 73.1935 481.419 72.6917C481.955 72.1565 482.423 71.27 482.824 70.0322L489.749 47.3508C490.05 46.3138 490.201 45.628 490.201 45.2934C490.201 44.892 490.05 44.5909 489.749 44.3902C489.482 44.156 489.013 43.9553 488.344 43.788C487.876 43.6877 487.558 43.5706 487.391 43.4368C487.223 43.2695 487.14 43.0521 487.14 42.7844C487.14 42.4165 487.642 42.2325 488.645 42.2325C489.615 42.2325 490.535 42.2659 491.405 42.3328L493.412 42.383L495.57 42.3328C496.507 42.2659 497.443 42.2325 498.38 42.2325C499.183 42.2325 499.584 42.4165 499.584 42.7844C499.584 43.2528 498.966 43.5873 497.728 43.788C496.523 44.0222 495.587 44.4237 494.918 44.9924C494.249 45.5611 493.764 46.3472 493.462 47.3508L488.043 65.0644V65.2149C488.043 65.3822 488.093 65.4993 488.194 65.5662C488.327 65.6331 488.444 65.6163 488.545 65.516L511.025 47.8526C511.327 47.6184 511.527 47.3508 511.628 47.0497L511.828 46.4978C511.895 46.2301 511.929 46.0127 511.929 45.8454C511.929 45.3771 511.745 44.9589 511.377 44.5909C511.009 44.2229 510.423 43.9553 509.62 43.788C509.152 43.6877 508.834 43.5706 508.667 43.4368C508.5 43.2695 508.416 43.0521 508.416 42.7844C508.416 42.4165 508.918 42.2325 509.921 42.2325C510.858 42.2325 511.828 42.2659 512.832 42.3328L515.291 42.383L516.947 42.3328C517.683 42.2659 518.552 42.2325 519.556 42.2325C520.359 42.2325 520.76 42.4165 520.76 42.7844C520.76 43.2528 520.141 43.5873 518.904 43.788C517.766 43.9888 516.98 44.3567 516.545 44.892C516.144 45.3938 515.759 46.1967 515.391 47.3006L508.416 69.982C508.115 70.9187 507.964 71.6379 507.964 72.1397C507.964 72.6081 508.098 72.9761 508.366 73.2437C508.667 73.4779 509.152 73.6619 509.821 73.7957C510.289 73.896 510.607 74.0131 510.775 74.1469C510.975 74.2808 511.076 74.4647 511.076 74.6989C511.076 75.0669 510.574 75.2509 509.57 75.2509C508.399 75.2509 507.479 75.2007 506.81 75.1004C506.007 75.0335 505.338 75 504.803 75C504.201 75 503.465 75.0335 502.595 75.1004C501.826 75.2007 500.872 75.2509 499.735 75.2509C498.932 75.2509 498.531 75.0669 498.531 74.6989C498.531 74.2975 499.133 73.9964 500.337 73.7957C502.578 73.4277 504.017 72.2066 504.653 70.1325L510.223 51.7667C510.289 51.5659 510.306 51.3652 510.273 51.1645C510.239 50.9638 510.172 50.9136 510.072 51.014L487.19 68.9282C487.156 68.9282 487.09 68.9617 486.989 69.0286C486.922 69.0955 486.855 69.246 486.789 69.4802L486.538 70.1325C486.37 70.5674 486.287 70.9521 486.287 71.2867C486.287 71.9223 486.538 72.4575 487.039 72.8924C487.575 73.3273 488.26 73.6284 489.097 73.7957C489.565 73.896 489.883 74.0131 490.05 74.1469C490.251 74.2808 490.351 74.4647 490.351 74.6989C490.351 75.0669 489.849 75.2509 488.846 75.2509C487.675 75.2509 486.688 75.2007 485.885 75.1004C484.882 75.0335 484.062 75 483.426 75C482.757 75 481.988 75.0335 481.118 75.1004C480.315 75.2007 479.345 75.2509 478.208 75.2509ZM541.776 75.7025C540.472 75.7025 539.384 75.3011 538.515 74.4982C537.645 73.6953 536.959 72.7419 536.457 71.6379C535.956 70.5005 535.337 68.8948 534.601 66.8207C533.965 65.0476 533.396 63.6259 532.895 62.5554C532.393 61.4514 531.74 60.5482 530.938 59.8456C530.135 59.1097 529.148 58.7417 527.977 58.7417C527.341 58.7417 526.94 58.8253 526.773 58.9926C526.605 59.1264 526.472 59.3606 526.371 59.6951L523.16 70.0824C523.026 70.5173 522.959 70.9521 522.959 71.387C522.959 72.0561 523.176 72.5746 523.611 72.9426C524.08 73.3106 524.782 73.595 525.719 73.7957C526.187 73.896 526.505 74.0131 526.672 74.1469C526.873 74.2808 526.973 74.4647 526.973 74.6989C526.973 75.0669 526.472 75.2509 525.468 75.2509C524.297 75.2509 523.31 75.2007 522.507 75.1004C521.504 75.0335 520.684 75 520.048 75C519.312 75 518.342 75.0335 517.138 75.1004C516.235 75.2007 515.198 75.2509 514.027 75.2509C513.224 75.2509 512.823 75.0669 512.823 74.6989C512.823 74.2975 513.425 73.9964 514.629 73.7957C515.934 73.5615 516.971 73.1601 517.74 72.5914C518.543 72.0227 519.112 71.1863 519.446 70.0824L526.371 47.401C526.572 46.7319 526.672 46.1967 526.672 45.7952C526.672 45.2265 526.488 44.7916 526.12 44.4906C525.752 44.1895 525.15 43.9553 524.314 43.788C523.845 43.6877 523.528 43.5706 523.36 43.4368C523.193 43.2695 523.109 43.0521 523.109 42.7844C523.109 42.4165 523.611 42.2325 524.615 42.2325C525.518 42.2325 526.505 42.2659 527.575 42.3328L530.034 42.383L532.292 42.3328C533.296 42.2659 534.249 42.2325 535.153 42.2325C535.956 42.2325 536.357 42.4165 536.357 42.7844C536.357 43.2528 535.738 43.5873 534.5 43.788C533.229 44.0222 532.259 44.4069 531.59 44.9422C530.921 45.444 530.419 46.2636 530.084 47.401L527.676 55.3294C527.575 55.6305 527.525 55.8981 527.525 56.1323C527.525 56.7345 527.877 57.0356 528.579 57.0356C530.486 57.0356 532.46 56.3163 534.5 54.8778C536.574 53.4393 538.448 51.3318 540.12 48.5551C541.124 46.8156 541.977 45.4942 542.68 44.5909C543.382 43.6542 544.135 42.935 544.938 42.4332C545.774 41.8979 546.744 41.6303 547.848 41.6303C548.618 41.6303 549.236 41.8645 549.705 42.3328C550.173 42.8012 550.407 43.4702 550.407 44.34C550.407 45.0091 550.274 45.5443 550.006 45.9458C549.738 46.3472 549.42 46.5479 549.053 46.5479C548.015 46.2134 547.229 45.996 546.694 45.8956C546.159 45.7618 545.59 45.6949 544.988 45.6949C544.586 45.6949 544.168 45.9291 543.733 46.3974C543.332 46.8657 542.83 47.6519 542.228 48.7559C541.158 50.6627 540.054 52.1848 538.916 53.3222C537.812 54.4262 536.24 55.6472 534.199 56.9854C534.032 57.0857 533.915 57.1526 533.848 57.1861C533.815 57.2196 533.881 57.3032 534.049 57.437C534.852 58.1061 535.537 59.026 536.106 60.1969C536.675 61.3678 537.344 63.007 538.113 65.1145L538.465 66.1181C539.334 68.4933 540.187 70.2998 541.024 71.5376C541.893 72.7754 542.981 73.3942 544.285 73.3942C545.256 73.3942 545.741 73.6284 545.741 74.0968C545.741 74.5317 545.322 74.8996 544.486 75.2007C543.683 75.5353 542.78 75.7025 541.776 75.7025ZM558.086 75.7025C555.577 75.7025 553.47 75.1338 551.763 73.9964C550.091 72.8255 548.836 71.27 548 69.3297C547.197 67.3894 546.796 65.2149 546.796 62.8063C546.796 59.4609 547.582 56.1658 549.154 52.9208C550.726 49.6424 552.984 46.9494 555.928 44.8418C558.906 42.7343 562.385 41.6805 566.366 41.6805C568.875 41.6805 570.966 42.2659 572.638 43.4368C574.344 44.5742 575.599 46.113 576.402 48.0533C577.238 49.9936 577.656 52.1681 577.656 54.5767C577.656 57.9221 576.87 61.234 575.298 64.5124C573.726 67.7574 571.451 70.4336 568.473 72.5412C565.529 74.6487 562.067 75.7025 558.086 75.7025ZM558.237 74.1469C561.114 74.1469 563.706 73.0764 566.015 70.9354C568.356 68.761 570.163 66.0011 571.434 62.6557C572.739 59.3104 573.391 55.9818 573.391 52.6699C573.391 50.0271 572.789 47.769 571.584 45.8956C570.38 44.0222 568.59 43.0855 566.215 43.0855C563.439 43.0855 560.896 44.1895 558.588 46.3974C556.28 48.5719 554.44 51.3485 553.068 54.7273C551.73 58.1061 551.061 61.4347 551.061 64.7131C551.061 67.3225 551.663 69.5471 552.867 71.387C554.072 73.227 555.861 74.1469 558.237 74.1469ZM575.666 75.2509C575.231 75.2509 574.93 75.2007 574.763 75.1004C574.562 75.0335 574.462 74.8996 574.462 74.6989C574.462 74.4647 574.612 74.2808 574.913 74.1469C575.181 74.0131 575.632 73.896 576.268 73.7957C577.573 73.5615 578.61 73.1601 579.379 72.5914C580.149 72.0227 580.717 71.1696 581.085 70.0322L587.96 47.4512C588.194 46.6148 588.311 46.0461 588.311 45.7451C588.311 45.1764 588.127 44.7582 587.759 44.4906C587.391 44.2229 586.789 44.0055 585.953 43.8382C585.418 43.7379 585.05 43.6375 584.849 43.5371C584.682 43.4033 584.598 43.2193 584.598 42.9852C584.598 42.7844 584.749 42.6339 585.05 42.5335C585.384 42.4332 585.786 42.383 586.254 42.383C587.023 42.383 587.709 42.4332 588.311 42.5335C588.98 42.6004 589.549 42.6339 590.017 42.6339C590.419 42.6339 590.921 42.6004 591.523 42.5335C592.125 42.4666 592.543 42.4165 592.777 42.383C593.781 42.2157 594.567 42.1321 595.136 42.1321C598.314 42.1321 600.656 42.751 602.161 43.9888C603.666 45.1931 604.419 46.7487 604.419 48.6555C604.419 50.1609 603.951 51.4823 603.014 52.6197C602.111 53.7571 600.957 54.6771 599.552 55.3796C598.18 56.0487 596.808 56.4669 595.437 56.6341C595.203 56.6676 595.086 56.7512 595.086 56.885C595.086 56.9854 595.152 57.069 595.286 57.1359C597.394 57.9388 598.966 58.9591 600.003 60.1969C601.04 61.4347 601.559 63.1575 601.559 65.3654C601.559 67.2723 600.973 68.9784 599.803 70.4838C598.632 71.9557 597.026 73.1099 594.985 73.9462C592.945 74.7826 590.653 75.2007 588.111 75.2007C586.973 75.2007 585.702 75.1338 584.297 75C583.394 74.8996 582.557 74.8495 581.788 74.8495C581.018 74.8495 580.065 74.9164 578.928 75.0502C577.723 75.184 576.636 75.2509 575.666 75.2509ZM589.767 56.3832C591.004 56.3832 592.543 56.1825 594.383 55.7811C596.19 55.0116 597.628 54.0415 598.699 52.8706C599.803 51.6663 600.354 50.2613 600.354 48.6555C600.354 47.217 599.803 46.0294 598.699 45.0927C597.595 44.1226 596.089 43.6375 594.182 43.6375C593.547 43.6375 593.078 43.7044 592.777 43.8382C592.51 43.9386 592.342 44.1393 592.276 44.4404L589.164 55.6305C589.131 55.6974 589.114 55.7978 589.114 55.9316C589.114 56.2327 589.332 56.3832 589.767 56.3832ZM587.96 73.9462C589.465 73.9462 590.954 73.5448 592.426 72.7419C593.931 71.9056 595.152 70.7849 596.089 69.3798C597.026 67.9748 597.494 66.4192 597.494 64.7131C597.494 62.4048 596.792 60.6485 595.387 59.4442C594.015 58.2399 591.958 57.6377 589.215 57.6377C588.679 57.6377 588.328 57.9555 588.161 58.5911L584.949 69.5806C584.815 69.982 584.749 70.4336 584.749 70.9354C584.749 71.7048 584.983 72.307 585.451 72.7419C585.886 73.1433 586.271 73.4444 586.605 73.6451C586.973 73.8459 587.425 73.9462 587.96 73.9462Z" fill="black"/>
</g>
<defs>
<filter id="filter0_d" x="66.9141" y="40.5801" width="543.505" height="49.6566" filterUnits="userSpaceOnUse" color-interpolation-filters="sRGB">
<feFlood flood-opacity="0" result="BackgroundImageFix"/>
<feColorMatrix in="SourceAlpha" type="matrix" values="0 0 0 0 0 0 0 0 0 0 0 0 0 0 0 0 0 0 127 0"/>
<feOffset dx="3" dy="2"/>
<feGaussianBlur stdDeviation="1.5"/>
<feColorMatrix type="matrix" values="0 0 0 0 0.729412 0 0 0 0 0.533333 0 0 0 0 0.32549 0 0 0 1 0"/>
<feBlend mode="normal" in2="BackgroundImageFix" result="effect1_dropShadow"/>
<feBlend mode="normal" in="SourceGraphic" in2="effect1_dropShadow" result="shape"/>
</filter>
<clipPath id="clip0">
<rect width="63" height="130" fill="white"/>
</clipPath>
</defs>
</svg>
