<?xml version="1.0" encoding="iso-8859-1"?>
<!-- Generator: Adobe Illustrator 19.0.0, SVG Export Plug-In . SVG Version: 6.00 Build 0)  -->
<svg version="1.1" id="Layer_1" xmlns="http://www.w3.org/2000/svg" xmlns:xlink="http://www.w3.org/1999/xlink" x="0px" y="0px"
	 viewBox="0 0 318.966 318.966" style="enable-background:new 0 0 318.966 318.966;" xml:space="preserve">
<g>
	<g>
		<path style="fill:#EAEAE1;" d="M109.229,207.745v109.298c15.76,1.169,32.223,1.922,48.517,1.922
			c17.064,0,34.511-0.826,51.238-2.091l0.174-109.467L109.229,207.745L109.229,207.745z"/>
		<path style="fill:#EAEAE1;" d="M303.674,253.519c-11.151-37.754-67.121-33.566-91.279-44.408
			c-24.157-10.842-20.386-47.219-23.449-53.548h-58.932c-3.058,6.329,0.714,42.711-23.449,53.548
			c-24.157,10.842-80.133,6.655-91.279,44.408c-6.149,20.824-5.857,27.193-7.554,50.26c0,0,76.8,15.187,150.014,15.187
			s153.488-15.187,153.488-15.187C309.531,280.706,309.823,274.343,303.674,253.519z"/>
		<path style="fill:#4C4C4C;" d="M173.433,318.741l0.579-7.987l-6.082-80.51h-16.024l-7.099,80.515l0.585,8.066
			c4.12,0.084,8.24,0.141,12.354,0.141C162.951,318.966,168.189,318.881,173.433,318.741z"/>
		<path style="fill:#9E6F4C;" d="M303.674,253.519c-11.151-37.754-67.121-33.566-91.279-44.408c-1.141-0.511-2.22-1.079-3.237-1.703
			l0,0c0,0-37.731,52.114-49.046,52.114c-11.314,0-50.878-51.777-50.878-51.777h-0.017c-0.849,0.489-1.726,0.944-2.653,1.36
			c-24.157,10.842-80.133,6.655-91.279,44.408c-6.149,20.824-5.857,27.193-7.554,50.26c0,0,76.8,15.187,150.014,15.187
			s153.488-15.187,153.488-15.187C309.531,280.706,309.823,274.343,303.674,253.519z"/>
		<path style="fill:#8E633F;" d="M303.674,253.519c-11.151-37.754-67.121-33.566-91.279-44.408c-1.141-0.511-2.22-1.079-3.237-1.703
			l0,0c0,0-4.721,6.52-11.326,14.951c27.119,5.829,65.598,8.881,74.631,39.474c5.857,19.83,5.868,26.552,7.324,47.073
			c19.234-2.816,31.442-5.126,31.442-5.126C309.531,280.706,309.823,274.343,303.674,253.519z"/>
		<path style="fill:#C6C5AF;" d="M209.158,207.408l-43.498-1.315l20.24,30.902c4.227-4.952,8.352-10.072,11.933-14.636
			L209.158,207.408z"/>
		<path style="fill:#8E633F;" d="M200.406,222.898c-0.871-0.18-1.726-0.36-2.574-0.54c-3.575,4.564-7.7,9.684-11.933,14.636
			l3.513,5.362L200.406,222.898z"/>
		<path style="fill:#C6C5AF;" d="M153.182,206.092l-43.948,1.652c0,0,11.174,14.625,23.342,28.328L153.182,206.092z"/>
		<path style="fill:#8E633F;" d="M132.583,236.073c-12.169-13.703-23.342-28.328-23.342-28.328l0,0l19.026,34.612L132.583,236.073z"
			/>
		<polygon style="fill:#C6C5AF;" points="172.005,205.519 146.797,205.519 144.886,211.702 173.961,211.87 		"/>
		<path style="fill:#7F5732;" d="M200.406,222.898l8.751-15.49c0,0-4.721,6.52-11.326,14.951
			C198.675,222.544,199.535,222.718,200.406,222.898z"/>
		<polygon style="fill:#3A3A38;" points="151.968,230.598 167.931,230.239 168.257,234.735 		"/>
		<polygon style="fill:#4C4C4C;" points="140.541,208.183 178.256,208.161 178.188,218.952 167.593,230.598 151.968,230.598 
			140.614,218.952 		"/>
		<path style="fill:#EAEAE1;" d="M153.182,206.092l-32.105-14.557c0,0-3.389,4.817-11.843,16.21l19.251,29.092L153.182,206.092z"/>
		<path style="fill:#EAEAE1;" d="M165.66,206.092l31.183-14.557c0,0,3.861,4.48,12.315,15.873l-19.723,29.43L165.66,206.092z"/>
		<path style="fill:#E0DBD3;" d="M209.158,207.408c-8.453-11.393-12.315-15.873-12.315-15.873l-28.575,13.338
			c3.221,5.548,7.425,10.089,12.916,12.551c4.851,2.175,10.988,3.749,17.789,5.177L209.158,207.408z"/>
		<path style="fill:#4C453F;" d="M81.272,107.805c0,0-16.733-56.229,5.154-60.315c0,0,2.563-54.655,88.57-45.268
			c0,0,28.418,4.659,37.844-0.821s36.838,3.429,25.529,57.229c0,0,14.394,0.742-0.259,50.76l-37.956,46.05h-87.552L81.272,107.805z"
			/>
		
			<ellipse transform="matrix(-0.177 0.9842 -0.9842 -0.177 385.6578 -85.3719)" style="fill:#DDB58E;" cx="228.523" cy="118.558" rx="21.386" ry="11.629"/>
		
			<ellipse transform="matrix(-0.9842 0.177 -0.177 -0.9842 200.0908 219.2819)" style="fill:#E8C59E;" cx="90.265" cy="118.566" rx="11.629" ry="21.386"/>
		<path style="fill:#E8C59E;" d="M223.642,47.366l-63.653,9.218c0,0-22.556,0.922-40.957,9.729
			c-16.89,8.088-29.75,23.91-29.919,28.378c-1.647,44.156,7.931,104.645,70.303,113.48
			C259.637,193.98,223.642,47.366,223.642,47.366z"/>
		<path style="fill:#DDB58E;" d="M159.421,208.172c100.216-14.192,64.221-160.806,64.221-160.806h-15.024
			c4.114,61.242,9.808,93.774-13.815,129.24C176.086,204.71,159.421,208.172,159.421,208.172z"/>
		<path style="fill:#DDB58E;" d="M221.259,40.835c0,0-34.741,15.721-86.597,14.883C88.95,54.982,89.545,91.865,89.146,94.355
			c0,0,6.25-15.743,35.972-20.836c27.007-4.626,42.211,2.63,59.23,11.904c17.025,9.274,26.102,6.672,33.538,3.968
			C223.192,87.469,231.483,49.373,221.259,40.835z"/>
		<path style="fill:#4C453F;" d="M221.259,36.681c0,0-34.752,16.328-86.597,14.883C79.254,50.025,88.86,93.219,89.146,94.36
			c0,0,6.25-19.903,35.972-24.995c27.007-4.626,42.211,2.63,59.23,11.904c17.025,9.274,26.102,6.672,33.538,3.968
			c5.3-1.928,16.631-9.566,20.476-26.608C238.368,58.63,231.483,45.219,221.259,36.681z"/>
	</g>
</g>
<g>
</g>
<g>
</g>
<g>
</g>
<g>
</g>
<g>
</g>
<g>
</g>
<g>
</g>
<g>
</g>
<g>
</g>
<g>
</g>
<g>
</g>
<g>
</g>
<g>
</g>
<g>
</g>
<g>
</g>
</svg>
