<svg width="611" height="73" viewBox="0 0 611 73" fill="none" xmlns="http://www.w3.org/2000/svg">
<mask id="mask0" mask-type="alpha" maskUnits="userSpaceOnUse" x="0" y="0" width="64" height="70">
<rect width="64" height="70" fill="#C4C4C4"/>
</mask>
<g mask="url(#mask0)">
<path fill-rule="evenodd" clip-rule="evenodd" d="M38.0843 20.2051C37.7644 20.5171 37.201 20.3274 36.7543 20.3616C36.3679 20.3913 35.9907 20.508 35.6904 20.5181C30.2854 20.7016 27.8818 17.0864 24.4297 15.3548C24.0389 14.8392 23.4607 14.4892 22.8341 14.1815C22.69 13.891 22.3712 13.7554 22.2131 13.4774C21.3951 12.933 20.5687 12.3747 19.8195 11.7563C19.2579 11.2931 18.7289 10.8378 18.1344 10.3481C17.619 9.92308 17.162 9.32856 16.6271 8.78352C16.4472 8.60001 16.2536 8.42502 16.0955 8.23588C15.9425 8.05337 15.8904 7.78933 15.7408 7.61013C15.4308 7.23948 14.9701 6.9627 14.6768 6.59305C14.3624 6.1971 14.1023 5.87173 13.7901 5.49787C12.5544 4.01928 11.4479 2.45998 10.0662 1.11702C9.08865 2.99577 9.39307 6.32259 10.1548 8.23588C10.494 9.08701 11.081 10.0033 11.6622 10.8175C12.254 11.6471 12.8355 12.4731 13.5241 13.008C14.0355 13.4053 14.6443 13.5921 14.9428 14.1032C15.2723 14.2157 15.6156 14.3624 15.9181 14.5726C16.2214 14.7835 16.848 15.1485 17.0708 15.5896C16.4084 15.6264 16.0434 15.4012 15.4752 15.3548C13.7126 14.2939 11.9141 12.6354 10.7755 10.6611C10.4881 10.1623 10.2597 9.79107 9.97753 9.17465C9.74441 8.66556 9.57595 7.97677 9.35687 7.2189C9.21611 6.73129 8.97375 6.2476 8.91354 5.81079C8.68374 4.13925 8.98964 1.50293 9.71153 0.334656C10.7784 0.257454 11.507 1.43868 12.1055 2.21221C13.0897 3.48408 13.9139 4.30289 14.8538 5.49787C15.231 5.97704 15.6289 6.31828 16.0064 6.82777C16.4147 7.37802 17.1905 8.04262 17.6024 8.70532C18.4473 9.52442 19.4881 10.1712 20.1737 11.1304C21.3072 11.5565 21.9836 12.5279 22.922 13.1645C23.3735 13.4702 23.9262 13.8851 24.4294 14.2597C25.3563 14.9494 26.4665 15.6916 27.444 16.4501C27.8197 16.7416 28.2756 17.0238 28.6853 17.3106C29.0806 17.5877 29.4375 17.9508 29.838 18.1712C30.6271 18.606 31.632 18.7126 32.3207 19.3447C33.8114 19.7416 35.2836 19.991 37.286 20.0487C37.4958 20.0549 37.9912 19.9122 38.0843 20.2051Z" fill="#030201"/>
<path fill-rule="evenodd" clip-rule="evenodd" d="M10.687 5.6543C10.7457 5.6543 10.8048 5.6543 10.864 5.6543C11.6915 6.09763 11.9819 7.01482 12.8146 7.45354C12.9036 7.68896 12.617 7.59208 12.4599 7.61005C12.7219 8.23951 13.825 8.12637 14.0556 8.78354C13.4013 8.83926 13.0466 8.63095 12.6369 8.47062C12.3329 9.23531 13.0278 9.7943 13.7896 9.87873C13.9093 9.66549 13.5339 9.21995 13.1689 9.17467C13.4888 8.50415 14.1147 9.16293 14.4099 9.40929C15.1233 10.0042 15.9009 10.736 16.6265 11.2868C17.6067 11.7484 18.3042 12.5542 19.1982 13.1644C19.7258 13.5246 20.3974 13.9252 20.7938 14.4943C21.9864 15.0849 23.0958 15.7489 23.9862 16.6066C25.0011 16.9886 25.6797 17.6675 26.4688 18.2494C26.4969 18.5636 26.5309 18.8726 26.7348 19.0317C26.931 18.9527 26.5165 18.7624 26.6462 18.484C27.3614 18.7138 27.869 19.1265 28.4199 19.5011C28.5303 19.8332 28.1247 19.7103 28.0652 19.8922C28.3323 20.1732 28.4853 19.6943 28.8628 19.814C28.8148 20.4757 27.8531 20.3312 27.2672 20.5181C27.1239 20.1226 26.5346 20.1213 26.3805 19.7357C25.9476 20.0789 24.8067 20.2896 24.1639 19.9704C24.0907 19.7495 24.2888 19.7677 24.2526 19.5793C23.0053 19.6888 22.2158 19.3945 21.8586 18.7187C21.883 18.3491 22.4604 18.4674 22.7452 18.3276C21.9967 18.1001 20.8315 18.5091 19.8192 18.3276C19.4557 18.2624 19.1568 18.1145 18.8435 18.0147C18.8435 17.8843 18.8435 17.7539 18.8435 17.6235C19.8521 17.4194 20.7399 17.9785 21.9469 17.8583C21.9432 17.4964 21.2737 17.7219 21.1489 17.467C21.0713 17.2157 21.379 17.3047 21.4152 17.1541C21.304 16.7564 20.8175 16.6906 20.3509 16.6066C20.3564 16.9931 20.8267 16.9693 20.7055 17.467C20.2759 17.4029 20.1747 17.0485 19.9079 16.8412C19.7439 16.8529 19.8536 17.1062 19.7306 17.1541C19.6046 17.1473 19.4794 17.1411 19.4646 17.2324C18.7335 17.2471 18.0097 17.2086 17.4249 16.9977C17.3562 16.9729 17.3111 16.7871 17.2479 16.763C16.9021 16.631 16.3336 16.6571 16.2722 16.2936C17.3141 15.6456 18.5569 17.0244 19.7302 16.763C19.7228 16.1955 18.6895 16.5339 18.6662 15.9807C18.8432 15.9807 19.0209 15.9807 19.1982 15.9807C19.0863 15.7141 18.9378 15.4803 18.5772 15.4331C18.2561 15.3581 18.487 15.7708 18.3112 15.8242C17.5856 15.656 18.0925 14.4004 17.4245 14.1814C17.0942 14.0986 17.1386 14.346 16.9816 14.4161C16.5685 14.4457 16.8523 14.1293 16.5382 14.025C16.3823 13.9731 16.181 14.0921 16.0062 14.025C15.9837 14.0161 16.0288 13.8783 16.0062 13.8684C15.8403 13.7961 15.3512 13.8906 15.3856 13.6338C15.6349 13.2146 16.321 13.669 16.6265 13.712C16.5183 12.7644 14.9371 13.1165 14.4099 12.5385C14.9193 12.3257 15.6283 12.6096 16.0949 12.695C16.1196 12.3602 15.8241 12.3081 15.9176 11.9127C15.2141 11.8805 14.766 11.4248 14.1442 11.7563C14.0936 11.2269 13.2158 11.428 13.0802 10.9739C13.5077 10.7673 13.4368 11.0121 14.0556 10.9739C14.1775 10.1265 13.1552 9.93646 12.5486 10.1917C12.0972 9.49473 12.3188 8.20397 11.7506 7.61005C11.7259 7.43175 11.772 7.316 11.9276 7.29713C11.5474 6.72047 10.8573 6.41638 10.687 5.6543ZM14.4996 11.1304C14.9507 11.2021 15.2529 11.4045 15.741 11.4434C15.3638 11.0463 14.9888 10.647 14.4996 10.3481C14.4996 10.6089 14.4996 10.8696 14.4996 11.1304ZM16.7163 12.8515C16.9221 12.8264 17.0569 12.8642 17.1596 12.9297C16.9882 12.5855 16.959 12.1158 16.539 11.9909C16.4684 12.3922 16.7255 12.5043 16.7163 12.8515ZM17.071 13.7902C17.2187 13.7902 17.3665 13.7902 17.5143 13.7902C17.5069 13.5356 17.4009 13.3688 17.1596 13.3209C17.1005 13.3209 17.0414 13.3209 16.9827 13.3209C16.9176 13.5601 17.1352 13.551 17.071 13.7902ZM18.401 13.8684C18.4586 13.5044 18.3699 13.27 17.9576 13.3209C17.9218 13.6653 17.9336 13.9675 18.401 13.8684ZM18.667 14.9637C18.6038 14.7065 18.6248 14.375 18.3123 14.3379C18.323 14.6413 18.2048 15.0585 18.667 14.9637ZM19.2876 15.1201C19.4653 15.1521 19.9452 15.3138 20.0856 15.1201C19.8961 14.8177 19.8658 14.375 19.1993 14.4943C19.131 14.7889 19.3068 14.8682 19.2876 15.1201ZM20.7059 16.1371C20.6235 15.7144 20.0886 15.6913 19.6419 15.5896C19.7051 16.0293 20.0804 16.1938 20.7059 16.1371ZM21.8589 16.3718C21.8316 16.0804 21.467 15.6788 21.2383 15.8242C21.5198 15.941 21.3 16.4999 21.8589 16.3718ZM24.2529 17.467C23.8972 17.2069 23.5126 16.9729 23.1003 16.763C23.3489 17.0665 23.6633 17.7245 24.2529 17.467ZM21.9476 17.2324C22.2055 17.2187 22.5738 17.5072 22.7456 17.3106C22.5136 17.0981 22.3603 16.8161 21.8589 16.8412C21.7854 17.0625 21.9838 17.044 21.9476 17.2324ZM23.5436 18.3276C23.4568 17.987 23.1054 17.8794 22.6569 17.8583C22.7249 18.2155 23.1775 18.2334 23.5436 18.3276ZM24.7846 18.1712C24.5252 18.1914 24.5123 17.9945 24.2529 18.0147C24.1369 18.3465 24.7469 18.4371 24.7846 18.1712ZM25.7603 18.2494C25.5951 18.324 25.4636 18.015 25.4056 18.2494C25.4603 18.2722 25.747 18.4439 25.7603 18.2494ZM22.8343 18.7969C22.8442 18.8925 22.8605 18.9822 23.0112 18.9534C23.326 18.7093 24.3434 19.0858 24.5186 18.7187C23.9747 18.7602 23.2351 18.6295 22.8343 18.7969ZM25.3169 18.8752C25.2552 18.8139 24.8222 18.7012 24.7849 18.8752C24.8463 18.9365 25.2796 19.0492 25.3169 18.8752ZM25.1392 19.4228C25.4521 19.4906 25.6077 19.2318 25.3166 19.1882C25.2955 19.2996 25.1706 19.3202 25.1392 19.4228ZM27.7105 19.5011C27.5931 19.5124 27.3806 19.238 27.3559 19.4228C27.4745 19.411 27.6237 19.7409 27.7105 19.5011Z" fill="#140C06"/>
<path fill-rule="evenodd" clip-rule="evenodd" d="M42.1629 33.2696C42.0961 32.8977 42.3865 32.841 42.5176 32.6437C42.8054 32.0633 42.9236 31.3331 43.4933 31.0009C43.4623 31.6519 43.193 32.092 42.8726 32.4873C43.0422 33.1676 42.4736 33.6647 42.4293 34.2084C42.3913 34.6729 42.8398 35.1537 42.4293 35.6166C42.0946 35.5207 42.167 35.0656 42.1629 34.6778C41.3302 35.0904 41.8408 36.6883 41.4536 37.494C40.8455 37.2815 40.6102 37.765 40.301 38.0417C40.2614 38.6845 40.2755 39.3749 39.6803 39.5281C39.4911 39.2429 39.8125 38.8396 39.8576 38.5111C39.1472 38.3028 39.5044 39.7112 38.705 39.6845C38.6931 39.4918 38.6917 39.3077 38.7933 39.2152C38.4467 39.2024 38.0481 40.0398 37.2863 39.6845C37.1906 39.2614 37.5264 39.2187 37.4633 38.824C37.1581 38.6881 36.8644 39.2324 36.3993 39.2152C36.0671 39.6259 36.1174 40.3746 35.3353 40.3885C35.1225 40.1245 35.5924 39.9218 35.6899 39.6845C35.5329 39.4775 35.3305 39.7995 35.2466 39.5281C35.2943 39.2832 35.5776 39.2461 35.8673 39.2152C35.9977 38.8084 36.059 38.3409 36.3106 38.0417C36.7798 38.1124 36.3963 38.4485 36.4879 38.824C38.0917 38.5042 37.5002 36.4627 37.6406 35.1471C38.0677 35.2394 38.0189 35.7518 38.0836 36.1641C38.8213 36.1113 38.6957 34.9986 38.5269 34.2084C38.1512 34.3733 37.6254 35.081 37.0196 35.3036C36.8186 34.7843 37.6476 34.5839 37.9953 34.2084C38.156 34.0343 38.0828 33.8241 38.3499 33.739C38.3695 33.487 38.1929 33.4078 38.2613 33.1132C38.4999 33.0591 38.4327 33.2748 38.5273 33.3479C39.2329 32.7533 38.2679 32.224 38.3503 31.4703C38.5834 31.4472 38.4197 31.7738 38.705 31.7051C38.8513 31.3911 38.9813 31.0625 39.1483 30.7663C39.0441 30.3888 38.7859 30.1473 38.6163 29.8275C38.1874 30.4136 38.2631 31.4455 37.5523 31.7833C37.3572 31.3237 38.4829 30.1049 38.3503 29.3581C38.276 28.9392 37.9136 28.9839 37.7293 28.5758C37.9561 28.3988 38.3547 28.5442 38.5273 28.654C38.7988 28.2551 38.4896 27.6983 38.2613 27.4806C38.0311 27.5644 38.1368 27.9444 37.9066 28.0282C37.5224 27.9291 37.8859 27.6188 37.9066 27.4023C37.9945 26.4721 37.9084 25.0665 37.6406 24.3514C37.5353 24.0792 36.8297 24.337 36.9313 23.8819C36.8987 23.5501 37.3151 23.8136 37.4629 23.8037C37.375 23.5166 37.1363 23.3617 37.1082 23.0215C36.6948 22.9384 36.4089 23.2259 36.1329 23.0215C36.1026 22.6818 36.3767 22.6111 36.6645 22.552C36.6586 22.3226 36.4617 22.2616 36.3099 22.1609C35.7276 22.2991 35.3811 22.6453 34.6252 22.6303C34.6499 22.5039 34.5413 22.4953 34.5365 22.3956C34.7113 21.8979 35.7346 22.1492 35.7779 21.5351C35.588 21.1547 34.6581 21.4275 34.2705 21.2221C34.4375 20.5882 35.3305 20.9865 35.8662 21.066C36.0524 21.2411 36.2589 21.3975 36.4872 21.5354C36.7059 21.5455 36.9143 21.5471 37.0188 21.4572C37.1592 21.3202 37.1374 21.0402 37.1962 20.8313C38.1552 20.3737 39.4952 20.2521 41.0084 20.2838C41.1529 20.5481 41.4991 20.6331 41.4518 21.066C40.5019 21.4839 39.4099 20.8919 38.2598 20.9878C38.8949 21.3662 39.2765 21.9683 39.1464 23.0218C39.4305 23.1883 39.6977 23.3699 40.0327 23.4911C40.332 23.1199 39.8842 22.7382 39.8558 22.3959C40.4993 22.3901 40.5415 23.2838 40.3874 23.7258C40.7868 24.1567 41.0901 24.3409 41.4514 24.8211C41.4994 24.885 41.7056 25.1089 41.7178 25.134C42.0214 25.7827 41.8179 26.6151 41.9838 27.4027C42.0573 27.7521 42.4345 28.0438 42.3384 28.4197C42.0554 28.4868 42.0643 28.2968 41.8951 28.2632C41.6612 28.5569 41.6476 29.2291 41.8951 29.5149C42.5634 28.8317 42.6894 27.5044 42.9591 26.6986C43.6404 27.2919 42.7371 28.3929 42.6044 28.9672C42.5775 29.2117 42.8605 28.7685 42.8708 29.0456C43.272 30.9651 41.1673 31.8797 42.0728 33.8175C42.2158 33.6402 42.846 33.0398 42.1629 33.2696ZM37.7296 21.3003C37.0258 21.3418 38.1641 21.2749 37.7296 21.3003V21.3003ZM37.198 21.848C37.225 22.085 37.4721 22.1274 37.375 22.4738C38.1264 22.3585 38.4475 22.6228 38.8823 22.7868C38.8162 22.141 38.6499 21.5837 38.0843 21.3786C38.0861 21.7972 37.4551 21.6579 37.198 21.848ZM38.7053 24.2732C38.7057 23.8555 38.4903 23.628 38.439 23.2561C38.1722 23.1786 38.0437 22.9794 37.6413 23.0215C37.7511 23.6548 38.0189 24.1486 38.7053 24.2732ZM39.1487 24.5861C39.4771 24.7151 39.8107 25.251 40.124 25.1336C39.9939 25.0659 39.8428 25.0167 39.858 24.8207C39.9788 24.1405 39.6282 23.8761 39.06 23.8037C39.1516 24.0097 39.166 24.2839 39.1487 24.5861ZM38.8827 25.916C38.8199 25.3192 38.8768 24.6173 38.1733 24.5861C38.2897 25.1354 38.2162 25.8518 38.8827 25.916ZM41.5427 26.7765C41.5205 25.8052 41.164 25.1291 40.5673 24.6643C40.37 25.8293 41.062 26.2097 41.5427 26.7765ZM40.124 26.8548C40.2976 25.9453 39.8262 25.6047 39.326 25.2902C39.1963 26.1605 39.4867 26.6604 40.124 26.8548ZM38.7936 27.4023C38.9521 26.7413 38.7707 26.39 38.3507 26.0724C38.16 26.6527 38.272 27.2381 38.7936 27.4023ZM41.3653 28.4976C41.6284 27.5494 41.2242 26.8941 40.5673 26.5419C40.2699 27.4857 40.8928 28.0047 41.3653 28.4976ZM39.858 28.4976C39.8506 27.8258 40.0024 27.0141 39.237 27.0112C39.002 27.7466 39.3105 28.2446 39.858 28.4976ZM40.922 30.0621C41.2563 29.2587 40.973 28.5826 40.39 28.1847C39.9625 28.8767 40.2437 29.7431 40.922 30.0621ZM39.5033 29.8275C39.7996 29.2597 39.3851 28.6941 38.9713 28.4976C38.7101 29.1429 38.8657 29.6147 39.5033 29.8275ZM42.4293 30.2186C42.4943 29.9344 42.7415 29.4028 42.5176 29.1235C42.4371 29.4986 41.874 29.9553 42.4293 30.2186ZM41.6313 31.8615C41.7547 31.4231 42.0953 31.1757 42.1629 30.688C41.891 30.4067 41.799 29.9664 41.4536 29.7492C41.0413 30.3868 41.2105 31.3459 41.6313 31.8615ZM40.301 31.2356C40.8422 30.836 40.3154 30.1127 39.9463 29.8275C39.6223 30.262 39.9363 30.9524 40.301 31.2356ZM38.8827 32.0962C39.0903 32.3563 39.1845 32.7161 39.5037 32.8785C39.9714 32.413 40.1111 31.3579 39.3264 31.0792C39.2466 31.4785 39.0079 31.7373 38.8827 32.0962ZM40.8333 32.8785C41.6605 32.6411 40.9889 31.866 40.922 31.3138C40.8333 31.3138 40.7447 31.3138 40.6556 31.3138C40.3457 31.856 40.6002 32.4016 40.8333 32.8785ZM40.0353 34.0519C40.5407 33.8198 40.6327 32.8123 40.0353 32.5655C39.7996 33.0965 39.5229 33.6063 40.0353 34.0519ZM41.454 34.9907C41.543 34.8867 41.5382 34.6996 41.7204 34.6778C41.6465 34.1011 41.7196 33.1109 41.3657 32.9567C40.8987 33.4926 41.2297 34.3974 41.454 34.9907ZM38.7936 33.9737C39.057 33.9838 39.3659 33.3338 38.971 33.2696C38.9418 33.5304 38.7146 33.6167 38.7936 33.9737ZM39.1487 34.9907C39.7398 34.9503 39.6541 34.1312 39.3256 33.8954C39.0327 34.1706 38.8716 34.5966 39.1487 34.9907ZM40.4787 36.3206C40.653 36.1091 40.7679 35.8457 41.0103 35.6948C40.9471 35.0464 40.9475 34.342 40.5673 33.9737C39.8898 34.445 40.2367 35.5895 40.4787 36.3206ZM39.5033 37.4158C39.6371 37.2352 39.8824 37.0628 39.9463 36.7118C39.9943 36.4487 39.8011 35.0826 39.5916 35.1471C38.971 35.5549 39.4102 36.717 39.5033 37.4158ZM38.0843 36.8682C38.0584 36.9458 38.1785 37.1837 38.173 37.2594C38.1198 37.9876 37.8253 38.9009 37.8183 39.4498C38.1593 39.1509 38.651 38.985 38.8823 38.5893C38.7855 38.3125 38.4471 38.866 38.3507 38.5893C38.1874 38.2871 38.7545 38.2194 38.8823 37.8069C39.0434 37.2893 38.8361 36.5918 38.7936 36.0859C38.6289 36.3415 38.2166 36.4774 38.0843 36.8682ZM40.39 37.3376C40.8045 37.3118 40.7738 36.8937 41.188 36.8682C41.1333 36.656 41.3007 36.2475 41.0993 36.1641C40.823 36.5198 40.4369 36.7792 40.39 37.3376ZM39.4147 38.1982C39.5635 38.0652 40.0737 37.8461 39.7693 37.5723C39.6603 37.7412 39.2591 38.0557 39.4147 38.1982Z" fill="#030201"/>
<path fill-rule="evenodd" clip-rule="evenodd" d="M33.651 27.7934C33.0392 26.0013 32.8016 23.6204 30.548 23.5689C29.5121 23.5455 29.0004 24.1817 27.888 23.9602C27.7015 23.6551 27.8437 23.0604 27.7994 22.6303C27.9963 22.449 28.1455 22.657 28.4204 22.6303C29.3034 22.1038 30.4361 21.4743 31.878 21.6915C32.2848 22.0887 32.6225 22.5471 33.1194 22.8649C33.4615 23.5425 33.849 24.834 34.0947 25.9941C34.2672 26.8103 34.531 27.4965 33.651 27.7934Z" fill="#030201"/>
<path fill-rule="evenodd" clip-rule="evenodd" d="M43.6708 22.8651C42.7967 23.1698 41.8066 22.5365 40.8335 22.3175C40.2949 22.1962 39.7677 22.2761 39.3262 22.0046C39.5852 21.5711 40.3639 21.6884 40.9222 21.6916C41.6976 21.6958 42.52 21.7751 43.0502 21.8481C43.1787 22.2558 43.6852 22.3308 43.6708 22.8651Z" fill="#030201"/>
<path fill-rule="evenodd" clip-rule="evenodd" d="M45.0893 24.8207C44.8455 25.0188 44.6006 25.0947 44.2027 24.9771C43.6057 24.2264 42.5513 23.8783 41.5427 23.4908C42.2901 22.7671 43.5211 23.6615 44.38 23.8036C44.6024 24.1551 44.9907 24.3601 45.0893 24.8207Z" fill="#030201"/>
<path fill-rule="evenodd" clip-rule="evenodd" d="M4.92358 23.5691C5.40866 23.6885 6.14496 23.5867 6.34224 23.9602C7.26216 24.0156 7.99624 23.9068 8.73623 23.8038C8.49868 24.6168 6.81587 24.416 6.16491 24.4297C5.89559 24.1457 5.40238 24.0593 4.92358 23.9602C4.92358 23.8299 4.92358 23.6995 4.92358 23.5691Z" fill="#030201"/>
<path fill-rule="evenodd" clip-rule="evenodd" d="M42.9614 25.0554C44.5792 25.1927 45.5859 25.8693 45.9761 27.0894C45.5379 27.3684 45.2734 26.7941 44.9121 26.62C44.6594 26.4985 44.2822 26.5173 44.0254 26.3853C43.561 26.1471 43.3035 25.6516 42.9614 25.3683C42.9614 25.264 42.9614 25.1597 42.9614 25.0554Z" fill="#030201"/>
<path fill-rule="evenodd" clip-rule="evenodd" d="M31.5235 29.671C31.593 29.844 32.0725 29.656 31.9668 29.9839C31.5276 30.4494 30.8777 30.4223 30.3708 30.6879C30.1998 30.7776 30.0062 30.9533 29.8392 31.0792C29.66 31.2141 29.4413 31.3389 29.3072 31.4703C28.9319 31.8373 28.8181 32.5508 28.1546 32.722C26.9668 31.8504 28.8413 30.896 29.4849 30.5315C28.4915 30.1303 27.4061 29.8102 27.5343 28.4193C28.2 28.3808 28.63 28.1342 29.2189 28.0281C28.7494 27.6862 28.3112 27.3166 27.8003 27.0112C27.794 26.2234 28.8554 26.3775 29.2189 25.916C31.986 25.324 32.9315 28.4206 31.5235 29.671Z" fill="#030201"/>
<path fill-rule="evenodd" clip-rule="evenodd" d="M44.114 27.0896C44.1731 27.0896 44.2322 27.0896 44.2913 27.0896C45.4791 27.4762 46.7415 28.2132 46.508 29.593C46.0333 29.5424 46.0037 29.0992 45.7987 28.8106C45.1148 28.3448 44.2466 28.0417 44.114 27.0896Z" fill="#030201"/>
<path fill-rule="evenodd" clip-rule="evenodd" d="M23.7208 27.8718C23.8094 27.8718 23.8981 27.8718 23.9871 27.8718C23.9007 28.8164 23.0765 29.3921 23.5438 30.3751C22.233 29.9322 23.4636 28.5638 23.7208 27.8718Z" fill="#030201"/>
<path fill-rule="evenodd" clip-rule="evenodd" d="M33.4741 28.4975C33.4649 29.0109 32.9602 29.0875 32.7648 29.4363C32.1234 29.1934 32.8601 28.1181 33.4741 28.4975Z" fill="#030201"/>
<path fill-rule="evenodd" clip-rule="evenodd" d="M46.6854 31.1576C46.5879 31.4102 46.4464 31.6243 46.3308 31.8617C45.6177 31.9693 45.5051 31.5474 45.4441 31.0794C45.0957 30.2394 44.5464 29.5767 44.1141 28.8107C44.0997 28.7198 44.1337 28.6715 44.2028 28.6542C44.5512 28.5095 44.7407 29.0946 45.0894 29.2019C45.518 29.9454 46.183 30.4797 46.6854 31.1576Z" fill="#030201"/>
<path fill-rule="evenodd" clip-rule="evenodd" d="M37.4644 29.4375C37.5531 29.4375 37.6418 29.4375 37.7304 29.4375C37.9672 30.6731 36.9786 31.2427 36.2231 31.9408C35.8795 32.2586 35.5828 32.7499 35.0708 32.7232C35.0061 32.3415 35.4713 32.2459 35.6915 32.0191C36.2135 31.4812 36.7292 30.8981 37.2875 30.298C37.2162 29.8964 37.382 29.7037 37.4644 29.4375Z" fill="#030201"/>
<path fill-rule="evenodd" clip-rule="evenodd" d="M43.9368 33.426C44.0251 33.426 44.1138 33.426 44.2028 33.426C44.8641 34.059 45.4685 35.7575 44.8235 36.7899C44.1699 36.6331 44.4296 35.8553 44.3801 35.3036C44.3159 34.5848 44.0831 33.9251 43.9368 33.426Z" fill="#030201"/>
<path fill-rule="evenodd" clip-rule="evenodd" d="M35.2475 33.8171C35.3491 34.4322 34.305 34.975 33.7401 34.9906C33.7265 34.5222 34.7591 34.3345 34.9815 33.8171C35.0698 33.8171 35.1588 33.8171 35.2475 33.8171Z" fill="#030201"/>
<path fill-rule="evenodd" clip-rule="evenodd" d="M17.2483 36.2425C17.3916 36.2206 17.4009 36.3165 17.5143 36.3207C17.1518 36.9896 17.3661 37.7321 17.4256 38.2765C16.4865 38.1249 16.7654 36.648 17.2483 36.2425Z" fill="#030201"/>
<path fill-rule="evenodd" clip-rule="evenodd" d="M17.8688 36.3987C18.4303 36.6859 17.98 37.8652 18.2234 38.4327C17.2869 38.4933 17.5063 36.7628 17.8688 36.3987Z" fill="#030201"/>
<path fill-rule="evenodd" clip-rule="evenodd" d="M20.795 36.7115C20.7783 37.0359 20.6217 37.237 20.2633 37.2592C19.7461 37.8332 19.8078 38.6217 19.7313 39.4497C19.3988 39.831 18.592 39.9822 18.224 39.5279C18.1146 39.1077 18.6433 39.05 18.8447 38.7456C19.0671 38.4105 19.0183 37.9679 19.1997 37.6503C19.4934 37.1347 20.0986 36.6095 20.795 36.7115Z" fill="#030201"/>
<path fill-rule="evenodd" clip-rule="evenodd" d="M27.001 37.4939C27.5781 37.8916 27.297 38.1559 27.0897 39.0584C26.8662 40.0327 26.7336 40.8633 26.1144 41.4836C25.183 42.4172 23.6897 42.6049 22.3017 42.1877C21.9962 41.7874 22.3863 41.6133 22.6564 41.4054C22.7927 41.3004 23.0018 41.3539 23.1884 41.2489C23.6975 40.9628 24.4341 40.2352 25.1387 40.0755C25.8391 39.2847 26.5115 38.4701 27.001 37.4939ZM25.9374 40.3884C25.9297 40.2176 26.1801 39.8825 26.0261 39.8408C25.9884 40.0371 25.5417 40.2717 25.9374 40.3884ZM24.1641 41.4836C24.6876 41.8327 25.3929 41.2216 25.4941 40.7014C24.8679 40.5325 24.3813 41.0433 24.1641 41.4836ZM23.3661 41.8747C23.5682 41.8966 23.6993 41.8559 23.7208 41.7183C23.495 41.6779 23.3768 41.585 23.3661 41.8747Z" fill="#030201"/>
<path fill-rule="evenodd" clip-rule="evenodd" d="M42.5178 37.4939C42.6065 37.4939 42.6951 37.4939 42.7842 37.4939C43.3513 38.604 42.7853 40.4386 41.7202 40.8578C41.48 40.5276 41.9345 40.2413 42.0748 39.9972C42.1864 39.2355 42.4321 38.5917 42.4295 37.7285C42.4048 37.6024 42.5134 37.5939 42.5178 37.4939Z" fill="#030201"/>
<path fill-rule="evenodd" clip-rule="evenodd" d="M41.6315 39.4497C41.7582 39.7476 41.5151 40.1091 41.3655 40.4667C41.1837 40.9015 40.5878 41.981 39.8582 41.7966C40.3152 41.0006 40.8146 40.2414 41.2768 39.4497C41.395 39.4497 41.5133 39.4497 41.6315 39.4497Z" fill="#030201"/>
<path fill-rule="evenodd" clip-rule="evenodd" d="M17.337 40.0756C17.4397 40.0629 17.4948 40.0929 17.514 40.1539C17.9074 40.4029 17.5576 40.8485 17.514 41.1708C17.3721 42.2228 18.1435 43.5286 19.199 43.596C19.7439 43.6309 19.7366 43.3192 20.3513 43.3613C20.3735 43.9641 19.4185 44.3558 18.401 44.2998C17.473 43.9079 16.8822 42.9451 16.8937 41.7964C16.9 41.1702 17.1867 40.6089 17.337 40.0756Z" fill="#030201"/>
<path fill-rule="evenodd" clip-rule="evenodd" d="M37.6414 40.3884C37.7474 40.7366 37.2065 40.9162 36.932 41.0143C36.3812 41.2111 35.4328 41.3207 34.8923 41.249C35.353 40.7212 36.7174 40.8605 37.2863 40.3884C37.4049 40.3884 37.5231 40.3884 37.6414 40.3884Z" fill="#030201"/>
<path fill-rule="evenodd" clip-rule="evenodd" d="M39.6808 40.4667C39.7011 40.9331 39.1629 41.173 38.8828 41.4054C38.6128 41.6297 38.3538 42.0965 37.7302 41.9531C38.0689 41.2608 38.9212 41.0221 39.3262 40.3885C39.5116 40.3555 39.5611 40.4423 39.6808 40.4667Z" fill="#030201"/>
<path fill-rule="evenodd" clip-rule="evenodd" d="M18.0462 40.6233C18.2231 40.6233 18.4009 40.6233 18.5778 40.6233C18.6561 41.6758 19.2269 42.2935 19.4645 43.2049C18.0381 43.186 18.0248 41.92 18.0462 40.6233Z" fill="#030201"/>
<path fill-rule="evenodd" clip-rule="evenodd" d="M37.2867 42.266C36.2537 42.2338 34.6466 42.0976 33.651 42.5007C32.6949 43.2759 31.6918 44.42 29.8387 44.1436C29.8309 44.0197 29.8812 43.845 29.75 43.8306C29.9344 43.3333 30.7797 43.2342 31.346 42.9702C32.0498 42.6416 33.1847 42.0024 34.1833 41.8749C34.7183 41.8068 35.5314 41.871 36.134 41.8749C36.5984 41.8778 37.314 41.6673 37.2867 42.266Z" fill="#030201"/>
<path fill-rule="evenodd" clip-rule="evenodd" d="M40.3902 43.0483C41.0803 43.3521 41.2831 44.0858 41.8975 44.4564C41.8942 45.2101 41.664 45.7629 41.0995 46.0211C41.0855 45.9294 40.9377 45.9552 40.8335 45.9428C40.5483 45.5572 40.8317 45.2264 41.0105 44.8479C40.7496 44.3388 40.1257 43.7634 40.3902 43.0483Z" fill="#030201"/>
<path fill-rule="evenodd" clip-rule="evenodd" d="M39.1487 47.1946C38.4701 47.2604 38.1793 46.3364 37.7297 45.9426C37.3385 45.9227 37.2317 45.6518 36.9321 45.5517C36.324 45.5723 35.3176 46.0296 34.5381 45.8647C34.6969 45.5211 35.1916 45.6105 35.6021 45.4735C36.341 45.2272 36.993 44.7372 37.9961 45.1606C38.2262 45.2578 39.1517 46.0371 39.237 46.3341C39.308 46.5796 39.2644 46.9003 39.1487 47.1946Z" fill="#030201"/>
<path fill-rule="evenodd" clip-rule="evenodd" d="M24.7845 59.4768C25.1577 59.6949 24.9079 60.115 24.9619 60.4156C25.0653 60.9925 25.4395 61.4398 25.5825 61.902C24.7328 61.6741 24.312 60.3654 24.7845 59.4768Z" fill="#030201"/>
<path fill-rule="evenodd" clip-rule="evenodd" d="M19.4648 62.4494C19.2376 63.0821 19.1881 63.4612 19.3762 64.1702C18.072 64.27 18.5645 62.4156 19.4648 62.4494Z" fill="#030201"/>
<path fill-rule="evenodd" clip-rule="evenodd" d="M9.06134 40.7863C9.12354 40.7769 9.12755 40.8184 9.17676 40.8202C9.1548 40.914 9.13604 41.0106 8.9844 40.9898C8.96596 40.8832 9.03906 40.8573 9.06134 40.7863Z" fill="#030201"/>
<path fill-rule="evenodd" clip-rule="evenodd" d="M24.6961 22.5519C26.1277 22.1465 26.7916 21.0633 28.4201 20.8309C28.2827 21.4926 27.4045 21.5992 26.9128 21.9261C26.4536 22.2316 25.868 22.6625 25.4938 23.0214C25.3582 23.1517 25.3504 23.3499 25.2278 23.4907C24.8628 23.9103 24.3241 24.2405 23.8978 24.5859C23.6617 25.5251 22.734 25.854 22.3904 26.6982C22.1026 26.7568 22.076 27.0469 21.7698 27.0893C21.4942 27.6548 21.3342 28.3221 20.7054 28.5757C19.8971 30.2961 18.4396 31.9976 17.6911 33.8953C17.5707 34.2004 17.4902 34.7513 17.3365 35.2252C17.1052 35.9371 16.8322 36.3776 16.6268 37.2593C16.5665 37.5187 16.4055 37.8202 16.5385 38.2763C16.6404 38.628 17.1883 38.9252 17.0701 39.3715C16.6415 39.4999 15.9584 39.1505 15.8291 38.8238C15.5336 38.0807 15.5284 37.4695 15.7405 36.6334C16.0283 35.4981 16.486 34.368 16.9818 33.2695C17.0509 33.1163 16.9929 32.9537 17.0701 32.8002C17.7857 31.379 18.8567 29.712 19.8188 28.341C20.7812 26.969 21.8891 25.7659 22.8334 24.6642C22.4858 24.5612 21.9301 24.4666 21.5921 24.5859C21.6165 25.0781 22.2478 24.5625 22.3901 24.8988C22.2744 25.1359 21.9741 25.2101 21.5921 25.2118C21.4561 25.9785 20.984 26.4485 20.0848 26.5418C19.8897 26.2291 20.4583 26.0107 20.6167 25.7594C19.0684 25.8272 19.2993 27.4655 18.0454 27.7934C17.7569 27.7872 17.5677 27.6934 17.5134 27.4804C17.1691 27.8814 16.8333 28.6168 16.0061 28.341C15.8347 27.4596 16.7697 27.5541 16.9818 27.0111C15.9887 26.7865 14.9399 26.8667 14.0554 27.0893C13.8323 26.8931 14.225 26.8419 14.3218 26.6982C13.2962 26.6261 12.4295 26.3191 11.7505 26.5418C11.4553 26.5955 11.6075 26.38 11.6618 26.307C10.8801 26.4384 9.98381 26.7542 9.17916 26.62C9.34615 26.1512 10.0551 26.3217 10.5092 26.2288C11.0545 26.1173 11.5883 25.8461 12.1052 25.8376C12.2943 25.8012 12.274 25.9494 12.2821 26.0723C12.8865 25.9534 13.3483 25.7092 13.9671 25.603C12.6512 25.0775 11.4812 25.6365 9.97679 25.7594C9.17141 25.8253 8.3276 26.2376 7.67184 25.9159C7.84067 25.6574 8.29102 25.6626 8.64717 25.603C9.47472 25.464 10.7305 25.4243 11.5732 25.2118C11.6256 24.9312 11.0434 25.2098 11.1298 24.8988C10.265 25.1785 9.05946 25.158 8.02687 25.2901C7.9648 25.0005 8.16726 24.9442 8.4702 24.9771C8.43067 24.7512 7.8004 25.0465 7.7605 24.8206C7.7605 24.7424 7.7605 24.6642 7.7605 24.5859C7.79154 24.3004 8.33277 24.4647 8.5585 24.3513C9.11082 24.1866 9.54639 23.9187 10.2435 23.8818C10.3455 23.9744 10.3436 24.1586 10.3322 24.3513C11.3489 24.2313 11.9308 23.7277 12.9035 23.5689C12.6819 24.2078 11.8222 24.2838 11.2185 24.5859C12.1366 25.1958 13.3247 24.6867 14.1445 24.3513C13.9254 24.1759 12.8012 24.6179 12.7258 24.1166C12.9538 23.8125 13.6154 23.9738 14.0558 23.8818C14.5889 23.7707 15.3939 23.4666 16.2725 23.4907C16.5654 23.436 16.7376 23.275 16.9822 23.1778C16.9822 23.3343 16.9822 23.4907 16.9822 23.6472C18.467 23.6008 19.2624 22.9474 20.7058 22.8649C20.9733 23.1977 20.357 23.3069 20.1742 23.4907C20.6422 23.5477 20.8776 23.1856 21.2382 23.0214C21.9198 22.7104 22.792 22.65 23.5435 22.3955C24.3219 22.1318 25.0342 21.798 25.6715 21.4568C25.6245 21.3938 25.5791 21.3297 25.5828 21.222C25.0098 21.2129 24.0511 21.5389 23.5435 21.8479C22.055 22.1031 20.2968 22.5813 18.6668 22.7085C16.2581 22.8965 13.6886 22.6882 11.3075 22.8649C9.40452 23.0063 7.55546 23.0135 5.36688 22.7085C3.51154 22.4499 2.14571 21.7932 0.756234 21.0656C0.290736 21.4665 0.826059 21.9174 1.0226 22.239C1.69905 23.3483 2.5654 24.3877 3.85992 25.2118C4.23639 25.4511 4.61174 25.94 5.10125 26.2288C5.48104 26.453 5.85676 26.5437 6.34221 26.7764C7.70804 27.4309 9.6635 28.2035 12.0169 28.0281C12.8828 27.9635 13.7237 27.6917 14.6768 27.5587C15.0951 27.3905 15.6289 26.9596 16.0955 27.0893C15.9071 28.4375 13.7115 28.768 12.1055 28.8886C11.6467 28.9232 11.2026 28.9284 10.6869 28.8886C7.08258 28.6113 3.58764 26.53 1.55386 24.1948C0.799828 23.3287 -0.530536 21.5891 0.223867 20.3615C1.14267 20.117 1.46113 20.7872 2.08586 21.0656C2.25876 21.1425 2.59938 21.1292 2.88386 21.2217C3.50009 21.4228 4.60842 21.8045 5.54348 21.9258C6.78074 22.0865 8.23117 21.9072 9.53383 22.004C11.2891 22.1344 13.4584 21.9164 15.5628 21.9258C18.5157 21.9391 22.0809 21.5412 24.6067 20.7523C25.0693 20.6079 25.7986 20.2103 26.6461 20.283C26.6161 20.7256 26.1052 20.7445 25.8484 20.987C25.7871 21.302 26.2216 21.179 26.2031 21.4565C25.9574 22.0484 25.0608 22.0656 24.6961 22.5519ZM23.9868 22.7085C24.1398 22.7283 24.5118 22.5611 24.2528 22.4737C24.2432 22.6214 23.9595 22.5281 23.9868 22.7085ZM23.1001 23.4907C23.3809 23.4256 23.5509 23.2625 23.7208 23.0996C23.3281 23.066 23.1593 23.23 23.1001 23.4907ZM19.2875 23.8036C20.0969 23.669 19.2251 23.5735 19.2875 23.8036V23.8036ZM23.2771 23.9602C23.4345 23.9422 23.7212 24.039 23.6321 23.8036C23.467 23.8144 23.3358 23.8551 23.2771 23.9602ZM21.1495 24.1166C21.4986 24.1639 21.6098 24.0012 21.7705 23.8818C21.5056 23.9093 21.23 23.9272 21.1495 24.1166ZM14.8542 24.3513C15.1375 24.1837 15.6049 24.1791 15.8299 23.9602C15.3869 23.937 14.7533 24.155 14.8542 24.3513ZM15.5631 24.5859C15.9725 24.5377 16.0737 24.7616 16.4498 24.7424C16.5732 24.4601 17.1347 24.5647 17.0705 24.1166C16.4945 24.1932 15.9137 24.1618 15.5631 24.5859ZM17.1595 24.8206C17.7517 25.0188 18.164 24.6919 18.4008 24.3513C17.7203 24.2727 17.3431 24.4611 17.1595 24.8206ZM18.5782 24.8988C18.8445 24.8988 19.1102 24.8988 19.3762 24.8988C19.3832 24.6182 19.7194 24.628 19.8195 24.4295C19.1209 24.3346 18.788 24.5625 18.5782 24.8988ZM20.1742 24.8988C20.6419 24.9464 20.923 24.8295 20.9722 24.5077C20.4786 24.4376 20.3522 24.6912 20.1742 24.8988ZM9.0022 24.8206C8.20753 24.9008 9.27263 24.9008 9.5342 24.8206C9.52016 24.7288 9.54935 24.5987 9.44553 24.5859C9.36462 24.7235 9.13483 24.7291 9.0022 24.8206ZM13.5242 25.0553C14.2963 25.1871 15.2129 25.4598 15.6522 24.8988C14.8361 24.6329 14.2121 24.698 13.5242 25.0553ZM15.8295 25.4465C16.2839 25.5952 17.1078 25.5811 17.1595 25.1335C16.5451 25.087 16.152 25.2355 15.8295 25.4465ZM17.4255 25.6812C18.0336 25.7484 18.249 25.4687 18.5782 25.2901C18.017 25.2643 17.506 25.2828 17.4255 25.6812ZM18.9328 25.6812C19.467 25.7356 19.7131 25.5354 19.9085 25.2901C19.4471 25.3008 19.1556 25.4605 18.9328 25.6812ZM20.4402 25.4465C20.7993 25.3382 20.7206 25.6163 20.9722 25.603C20.9522 25.455 21.0723 25.4302 21.0605 25.2901C20.7808 25.2776 20.5255 25.287 20.4402 25.4465ZM13.3465 26.2288C14.4984 26.4439 15.5048 26.5482 16.0951 25.8376C15.101 25.6307 13.9306 25.825 13.3465 26.2288ZM15.8295 26.5418C16.0959 26.6457 16.5078 26.6213 16.8935 26.62C16.8119 26.2089 17.2992 26.2998 17.3368 25.9941C16.5259 25.9045 16.3478 26.3732 15.8295 26.5418ZM17.7798 26.5418C18.4596 26.4765 18.945 26.5936 19.1988 26.0723C18.5541 26.0645 17.5086 25.9866 17.7798 26.5418ZM17.6028 27.324C17.6195 27.104 17.8921 27.1099 17.9575 26.9329C17.8393 26.9329 17.7211 26.9329 17.6028 26.9329C17.7181 27.1271 17.3427 27.2576 17.6028 27.324Z" fill="#030201"/>
<path fill-rule="evenodd" clip-rule="evenodd" d="M26.1147 32.8002C26.0253 32.6271 25.8095 32.9929 25.4936 32.8785C25.4936 32.7742 25.4936 32.6699 25.4936 32.5656C23.918 32.6112 23.8219 31.1629 23.9867 29.9057C24.1515 29.8949 24.283 29.8542 24.3414 29.7493C24.3794 29.4291 24.1537 29.3409 23.9867 29.2016C24.0595 27.3362 25.197 26.4104 26.2033 25.3683C26.4557 25.4726 26.1346 25.7162 26.1147 25.8378C26.5643 25.5565 27.3405 25.5636 27.3556 24.899C27.5943 24.8449 27.5271 25.0606 27.622 25.1337C27.96 25.1304 28.1547 24.7223 28.5083 24.9772C28.4233 25.544 27.6774 25.6559 27.2673 25.9942C26.8887 26.3065 26.7062 26.7139 26.2916 27.0112C25.6555 28.6208 25.8243 30.365 26.735 31.6268C26.9655 31.9459 27.4092 32.0528 27.3556 32.4873C26.9891 32.5812 26.4797 32.5489 26.6463 33.1131C26.3644 33.1252 26.2562 33.2905 25.937 33.2696C25.9385 33.0623 25.8882 32.809 26.1147 32.8002ZM24.7843 27.8717C25.1767 27.8529 25.3063 27.6019 25.4053 27.3241C25.0728 27.3959 24.866 27.5784 24.7843 27.8717ZM24.4296 28.654C24.5822 28.6583 24.6569 28.5938 24.696 28.4976C24.5434 28.4934 24.4688 28.5579 24.4296 28.654ZM24.8734 29.9057C25.132 30.0208 25.132 29.556 24.8734 29.6711C24.8734 29.7493 24.8734 29.8275 24.8734 29.9057ZM24.2527 30.3751C24.4995 30.5006 24.4976 30.0374 24.3414 30.0622C24.3133 30.1681 24.215 30.2115 24.2527 30.3751ZM25.4053 31.001C25.16 31.2982 25.7305 31.3448 25.4053 31.001V31.001ZM24.5187 31.3921C24.4455 31.6131 24.6439 31.5948 24.6074 31.7832C24.8578 31.8478 24.8371 31.6731 25.0507 31.705C25.0507 31.6007 25.0507 31.4964 25.0507 31.3921C24.8848 31.2389 24.7259 31.368 24.5187 31.3921ZM25.139 32.1744C25.4504 32.1607 25.4308 32.4388 25.671 32.4873C25.61 32.225 25.8195 32.2015 26.0256 32.1744C26.0611 31.8823 25.9551 31.7155 25.671 31.705C25.5576 31.9176 25.2169 31.9302 25.139 32.1744Z" fill="#030201"/>
<path fill-rule="evenodd" clip-rule="evenodd" d="M45.5327 38.9804C44.7602 38.899 43.9622 39.4716 43.0501 39.528C42.9688 39.1955 43.2625 39.1939 43.5821 39.2151C43.4276 37.9953 43.5211 36.5569 43.3157 35.3818C44.5094 35.7143 44.3113 37.4432 44.1137 38.5893C44.6413 38.5593 44.9195 38.3093 44.9117 37.807C45.529 37.3346 46.9665 37.5859 47.0397 36.6335C47.2994 36.6651 47.3992 36.8379 47.5717 36.9464C47.7475 36.8405 47.9167 36.7291 47.8377 36.3988C48.2075 36.6567 48.5053 36.6364 48.9903 36.4771C49.1126 36.376 49.0779 36.1375 49.079 35.9294C49.3945 36.0416 49.7222 36.2933 50.143 36.086C50.2088 35.7994 49.9247 35.6514 50.143 35.4601C50.5014 35.4047 50.6491 35.535 50.5863 35.8512C50.7452 35.861 50.7733 35.7554 50.941 35.773C51.2347 35.7456 51.0799 35.3222 51.118 35.0689C51.2953 35.0689 51.4726 35.0689 51.65 35.0689C51.5539 35.4952 51.988 35.5005 51.7386 35.8512C52.4273 35.9376 51.9825 35.0233 52.3593 34.8343C52.7406 34.8105 52.5459 35.2955 52.714 35.4601C53.7325 35.611 52.9563 34.6516 53.4233 34.3648C53.8245 34.376 53.7798 34.7801 53.778 35.1472C54.1071 35.1768 54.3827 35.1592 54.3986 34.9125C54.389 34.6354 54.1057 35.0787 54.1326 34.8343C54.133 34.5477 54.5475 34.6265 54.3986 34.2084C55.4556 34.374 56.3072 33.7807 57.1473 33.5044C57.2123 33.5773 57.3087 33.6229 57.4133 33.6608C57.5149 33.9068 57.274 33.8508 57.2363 33.9737C57.3024 34.1504 57.7336 34.0043 57.9456 34.0519C58.2889 33.7113 57.775 33.0786 58.4773 33.1131C58.6642 33.2872 58.3838 33.4903 58.4773 33.8173C58.8423 33.8785 58.9321 33.6973 59.2753 33.739C59.3832 33.2986 59.0407 32.9476 59.2753 32.6438C59.733 32.6835 59.651 33.1993 59.8073 33.5044C60.1682 33.323 59.7075 32.8993 59.9842 32.6438C60.3799 32.66 60.1963 33.1868 60.5162 33.2696C60.7316 33.1729 60.9862 33.1109 60.9592 32.8002C61.097 32.4704 60.4671 32.8175 60.6049 32.4873C60.6016 32.25 60.916 32.2924 61.1365 32.2527C61.1343 32.4368 61.2891 32.4831 61.2252 32.722C61.5252 32.752 61.3645 32.3758 61.7568 32.4873C61.6574 31.9492 61.3427 31.601 60.9588 31.3139C59.3366 31.2109 58.0602 32.0323 56.7028 32.3309C56.5565 32.3631 56.3227 32.2917 56.1712 32.3309C55.4094 32.5277 54.3388 33.0062 53.5112 33.2696C52.8015 33.4952 51.9725 33.5949 51.3829 33.9737C50.6288 33.9502 49.9786 34.3734 49.4326 34.5995C48.8703 34.8323 48.2027 34.8743 47.6589 35.0689C47.4032 35.1605 47.2041 35.2414 46.7726 35.3818C46.3152 35.5305 45.72 36.0543 45.2653 35.6947C45.3694 35.3959 45.7836 35.3698 46.1519 35.3036C46.3182 35.1543 46.0991 35.1621 46.1519 34.9125C46.5919 34.9105 46.6126 35.1823 46.9495 34.9125C46.8428 34.7984 46.562 34.8375 46.6835 34.5213C46.3141 34.7863 46.0658 34.7015 45.5309 34.756C45.2416 34.3075 45.1988 33.6412 44.8216 33.2696C44.7307 32.3589 44.1743 31.8589 43.9353 31.0792C44.8522 31.0759 45.1138 31.9342 45.5309 32.6438C45.8874 33.2498 46.2605 33.5151 45.9742 34.443C47.4834 33.7899 49.0653 33.0059 50.6735 32.3309C50.9355 32.221 51.1183 32.0658 51.3829 31.9397C52.4047 31.453 53.6549 31.024 54.7522 30.5315C55.2975 30.2871 55.8882 30.0468 56.4372 29.8275C57.0527 29.5814 57.6844 29.2352 58.1219 29.1234C59.2612 28.832 59.88 29.4282 60.0725 30.3751C60.4863 30.3751 60.9001 30.3751 61.3139 30.3751C62.2681 31.0482 62.8197 31.8253 62.8212 33.1914C62.772 33.3648 62.9904 33.3029 62.9982 33.426C62.8666 33.988 62.5722 34.4063 62.4662 34.9907C61.4879 35.4783 60.357 35.4783 59.2742 35.6947C58.8526 35.7792 58.0258 36.0742 57.4122 36.2424C56.7919 36.4122 56.1974 36.5611 55.5502 36.7117C54.9635 36.8483 54.4345 37.096 53.8655 37.2594C52.476 37.658 50.8065 37.836 49.6092 38.4328C49.1304 38.4797 48.6878 38.5586 48.4565 38.824C47.0995 39.0423 45.8009 39.3051 44.4665 39.7627C44.0173 39.917 43.4941 40.4085 43.0479 39.841C43.0549 39.5864 43.4498 39.6741 43.6685 39.6062C44.1868 39.3055 44.8622 39.1453 45.5327 38.9804ZM58.3007 29.6711C54.9982 31.0078 51.7394 32.3834 48.5474 33.8173C48.9793 33.7491 49.1355 33.9241 49.434 33.9737C49.7108 33.5287 50.2609 33.8104 50.764 33.5826C50.7544 33.0197 51.5728 33.4538 51.3847 32.8785C51.7083 32.9163 52.1003 33.1878 52.4491 32.9567C52.5799 32.5805 51.9392 32.8846 52.0057 32.5656C52.0807 32.4492 52.291 32.4524 52.4491 32.4091C52.7321 32.4202 52.7121 32.6982 52.9807 32.722C53.1388 32.6786 53.349 32.6816 53.424 32.5656C53.2582 32.4772 52.997 32.473 53.0694 32.1743C53.4868 32.0284 53.8256 32.6519 53.956 32.2527C53.8596 32.0766 53.3982 32.2229 53.5127 31.8615C54.096 31.9107 54.2383 31.945 54.5767 31.705C54.7644 31.8412 55.0459 32.1727 55.3747 31.9397C55.3614 31.6124 54.7961 31.7722 54.9314 31.3139C55.32 31.3618 55.8058 31.3243 55.7294 31.7832C56.0002 31.8396 56.0522 31.7031 56.261 31.705C56.2348 31.4413 55.8683 31.4781 55.8177 31.2357C55.9857 31.0967 56.4036 31.1785 56.7043 31.1574C56.8458 31.2151 56.684 31.5404 56.9703 31.4703C57.0837 31.4658 57.0933 31.3699 57.2367 31.3921C57.2415 31.0488 56.943 30.9729 56.882 30.688C57.4088 30.614 57.5333 30.8956 57.6796 31.1574C58.1282 31.2138 58.3506 31.071 58.5663 30.9227C58.5172 30.7835 58.5209 30.5978 58.3893 30.5315C58.3192 30.7825 58.3155 31.0922 57.8573 31.001C57.9545 30.6548 57.7074 30.612 57.68 30.3751C57.9903 30.2653 58.2475 30.5945 58.3897 30.3751C58.1525 30.2831 57.9083 29.9693 58.2124 29.8275C58.4252 29.8787 58.7411 30.2418 59.0104 29.984C58.8042 29.8523 58.6324 29.6912 58.3007 29.6711ZM54.5767 32.1743C54.4877 32.1747 54.471 32.1112 54.3994 32.0961C54.157 32.2223 54.529 32.3586 54.5767 32.1743ZM61.4927 33.739C61.8987 33.7553 61.963 33.0623 61.7587 32.8002C61.5038 32.917 61.2204 33.4173 61.4927 33.739ZM60.1627 33.9737C60.1926 34.2162 59.9573 34.3473 60.1627 34.5213C59.6787 35.0422 58.8519 34.7765 58.4776 35.3818C59.1548 35.171 60.0223 35.1276 60.6943 34.9125C60.8576 34.4832 60.9378 33.9799 61.049 33.5044C60.995 33.4594 60.6282 33.3211 60.606 33.5044C61.0279 33.6667 60.4113 33.9209 60.1627 33.9737ZM47.5721 34.2084C47.9537 34.1063 47.9204 34.37 48.0154 34.5213C48.3992 34.547 48.6024 34.4134 48.7247 34.2084C48.4377 34.2009 48.3793 33.9913 48.2814 33.8173C48.1462 34.0366 47.7269 34.0059 47.5721 34.2084ZM56.084 34.5213C56.3929 34.4288 56.8927 34.505 56.7934 34.0519C56.5004 34.1585 56.0312 34.1096 56.084 34.5213ZM61.3153 34.5213C61.3379 34.3587 61.7047 34.5001 61.7583 34.3648C61.7417 34.1449 61.6042 34.0317 61.3153 34.0519C61.2459 34.1063 61.1177 34.4884 61.3153 34.5213ZM59.276 34.6777C59.2919 34.4571 59.6975 34.5803 59.6307 34.2866C59.4164 34.2863 59.064 34.5604 59.276 34.6777ZM47.2174 34.443C46.7674 34.2299 46.8875 34.7162 47.2174 34.443V34.443ZM57.8573 34.3648C57.7284 34.4076 57.3992 34.2736 57.414 34.443C57.5426 34.4004 57.8721 34.5347 57.8573 34.3648ZM54.8427 34.8343C55.2417 34.7951 55.6695 34.7815 55.7294 34.443C55.409 34.5517 54.9055 34.4984 54.8427 34.8343ZM47.3947 34.8343C47.4187 34.6728 47.7874 34.8157 47.7494 34.5995C47.5935 34.6445 47.2285 34.505 47.2178 34.6777C47.3345 34.6788 47.2983 34.815 47.3947 34.8343ZM54.9314 35.3036C55.0466 35.0927 55.5856 35.2554 55.6407 34.9907C55.3562 35.0047 54.767 35.1533 54.9314 35.3036ZM53.7787 35.6947C53.9571 35.5396 54.4618 35.6716 54.3994 35.3036C54.1633 35.36 53.5219 35.463 53.7787 35.6947ZM55.6407 36.1642C56.5894 35.9842 57.4336 35.712 58.212 35.3818C57.2452 35.5663 56.2303 35.5184 55.6407 36.1642ZM54.9314 35.9294C55.115 35.8046 55.3887 35.7596 55.463 35.5383C55.2339 35.3117 54.7958 35.8473 54.9314 35.9294ZM52.5374 36.1642C52.6401 36.2296 52.7753 36.2672 52.9807 36.2424C52.9098 35.919 53.3029 36.005 53.2467 35.6947C52.8846 35.7404 52.5008 35.7668 52.5374 36.1642ZM51.562 36.3988C51.753 36.5443 52.165 36.4105 52.0937 36.086C51.8144 36.0996 51.5654 36.141 51.562 36.3988ZM54.3994 36.4771C54.5538 36.3004 55.0511 36.4259 55.1087 36.1642C54.8401 36.1922 54.2508 36.3409 54.3994 36.4771ZM50.4094 36.79C50.8021 36.7978 51.0729 36.6975 51.1187 36.3988C50.6913 36.361 50.5069 36.5373 50.4094 36.79ZM52.2714 36.6335C52.3445 36.8546 52.1465 36.8363 52.1827 37.0246C52.7435 36.8936 53.3664 36.8173 53.7787 36.5553C53.2618 36.5383 52.7431 36.864 52.2714 36.6335ZM48.3701 37.0246C48.6168 36.9295 48.8969 36.8636 49.0794 36.7117C48.7502 36.7342 48.4702 36.8001 48.3701 37.0246ZM49.434 37.1029C49.7762 37.1179 49.9435 36.9788 49.9657 36.7117C49.6978 36.7619 49.4544 36.834 49.434 37.1029ZM51.3843 37.2594C51.7006 37.2518 51.9932 37.2228 52.0937 37.0246C51.8136 37.0632 52.0608 36.6364 51.7394 36.7117C51.572 36.851 51.3467 36.9393 51.3843 37.2594ZM48.1927 37.4941C48.5363 37.481 49.2031 37.3467 48.9021 37.0246C48.7402 37.247 48.3641 37.2802 48.1927 37.4941ZM49.877 37.6505C50.4559 37.6136 50.9691 37.5185 51.0297 37.0246C50.4179 37.0325 50.0259 37.234 49.877 37.6505ZM47.4834 37.4159C47.6131 37.3181 48.0542 37.2241 47.6603 37.1029C47.7058 37.2583 47.1716 37.2818 47.4834 37.4159ZM49.0794 37.9634C49.1355 37.8047 49.4939 37.9119 49.5227 37.7288C49.1806 37.6407 49.8641 37.4256 49.5227 37.3376C49.2733 37.408 48.8876 37.7633 49.0794 37.9634ZM46.2421 37.807C46.4441 37.7503 46.6954 37.7372 46.8631 37.6505C46.8679 37.5159 46.7944 37.4501 46.6858 37.4159C46.5982 37.5997 46.2417 37.5456 46.2421 37.807ZM47.6603 37.6505C47.5854 37.584 47.4073 37.7072 47.3944 37.7288C47.3109 37.8659 47.7217 37.7046 47.6603 37.6505ZM47.7494 38.2763C48.2518 38.3262 48.7879 37.9957 48.5474 37.6505C48.3316 37.9035 47.6906 37.7816 47.7494 38.2763ZM45.2667 38.1981C45.5774 38.2428 45.8449 37.8504 45.5327 37.807C45.4529 37.9455 45.3185 38.0355 45.2667 38.1981ZM45.9761 38.3545C46.3004 38.3539 46.4512 38.2001 46.5967 38.0417C46.3806 38.1382 46.0211 38.1079 45.9761 38.3545ZM45.6214 38.9022C46.2627 38.7118 47.152 38.7398 47.3947 38.1981C47.3748 38.1375 47.3921 38.0439 47.3064 38.0417C46.9713 38.529 46.1031 38.545 45.6214 38.9022ZM43.8481 39.1369C43.9282 38.973 44.3483 39.1092 44.3797 38.9022C44.0756 38.8224 43.6486 39.031 43.8481 39.1369Z" fill="#0C0703"/>
<path fill-rule="evenodd" clip-rule="evenodd" d="M26.3807 62.0582C26.6604 62.9269 25.0404 62.9371 24.2528 62.6841C24.0355 62.3017 23.6461 62.0716 23.6321 61.5106C23.1688 61.7277 22.6043 61.8555 22.2131 62.1364C21.1941 62.1502 21.022 62.911 20.1737 63.0752C19.7038 61.7782 22.0527 61.672 22.922 61.0412C22.4953 60.4532 22.7979 59.2214 22.3014 58.6944C19.8604 59.0698 18.0047 59.9626 17.3364 61.9018C17.6109 61.4402 17.881 60.9741 18.7551 61.0412C18.567 61.5442 18.2179 62.0524 18.134 62.7623C18.0627 63.3709 18.3239 64.0613 17.9571 64.5616C17.898 64.5616 17.8389 64.5616 17.7797 64.5616C17.3601 64.3842 17.4779 63.733 17.0704 63.5446C17.0704 63.3884 17.0704 63.2317 17.0704 63.0755C16.7409 62.9748 16.5425 62.7591 16.3611 62.528C16.2687 61.8724 16.5192 61.5197 16.5384 60.963C17.0431 60.4868 17.2356 59.8424 17.7794 59.4766C17.9364 59.3713 18.2766 59.2821 18.4887 59.1637C19.1844 58.7752 20.4154 58.3765 21.592 58.2249C22.0154 58.1705 22.2345 58.1611 22.5674 58.0685C22.6959 58.033 23.2364 58.1969 23.0994 57.8338C22.8799 57.6709 22.6557 58.1689 22.124 57.9899C21.1842 57.5675 19.8627 57.4817 18.666 57.2861C17.8374 56.3601 18.529 54.8783 19.198 54.1566C19.0831 53.9973 18.768 54.0142 18.843 53.6876C17.4158 54.9836 16.1808 56.4498 14.587 57.5991C11.9473 57.8782 13.3941 54.2707 12.459 52.9053C12.0944 52.3727 10.9111 52.0186 10.863 51.4189C10.781 50.3967 12.7919 49.6186 13.6117 49.2281C13.8965 49.82 13.0959 50.0036 12.725 50.2451C12.2647 50.5454 11.9038 50.7869 11.661 51.1839C11.9034 51.5174 12.3984 51.6285 12.725 51.8879C12.9393 51.6429 12.084 51.6745 12.1044 51.3404C12.2595 50.9394 12.8547 51.3729 13.257 51.2622C13.8681 51.4398 14.5298 52.5259 14.9417 51.7315C14.7481 51.224 14.1551 51.0695 13.8777 50.6363C13.9978 50.2278 14.3945 50.9026 14.6757 50.6363C14.7377 50.3292 14.3768 50.4238 14.2324 50.2451C13.8707 49.7992 14.0454 49.0817 13.6117 48.6806C13.983 48.1502 13.7107 47.6551 14.0546 47.1159C14.4193 46.5455 15.7094 46.2227 16.5377 46.2551C16.8827 46.2687 17.6985 46.2404 17.513 46.803C16.1834 46.8033 15.6809 47.5332 15.0303 48.1329C14.938 49.101 15.1238 49.8236 15.385 50.4795C15.4098 50.6842 15.3525 50.8162 15.119 50.7927C15.2923 51.1354 15.6909 51.2787 15.9166 51.5747C16.1143 51.5799 15.3736 51.1197 16.0053 51.1836C15.7131 50.6333 15.344 50.1506 15.296 49.3842C16.3393 49.3765 16.2643 50.3553 16.626 50.9488C16.9289 51.0076 16.739 50.6311 17.0693 50.7142C16.7261 50.398 16.0496 49.5877 16.8033 49.2275C17.2758 49.4103 17.3652 49.9313 17.6013 50.3227C17.7325 50.2321 17.8244 50.2321 17.956 50.3227C17.857 50.1229 18.0106 49.827 17.956 49.5404C17.8182 48.8203 16.9607 47.9243 17.69 47.2718C17.878 47.1593 17.8758 47.3471 18.0446 47.4282C18.6579 47.7232 18.7806 48.0331 19.3746 47.5064C19.3 47.129 18.9379 47.0048 19.02 46.4894C19.5453 46.4692 19.4633 46.9849 19.7293 47.1935C20.1578 47.0132 20.221 46.7362 19.9953 46.3327C20.4745 46.2387 20.4652 46.5748 20.7933 46.4109C21.0626 46.3144 20.6972 46.1419 20.7933 45.9414C21.0763 45.8747 21.1299 46.0096 21.2366 46.098C21.7066 45.9529 21.4417 45.5748 21.5913 45.2374C21.8946 45.2042 21.858 45.4718 22.0346 45.5503C22.3686 45.1931 22.7391 44.8681 23.2756 44.6894C23.2963 45.0985 22.7425 45.0015 22.7439 45.3935C22.7011 45.64 23.1507 45.4522 23.1873 45.6282C22.809 45.9317 23.2183 46.1553 22.6553 46.4106C22.2164 46.3835 22.7292 46.2052 22.6553 46.0194C22.4222 45.9963 22.5858 46.3231 22.3006 46.2541C22.4554 46.5612 22.5045 46.7867 22.1237 46.9581C21.7483 46.8979 22.0808 46.2137 21.769 46.0977C21.6123 46.1683 21.4945 46.2726 21.4143 46.4106C21.5857 46.7026 21.6323 47.1048 21.5913 47.584C22.2422 47.4804 22.3154 46.8672 22.9213 46.7235C22.9904 46.7932 23.017 46.9001 23.0099 47.0363C22.8999 47.3043 22.3889 47.2189 22.4783 47.6622C22.3305 47.6622 22.1824 47.6622 22.035 47.6622C21.8285 47.8454 21.9123 48.2841 21.6803 48.4445C21.4136 48.5231 21.5229 48.2702 21.503 48.1316C21.2732 48.3458 21.295 48.7823 21.1483 49.0704C20.6747 48.8885 20.9751 48.0237 20.6167 47.7405C20.432 47.7864 20.33 47.9047 20.1734 47.9751C20.2517 48.1669 20.4394 48.2623 20.3503 48.601C20.4205 48.9677 20.6725 48.7669 20.7937 48.9922C20.8099 49.3452 20.7072 49.5938 20.439 49.6962C20.0478 49.8067 20.4375 49.2278 20.173 49.2268C19.8361 49.2168 19.7544 49.4315 19.7297 49.6962C19.9118 49.9749 19.8047 49.3543 20.0843 49.4615C20.2166 49.6751 20.0773 50.2053 19.9957 50.4782C19.4408 50.1167 19.4603 50.7859 19.2863 51.1823C18.9583 51.2371 18.8947 51.0588 18.9317 50.7914C18.6819 51.0401 18.7163 51.5399 18.577 51.8863C18.355 51.8997 18.2996 51.7663 18.2223 51.6517C17.9523 52.2996 17.1273 52.4588 17.0697 53.2945C16.8281 53.3516 16.8916 53.139 16.715 53.138C16.6153 53.3121 16.6031 53.7987 16.2717 53.5291C15.9798 53.6107 16.2595 54.1961 15.74 54.0768C15.8372 53.6886 16.0881 53.2648 16.006 52.8251C15.9647 52.6034 15.637 52.4089 15.6514 52.1992C15.3621 52.5793 15.9661 53.1993 15.74 53.5291C15.2553 53.3313 15.3551 52.6168 15.2081 52.121C14.9251 52.0542 14.9339 52.2442 14.7651 52.2774C14.652 52.7077 15.1161 53.052 15.2081 53.5291C15.3861 54.4523 15.0721 55.3311 14.5874 55.8761C14.3166 55.8194 14.2641 55.9559 14.0554 55.9543C14.6624 54.4536 14.2486 52.4538 12.9914 51.8863C13.2086 52.387 13.7425 52.7492 13.8781 53.5291C14.0665 54.613 13.4089 56.2412 14.3214 56.8931C15.3015 56.3839 16.0515 55.5638 16.804 54.7808C16.9651 54.6133 17.203 54.4725 17.336 54.3118C17.4979 54.1159 17.5197 53.8815 17.6907 53.686C17.8976 53.4486 18.2729 53.2987 18.4883 53.0601C18.7517 52.7684 18.9439 52.3514 19.198 52.0431C19.8926 51.1982 20.8945 50.2842 21.4147 49.2265C22.4107 48.5671 22.6265 47.2189 23.8083 46.7231C24.3514 46.7137 24.2531 47.2694 24.961 47.1142C25.1006 47.8621 24.1922 47.9073 23.8083 47.5834C23.5578 47.7141 23.2955 47.832 23.099 48.0527C22.8936 48.2828 22.8189 48.717 22.567 49.0697C22.2906 49.4566 21.8765 49.7937 21.5917 50.1646C21.4509 50.3481 21.3135 50.5943 21.1483 50.7908C20.8487 51.1467 20.4634 51.2309 20.7937 51.4946C21.1435 51.595 21.0083 51.2667 21.237 51.2599C22.4174 51.5483 23.3088 52.0917 24.2516 52.5898C24.2753 50.7856 25.7497 50.2604 26.291 48.913C25.9611 48.4572 25.8125 47.055 26.3796 46.7225C26.4838 47.4647 26.6999 48.1088 27.089 48.6001C27.4318 48.042 27.57 47.303 27.9756 46.8007C27.8877 46.5393 27.4344 46.6002 27.5323 46.1749C26.1853 45.919 25.2558 46.5843 23.9856 46.6439C23.4924 46.2987 23.5057 45.1035 24.0739 44.8447C23.7584 44.6011 23.2154 44.5591 23.0099 44.2188C22.697 44.7511 22.1706 44.8078 21.5026 45.1576C21.0973 45.3697 20.4216 45.8248 19.907 46.018C19.5139 46.1654 18.9136 46.1155 18.7543 46.5657C18.4662 46.4757 18.2087 46.8046 18.045 46.5657C18.1034 46.3552 18.5899 46.0021 18.8426 45.8619C20.0119 45.2133 21.3053 44.6536 22.3897 43.9062C22.2319 43.7585 21.8048 43.8485 21.8577 43.5151C21.4132 43.5828 21.0992 43.6398 21.1483 43.1239C23.007 43.0568 23.8168 44.1017 25.493 43.9062C26.2607 43.8165 27.1839 43.3514 27.7983 42.9674C28.5309 42.5098 28.7958 42.2441 29.3056 41.5593C29.4689 41.3396 29.5816 40.6802 30.1923 41.0117C29.5099 42.6783 28.1589 43.7553 26.3796 44.4538C26.9512 44.7322 27.2881 45.2169 27.7983 45.549C28.0133 45.4776 28.0333 45.2345 28.0647 45.0011C28.4131 44.8394 28.7666 44.682 29.04 44.4535C30.6057 44.402 31.1262 45.2726 31.2567 46.4875C31.8363 45.5351 32.5183 44.8573 33.6503 44.2188C34.7084 43.6217 36.6956 43.6897 38.35 43.28C38.5291 43.1151 39.0094 42.9214 39.3253 43.1235C39.1062 43.5767 38.4094 43.8384 37.7293 44.0623C36.5386 44.4544 34.674 44.564 33.7393 45.2361C33.5217 45.3922 33.3396 45.7306 33.1186 45.9398C32.4762 46.5494 31.9948 47.037 31.6113 48.0521C30.8033 48.1127 30.6279 47.6159 30.4587 47.1133C30.0061 46.6257 29.3067 46.3565 28.5967 46.0964C28.2915 46.1139 28.3118 46.4187 28.1533 46.5654C28.1633 46.7134 28.4467 46.6198 28.4197 46.8004C27.7998 48.4768 27.198 50.6369 27.0007 52.6677C26.9501 53.1905 27.0402 53.6593 26.8237 54.0755C26.7698 54.1791 26.7535 54.4823 26.469 54.3884C26.2119 54.215 26.2252 53.7831 26.203 53.5278C26.0708 52.0099 26.6737 50.5711 26.9124 49.3817C26.3287 50.2435 25.299 50.9098 25.2273 52.1979C25.1789 53.0729 25.749 54.0925 25.1387 54.9361C24.5261 54.9813 24.6314 54.3926 24.518 53.9973C24.2764 54.3839 24.5989 55.2678 24.252 55.5619C23.8737 55.5306 24.1674 54.906 24.0747 54.6231C23.7337 54.6609 24.0241 55.2564 23.6317 55.249C23.317 55.0703 23.5807 54.6534 23.5431 54.3102C23.4862 53.7965 23.2375 53.2088 23.0111 52.902C22.9671 53.2841 23.2711 54.8891 22.6564 55.249C22.3605 55.174 22.6335 54.7115 22.6564 54.3881C22.6808 54.0494 22.6375 53.7382 22.6564 53.4493C22.339 54.447 22.3139 55.703 21.4154 56.1873C21.3859 56.5006 21.1738 56.6526 21.0604 56.8914C21.2082 56.8914 21.3563 56.8914 21.5037 56.8914C21.8425 56.6166 21.7509 55.9618 22.3904 55.9527C22.322 56.3357 22.1041 56.5863 22.0357 56.9697C22.4332 57.0838 22.3328 56.0856 22.922 56.1088C22.8171 56.4856 22.6871 56.8403 22.4791 57.1258C22.6675 57.2464 22.8093 57.4081 23.0107 57.517C23.3262 57.1809 22.8965 57.0108 22.922 56.7347C23.062 55.2137 27.6949 55.3849 29.6607 55.3269C29.7338 56.0127 28.3403 56.1587 27.5327 56.1873C26.7938 56.2135 26.1443 56.0834 25.493 56.2657C24.8051 56.4582 24.4201 56.8905 23.8083 57.0476C24.7508 58.5904 23.3033 62.2355 26.3807 62.0582ZM24.3414 45.7081C25.0138 45.7182 25.9045 45.2693 26.735 45.1605C25.9954 44.5702 24.4393 44.7185 24.3414 45.7081ZM22.1248 46.0993C22.4015 46.0308 22.5877 45.8818 22.5677 45.5516C22.2725 45.6041 22.0867 45.7527 22.1248 46.0993ZM20.9721 47.1944C21.0508 47.0553 21.2196 46.9957 21.1491 46.7251C20.8358 46.6781 20.6359 47.1303 20.9721 47.1944ZM19.9964 47.7421C20.2336 47.6791 20.753 47.3389 20.3511 47.1944C20.1841 47.3337 19.9587 47.422 19.9964 47.7421ZM21.2381 48.1332C21.3556 47.9722 21.4062 47.348 21.2381 47.1944C20.9909 47.361 20.9163 47.8937 21.2381 48.1332ZM18.5781 48.4462C18.6527 48.0645 18.1728 47.7646 18.0465 47.8203C18.2711 47.9869 18.1418 48.466 18.5781 48.4462ZM19.1101 48.5244C19.3236 48.3738 19.6495 48.3227 19.6417 47.9768C19.2656 47.9836 19.0831 48.1612 19.1101 48.5244ZM19.3761 48.9156C19.5013 48.8249 19.9609 48.3468 19.7308 48.4465C19.6395 48.5798 19.1212 48.736 19.3761 48.9156ZM18.6668 48.9938C18.7048 48.8445 18.9202 48.8519 18.8437 48.6027C18.5803 48.5097 18.4632 48.9325 18.6668 48.9938ZM19.5534 49.3849C19.6044 49.1653 20.1996 49.0215 19.9081 48.7591C19.9037 49.0199 19.2305 49.0952 19.5534 49.3849ZM18.8437 49.4631C18.87 49.3706 19.201 49.1675 18.9324 49.072C18.9065 49.1646 18.5755 49.3677 18.8437 49.4631ZM18.9328 49.7761C19.157 49.8582 19.3259 49.512 19.1101 49.4631C19.1748 49.6767 18.9339 49.6205 18.9328 49.7761ZM19.1101 50.3237C19.1315 50.1862 19.2627 50.1454 19.4648 50.1672C19.4777 49.9733 19.4814 49.7878 19.2874 49.7764C19.2882 49.9655 18.7761 50.0988 19.1101 50.3237ZM18.3121 50.4801C18.3775 50.3031 18.6502 50.3093 18.6668 50.0893C18.4525 50.0887 18.1001 50.3628 18.3121 50.4801ZM18.4891 51.0278C18.3679 50.7067 18.8807 50.5457 18.6664 50.4019C18.5648 50.5258 18.2035 50.8207 18.4891 51.0278ZM16.8048 51.3407C17.0634 51.4557 17.0634 50.9909 16.8048 51.106C16.8048 51.1843 16.8048 51.2625 16.8048 51.3407ZM17.6914 51.8883C17.6135 51.6057 18.0376 51.3661 17.7797 51.1843C17.6131 51.2934 17.3009 51.7641 17.6914 51.8883ZM15.4748 51.5754C15.2938 51.5525 15.3008 51.3639 15.1201 51.3407C15.0828 51.5135 15.3858 51.772 15.4748 51.5754ZM17.0708 52.4359C17.1306 52.1282 17.4428 51.6223 16.9825 51.4971C16.6973 51.7543 16.8731 52.1836 17.0708 52.4359ZM16.1841 52.0447C16.1893 51.9971 16.1971 51.9522 16.2724 51.9665C16.2628 51.8711 16.2462 51.7814 16.0955 51.81C16.1091 51.9023 16.0803 52.0321 16.1841 52.0447ZM22.1248 53.2964C22.1695 52.7351 22.0653 52.3056 21.8584 51.9665C21.9356 52.4203 21.9005 52.9731 22.1248 53.2964ZM16.2724 52.9835C16.6725 52.9715 16.5388 52.4881 16.6271 52.2013C16.5137 52.1969 16.5044 52.1009 16.3611 52.1229C16.0851 52.2922 16.207 52.6921 16.2724 52.9835ZM20.2628 54.2352C20.4996 54.2349 20.4553 54.4826 20.7057 54.4699C20.6699 54.2251 20.5406 54.0938 20.5288 53.8441C20.5014 53.272 21.1236 52.5458 20.6174 52.1229C20.821 52.887 20.4124 53.5487 20.2628 54.2352ZM19.8194 53.8441C20.0928 53.7251 20.2081 52.7038 20.0854 52.7492C20.0282 53.1419 19.8505 53.4285 19.8194 53.8441ZM21.4154 55.6433C21.2111 56.0462 20.664 56.574 20.4397 56.8168C21.2887 56.705 21.1047 55.6825 21.7701 55.4087C21.8211 54.8538 22.2031 54.5915 22.1248 53.9223C21.6268 54.351 21.7018 55.0778 21.4154 55.6433Z" fill="#030201"/>
</g>
<g filter="url(#filter0_d)">
<path d="M78.2046 58.0317C75.6956 58.0317 73.5881 57.4455 71.882 56.2731C70.2093 55.0662 68.9548 53.4628 68.1185 51.4628C67.3156 49.4628 66.9141 47.2214 66.9141 44.7387C66.9141 41.2904 67.7003 37.8939 69.2726 34.549C70.8449 31.1697 73.103 28.3939 76.0469 26.2214C79.0242 24.0491 82.5034 22.9629 86.4843 22.9629C88.9933 22.9629 91.0842 23.5663 92.7568 24.7732C94.463 25.9456 95.7175 27.5317 96.5203 29.5317C97.3567 31.5317 97.7748 33.7732 97.7748 36.2559C97.7748 39.7042 96.9887 43.118 95.4164 46.4973C93.8441 49.8421 91.5692 52.6007 88.5919 54.7731C85.648 56.9455 82.1856 58.0317 78.2046 58.0317ZM78.3552 56.4282C81.2322 56.4282 83.8248 55.3248 86.1331 53.1179C88.4748 50.8766 90.2813 48.0318 91.5525 44.5835C92.8572 41.1352 93.5095 37.7042 93.5095 34.2904C93.5095 31.5663 92.9074 29.2387 91.7031 27.3077C90.4987 25.3766 88.709 24.4111 86.3338 24.4111C83.5572 24.4111 81.0147 25.5491 78.7064 27.8249C76.3982 30.0663 74.5582 32.9283 73.1866 36.4111C71.8485 39.8939 71.1794 43.3249 71.1794 46.7042C71.1794 49.3938 71.7816 51.6869 72.9859 53.5834C74.1902 55.48 75.98 56.4282 78.3552 56.4282ZM95.7845 57.5662C94.9816 57.5662 94.5802 57.3765 94.5802 56.9972C94.5802 56.5835 95.1823 56.2731 96.3867 56.0662C97.7917 55.7904 98.9626 55.3593 99.8993 54.7731C100.836 54.1869 101.471 53.3248 101.806 52.1869L108.731 28.8076C108.898 28.2904 108.982 27.7732 108.982 27.2559C108.982 26.6353 108.781 26.1525 108.38 25.8077C107.978 25.4628 107.343 25.2042 106.473 25.0318C105.636 24.8594 105.218 24.5146 105.218 23.9973C105.218 23.618 105.737 23.4284 106.774 23.4284L108.229 23.4801C108.697 23.4801 109.751 23.5145 111.39 23.5835C113.03 23.6524 114.669 23.687 116.308 23.687C118.282 23.687 120.473 23.5663 122.882 23.3249C124.42 23.187 125.491 23.118 126.093 23.118C126.26 23.118 126.361 23.1525 126.394 23.2215C126.461 23.2904 126.495 23.4284 126.495 23.6352C126.495 23.7732 126.377 24.2732 126.143 25.1352C125.608 26.9629 125.274 28.3076 125.14 29.1697C125.106 29.3421 124.989 29.5318 124.788 29.7387C124.588 29.9456 124.42 30.049 124.287 30.049C124.119 30.049 123.986 29.9111 123.885 29.6352C123.785 29.3594 123.735 29.1008 123.735 28.8594C123.735 27.7214 123.5 26.8249 123.032 26.1697C122.564 25.4801 121.811 25.1352 120.774 25.1352H114.652C114.15 25.1352 113.732 25.2387 113.398 25.4456C113.097 25.618 112.862 26.0318 112.695 26.6869L110.036 36.5662C109.935 36.9111 109.885 37.2214 109.885 37.4973C109.885 37.98 110.086 38.2042 110.487 38.1697C111.022 38.1007 111.39 38.0662 111.591 38.0662C112.595 37.9283 113.381 37.8593 113.95 37.8593C115.455 37.8593 116.877 38.2214 118.215 38.9456C119.586 39.6697 120.69 40.6869 121.527 41.9973C122.397 43.3076 122.831 44.8076 122.831 46.4973C122.831 48.8766 122.213 50.8938 120.975 52.5489C119.77 54.2041 118.131 55.4455 116.057 56.2731C113.983 57.0662 111.658 57.4627 109.082 57.4627L105.921 57.4111C104.583 57.3421 103.512 57.3076 102.709 57.3076C101.405 57.3076 100.2 57.3593 99.0964 57.4627C97.6913 57.5317 96.5874 57.5662 95.7845 57.5662ZM109.684 56.0145C111.424 56.0145 112.963 55.6179 114.301 54.8249C115.639 53.9973 116.676 52.8765 117.412 51.4628C118.148 50.049 118.516 48.4628 118.516 46.7042C118.516 44.3248 117.931 42.5145 116.76 41.2731C115.622 40.0318 114.05 39.4111 112.043 39.4111C110.136 39.4111 108.982 40.1352 108.58 41.5835L107.828 44.1697C106.824 47.5145 106.105 50.0317 105.67 51.7214C105.536 52.1352 105.469 52.5835 105.469 53.0662C105.469 54.0662 105.854 54.8076 106.623 55.2904C107.393 55.7731 108.413 56.0145 109.684 56.0145ZM164.428 67.8593C164.193 67.8593 163.993 67.7385 163.825 67.4972C163.692 67.2903 163.625 67.0144 163.625 66.6696C163.625 66.1179 163.792 65.1179 164.126 63.6696C164.561 61.8766 164.779 60.48 164.779 59.48C164.779 58.6179 164.595 58.0317 164.227 57.7213C163.859 57.4455 163.223 57.3076 162.32 57.3076H145.761H128.599L126.341 57.3593C125.337 57.4283 124.384 57.4627 123.481 57.4627C122.678 57.4627 122.276 57.2731 122.276 56.8938C122.276 56.411 122.895 56.0662 124.133 55.8593C125.404 55.6179 126.374 55.2386 127.043 54.7214C127.712 54.1696 128.214 53.3076 128.549 52.1352L135.474 28.7559C135.607 28.3076 135.674 27.8594 135.674 27.4111C135.674 26.7215 135.44 26.187 134.972 25.8077C134.537 25.4284 133.851 25.1352 132.914 24.9283C132.446 24.8249 132.112 24.7042 131.911 24.5663C131.744 24.4283 131.66 24.2388 131.66 23.9973C131.66 23.618 132.162 23.4284 133.165 23.4284C134.336 23.4284 135.323 23.4801 136.126 23.5835C137.13 23.6524 137.949 23.687 138.585 23.687C139.321 23.687 140.291 23.6524 141.495 23.5835C142.398 23.4801 143.436 23.4284 144.606 23.4284C145.409 23.4284 145.811 23.618 145.811 23.9973C145.811 24.4111 145.209 24.7215 144.004 24.9283C142.7 25.1697 141.646 25.5835 140.843 26.1697C140.073 26.7559 139.521 27.618 139.187 28.7559L132.162 52.7559C131.961 53.4111 131.861 53.9455 131.861 54.3593C131.861 54.911 132.045 55.3076 132.413 55.549C132.781 55.7559 133.383 55.8593 134.219 55.8593H140.993C142.265 55.8593 143.218 55.6524 143.854 55.2386C144.523 54.7903 145.025 53.9627 145.359 52.7559L152.384 28.7559C152.518 28.3076 152.585 27.8594 152.585 27.4111C152.585 26.7215 152.351 26.187 151.883 25.8077C151.448 25.4284 150.762 25.1352 149.825 24.9283C149.357 24.8249 149.022 24.7042 148.822 24.5663C148.654 24.4283 148.571 24.2388 148.571 23.9973C148.571 23.618 149.072 23.4284 150.076 23.4284C151.247 23.4284 152.234 23.4801 153.037 23.5835C154.04 23.6524 154.86 23.687 155.495 23.687C156.231 23.687 157.202 23.6524 158.406 23.5835C159.309 23.4801 160.346 23.4284 161.517 23.4284C162.32 23.4284 162.721 23.618 162.721 23.9973C162.721 24.4111 162.119 24.7215 160.915 24.9283C159.61 25.1697 158.556 25.5835 157.754 26.1697C156.984 26.7559 156.432 27.618 156.098 28.7559L149.072 52.7559C148.872 53.4111 148.771 53.9455 148.771 54.3593C148.771 54.911 148.955 55.3076 149.323 55.549C149.691 55.7559 150.293 55.8593 151.13 55.8593H158.055C159.359 55.8593 160.329 55.6352 160.965 55.1869C161.634 54.7386 162.136 53.9283 162.47 52.7559L169.496 28.7559C169.629 28.3076 169.696 27.8594 169.696 27.4111C169.696 26.7215 169.462 26.187 168.994 25.8077C168.559 25.4284 167.873 25.1352 166.937 24.9283C166.468 24.8249 166.134 24.7042 165.933 24.5663C165.766 24.4283 165.682 24.2388 165.682 23.9973C165.682 23.618 166.184 23.4284 167.187 23.4284C168.358 23.4284 169.345 23.4801 170.148 23.5835C171.152 23.6524 171.971 23.687 172.607 23.687C173.343 23.687 174.313 23.6524 175.517 23.5835C176.421 23.4801 177.458 23.4284 178.628 23.4284C179.431 23.4284 179.833 23.618 179.833 23.9973C179.833 24.4111 179.231 24.7215 178.026 24.9283C176.722 25.1697 175.668 25.5835 174.865 26.1697C174.096 26.7559 173.544 27.618 173.209 28.7559L166.284 52.1352C166.184 52.48 166.134 52.8076 166.134 53.1179C166.134 54.4282 167.154 55.0835 169.195 55.0835C169.83 55.0835 170.148 55.4111 170.148 56.0662C170.148 56.1696 169.931 56.7214 169.496 57.7213C169.094 58.7214 168.76 59.5317 168.492 60.1524C167.656 61.98 166.786 63.9972 165.883 66.2041C165.448 67.3076 164.963 67.8593 164.428 67.8593ZM172.307 57.5662C171.504 57.5662 171.102 57.3765 171.102 56.9972C171.102 56.5835 171.704 56.2731 172.909 56.0662C174.548 55.7904 175.719 55.3765 176.421 54.8249C177.157 54.2387 177.709 53.3593 178.077 52.1869L184.952 28.9111C185.186 28.187 185.303 27.5663 185.303 27.049C185.303 26.3939 185.069 25.9284 184.601 25.6524C184.132 25.3766 183.313 25.1525 182.142 24.9801C181.64 24.9111 181.289 24.8076 181.088 24.6697C180.921 24.5318 180.837 24.3421 180.837 24.1007C180.837 23.7215 181.356 23.5318 182.393 23.5318C182.995 23.5318 183.564 23.5491 184.099 23.5835C185.838 23.6524 187.294 23.687 188.465 23.687H196.543C199.554 23.687 201.428 23.6008 202.164 23.4284C202.933 23.2559 203.351 23.1697 203.418 23.1697C203.552 23.1697 203.669 23.2559 203.769 23.4284C203.903 23.5663 203.97 23.7042 203.97 23.8421C203.97 23.9801 203.853 24.4111 203.619 25.1352C203.017 26.9283 202.632 28.4283 202.465 29.6352C202.431 29.98 202.314 30.2386 202.113 30.4111C201.946 30.549 201.779 30.618 201.612 30.618C201.444 30.618 201.294 30.4973 201.16 30.256C201.06 30.0146 201.026 29.7042 201.06 29.3249C201.093 29.049 201.11 28.6869 201.11 28.2387C201.11 27.0663 200.892 26.256 200.458 25.8077C200.023 25.3594 199.236 25.1352 198.099 25.1352H191.977C191.208 25.1352 190.639 25.2559 190.271 25.4973C189.936 25.7042 189.686 26.1007 189.518 26.6869L186.156 37.6525C186.022 38.0318 185.956 38.3594 185.956 38.6352C185.956 39.0835 186.29 39.2904 186.959 39.2559L193.181 39.1007C193.984 39.0663 194.637 38.8938 195.138 38.5835C195.674 38.2387 196.175 37.7732 196.644 37.187C196.744 37.049 196.895 36.8421 197.095 36.5662C197.33 36.2559 197.547 36.0146 197.748 35.8421C197.949 35.6697 198.133 35.5835 198.3 35.5835C198.601 35.5835 198.751 35.7732 198.751 36.1525C198.751 36.3939 198.668 36.6869 198.501 37.0317C197.999 38.0662 197.547 39.118 197.146 40.1869C196.778 41.2559 196.443 42.5145 196.142 43.9628C195.975 44.6869 195.757 45.0489 195.49 45.0489C195.256 45.0489 195.088 44.8938 194.988 44.5835C194.888 44.2731 194.837 43.9628 194.837 43.6525C194.837 41.7214 194.202 40.7559 192.931 40.7559L187.16 40.6524C186.457 40.6524 185.922 40.7559 185.554 40.9628C185.186 41.1352 184.918 41.5663 184.751 42.2559L182.192 51.6697C181.891 52.7386 181.74 53.6007 181.74 54.2559C181.74 54.911 181.908 55.3593 182.242 55.6007C182.577 55.842 183.129 55.9627 183.898 55.9627H191.676C193.081 55.9627 194.419 55.4972 195.69 54.5662C196.594 53.911 197.497 52.8249 198.4 51.3076C198.434 51.2731 198.534 51.1179 198.701 50.8421C198.868 50.5317 199.069 50.3766 199.303 50.3766C199.538 50.3766 199.655 50.7214 199.655 51.4111C199.655 51.8593 199.42 52.6524 198.952 53.7904C198.517 54.9283 198.099 55.8248 197.698 56.48C197.263 57.2041 196.711 57.5662 196.042 57.5662C195.44 57.5662 191.927 57.5145 185.504 57.4111C182.861 57.3076 180.469 57.2558 178.328 57.2558C177.224 57.2558 176.237 57.3076 175.368 57.4111C175.1 57.4111 174.665 57.4283 174.063 57.4627C173.494 57.5317 172.909 57.5662 172.307 57.5662ZM215.922 58.0317C214.048 58.0317 212.125 57.48 210.151 56.3766C208.177 55.2732 206.538 53.7214 205.233 51.7214C203.929 49.7214 203.276 47.4455 203.276 44.8938C203.276 40.8594 204.213 37.1697 206.086 33.8249C207.96 30.4456 210.469 27.7904 213.613 25.8594C216.758 23.8939 220.12 22.9111 223.699 22.9111C225.606 22.9111 227.463 23.2387 229.269 23.8939C229.604 23.9973 230.072 24.1697 230.675 24.4111C231.31 24.618 231.795 24.7215 232.13 24.7215C232.297 24.7215 232.648 24.5835 233.184 24.3077C233.284 24.2732 233.451 24.2042 233.685 24.1007C233.953 23.9973 234.17 23.9456 234.338 23.9456C234.672 23.9456 234.839 24.0835 234.839 24.3594C234.839 24.5318 234.789 24.6697 234.689 24.7732C234.053 25.6698 233.384 26.8594 232.682 28.3421C231.979 29.7904 231.528 31.049 231.327 32.118C231.293 32.3594 231.176 32.6008 230.976 32.8422C230.775 33.049 230.591 33.1524 230.424 33.1524C230.156 33.1524 229.939 33.0145 229.771 32.7387C229.637 32.4628 229.604 32.1525 229.671 31.8077C229.805 31.049 229.872 30.4456 229.872 29.9973C229.872 28.8594 229.554 27.8766 228.918 27.049C228.316 26.256 227.547 25.6352 226.61 25.187C225.673 24.7387 224.653 24.5146 223.549 24.5146C221.107 24.5146 218.648 25.4628 216.172 27.3594C213.73 29.2215 211.706 31.7559 210.101 34.9628C208.495 38.1352 207.692 41.5835 207.692 45.3076C207.692 47.9283 208.16 50.0662 209.097 51.7214C210.067 53.3765 211.272 54.5835 212.71 55.3421C214.182 56.0662 215.704 56.4282 217.276 56.4282C218.882 56.4282 220.22 56.1696 221.291 55.6524C222.395 55.1007 223.298 54.3938 224.001 53.5318C224.703 52.6696 225.456 51.5318 226.259 50.118C226.459 49.8076 226.643 49.5662 226.811 49.3938C226.978 49.2214 227.179 49.1352 227.413 49.1352C227.547 49.1352 227.63 49.2214 227.664 49.3938C227.731 49.5318 227.764 49.7904 227.764 50.1697C227.764 50.5145 227.496 51.3248 226.961 52.6007C226.459 53.842 225.907 55.0145 225.305 56.118C224.737 57.2214 224.352 57.7731 224.151 57.7731C224.017 57.7731 223.833 57.6869 223.599 57.5145C223.398 57.3421 223.265 57.2386 223.198 57.2041C222.83 56.8938 222.478 56.7386 222.144 56.7386C221.876 56.7386 221.19 56.9283 220.087 57.3076C218.748 57.7903 217.36 58.0317 215.922 58.0317ZM236.137 57.5662C235.334 57.5662 234.933 57.3765 234.933 56.9972C234.933 56.7903 235.067 56.6352 235.334 56.5317C235.635 56.3938 236.12 56.2731 236.789 56.1696C238.061 55.9283 239.098 55.48 239.901 54.8249C240.703 54.1696 241.272 53.2386 241.607 52.0317L247.729 29.8939C248.13 28.3421 248.331 27.2559 248.331 26.6353C248.331 25.9111 248.08 25.5491 247.578 25.5491H243.413C241.941 25.5491 240.754 25.8421 239.85 26.4283C238.981 26.9801 238.161 27.7387 237.392 28.7042C237.057 29.0835 236.773 29.4801 236.539 29.8939C235.903 30.7904 235.468 31.2387 235.234 31.2387C235.033 31.2387 234.883 31.2042 234.782 31.1352C234.715 31.0318 234.682 30.8422 234.682 30.5662C234.682 30.2214 234.849 29.687 235.184 28.9629C235.284 28.7215 235.585 28.0835 236.087 27.049C236.622 25.98 237.024 24.9283 237.291 23.8939C237.358 23.6524 237.475 23.4284 237.642 23.2215C237.843 22.9801 238.01 22.8594 238.144 22.8594C238.345 22.8594 238.646 23.0662 239.048 23.4801C239.248 23.687 239.583 23.8421 240.051 23.9456C240.519 24.0491 241.456 24.1007 242.861 24.1007H260.775C262.147 24.1007 263.084 24.0491 263.586 23.9456C264.121 23.8077 264.505 23.6352 264.74 23.4284C264.773 23.3938 264.89 23.2904 265.091 23.118C265.292 22.9457 265.459 22.8594 265.593 22.8594C265.927 22.8594 266.095 23.049 266.095 23.4284C266.095 23.7732 265.927 24.256 265.593 24.8766C265.359 25.2904 265.057 26.0835 264.689 27.2559C264.355 28.4283 264.071 29.6352 263.836 30.8766C263.736 31.3594 263.552 31.6007 263.284 31.6007C263.05 31.6007 262.866 31.4973 262.732 31.2904C262.632 31.0835 262.582 30.7904 262.582 30.4111C262.582 28.7559 262.314 27.5317 261.779 26.7387C261.277 25.9456 260.424 25.5491 259.22 25.5491H254.202C253.734 25.5491 253.366 25.6524 253.098 25.8594C252.83 26.0663 252.563 26.4801 252.295 27.1008C252.061 27.7214 251.76 28.7042 251.392 30.049L245.32 52.0317C245.186 52.48 245.119 52.9456 245.119 53.4283C245.119 54.8765 246.023 55.7904 247.829 56.1696C248.331 56.2731 248.665 56.3766 248.833 56.48C249 56.5835 249.084 56.7558 249.084 56.9972C249.084 57.3765 248.582 57.5662 247.578 57.5662C246.407 57.5662 245.437 57.5145 244.668 57.4111C243.664 57.3421 242.844 57.3076 242.209 57.3076C241.439 57.3076 240.453 57.3421 239.248 57.4111C238.345 57.5145 237.308 57.5662 236.137 57.5662ZM257.919 57.5662C257.484 57.5662 257.183 57.5145 257.015 57.4111C256.815 57.3421 256.714 57.2041 256.714 56.9972C256.714 56.7558 256.865 56.5662 257.166 56.4282C257.434 56.2903 257.885 56.1696 258.521 56.0662C259.826 55.8248 260.863 55.4111 261.632 54.8249C262.401 54.2387 262.97 53.3593 263.338 52.1869L270.213 28.9111C270.447 28.049 270.564 27.4628 270.564 27.1525C270.564 26.5663 270.38 26.1353 270.012 25.8594C269.644 25.5835 269.042 25.3594 268.206 25.187C267.67 25.0836 267.302 24.9801 267.102 24.8766C266.934 24.7387 266.851 24.549 266.851 24.3077C266.851 24.1007 267.001 23.9456 267.302 23.8421C267.637 23.7387 268.038 23.687 268.507 23.687C269.276 23.687 269.962 23.7387 270.564 23.8421C271.233 23.9111 271.802 23.9456 272.27 23.9456C272.672 23.9456 273.173 23.9111 273.776 23.8421C274.378 23.7732 274.796 23.7215 275.03 23.687C276.034 23.5145 276.82 23.4284 277.389 23.4284C280.567 23.4284 282.908 24.0663 284.414 25.3422C285.919 26.5835 286.672 28.187 286.672 30.1525C286.672 31.7042 286.204 33.0663 285.267 34.2387C284.364 35.4111 283.209 36.3594 281.804 37.0835C280.433 37.7732 279.061 38.2042 277.69 38.3766C277.455 38.4111 277.338 38.4973 277.338 38.6352C277.338 38.7387 277.405 38.8249 277.539 38.8938C279.647 39.7214 281.219 40.7731 282.256 42.049C283.293 43.3249 283.812 45.1007 283.812 47.3765C283.812 49.3421 283.226 51.1007 282.055 52.6524C280.884 54.1696 279.279 55.3593 277.238 56.2214C275.197 57.0835 272.906 57.5145 270.363 57.5145C269.226 57.5145 267.955 57.4455 266.55 57.3076C265.646 57.2041 264.81 57.1525 264.041 57.1525C263.271 57.1525 262.318 57.2214 261.18 57.3593C259.976 57.4972 258.889 57.5662 257.919 57.5662ZM272.019 38.118C273.257 38.118 274.796 37.9111 276.636 37.4973C278.442 36.7042 279.881 35.7042 280.951 34.4973C282.055 33.2559 282.607 31.8077 282.607 30.1525C282.607 28.6697 282.055 27.4456 280.951 26.4801C279.847 25.4801 278.342 24.9801 276.435 24.9801C275.8 24.9801 275.331 25.049 275.03 25.187C274.762 25.2904 274.595 25.4973 274.528 25.8077L271.417 37.3421C271.384 37.4111 271.367 37.5145 271.367 37.6525C271.367 37.9628 271.584 38.118 272.019 38.118ZM270.213 56.2214C271.718 56.2214 273.207 55.8076 274.679 54.98C276.184 54.118 277.405 52.9628 278.342 51.5144C279.279 50.0662 279.747 48.4628 279.747 46.7042C279.747 44.3248 279.045 42.5145 277.639 41.2731C276.268 40.0318 274.21 39.4111 271.467 39.4111C270.932 39.4111 270.581 39.7386 270.414 40.3938L267.202 51.7214C267.068 52.1352 267.001 52.6007 267.001 53.1179C267.001 53.911 267.235 54.5317 267.704 54.98C268.139 55.3937 268.523 55.7041 268.858 55.911C269.226 56.118 269.678 56.2214 270.213 56.2214ZM299.381 58.0317C296.872 58.0317 294.764 57.4455 293.058 56.2731C291.385 55.0662 290.131 53.4628 289.295 51.4628C288.492 49.4628 288.09 47.2214 288.09 44.7387C288.09 41.2904 288.876 37.8939 290.449 34.549C292.021 31.1697 294.279 28.3939 297.223 26.2214C300.2 24.0491 303.679 22.9629 307.66 22.9629C310.169 22.9629 312.26 23.5663 313.933 24.7732C315.639 25.9456 316.894 27.5317 317.696 29.5317C318.533 31.5317 318.951 33.7732 318.951 36.2559C318.951 39.7042 318.165 43.118 316.592 46.4973C315.02 49.8421 312.745 52.6007 309.768 54.7731C306.824 56.9455 303.362 58.0317 299.381 58.0317ZM299.531 56.4282C302.408 56.4282 305.001 55.3248 307.309 53.1179C309.651 50.8766 311.457 48.0318 312.729 44.5835C314.033 41.1352 314.686 37.7042 314.686 34.2904C314.686 31.5663 314.083 29.2387 312.879 27.3077C311.675 25.3766 309.885 24.4111 307.51 24.4111C304.733 24.4111 302.191 25.5491 299.883 27.8249C297.574 30.0663 295.734 32.9283 294.363 36.4111C293.025 39.8939 292.356 43.3249 292.356 46.7042C292.356 49.3938 292.958 51.6869 294.162 53.5834C295.366 55.48 297.156 56.4282 299.531 56.4282ZM339.752 58.0317C337.243 58.0317 335.136 57.4455 333.429 56.2731C331.757 55.0662 330.502 53.4628 329.666 51.4628C328.863 49.4628 328.462 47.2214 328.462 44.7387C328.462 41.2904 329.248 37.8939 330.82 34.549C332.392 31.1697 334.65 28.3939 337.594 26.2214C340.572 24.0491 344.051 22.9629 348.032 22.9629C350.541 22.9629 352.632 23.5663 354.304 24.7732C356.01 25.9456 357.265 27.5317 358.068 29.5317C358.904 31.5317 359.322 33.7732 359.322 36.2559C359.322 39.7042 358.536 43.118 356.964 46.4973C355.392 49.8421 353.117 52.6007 350.139 54.7731C347.195 56.9455 343.733 58.0317 339.752 58.0317ZM339.903 56.4282C342.78 56.4282 345.372 55.3248 347.681 53.1179C350.022 50.8766 351.829 48.0318 353.1 44.5835C354.405 41.1352 355.057 37.7042 355.057 34.2904C355.057 31.5663 354.455 29.2387 353.251 27.3077C352.046 25.3766 350.256 24.4111 347.881 24.4111C345.105 24.4111 342.562 25.5491 340.254 27.8249C337.946 30.0663 336.106 32.9283 334.734 36.4111C333.396 39.8939 332.727 43.3249 332.727 46.7042C332.727 49.3938 333.329 51.6869 334.533 53.5834C335.738 55.48 337.527 56.4282 339.903 56.4282ZM353.51 57.5662C352.708 57.5662 352.306 57.3765 352.306 56.9972C352.306 56.7558 352.49 56.5317 352.858 56.3248C353.193 56.0834 353.644 55.9283 354.213 55.8593C355.484 55.6869 356.722 55.2558 357.926 54.5662C359.131 53.842 360.519 52.6179 362.091 50.8938L369.719 42.618C370.153 42.1352 370.471 41.7214 370.672 41.3766C370.873 41.0317 370.973 40.6352 370.973 40.1869C370.973 39.9111 370.923 39.5663 370.823 39.1524L368.213 29.9456C367.845 28.6353 367.427 27.6525 366.959 26.9973C366.524 26.3421 366.055 25.9111 365.554 25.7042C365.052 25.4628 364.399 25.2732 363.597 25.1352C363.128 25.0662 362.744 24.9283 362.442 24.7215C362.141 24.5146 361.991 24.2904 361.991 24.0491C361.991 23.8421 362.192 23.687 362.593 23.5835C362.994 23.4801 363.429 23.4284 363.898 23.4284C364.333 23.4284 365.186 23.4629 366.457 23.5318C366.825 23.5663 367.394 23.6008 368.163 23.6352C368.966 23.6698 369.652 23.687 370.22 23.687L373.03 23.6352C373.365 23.6008 373.8 23.5835 374.335 23.5835C375.138 23.5835 375.539 23.7731 375.539 24.1525C375.539 24.3939 375.372 24.618 375.038 24.8249C374.703 25.0318 374.252 25.1525 373.683 25.187C372.813 25.2559 372.211 25.4284 371.876 25.7042C371.542 25.9456 371.375 26.3767 371.375 26.9973C371.375 27.5835 371.559 28.5835 371.926 29.9973L373.683 36.7731C373.85 37.2903 374.034 37.549 374.235 37.549C374.435 37.549 374.703 37.3421 375.038 36.9283L380.407 30.4111C381.946 28.549 382.715 27.2215 382.715 26.4283C382.715 25.8421 382.28 25.4456 381.411 25.2387C381.076 25.1697 380.792 25.0318 380.557 24.8249C380.323 24.618 380.206 24.4111 380.206 24.2042C380.206 23.8249 380.708 23.6352 381.712 23.6352L385.575 23.687C385.676 23.687 386.73 23.6352 388.737 23.5318C389.64 23.4284 390.393 23.3766 390.995 23.3766C391.798 23.3766 392.199 23.5663 392.199 23.9456C392.199 24.1525 392.049 24.3421 391.748 24.5146C391.447 24.6525 390.978 24.8076 390.343 24.9801C389.372 25.2559 388.101 25.9456 386.529 27.049C384.99 28.1525 383.602 29.3938 382.364 30.7732L375.74 38.1697C375.305 38.6869 375.021 39.0835 374.887 39.3593C374.787 39.6007 374.77 39.8765 374.837 40.1869L377.848 51.5662C378.115 52.5662 378.416 53.3248 378.751 53.842C379.086 54.3248 379.554 54.7214 380.156 55.0317C380.792 55.3076 381.779 55.6179 383.117 55.9627C383.585 56.1006 383.903 56.2559 384.07 56.4282C384.271 56.5662 384.371 56.7558 384.371 56.9972C384.371 57.3765 383.869 57.5662 382.866 57.5662L380.206 57.4627C378.199 57.3248 376.727 57.2558 375.79 57.2558L371.425 57.3076C370.622 57.3076 370.22 57.1179 370.22 56.7386C370.22 56.4282 370.856 56.0834 372.127 55.7041C372.997 55.4627 373.616 55.1524 373.984 54.7731C374.385 54.3593 374.586 53.8076 374.586 53.1179C374.586 52.7042 374.502 52.1869 374.335 51.5662L372.127 43.3421C372.027 42.9283 371.876 42.7214 371.676 42.7214C371.508 42.7214 371.341 42.8421 371.174 43.0835L363.848 52.1352C363.112 53.0317 362.744 53.7731 362.744 54.3593C362.744 55.0145 363.195 55.48 364.098 55.7559C364.6 55.9283 364.918 56.0662 365.052 56.1696C365.219 56.2731 365.303 56.4455 365.303 56.6868C365.303 56.8938 365.152 57.0662 364.851 57.2041C364.55 57.3076 364.199 57.3593 363.797 57.3593C363.195 57.3593 362.693 57.3421 362.292 57.3076L359.482 57.2558C358.947 57.2558 358.328 57.273 357.625 57.3076C356.956 57.3421 356.438 57.3765 356.07 57.4111C355.099 57.5145 354.246 57.5662 353.51 57.5662ZM397.814 58.0317C395.305 58.0317 393.197 57.4455 391.491 56.2731C389.819 55.0662 388.564 53.4628 387.728 51.4628C386.925 49.4628 386.523 47.2214 386.523 44.7387C386.523 41.2904 387.31 37.8939 388.882 34.549C390.454 31.1697 392.712 28.3939 395.656 26.2214C398.633 24.0491 402.113 22.9629 406.094 22.9629C408.603 22.9629 410.693 23.5663 412.366 24.7732C414.072 25.9456 415.327 27.5317 416.13 29.5317C416.966 31.5317 417.384 33.7732 417.384 36.2559C417.384 39.7042 416.598 43.118 415.026 46.4973C413.453 49.8421 411.178 52.6007 408.201 54.7731C405.257 56.9455 401.795 58.0317 397.814 58.0317ZM397.964 56.4282C400.841 56.4282 403.434 55.3248 405.742 53.1179C408.084 50.8766 409.891 48.0318 411.162 44.5835C412.466 41.1352 413.119 37.7042 413.119 34.2904C413.119 31.5663 412.517 29.2387 411.312 27.3077C410.108 25.3766 408.318 24.4111 405.943 24.4111C403.166 24.4111 400.624 25.5491 398.316 27.8249C396.007 30.0663 394.167 32.9283 392.796 36.4111C391.458 39.8939 390.789 43.3249 390.789 46.7042C390.789 49.3938 391.391 51.6869 392.595 53.5834C393.799 55.48 395.589 56.4282 397.964 56.4282ZM421.05 57.5662C420.247 57.5662 419.846 57.3765 419.846 56.9972C419.846 56.7903 419.98 56.6352 420.248 56.5317C420.549 56.3938 421.034 56.2731 421.703 56.1696C422.974 55.9283 424.011 55.48 424.814 54.8249C425.617 54.1696 426.185 53.2386 426.52 52.0317L432.642 29.8939C433.043 28.3421 433.244 27.2559 433.244 26.6353C433.244 25.9111 432.993 25.5491 432.491 25.5491H428.326C426.855 25.5491 425.667 25.8421 424.764 26.4283C423.894 26.9801 423.074 27.7387 422.305 28.7042C421.97 29.0835 421.686 29.4801 421.452 29.8939C420.816 30.7904 420.381 31.2387 420.147 31.2387C419.946 31.2387 419.796 31.2042 419.696 31.1352C419.629 31.0318 419.595 30.8422 419.595 30.5662C419.595 30.2214 419.762 29.687 420.097 28.9629C420.197 28.7215 420.498 28.0835 421 27.049C421.535 25.98 421.937 24.9283 422.205 23.8939C422.271 23.6524 422.389 23.4284 422.556 23.2215C422.757 22.9801 422.924 22.8594 423.058 22.8594C423.258 22.8594 423.559 23.0662 423.961 23.4801C424.162 23.687 424.496 23.8421 424.964 23.9456C425.433 24.0491 426.369 24.1007 427.775 24.1007H445.689C447.06 24.1007 447.997 24.0491 448.499 23.9456C449.034 23.8077 449.419 23.6352 449.653 23.4284C449.686 23.3938 449.804 23.2904 450.004 23.118C450.205 22.9457 450.372 22.8594 450.506 22.8594C450.841 22.8594 451.008 23.049 451.008 23.4284C451.008 23.7732 450.841 24.256 450.506 24.8766C450.272 25.2904 449.971 26.0835 449.603 27.2559C449.268 28.4283 448.984 29.6352 448.75 30.8766C448.649 31.3594 448.465 31.6007 448.198 31.6007C447.964 31.6007 447.78 31.4973 447.646 31.2904C447.545 31.0835 447.495 30.7904 447.495 30.4111C447.495 28.7559 447.228 27.5317 446.692 26.7387C446.191 25.9456 445.338 25.5491 444.133 25.5491H439.115C438.647 25.5491 438.279 25.6524 438.011 25.8594C437.744 26.0663 437.476 26.4801 437.208 27.1008C436.974 27.7214 436.673 28.7042 436.305 30.049L430.233 52.0317C430.1 52.48 430.033 52.9456 430.033 53.4283C430.033 54.8765 430.936 55.7904 432.742 56.1696C433.244 56.2731 433.579 56.3766 433.746 56.48C433.913 56.5835 433.997 56.7558 433.997 56.9972C433.997 57.3765 433.495 57.5662 432.491 57.5662C431.321 57.5662 430.35 57.5145 429.581 57.4111C428.577 57.3421 427.758 57.3076 427.122 57.3076C426.353 57.3076 425.366 57.3421 424.162 57.4111C423.258 57.5145 422.221 57.5662 421.05 57.5662ZM442.782 57.5662C442.012 57.5662 441.628 57.3765 441.628 56.9972C441.628 56.7903 441.745 56.6352 441.979 56.5317C442.213 56.3938 442.665 56.2214 443.334 56.0145C444.538 55.6697 445.374 55.3593 445.843 55.0835C446.311 54.7731 446.646 54.2731 446.846 53.5834L454.323 28.8076C454.624 27.7387 454.775 27.0318 454.775 26.6869C454.775 26.2732 454.624 25.9628 454.323 25.7559C454.056 25.5145 453.587 25.3077 452.918 25.1352C452.45 25.0318 452.132 24.9111 451.965 24.7732C451.798 24.6008 451.714 24.3767 451.714 24.1007C451.714 23.7215 452.216 23.5318 453.219 23.5318C454.189 23.5318 455.109 23.5663 455.979 23.6352L457.986 23.687L460.094 23.6352C461.098 23.5663 462.051 23.5318 462.954 23.5318C463.757 23.5318 464.159 23.7215 464.159 24.1007C464.159 24.5835 463.54 24.9283 462.302 25.1352C461.098 25.3766 460.161 25.7905 459.492 26.3767C458.823 26.9629 458.338 27.7732 458.037 28.8076L454.976 38.9973V39.1524C454.976 39.3593 455.143 39.4628 455.477 39.4628H472.288C472.421 39.4628 472.522 39.4111 472.589 39.3077C472.656 39.2042 472.723 39.049 472.789 38.8421L475.85 28.7559C476.018 28.1697 476.101 27.7214 476.101 27.4111C476.101 26.2386 475.349 25.4801 473.843 25.1352C473.375 25.0318 473.057 24.9111 472.89 24.7732C472.723 24.6008 472.639 24.3767 472.639 24.1007C472.639 23.7215 473.141 23.5318 474.144 23.5318C475.081 23.5318 476.051 23.5663 477.055 23.6352L479.514 23.687L481.17 23.6352C481.906 23.5663 482.775 23.5318 483.779 23.5318C484.582 23.5318 484.983 23.7215 484.983 24.1007C484.983 24.5835 484.364 24.9283 483.127 25.1352C481.989 25.3422 481.203 25.7214 480.768 26.2732C480.367 26.7904 479.982 27.618 479.614 28.7559L472.338 53.1179C472.204 53.5318 472.137 53.9283 472.137 54.3076C472.137 55.2386 472.773 55.8248 474.044 56.0662C474.512 56.1696 474.83 56.2903 474.997 56.4282C475.198 56.5662 475.298 56.7558 475.298 56.9972C475.298 57.3765 474.797 57.5662 473.793 57.5662C472.656 57.5662 471.736 57.5145 471.033 57.4111C470.297 57.3421 469.628 57.3076 469.026 57.3076C468.424 57.3076 467.688 57.3421 466.818 57.4111C466.082 57.5145 465.129 57.5662 463.958 57.5662C463.155 57.5662 462.753 57.3765 462.753 56.9972C462.753 56.5835 463.356 56.2731 464.56 56.0662C466.768 55.6869 468.206 54.4282 468.875 52.2903L471.987 42.2041C472.02 42.1352 472.053 42.0318 472.087 41.8939C472.12 41.7214 472.137 41.6007 472.137 41.5318C472.137 41.4628 472.087 41.4283 471.987 41.4283H454.674C454.507 41.4283 454.373 41.6179 454.273 41.9973L451.312 51.9283C451.112 52.5835 451.011 53.1697 451.011 53.6869C451.011 54.411 451.229 54.9455 451.664 55.2904C452.099 55.6352 452.768 55.8938 453.671 56.0662C454.139 56.1696 454.457 56.2903 454.624 56.4282C454.825 56.5662 454.925 56.7558 454.925 56.9972C454.925 57.3765 454.424 57.5662 453.42 57.5662C452.249 57.5662 451.262 57.5145 450.459 57.4111C449.456 57.3421 448.636 57.3076 448.001 57.3076C447.398 57.3076 446.629 57.3421 445.692 57.4111C444.956 57.5145 443.986 57.5662 442.782 57.5662ZM478.208 57.5662C477.438 57.5662 477.054 57.3765 477.054 56.9972C477.054 56.5835 477.656 56.2731 478.86 56.0662C480.064 55.8248 480.917 55.4455 481.419 54.9283C481.955 54.3766 482.423 53.4628 482.824 52.1869L489.749 28.8076C490.05 27.7387 490.201 27.0318 490.201 26.6869C490.201 26.2732 490.05 25.9628 489.749 25.7559C489.482 25.5145 489.013 25.3077 488.344 25.1352C487.876 25.0318 487.558 24.9111 487.391 24.7732C487.223 24.6008 487.14 24.3767 487.14 24.1007C487.14 23.7215 487.642 23.5318 488.645 23.5318C489.615 23.5318 490.535 23.5663 491.405 23.6352L493.412 23.687L495.57 23.6352C496.507 23.5663 497.443 23.5318 498.38 23.5318C499.183 23.5318 499.584 23.7215 499.584 24.1007C499.584 24.5835 498.966 24.9283 497.728 25.1352C496.523 25.3766 495.587 25.7905 494.918 26.3767C494.249 26.9629 493.764 27.7732 493.462 28.8076L488.043 47.0663V47.2214C488.043 47.3938 488.093 47.5145 488.194 47.5835C488.327 47.6525 488.444 47.6351 488.545 47.5318L511.025 29.3249C511.327 29.0835 511.527 28.8076 511.628 28.4973L511.828 27.9284C511.895 27.6524 511.929 27.4284 511.929 27.2559C511.929 26.7732 511.745 26.3421 511.377 25.9628C511.009 25.5835 510.423 25.3077 509.62 25.1352C509.152 25.0318 508.834 24.9111 508.667 24.7732C508.5 24.6008 508.416 24.3767 508.416 24.1007C508.416 23.7215 508.918 23.5318 509.921 23.5318C510.858 23.5318 511.828 23.5663 512.832 23.6352L515.291 23.687L516.947 23.6352C517.683 23.5663 518.552 23.5318 519.556 23.5318C520.359 23.5318 520.76 23.7215 520.76 24.1007C520.76 24.5835 520.141 24.9283 518.904 25.1352C517.766 25.3422 516.98 25.7214 516.545 26.2732C516.144 26.7904 515.759 27.618 515.391 28.7559L508.416 52.1352C508.115 53.1007 507.964 53.842 507.964 54.3593C507.964 54.8421 508.098 55.2214 508.366 55.4972C508.667 55.7386 509.152 55.9283 509.821 56.0662C510.289 56.1696 510.607 56.2903 510.775 56.4282C510.975 56.5662 511.076 56.7558 511.076 56.9972C511.076 57.3765 510.574 57.5662 509.57 57.5662C508.399 57.5662 507.479 57.5145 506.81 57.4111C506.007 57.3421 505.338 57.3076 504.803 57.3076C504.201 57.3076 503.465 57.3421 502.595 57.4111C501.826 57.5145 500.872 57.5662 499.735 57.5662C498.932 57.5662 498.531 57.3765 498.531 56.9972C498.531 56.5835 499.133 56.2731 500.337 56.0662C502.578 55.6869 504.017 54.4282 504.653 52.2903L510.223 33.3594C510.289 33.1524 510.306 32.9456 510.273 32.7387C510.239 32.5318 510.172 32.4801 510.072 32.5835L487.19 51.049C487.156 51.049 487.09 51.0835 486.989 51.1524C486.922 51.2214 486.855 51.3765 486.789 51.6179L486.538 52.2903C486.37 52.7386 486.287 53.1351 486.287 53.48C486.287 54.1352 486.538 54.6869 487.039 55.1351C487.575 55.5834 488.26 55.8938 489.097 56.0662C489.565 56.1696 489.883 56.2903 490.05 56.4282C490.251 56.5662 490.351 56.7558 490.351 56.9972C490.351 57.3765 489.849 57.5662 488.846 57.5662C487.675 57.5662 486.688 57.5145 485.885 57.4111C484.882 57.3421 484.062 57.3076 483.426 57.3076C482.757 57.3076 481.988 57.3421 481.118 57.4111C480.315 57.5145 479.345 57.5662 478.208 57.5662ZM541.776 58.0317C540.472 58.0317 539.384 57.6179 538.515 56.7903C537.645 55.9627 536.959 54.98 536.457 53.842C535.956 52.6696 535.337 51.0145 534.601 48.8766C533.965 47.049 533.396 45.5835 532.895 44.4801C532.393 43.3421 531.74 42.4111 530.938 41.6869C530.135 40.9283 529.148 40.549 527.977 40.549C527.341 40.549 526.94 40.6352 526.773 40.8076C526.605 40.9456 526.472 41.187 526.371 41.5318L523.16 52.2387C523.026 52.6869 522.959 53.1351 522.959 53.5834C522.959 54.2731 523.176 54.8075 523.611 55.1869C524.08 55.5662 524.782 55.8593 525.719 56.0662C526.187 56.1696 526.505 56.2903 526.672 56.4282C526.873 56.5662 526.973 56.7558 526.973 56.9972C526.973 57.3765 526.472 57.5662 525.468 57.5662C524.297 57.5662 523.31 57.5145 522.507 57.4111C521.504 57.3421 520.684 57.3076 520.048 57.3076C519.312 57.3076 518.342 57.3421 517.138 57.4111C516.235 57.5145 515.198 57.5662 514.027 57.5662C513.224 57.5662 512.823 57.3765 512.823 56.9972C512.823 56.5835 513.425 56.2731 514.629 56.0662C515.934 55.8248 516.971 55.4111 517.74 54.8249C518.543 54.2387 519.112 53.3765 519.446 52.2387L526.371 28.8594C526.572 28.1697 526.672 27.618 526.672 27.2042C526.672 26.618 526.488 26.1697 526.12 25.8594C525.752 25.5491 525.15 25.3077 524.314 25.1352C523.845 25.0318 523.528 24.9111 523.36 24.7732C523.193 24.6008 523.109 24.3767 523.109 24.1007C523.109 23.7215 523.611 23.5318 524.615 23.5318C525.518 23.5318 526.505 23.5663 527.575 23.6352L530.034 23.687L532.292 23.6352C533.296 23.5663 534.249 23.5318 535.153 23.5318C535.956 23.5318 536.357 23.7215 536.357 24.1007C536.357 24.5835 535.738 24.9283 534.5 25.1352C533.229 25.3766 532.259 25.7732 531.59 26.3249C530.921 26.8422 530.419 27.687 530.084 28.8594L527.676 37.0317C527.575 37.3421 527.525 37.6179 527.525 37.8593C527.525 38.4801 527.877 38.7904 528.579 38.7904C530.486 38.7904 532.46 38.049 534.5 36.5662C536.574 35.0835 538.448 32.9111 540.12 30.049C541.124 28.256 541.977 26.8939 542.68 25.9628C543.382 24.9973 544.135 24.256 544.938 23.7387C545.774 23.187 546.744 22.9111 547.848 22.9111C548.618 22.9111 549.236 23.1525 549.705 23.6352C550.173 24.118 550.407 24.8076 550.407 25.7042C550.407 26.3939 550.274 26.9456 550.006 27.3594C549.738 27.7732 549.42 27.98 549.053 27.98C548.015 27.6352 547.229 27.4111 546.694 27.3077C546.159 27.1697 545.59 27.1008 544.988 27.1008C544.586 27.1008 544.168 27.3422 543.733 27.8249C543.332 28.3076 542.83 29.118 542.228 30.256C541.158 32.2214 540.054 33.7904 538.916 34.9628C537.812 36.1007 536.24 37.3593 534.199 38.7387C534.032 38.8421 533.915 38.911 533.848 38.9456C533.815 38.9801 533.881 39.0663 534.049 39.2042C534.852 39.8939 535.537 40.8421 536.106 42.049C536.675 43.2559 537.344 44.9456 538.113 47.1179L538.465 48.1524C539.334 50.6007 540.187 52.4628 541.024 53.7386C541.893 55.0145 542.981 55.6524 544.285 55.6524C545.256 55.6524 545.741 55.8938 545.741 56.3766C545.741 56.8249 545.322 57.2041 544.486 57.5145C543.683 57.8593 542.78 58.0317 541.776 58.0317ZM558.086 58.0317C555.577 58.0317 553.47 57.4455 551.763 56.2731C550.091 55.0662 548.836 53.4628 548 51.4628C547.197 49.4628 546.796 47.2214 546.796 44.7387C546.796 41.2904 547.582 37.8939 549.154 34.549C550.726 31.1697 552.984 28.3939 555.928 26.2214C558.906 24.0491 562.385 22.9629 566.366 22.9629C568.875 22.9629 570.966 23.5663 572.638 24.7732C574.344 25.9456 575.599 27.5317 576.402 29.5317C577.238 31.5317 577.656 33.7732 577.656 36.2559C577.656 39.7042 576.87 43.118 575.298 46.4973C573.726 49.8421 571.451 52.6007 568.473 54.7731C565.529 56.9455 562.067 58.0317 558.086 58.0317ZM558.237 56.4282C561.114 56.4282 563.706 55.3248 566.015 53.1179C568.356 50.8766 570.163 48.0318 571.434 44.5835C572.739 41.1352 573.391 37.7042 573.391 34.2904C573.391 31.5663 572.789 29.2387 571.584 27.3077C570.38 25.3766 568.59 24.4111 566.215 24.4111C563.439 24.4111 560.896 25.5491 558.588 27.8249C556.28 30.0663 554.44 32.9283 553.068 36.4111C551.73 39.8939 551.061 43.3249 551.061 46.7042C551.061 49.3938 551.663 51.6869 552.867 53.5834C554.072 55.48 555.861 56.4282 558.237 56.4282ZM575.666 57.5662C575.231 57.5662 574.93 57.5145 574.763 57.4111C574.562 57.3421 574.462 57.2041 574.462 56.9972C574.462 56.7558 574.612 56.5662 574.913 56.4282C575.181 56.2903 575.632 56.1696 576.268 56.0662C577.573 55.8248 578.61 55.4111 579.379 54.8249C580.149 54.2387 580.717 53.3593 581.085 52.1869L587.96 28.9111C588.194 28.049 588.311 27.4628 588.311 27.1525C588.311 26.5663 588.127 26.1353 587.759 25.8594C587.391 25.5835 586.789 25.3594 585.953 25.187C585.418 25.0836 585.05 24.9801 584.849 24.8766C584.682 24.7387 584.598 24.549 584.598 24.3077C584.598 24.1007 584.749 23.9456 585.05 23.8421C585.384 23.7387 585.786 23.687 586.254 23.687C587.023 23.687 587.709 23.7387 588.311 23.8421C588.98 23.9111 589.549 23.9456 590.017 23.9456C590.419 23.9456 590.921 23.9111 591.523 23.8421C592.125 23.7732 592.543 23.7215 592.777 23.687C593.781 23.5145 594.567 23.4284 595.136 23.4284C598.314 23.4284 600.656 24.0663 602.161 25.3422C603.666 26.5835 604.419 28.187 604.419 30.1525C604.419 31.7042 603.951 33.0663 603.014 34.2387C602.111 35.4111 600.957 36.3594 599.552 37.0835C598.18 37.7732 596.808 38.2042 595.437 38.3766C595.203 38.4111 595.086 38.4973 595.086 38.6352C595.086 38.7387 595.152 38.8249 595.286 38.8938C597.394 39.7214 598.966 40.7731 600.003 42.049C601.04 43.3249 601.559 45.1007 601.559 47.3765C601.559 49.3421 600.973 51.1007 599.803 52.6524C598.632 54.1696 597.026 55.3593 594.985 56.2214C592.945 57.0835 590.653 57.5145 588.111 57.5145C586.973 57.5145 585.702 57.4455 584.297 57.3076C583.394 57.2041 582.557 57.1525 581.788 57.1525C581.018 57.1525 580.065 57.2214 578.928 57.3593C577.723 57.4972 576.636 57.5662 575.666 57.5662ZM589.767 38.118C591.004 38.118 592.543 37.9111 594.383 37.4973C596.19 36.7042 597.628 35.7042 598.699 34.4973C599.803 33.2559 600.354 31.8077 600.354 30.1525C600.354 28.6697 599.803 27.4456 598.699 26.4801C597.595 25.4801 596.089 24.9801 594.182 24.9801C593.547 24.9801 593.078 25.049 592.777 25.187C592.51 25.2904 592.342 25.4973 592.276 25.8077L589.164 37.3421C589.131 37.4111 589.114 37.5145 589.114 37.6525C589.114 37.9628 589.332 38.118 589.767 38.118ZM587.96 56.2214C589.465 56.2214 590.954 55.8076 592.426 54.98C593.931 54.118 595.152 52.9628 596.089 51.5144C597.026 50.0662 597.494 48.4628 597.494 46.7042C597.494 44.3248 596.792 42.5145 595.387 41.2731C594.015 40.0318 591.958 39.4111 589.215 39.4111C588.679 39.4111 588.328 39.7386 588.161 40.3938L584.949 51.7214C584.815 52.1352 584.749 52.6007 584.749 53.1179C584.749 53.911 584.983 54.5317 585.451 54.98C585.886 55.3937 586.271 55.7041 586.605 55.911C586.973 56.118 587.425 56.2214 587.96 56.2214Z" fill="black"/>
</g>
<defs>
<filter id="filter0_d" x="66.9141" y="21.8594" width="543.505" height="50.9999" filterUnits="userSpaceOnUse" color-interpolation-filters="sRGB">
<feFlood flood-opacity="0" result="BackgroundImageFix"/>
<feColorMatrix in="SourceAlpha" type="matrix" values="0 0 0 0 0 0 0 0 0 0 0 0 0 0 0 0 0 0 127 0"/>
<feOffset dx="3" dy="2"/>
<feGaussianBlur stdDeviation="1.5"/>
<feColorMatrix type="matrix" values="0 0 0 0 0.729412 0 0 0 0 0.533333 0 0 0 0 0.32549 0 0 0 1 0"/>
<feBlend mode="normal" in2="BackgroundImageFix" result="effect1_dropShadow"/>
<feBlend mode="normal" in="SourceGraphic" in2="effect1_dropShadow" result="shape"/>
</filter>
</defs>
</svg>
