<svg width="416" height="70" viewBox="0 0 416 70" fill="none" xmlns="http://www.w3.org/2000/svg">
<mask id="mask0" mask-type="alpha" maskUnits="userSpaceOnUse" x="0" y="0" width="64" height="70">
<rect width="64" height="70" fill="#C4C4C4"/>
</mask>
<g mask="url(#mask0)">
<path fill-rule="evenodd" clip-rule="evenodd" d="M38.0843 20.2051C37.7644 20.5171 37.201 20.3274 36.7543 20.3616C36.3679 20.3913 35.9907 20.508 35.6904 20.5181C30.2854 20.7016 27.8818 17.0864 24.4297 15.3548C24.0389 14.8392 23.4607 14.4892 22.8341 14.1815C22.69 13.891 22.3712 13.7554 22.2131 13.4774C21.3951 12.933 20.5687 12.3747 19.8195 11.7563C19.2579 11.2931 18.7289 10.8378 18.1344 10.3481C17.619 9.92308 17.162 9.32856 16.6271 8.78352C16.4472 8.60001 16.2536 8.42502 16.0955 8.23588C15.9425 8.05337 15.8904 7.78933 15.7408 7.61013C15.4308 7.23948 14.9701 6.9627 14.6768 6.59305C14.3624 6.1971 14.1023 5.87173 13.7901 5.49787C12.5544 4.01928 11.4479 2.45998 10.0662 1.11702C9.08865 2.99577 9.39307 6.32259 10.1548 8.23588C10.494 9.08701 11.081 10.0033 11.6622 10.8175C12.254 11.6471 12.8355 12.4731 13.5241 13.008C14.0355 13.4053 14.6443 13.5921 14.9428 14.1032C15.2723 14.2157 15.6156 14.3624 15.9181 14.5726C16.2214 14.7835 16.848 15.1485 17.0708 15.5896C16.4084 15.6264 16.0434 15.4012 15.4752 15.3548C13.7126 14.2939 11.9141 12.6354 10.7755 10.6611C10.4881 10.1623 10.2597 9.79107 9.97753 9.17465C9.74441 8.66556 9.57595 7.97677 9.35687 7.2189C9.21611 6.73129 8.97375 6.2476 8.91354 5.81079C8.68374 4.13925 8.98964 1.50293 9.71153 0.334656C10.7784 0.257454 11.507 1.43868 12.1055 2.21221C13.0897 3.48408 13.9139 4.30289 14.8538 5.49787C15.231 5.97704 15.6289 6.31828 16.0064 6.82777C16.4147 7.37802 17.1905 8.04262 17.6024 8.70532C18.4473 9.52442 19.4881 10.1712 20.1737 11.1304C21.3072 11.5565 21.9836 12.5279 22.922 13.1645C23.3735 13.4702 23.9262 13.8851 24.4294 14.2597C25.3563 14.9494 26.4665 15.6916 27.444 16.4501C27.8197 16.7416 28.2756 17.0238 28.6853 17.3106C29.0806 17.5877 29.4375 17.9508 29.838 18.1712C30.6271 18.606 31.632 18.7126 32.3207 19.3447C33.8114 19.7416 35.2836 19.991 37.286 20.0487C37.4958 20.0549 37.9912 19.9122 38.0843 20.2051Z" fill="#030201"/>
<path fill-rule="evenodd" clip-rule="evenodd" d="M10.687 5.6543C10.7457 5.6543 10.8048 5.6543 10.864 5.6543C11.6915 6.09763 11.9819 7.01482 12.8146 7.45354C12.9036 7.68896 12.617 7.59208 12.4599 7.61005C12.7219 8.23951 13.825 8.12637 14.0556 8.78354C13.4013 8.83926 13.0466 8.63095 12.6369 8.47062C12.3329 9.23531 13.0278 9.7943 13.7896 9.87873C13.9093 9.66549 13.5339 9.21995 13.1689 9.17467C13.4888 8.50415 14.1147 9.16293 14.4099 9.40929C15.1233 10.0042 15.9009 10.736 16.6265 11.2868C17.6067 11.7484 18.3042 12.5542 19.1982 13.1644C19.7258 13.5246 20.3974 13.9252 20.7938 14.4943C21.9864 15.0849 23.0958 15.7489 23.9862 16.6066C25.0011 16.9886 25.6797 17.6675 26.4688 18.2494C26.4969 18.5636 26.5309 18.8726 26.7348 19.0317C26.931 18.9527 26.5165 18.7624 26.6462 18.484C27.3614 18.7138 27.869 19.1265 28.4199 19.5011C28.5303 19.8332 28.1247 19.7103 28.0652 19.8922C28.3323 20.1732 28.4853 19.6943 28.8628 19.814C28.8148 20.4757 27.8531 20.3312 27.2672 20.5181C27.1239 20.1226 26.5346 20.1213 26.3805 19.7357C25.9476 20.0789 24.8067 20.2896 24.1639 19.9704C24.0907 19.7495 24.2888 19.7677 24.2526 19.5793C23.0053 19.6888 22.2158 19.3945 21.8586 18.7187C21.883 18.3491 22.4604 18.4674 22.7452 18.3276C21.9967 18.1001 20.8315 18.5091 19.8192 18.3276C19.4557 18.2624 19.1568 18.1145 18.8435 18.0147C18.8435 17.8843 18.8435 17.7539 18.8435 17.6235C19.8521 17.4194 20.7399 17.9785 21.9469 17.8583C21.9432 17.4964 21.2737 17.7219 21.1489 17.467C21.0713 17.2157 21.379 17.3047 21.4152 17.1541C21.304 16.7564 20.8175 16.6906 20.3509 16.6066C20.3564 16.9931 20.8267 16.9693 20.7055 17.467C20.2759 17.4029 20.1747 17.0485 19.9079 16.8412C19.7439 16.8529 19.8536 17.1062 19.7306 17.1541C19.6046 17.1473 19.4794 17.1411 19.4646 17.2324C18.7335 17.2471 18.0097 17.2086 17.4249 16.9977C17.3562 16.9729 17.3111 16.7871 17.2479 16.763C16.9021 16.631 16.3336 16.6571 16.2722 16.2936C17.3141 15.6456 18.5569 17.0244 19.7302 16.763C19.7228 16.1955 18.6895 16.5339 18.6662 15.9807C18.8432 15.9807 19.0209 15.9807 19.1982 15.9807C19.0863 15.7141 18.9378 15.4803 18.5772 15.4331C18.2561 15.3581 18.487 15.7708 18.3112 15.8242C17.5856 15.656 18.0925 14.4004 17.4245 14.1814C17.0942 14.0986 17.1386 14.346 16.9816 14.4161C16.5685 14.4457 16.8523 14.1293 16.5382 14.025C16.3823 13.9731 16.181 14.0921 16.0062 14.025C15.9837 14.0161 16.0288 13.8783 16.0062 13.8684C15.8403 13.7961 15.3512 13.8906 15.3856 13.6338C15.6349 13.2146 16.321 13.669 16.6265 13.712C16.5183 12.7644 14.9371 13.1165 14.4099 12.5385C14.9193 12.3257 15.6283 12.6096 16.0949 12.695C16.1196 12.3602 15.8241 12.3081 15.9176 11.9127C15.2141 11.8805 14.766 11.4248 14.1442 11.7563C14.0936 11.2269 13.2158 11.428 13.0802 10.9739C13.5077 10.7673 13.4368 11.0121 14.0556 10.9739C14.1775 10.1265 13.1552 9.93646 12.5486 10.1917C12.0972 9.49473 12.3188 8.20397 11.7506 7.61005C11.7259 7.43175 11.772 7.316 11.9276 7.29713C11.5474 6.72047 10.8573 6.41638 10.687 5.6543ZM14.4996 11.1304C14.9507 11.2021 15.2529 11.4045 15.741 11.4434C15.3638 11.0463 14.9888 10.647 14.4996 10.3481C14.4996 10.6089 14.4996 10.8696 14.4996 11.1304ZM16.7163 12.8515C16.9221 12.8264 17.0569 12.8642 17.1596 12.9297C16.9882 12.5855 16.959 12.1158 16.539 11.9909C16.4684 12.3922 16.7255 12.5043 16.7163 12.8515ZM17.071 13.7902C17.2187 13.7902 17.3665 13.7902 17.5143 13.7902C17.5069 13.5356 17.4009 13.3688 17.1596 13.3209C17.1005 13.3209 17.0414 13.3209 16.9827 13.3209C16.9176 13.5601 17.1352 13.551 17.071 13.7902ZM18.401 13.8684C18.4586 13.5044 18.3699 13.27 17.9576 13.3209C17.9218 13.6653 17.9336 13.9675 18.401 13.8684ZM18.667 14.9637C18.6038 14.7065 18.6248 14.375 18.3123 14.3379C18.323 14.6413 18.2048 15.0585 18.667 14.9637ZM19.2876 15.1201C19.4653 15.1521 19.9452 15.3138 20.0856 15.1201C19.8961 14.8177 19.8658 14.375 19.1993 14.4943C19.131 14.7889 19.3068 14.8682 19.2876 15.1201ZM20.7059 16.1371C20.6235 15.7144 20.0886 15.6913 19.6419 15.5896C19.7051 16.0293 20.0804 16.1938 20.7059 16.1371ZM21.8589 16.3718C21.8316 16.0804 21.467 15.6788 21.2383 15.8242C21.5198 15.941 21.3 16.4999 21.8589 16.3718ZM24.2529 17.467C23.8972 17.2069 23.5126 16.9729 23.1003 16.763C23.3489 17.0665 23.6633 17.7245 24.2529 17.467ZM21.9476 17.2324C22.2055 17.2187 22.5738 17.5072 22.7456 17.3106C22.5136 17.0981 22.3603 16.8161 21.8589 16.8412C21.7854 17.0625 21.9838 17.044 21.9476 17.2324ZM23.5436 18.3276C23.4568 17.987 23.1054 17.8794 22.6569 17.8583C22.7249 18.2155 23.1775 18.2334 23.5436 18.3276ZM24.7846 18.1712C24.5252 18.1914 24.5123 17.9945 24.2529 18.0147C24.1369 18.3465 24.7469 18.4371 24.7846 18.1712ZM25.7603 18.2494C25.5951 18.324 25.4636 18.015 25.4056 18.2494C25.4603 18.2722 25.747 18.4439 25.7603 18.2494ZM22.8343 18.7969C22.8442 18.8925 22.8605 18.9822 23.0112 18.9534C23.326 18.7093 24.3434 19.0858 24.5186 18.7187C23.9747 18.7602 23.2351 18.6295 22.8343 18.7969ZM25.3169 18.8752C25.2552 18.8139 24.8222 18.7012 24.7849 18.8752C24.8463 18.9365 25.2796 19.0492 25.3169 18.8752ZM25.1392 19.4228C25.4521 19.4906 25.6077 19.2318 25.3166 19.1882C25.2955 19.2996 25.1706 19.3202 25.1392 19.4228ZM27.7105 19.5011C27.5931 19.5124 27.3806 19.238 27.3559 19.4228C27.4745 19.411 27.6237 19.7409 27.7105 19.5011Z" fill="#140C06"/>
<path fill-rule="evenodd" clip-rule="evenodd" d="M42.1629 33.2696C42.0961 32.8977 42.3865 32.841 42.5176 32.6437C42.8054 32.0633 42.9236 31.3331 43.4933 31.0009C43.4623 31.6519 43.193 32.092 42.8726 32.4873C43.0422 33.1676 42.4736 33.6647 42.4293 34.2084C42.3913 34.6729 42.8398 35.1537 42.4293 35.6166C42.0946 35.5207 42.167 35.0656 42.1629 34.6778C41.3302 35.0904 41.8408 36.6883 41.4536 37.494C40.8455 37.2815 40.6102 37.765 40.301 38.0417C40.2614 38.6845 40.2755 39.3749 39.6803 39.5281C39.4911 39.2429 39.8125 38.8396 39.8576 38.5111C39.1472 38.3028 39.5044 39.7112 38.705 39.6845C38.6931 39.4918 38.6917 39.3077 38.7933 39.2152C38.4467 39.2024 38.0481 40.0398 37.2863 39.6845C37.1906 39.2614 37.5264 39.2187 37.4633 38.824C37.1581 38.6881 36.8644 39.2324 36.3993 39.2152C36.0671 39.6259 36.1174 40.3746 35.3353 40.3885C35.1225 40.1245 35.5924 39.9218 35.6899 39.6845C35.5329 39.4775 35.3305 39.7995 35.2466 39.5281C35.2943 39.2832 35.5776 39.2461 35.8673 39.2152C35.9977 38.8084 36.059 38.3409 36.3106 38.0417C36.7798 38.1124 36.3963 38.4485 36.4879 38.824C38.0917 38.5042 37.5002 36.4627 37.6406 35.1471C38.0677 35.2394 38.0189 35.7518 38.0836 36.1641C38.8213 36.1113 38.6957 34.9986 38.5269 34.2084C38.1512 34.3733 37.6254 35.081 37.0196 35.3036C36.8186 34.7843 37.6476 34.5839 37.9953 34.2084C38.156 34.0343 38.0828 33.8241 38.3499 33.739C38.3695 33.487 38.1929 33.4078 38.2613 33.1132C38.4999 33.0591 38.4327 33.2748 38.5273 33.3479C39.2329 32.7533 38.2679 32.224 38.3503 31.4703C38.5834 31.4472 38.4197 31.7738 38.705 31.7051C38.8513 31.3911 38.9813 31.0625 39.1483 30.7663C39.0441 30.3888 38.7859 30.1473 38.6163 29.8275C38.1874 30.4136 38.2631 31.4455 37.5523 31.7833C37.3572 31.3237 38.4829 30.1049 38.3503 29.3581C38.276 28.9392 37.9136 28.9839 37.7293 28.5758C37.9561 28.3988 38.3547 28.5442 38.5273 28.654C38.7988 28.2551 38.4896 27.6983 38.2613 27.4806C38.0311 27.5644 38.1368 27.9444 37.9066 28.0282C37.5224 27.9291 37.8859 27.6188 37.9066 27.4023C37.9945 26.4721 37.9084 25.0665 37.6406 24.3514C37.5353 24.0792 36.8297 24.337 36.9313 23.8819C36.8987 23.5501 37.3151 23.8136 37.4629 23.8037C37.375 23.5166 37.1363 23.3617 37.1082 23.0215C36.6948 22.9384 36.4089 23.2259 36.1329 23.0215C36.1026 22.6818 36.3767 22.6111 36.6645 22.552C36.6586 22.3226 36.4617 22.2616 36.3099 22.1609C35.7276 22.2991 35.3811 22.6453 34.6252 22.6303C34.6499 22.5039 34.5413 22.4953 34.5365 22.3956C34.7113 21.8979 35.7346 22.1492 35.7779 21.5351C35.588 21.1547 34.6581 21.4275 34.2705 21.2221C34.4375 20.5882 35.3305 20.9865 35.8662 21.066C36.0524 21.2411 36.2589 21.3975 36.4872 21.5354C36.7059 21.5455 36.9143 21.5471 37.0188 21.4572C37.1592 21.3202 37.1374 21.0402 37.1962 20.8313C38.1552 20.3737 39.4952 20.2521 41.0084 20.2838C41.1529 20.5481 41.4991 20.6331 41.4518 21.066C40.5019 21.4839 39.4099 20.8919 38.2598 20.9878C38.8949 21.3662 39.2765 21.9683 39.1464 23.0218C39.4305 23.1883 39.6977 23.3699 40.0327 23.4911C40.332 23.1199 39.8842 22.7382 39.8558 22.3959C40.4993 22.3901 40.5415 23.2838 40.3874 23.7258C40.7868 24.1567 41.0901 24.3409 41.4514 24.8211C41.4994 24.885 41.7056 25.1089 41.7178 25.134C42.0214 25.7827 41.8179 26.6151 41.9838 27.4027C42.0573 27.7521 42.4345 28.0438 42.3384 28.4197C42.0554 28.4868 42.0643 28.2968 41.8951 28.2632C41.6612 28.5569 41.6476 29.2291 41.8951 29.5149C42.5634 28.8317 42.6894 27.5044 42.9591 26.6986C43.6404 27.2919 42.7371 28.3929 42.6044 28.9672C42.5775 29.2117 42.8605 28.7685 42.8708 29.0456C43.272 30.9651 41.1673 31.8797 42.0728 33.8175C42.2158 33.6402 42.846 33.0398 42.1629 33.2696ZM37.7296 21.3003C37.0258 21.3418 38.1641 21.2749 37.7296 21.3003V21.3003ZM37.198 21.848C37.225 22.085 37.4721 22.1274 37.375 22.4738C38.1264 22.3585 38.4475 22.6228 38.8823 22.7868C38.8162 22.141 38.6499 21.5837 38.0843 21.3786C38.0861 21.7972 37.4551 21.6579 37.198 21.848ZM38.7053 24.2732C38.7057 23.8555 38.4903 23.628 38.439 23.2561C38.1722 23.1786 38.0437 22.9794 37.6413 23.0215C37.7511 23.6548 38.0189 24.1486 38.7053 24.2732ZM39.1487 24.5861C39.4771 24.7151 39.8107 25.251 40.124 25.1336C39.9939 25.0659 39.8428 25.0167 39.858 24.8207C39.9788 24.1405 39.6282 23.8761 39.06 23.8037C39.1516 24.0097 39.166 24.2839 39.1487 24.5861ZM38.8827 25.916C38.8199 25.3192 38.8768 24.6173 38.1733 24.5861C38.2897 25.1354 38.2162 25.8518 38.8827 25.916ZM41.5427 26.7765C41.5205 25.8052 41.164 25.1291 40.5673 24.6643C40.37 25.8293 41.062 26.2097 41.5427 26.7765ZM40.124 26.8548C40.2976 25.9453 39.8262 25.6047 39.326 25.2902C39.1963 26.1605 39.4867 26.6604 40.124 26.8548ZM38.7936 27.4023C38.9521 26.7413 38.7707 26.39 38.3507 26.0724C38.16 26.6527 38.272 27.2381 38.7936 27.4023ZM41.3653 28.4976C41.6284 27.5494 41.2242 26.8941 40.5673 26.5419C40.2699 27.4857 40.8928 28.0047 41.3653 28.4976ZM39.858 28.4976C39.8506 27.8258 40.0024 27.0141 39.237 27.0112C39.002 27.7466 39.3105 28.2446 39.858 28.4976ZM40.922 30.0621C41.2563 29.2587 40.973 28.5826 40.39 28.1847C39.9625 28.8767 40.2437 29.7431 40.922 30.0621ZM39.5033 29.8275C39.7996 29.2597 39.3851 28.6941 38.9713 28.4976C38.7101 29.1429 38.8657 29.6147 39.5033 29.8275ZM42.4293 30.2186C42.4943 29.9344 42.7415 29.4028 42.5176 29.1235C42.4371 29.4986 41.874 29.9553 42.4293 30.2186ZM41.6313 31.8615C41.7547 31.4231 42.0953 31.1757 42.1629 30.688C41.891 30.4067 41.799 29.9664 41.4536 29.7492C41.0413 30.3868 41.2105 31.3459 41.6313 31.8615ZM40.301 31.2356C40.8422 30.836 40.3154 30.1127 39.9463 29.8275C39.6223 30.262 39.9363 30.9524 40.301 31.2356ZM38.8827 32.0962C39.0903 32.3563 39.1845 32.7161 39.5037 32.8785C39.9714 32.413 40.1111 31.3579 39.3264 31.0792C39.2466 31.4785 39.0079 31.7373 38.8827 32.0962ZM40.8333 32.8785C41.6605 32.6411 40.9889 31.866 40.922 31.3138C40.8333 31.3138 40.7447 31.3138 40.6556 31.3138C40.3457 31.856 40.6002 32.4016 40.8333 32.8785ZM40.0353 34.0519C40.5407 33.8198 40.6327 32.8123 40.0353 32.5655C39.7996 33.0965 39.5229 33.6063 40.0353 34.0519ZM41.454 34.9907C41.543 34.8867 41.5382 34.6996 41.7204 34.6778C41.6465 34.1011 41.7196 33.1109 41.3657 32.9567C40.8987 33.4926 41.2297 34.3974 41.454 34.9907ZM38.7936 33.9737C39.057 33.9838 39.3659 33.3338 38.971 33.2696C38.9418 33.5304 38.7146 33.6167 38.7936 33.9737ZM39.1487 34.9907C39.7398 34.9503 39.6541 34.1312 39.3256 33.8954C39.0327 34.1706 38.8716 34.5966 39.1487 34.9907ZM40.4787 36.3206C40.653 36.1091 40.7679 35.8457 41.0103 35.6948C40.9471 35.0464 40.9475 34.342 40.5673 33.9737C39.8898 34.445 40.2367 35.5895 40.4787 36.3206ZM39.5033 37.4158C39.6371 37.2352 39.8824 37.0628 39.9463 36.7118C39.9943 36.4487 39.8011 35.0826 39.5916 35.1471C38.971 35.5549 39.4102 36.717 39.5033 37.4158ZM38.0843 36.8682C38.0584 36.9458 38.1785 37.1837 38.173 37.2594C38.1198 37.9876 37.8253 38.9009 37.8183 39.4498C38.1593 39.1509 38.651 38.985 38.8823 38.5893C38.7855 38.3125 38.4471 38.866 38.3507 38.5893C38.1874 38.2871 38.7545 38.2194 38.8823 37.8069C39.0434 37.2893 38.8361 36.5918 38.7936 36.0859C38.6289 36.3415 38.2166 36.4774 38.0843 36.8682ZM40.39 37.3376C40.8045 37.3118 40.7738 36.8937 41.188 36.8682C41.1333 36.656 41.3007 36.2475 41.0993 36.1641C40.823 36.5198 40.4369 36.7792 40.39 37.3376ZM39.4147 38.1982C39.5635 38.0652 40.0737 37.8461 39.7693 37.5723C39.6603 37.7412 39.2591 38.0557 39.4147 38.1982Z" fill="#030201"/>
<path fill-rule="evenodd" clip-rule="evenodd" d="M33.651 27.7934C33.0392 26.0013 32.8016 23.6204 30.548 23.5689C29.5121 23.5455 29.0004 24.1817 27.888 23.9602C27.7015 23.6551 27.8437 23.0604 27.7994 22.6303C27.9963 22.449 28.1455 22.657 28.4204 22.6303C29.3034 22.1038 30.4361 21.4743 31.878 21.6915C32.2848 22.0887 32.6225 22.5471 33.1194 22.8649C33.4615 23.5425 33.849 24.834 34.0947 25.9941C34.2672 26.8103 34.531 27.4965 33.651 27.7934Z" fill="#030201"/>
<path fill-rule="evenodd" clip-rule="evenodd" d="M43.6708 22.8651C42.7967 23.1698 41.8066 22.5365 40.8335 22.3175C40.2949 22.1962 39.7677 22.2761 39.3262 22.0046C39.5852 21.5711 40.3639 21.6884 40.9222 21.6916C41.6976 21.6958 42.52 21.7751 43.0502 21.8481C43.1787 22.2558 43.6852 22.3308 43.6708 22.8651Z" fill="#030201"/>
<path fill-rule="evenodd" clip-rule="evenodd" d="M45.0893 24.8207C44.8455 25.0188 44.6006 25.0947 44.2027 24.9771C43.6057 24.2264 42.5513 23.8783 41.5427 23.4908C42.2901 22.7671 43.5211 23.6615 44.38 23.8036C44.6024 24.1551 44.9907 24.3601 45.0893 24.8207Z" fill="#030201"/>
<path fill-rule="evenodd" clip-rule="evenodd" d="M4.92358 23.5691C5.40866 23.6885 6.14496 23.5867 6.34224 23.9602C7.26216 24.0156 7.99624 23.9068 8.73623 23.8038C8.49868 24.6168 6.81587 24.416 6.16491 24.4297C5.89559 24.1457 5.40238 24.0593 4.92358 23.9602C4.92358 23.8299 4.92358 23.6995 4.92358 23.5691Z" fill="#030201"/>
<path fill-rule="evenodd" clip-rule="evenodd" d="M42.9614 25.0554C44.5792 25.1927 45.5859 25.8693 45.9761 27.0894C45.5379 27.3684 45.2734 26.7941 44.9121 26.62C44.6594 26.4985 44.2822 26.5173 44.0254 26.3853C43.561 26.1471 43.3035 25.6516 42.9614 25.3683C42.9614 25.264 42.9614 25.1597 42.9614 25.0554Z" fill="#030201"/>
<path fill-rule="evenodd" clip-rule="evenodd" d="M31.5235 29.671C31.593 29.844 32.0725 29.656 31.9668 29.9839C31.5276 30.4494 30.8777 30.4223 30.3708 30.6879C30.1998 30.7776 30.0062 30.9533 29.8392 31.0792C29.66 31.2141 29.4413 31.3389 29.3072 31.4703C28.9319 31.8373 28.8181 32.5508 28.1546 32.722C26.9668 31.8504 28.8413 30.896 29.4849 30.5315C28.4915 30.1303 27.4061 29.8102 27.5343 28.4193C28.2 28.3808 28.63 28.1342 29.2189 28.0281C28.7494 27.6862 28.3112 27.3166 27.8003 27.0112C27.794 26.2234 28.8554 26.3775 29.2189 25.916C31.986 25.324 32.9315 28.4206 31.5235 29.671Z" fill="#030201"/>
<path fill-rule="evenodd" clip-rule="evenodd" d="M44.114 27.0896C44.1731 27.0896 44.2322 27.0896 44.2913 27.0896C45.4791 27.4762 46.7415 28.2132 46.508 29.593C46.0333 29.5424 46.0037 29.0992 45.7987 28.8106C45.1148 28.3448 44.2466 28.0417 44.114 27.0896Z" fill="#030201"/>
<path fill-rule="evenodd" clip-rule="evenodd" d="M23.7208 27.8718C23.8094 27.8718 23.8981 27.8718 23.9871 27.8718C23.9007 28.8164 23.0765 29.3921 23.5438 30.3751C22.233 29.9322 23.4636 28.5638 23.7208 27.8718Z" fill="#030201"/>
<path fill-rule="evenodd" clip-rule="evenodd" d="M33.4741 28.4975C33.4649 29.0109 32.9602 29.0875 32.7648 29.4363C32.1234 29.1934 32.8601 28.1181 33.4741 28.4975Z" fill="#030201"/>
<path fill-rule="evenodd" clip-rule="evenodd" d="M46.6854 31.1576C46.5879 31.4102 46.4464 31.6243 46.3308 31.8617C45.6177 31.9693 45.5051 31.5474 45.4441 31.0794C45.0957 30.2394 44.5464 29.5767 44.1141 28.8107C44.0997 28.7198 44.1337 28.6715 44.2028 28.6542C44.5512 28.5095 44.7407 29.0946 45.0894 29.2019C45.518 29.9454 46.183 30.4797 46.6854 31.1576Z" fill="#030201"/>
<path fill-rule="evenodd" clip-rule="evenodd" d="M37.4644 29.4375C37.5531 29.4375 37.6418 29.4375 37.7304 29.4375C37.9672 30.6731 36.9786 31.2427 36.2231 31.9408C35.8795 32.2586 35.5828 32.7499 35.0708 32.7232C35.0061 32.3415 35.4713 32.2459 35.6915 32.0191C36.2135 31.4812 36.7292 30.8981 37.2875 30.298C37.2162 29.8964 37.382 29.7037 37.4644 29.4375Z" fill="#030201"/>
<path fill-rule="evenodd" clip-rule="evenodd" d="M43.9368 33.426C44.0251 33.426 44.1138 33.426 44.2028 33.426C44.8641 34.059 45.4685 35.7575 44.8235 36.7899C44.1699 36.6331 44.4296 35.8553 44.3801 35.3036C44.3159 34.5848 44.0831 33.9251 43.9368 33.426Z" fill="#030201"/>
<path fill-rule="evenodd" clip-rule="evenodd" d="M35.2475 33.8171C35.3491 34.4322 34.305 34.975 33.7401 34.9906C33.7265 34.5222 34.7591 34.3345 34.9815 33.8171C35.0698 33.8171 35.1588 33.8171 35.2475 33.8171Z" fill="#030201"/>
<path fill-rule="evenodd" clip-rule="evenodd" d="M17.2483 36.2425C17.3916 36.2206 17.4009 36.3165 17.5143 36.3207C17.1518 36.9896 17.3661 37.7321 17.4256 38.2765C16.4865 38.1249 16.7654 36.648 17.2483 36.2425Z" fill="#030201"/>
<path fill-rule="evenodd" clip-rule="evenodd" d="M17.8688 36.3987C18.4303 36.6859 17.98 37.8652 18.2234 38.4327C17.2869 38.4933 17.5063 36.7628 17.8688 36.3987Z" fill="#030201"/>
<path fill-rule="evenodd" clip-rule="evenodd" d="M20.795 36.7115C20.7783 37.0359 20.6217 37.237 20.2633 37.2592C19.7461 37.8332 19.8078 38.6217 19.7313 39.4497C19.3988 39.831 18.592 39.9822 18.224 39.5279C18.1146 39.1077 18.6433 39.05 18.8447 38.7456C19.0671 38.4105 19.0183 37.9679 19.1997 37.6503C19.4934 37.1347 20.0986 36.6095 20.795 36.7115Z" fill="#030201"/>
<path fill-rule="evenodd" clip-rule="evenodd" d="M27.001 37.4939C27.5781 37.8916 27.297 38.1559 27.0897 39.0584C26.8662 40.0327 26.7336 40.8633 26.1144 41.4836C25.183 42.4172 23.6897 42.6049 22.3017 42.1877C21.9962 41.7874 22.3863 41.6133 22.6564 41.4054C22.7927 41.3004 23.0018 41.3539 23.1884 41.2489C23.6975 40.9628 24.4341 40.2352 25.1387 40.0755C25.8391 39.2847 26.5115 38.4701 27.001 37.4939ZM25.9374 40.3884C25.9297 40.2176 26.1801 39.8825 26.0261 39.8408C25.9884 40.0371 25.5417 40.2717 25.9374 40.3884ZM24.1641 41.4836C24.6876 41.8327 25.3929 41.2216 25.4941 40.7014C24.8679 40.5325 24.3813 41.0433 24.1641 41.4836ZM23.3661 41.8747C23.5682 41.8966 23.6993 41.8559 23.7208 41.7183C23.495 41.6779 23.3768 41.585 23.3661 41.8747Z" fill="#030201"/>
<path fill-rule="evenodd" clip-rule="evenodd" d="M42.5178 37.4939C42.6065 37.4939 42.6951 37.4939 42.7842 37.4939C43.3513 38.604 42.7853 40.4386 41.7202 40.8578C41.48 40.5276 41.9345 40.2413 42.0748 39.9972C42.1864 39.2355 42.4321 38.5917 42.4295 37.7285C42.4048 37.6024 42.5134 37.5939 42.5178 37.4939Z" fill="#030201"/>
<path fill-rule="evenodd" clip-rule="evenodd" d="M41.6315 39.4497C41.7582 39.7476 41.5151 40.1091 41.3655 40.4667C41.1837 40.9015 40.5878 41.981 39.8582 41.7966C40.3152 41.0006 40.8146 40.2414 41.2768 39.4497C41.395 39.4497 41.5133 39.4497 41.6315 39.4497Z" fill="#030201"/>
<path fill-rule="evenodd" clip-rule="evenodd" d="M17.337 40.0756C17.4397 40.0629 17.4948 40.0929 17.514 40.1539C17.9074 40.4029 17.5576 40.8485 17.514 41.1708C17.3721 42.2228 18.1435 43.5286 19.199 43.596C19.7439 43.6309 19.7366 43.3192 20.3513 43.3613C20.3735 43.9641 19.4185 44.3558 18.401 44.2998C17.473 43.9079 16.8822 42.9451 16.8937 41.7964C16.9 41.1702 17.1867 40.6089 17.337 40.0756Z" fill="#030201"/>
<path fill-rule="evenodd" clip-rule="evenodd" d="M37.6414 40.3884C37.7474 40.7366 37.2065 40.9162 36.932 41.0143C36.3812 41.2111 35.4328 41.3207 34.8923 41.249C35.353 40.7212 36.7174 40.8605 37.2863 40.3884C37.4049 40.3884 37.5231 40.3884 37.6414 40.3884Z" fill="#030201"/>
<path fill-rule="evenodd" clip-rule="evenodd" d="M39.6808 40.4667C39.7011 40.9331 39.1629 41.173 38.8828 41.4054C38.6128 41.6297 38.3538 42.0965 37.7302 41.9531C38.0689 41.2608 38.9212 41.0221 39.3262 40.3885C39.5116 40.3555 39.5611 40.4423 39.6808 40.4667Z" fill="#030201"/>
<path fill-rule="evenodd" clip-rule="evenodd" d="M18.0462 40.6233C18.2231 40.6233 18.4009 40.6233 18.5778 40.6233C18.6561 41.6758 19.2269 42.2935 19.4645 43.2049C18.0381 43.186 18.0248 41.92 18.0462 40.6233Z" fill="#030201"/>
<path fill-rule="evenodd" clip-rule="evenodd" d="M37.2867 42.266C36.2537 42.2338 34.6466 42.0976 33.651 42.5007C32.6949 43.2759 31.6918 44.42 29.8387 44.1436C29.8309 44.0197 29.8812 43.845 29.75 43.8306C29.9344 43.3333 30.7797 43.2342 31.346 42.9702C32.0498 42.6416 33.1847 42.0024 34.1833 41.8749C34.7183 41.8068 35.5314 41.871 36.134 41.8749C36.5984 41.8778 37.314 41.6673 37.2867 42.266Z" fill="#030201"/>
<path fill-rule="evenodd" clip-rule="evenodd" d="M40.3902 43.0483C41.0803 43.3521 41.2831 44.0858 41.8975 44.4564C41.8942 45.2101 41.664 45.7629 41.0995 46.0211C41.0855 45.9294 40.9377 45.9552 40.8335 45.9428C40.5483 45.5572 40.8317 45.2264 41.0105 44.8479C40.7496 44.3388 40.1257 43.7634 40.3902 43.0483Z" fill="#030201"/>
<path fill-rule="evenodd" clip-rule="evenodd" d="M39.1487 47.1946C38.4701 47.2604 38.1793 46.3364 37.7297 45.9426C37.3385 45.9227 37.2317 45.6518 36.9321 45.5517C36.324 45.5723 35.3176 46.0296 34.5381 45.8647C34.6969 45.5211 35.1916 45.6105 35.6021 45.4735C36.341 45.2272 36.993 44.7372 37.9961 45.1606C38.2262 45.2578 39.1517 46.0371 39.237 46.3341C39.308 46.5796 39.2644 46.9003 39.1487 47.1946Z" fill="#030201"/>
<path fill-rule="evenodd" clip-rule="evenodd" d="M24.7845 59.4768C25.1577 59.6949 24.9079 60.115 24.9619 60.4156C25.0653 60.9925 25.4395 61.4398 25.5825 61.902C24.7328 61.6741 24.312 60.3654 24.7845 59.4768Z" fill="#030201"/>
<path fill-rule="evenodd" clip-rule="evenodd" d="M19.4648 62.4494C19.2376 63.0821 19.1881 63.4612 19.3762 64.1702C18.072 64.27 18.5645 62.4156 19.4648 62.4494Z" fill="#030201"/>
<path fill-rule="evenodd" clip-rule="evenodd" d="M9.06134 40.7863C9.12354 40.7769 9.12755 40.8184 9.17676 40.8202C9.1548 40.914 9.13604 41.0106 8.9844 40.9898C8.96596 40.8832 9.03906 40.8573 9.06134 40.7863Z" fill="#030201"/>
<path fill-rule="evenodd" clip-rule="evenodd" d="M24.6961 22.5519C26.1277 22.1465 26.7916 21.0633 28.4201 20.8309C28.2827 21.4926 27.4045 21.5992 26.9128 21.9261C26.4536 22.2316 25.868 22.6625 25.4938 23.0214C25.3582 23.1517 25.3504 23.3499 25.2278 23.4907C24.8628 23.9103 24.3241 24.2405 23.8978 24.5859C23.6617 25.5251 22.734 25.854 22.3904 26.6982C22.1026 26.7568 22.076 27.0469 21.7698 27.0893C21.4942 27.6548 21.3342 28.3221 20.7054 28.5757C19.8971 30.2961 18.4396 31.9976 17.6911 33.8953C17.5707 34.2004 17.4902 34.7513 17.3365 35.2252C17.1052 35.9371 16.8322 36.3776 16.6268 37.2593C16.5665 37.5187 16.4055 37.8202 16.5385 38.2763C16.6404 38.628 17.1883 38.9252 17.0701 39.3715C16.6415 39.4999 15.9584 39.1505 15.8291 38.8238C15.5336 38.0807 15.5284 37.4695 15.7405 36.6334C16.0283 35.4981 16.486 34.368 16.9818 33.2695C17.0509 33.1163 16.9929 32.9537 17.0701 32.8002C17.7857 31.379 18.8567 29.712 19.8188 28.341C20.7812 26.969 21.8891 25.7659 22.8334 24.6642C22.4858 24.5612 21.9301 24.4666 21.5921 24.5859C21.6165 25.0781 22.2478 24.5625 22.3901 24.8988C22.2744 25.1359 21.9741 25.2101 21.5921 25.2118C21.4561 25.9785 20.984 26.4485 20.0848 26.5418C19.8897 26.2291 20.4583 26.0107 20.6167 25.7594C19.0684 25.8272 19.2993 27.4655 18.0454 27.7934C17.7569 27.7872 17.5677 27.6934 17.5134 27.4804C17.1691 27.8814 16.8333 28.6168 16.0061 28.341C15.8347 27.4596 16.7697 27.5541 16.9818 27.0111C15.9887 26.7865 14.9399 26.8667 14.0554 27.0893C13.8323 26.8931 14.225 26.8419 14.3218 26.6982C13.2962 26.6261 12.4295 26.3191 11.7505 26.5418C11.4553 26.5955 11.6075 26.38 11.6618 26.307C10.8801 26.4384 9.98381 26.7542 9.17916 26.62C9.34615 26.1512 10.0551 26.3217 10.5092 26.2288C11.0545 26.1173 11.5883 25.8461 12.1052 25.8376C12.2943 25.8012 12.274 25.9494 12.2821 26.0723C12.8865 25.9534 13.3483 25.7092 13.9671 25.603C12.6512 25.0775 11.4812 25.6365 9.97679 25.7594C9.17141 25.8253 8.3276 26.2376 7.67184 25.9159C7.84067 25.6574 8.29102 25.6626 8.64717 25.603C9.47472 25.464 10.7305 25.4243 11.5732 25.2118C11.6256 24.9312 11.0434 25.2098 11.1298 24.8988C10.265 25.1785 9.05946 25.158 8.02687 25.2901C7.9648 25.0005 8.16726 24.9442 8.4702 24.9771C8.43067 24.7512 7.8004 25.0465 7.7605 24.8206C7.7605 24.7424 7.7605 24.6642 7.7605 24.5859C7.79154 24.3004 8.33277 24.4647 8.5585 24.3513C9.11082 24.1866 9.54639 23.9187 10.2435 23.8818C10.3455 23.9744 10.3436 24.1586 10.3322 24.3513C11.3489 24.2313 11.9308 23.7277 12.9035 23.5689C12.6819 24.2078 11.8222 24.2838 11.2185 24.5859C12.1366 25.1958 13.3247 24.6867 14.1445 24.3513C13.9254 24.1759 12.8012 24.6179 12.7258 24.1166C12.9538 23.8125 13.6154 23.9738 14.0558 23.8818C14.5889 23.7707 15.3939 23.4666 16.2725 23.4907C16.5654 23.436 16.7376 23.275 16.9822 23.1778C16.9822 23.3343 16.9822 23.4907 16.9822 23.6472C18.467 23.6008 19.2624 22.9474 20.7058 22.8649C20.9733 23.1977 20.357 23.3069 20.1742 23.4907C20.6422 23.5477 20.8776 23.1856 21.2382 23.0214C21.9198 22.7104 22.792 22.65 23.5435 22.3955C24.3219 22.1318 25.0342 21.798 25.6715 21.4568C25.6245 21.3938 25.5791 21.3297 25.5828 21.222C25.0098 21.2129 24.0511 21.5389 23.5435 21.8479C22.055 22.1031 20.2968 22.5813 18.6668 22.7085C16.2581 22.8965 13.6886 22.6882 11.3075 22.8649C9.40452 23.0063 7.55546 23.0135 5.36688 22.7085C3.51154 22.4499 2.14571 21.7932 0.756234 21.0656C0.290736 21.4665 0.826059 21.9174 1.0226 22.239C1.69905 23.3483 2.5654 24.3877 3.85992 25.2118C4.23639 25.4511 4.61174 25.94 5.10125 26.2288C5.48104 26.453 5.85676 26.5437 6.34221 26.7764C7.70804 27.4309 9.6635 28.2035 12.0169 28.0281C12.8828 27.9635 13.7237 27.6917 14.6768 27.5587C15.0951 27.3905 15.6289 26.9596 16.0955 27.0893C15.9071 28.4375 13.7115 28.768 12.1055 28.8886C11.6467 28.9232 11.2026 28.9284 10.6869 28.8886C7.08258 28.6113 3.58764 26.53 1.55386 24.1948C0.799828 23.3287 -0.530536 21.5891 0.223867 20.3615C1.14267 20.117 1.46113 20.7872 2.08586 21.0656C2.25876 21.1425 2.59938 21.1292 2.88386 21.2217C3.50009 21.4228 4.60842 21.8045 5.54348 21.9258C6.78074 22.0865 8.23117 21.9072 9.53383 22.004C11.2891 22.1344 13.4584 21.9164 15.5628 21.9258C18.5157 21.9391 22.0809 21.5412 24.6067 20.7523C25.0693 20.6079 25.7986 20.2103 26.6461 20.283C26.6161 20.7256 26.1052 20.7445 25.8484 20.987C25.7871 21.302 26.2216 21.179 26.2031 21.4565C25.9574 22.0484 25.0608 22.0656 24.6961 22.5519ZM23.9868 22.7085C24.1398 22.7283 24.5118 22.5611 24.2528 22.4737C24.2432 22.6214 23.9595 22.5281 23.9868 22.7085ZM23.1001 23.4907C23.3809 23.4256 23.5509 23.2625 23.7208 23.0996C23.3281 23.066 23.1593 23.23 23.1001 23.4907ZM19.2875 23.8036C20.0969 23.669 19.2251 23.5735 19.2875 23.8036V23.8036ZM23.2771 23.9602C23.4345 23.9422 23.7212 24.039 23.6321 23.8036C23.467 23.8144 23.3358 23.8551 23.2771 23.9602ZM21.1495 24.1166C21.4986 24.1639 21.6098 24.0012 21.7705 23.8818C21.5056 23.9093 21.23 23.9272 21.1495 24.1166ZM14.8542 24.3513C15.1375 24.1837 15.6049 24.1791 15.8299 23.9602C15.3869 23.937 14.7533 24.155 14.8542 24.3513ZM15.5631 24.5859C15.9725 24.5377 16.0737 24.7616 16.4498 24.7424C16.5732 24.4601 17.1347 24.5647 17.0705 24.1166C16.4945 24.1932 15.9137 24.1618 15.5631 24.5859ZM17.1595 24.8206C17.7517 25.0188 18.164 24.6919 18.4008 24.3513C17.7203 24.2727 17.3431 24.4611 17.1595 24.8206ZM18.5782 24.8988C18.8445 24.8988 19.1102 24.8988 19.3762 24.8988C19.3832 24.6182 19.7194 24.628 19.8195 24.4295C19.1209 24.3346 18.788 24.5625 18.5782 24.8988ZM20.1742 24.8988C20.6419 24.9464 20.923 24.8295 20.9722 24.5077C20.4786 24.4376 20.3522 24.6912 20.1742 24.8988ZM9.0022 24.8206C8.20753 24.9008 9.27263 24.9008 9.5342 24.8206C9.52016 24.7288 9.54935 24.5987 9.44553 24.5859C9.36462 24.7235 9.13483 24.7291 9.0022 24.8206ZM13.5242 25.0553C14.2963 25.1871 15.2129 25.4598 15.6522 24.8988C14.8361 24.6329 14.2121 24.698 13.5242 25.0553ZM15.8295 25.4465C16.2839 25.5952 17.1078 25.5811 17.1595 25.1335C16.5451 25.087 16.152 25.2355 15.8295 25.4465ZM17.4255 25.6812C18.0336 25.7484 18.249 25.4687 18.5782 25.2901C18.017 25.2643 17.506 25.2828 17.4255 25.6812ZM18.9328 25.6812C19.467 25.7356 19.7131 25.5354 19.9085 25.2901C19.4471 25.3008 19.1556 25.4605 18.9328 25.6812ZM20.4402 25.4465C20.7993 25.3382 20.7206 25.6163 20.9722 25.603C20.9522 25.455 21.0723 25.4302 21.0605 25.2901C20.7808 25.2776 20.5255 25.287 20.4402 25.4465ZM13.3465 26.2288C14.4984 26.4439 15.5048 26.5482 16.0951 25.8376C15.101 25.6307 13.9306 25.825 13.3465 26.2288ZM15.8295 26.5418C16.0959 26.6457 16.5078 26.6213 16.8935 26.62C16.8119 26.2089 17.2992 26.2998 17.3368 25.9941C16.5259 25.9045 16.3478 26.3732 15.8295 26.5418ZM17.7798 26.5418C18.4596 26.4765 18.945 26.5936 19.1988 26.0723C18.5541 26.0645 17.5086 25.9866 17.7798 26.5418ZM17.6028 27.324C17.6195 27.104 17.8921 27.1099 17.9575 26.9329C17.8393 26.9329 17.7211 26.9329 17.6028 26.9329C17.7181 27.1271 17.3427 27.2576 17.6028 27.324Z" fill="#030201"/>
<path fill-rule="evenodd" clip-rule="evenodd" d="M26.1147 32.8002C26.0253 32.6271 25.8095 32.9929 25.4936 32.8785C25.4936 32.7742 25.4936 32.6699 25.4936 32.5656C23.918 32.6112 23.8219 31.1629 23.9867 29.9057C24.1515 29.8949 24.283 29.8542 24.3414 29.7493C24.3794 29.4291 24.1537 29.3409 23.9867 29.2016C24.0595 27.3362 25.197 26.4104 26.2033 25.3683C26.4557 25.4726 26.1346 25.7162 26.1147 25.8378C26.5643 25.5565 27.3405 25.5636 27.3556 24.899C27.5943 24.8449 27.5271 25.0606 27.622 25.1337C27.96 25.1304 28.1547 24.7223 28.5083 24.9772C28.4233 25.544 27.6774 25.6559 27.2673 25.9942C26.8887 26.3065 26.7062 26.7139 26.2916 27.0112C25.6555 28.6208 25.8243 30.365 26.735 31.6268C26.9655 31.9459 27.4092 32.0528 27.3556 32.4873C26.9891 32.5812 26.4797 32.5489 26.6463 33.1131C26.3644 33.1252 26.2562 33.2905 25.937 33.2696C25.9385 33.0623 25.8882 32.809 26.1147 32.8002ZM24.7843 27.8717C25.1767 27.8529 25.3063 27.6019 25.4053 27.3241C25.0728 27.3959 24.866 27.5784 24.7843 27.8717ZM24.4296 28.654C24.5822 28.6583 24.6569 28.5938 24.696 28.4976C24.5434 28.4934 24.4688 28.5579 24.4296 28.654ZM24.8734 29.9057C25.132 30.0208 25.132 29.556 24.8734 29.6711C24.8734 29.7493 24.8734 29.8275 24.8734 29.9057ZM24.2527 30.3751C24.4995 30.5006 24.4976 30.0374 24.3414 30.0622C24.3133 30.1681 24.215 30.2115 24.2527 30.3751ZM25.4053 31.001C25.16 31.2982 25.7305 31.3448 25.4053 31.001V31.001ZM24.5187 31.3921C24.4455 31.6131 24.6439 31.5948 24.6074 31.7832C24.8578 31.8478 24.8371 31.6731 25.0507 31.705C25.0507 31.6007 25.0507 31.4964 25.0507 31.3921C24.8848 31.2389 24.7259 31.368 24.5187 31.3921ZM25.139 32.1744C25.4504 32.1607 25.4308 32.4388 25.671 32.4873C25.61 32.225 25.8195 32.2015 26.0256 32.1744C26.0611 31.8823 25.9551 31.7155 25.671 31.705C25.5576 31.9176 25.2169 31.9302 25.139 32.1744Z" fill="#030201"/>
<path fill-rule="evenodd" clip-rule="evenodd" d="M45.5327 38.9804C44.7602 38.899 43.9622 39.4716 43.0501 39.528C42.9688 39.1955 43.2625 39.1939 43.5821 39.2151C43.4276 37.9953 43.5211 36.5569 43.3157 35.3818C44.5094 35.7143 44.3113 37.4432 44.1137 38.5893C44.6413 38.5593 44.9195 38.3093 44.9117 37.807C45.529 37.3346 46.9665 37.5859 47.0397 36.6335C47.2994 36.6651 47.3992 36.8379 47.5717 36.9464C47.7475 36.8405 47.9167 36.7291 47.8377 36.3988C48.2075 36.6567 48.5053 36.6364 48.9903 36.4771C49.1126 36.376 49.0779 36.1375 49.079 35.9294C49.3945 36.0416 49.7222 36.2933 50.143 36.086C50.2088 35.7994 49.9247 35.6514 50.143 35.4601C50.5014 35.4047 50.6491 35.535 50.5863 35.8512C50.7452 35.861 50.7733 35.7554 50.941 35.773C51.2347 35.7456 51.0799 35.3222 51.118 35.0689C51.2953 35.0689 51.4726 35.0689 51.65 35.0689C51.5539 35.4952 51.988 35.5005 51.7386 35.8512C52.4273 35.9376 51.9825 35.0233 52.3593 34.8343C52.7406 34.8105 52.5459 35.2955 52.714 35.4601C53.7325 35.611 52.9563 34.6516 53.4233 34.3648C53.8245 34.376 53.7798 34.7801 53.778 35.1472C54.1071 35.1768 54.3827 35.1592 54.3986 34.9125C54.389 34.6354 54.1057 35.0787 54.1326 34.8343C54.133 34.5477 54.5475 34.6265 54.3986 34.2084C55.4556 34.374 56.3072 33.7807 57.1473 33.5044C57.2123 33.5773 57.3087 33.6229 57.4133 33.6608C57.5149 33.9068 57.274 33.8508 57.2363 33.9737C57.3024 34.1504 57.7336 34.0043 57.9456 34.0519C58.2889 33.7113 57.775 33.0786 58.4773 33.1131C58.6642 33.2872 58.3838 33.4903 58.4773 33.8173C58.8423 33.8785 58.9321 33.6973 59.2753 33.739C59.3832 33.2986 59.0407 32.9476 59.2753 32.6438C59.733 32.6835 59.651 33.1993 59.8073 33.5044C60.1682 33.323 59.7075 32.8993 59.9842 32.6438C60.3799 32.66 60.1963 33.1868 60.5162 33.2696C60.7316 33.1729 60.9862 33.1109 60.9592 32.8002C61.097 32.4704 60.4671 32.8175 60.6049 32.4873C60.6016 32.25 60.916 32.2924 61.1365 32.2527C61.1343 32.4368 61.2891 32.4831 61.2252 32.722C61.5252 32.752 61.3645 32.3758 61.7568 32.4873C61.6574 31.9492 61.3427 31.601 60.9588 31.3139C59.3366 31.2109 58.0602 32.0323 56.7028 32.3309C56.5565 32.3631 56.3227 32.2917 56.1712 32.3309C55.4094 32.5277 54.3388 33.0062 53.5112 33.2696C52.8015 33.4952 51.9725 33.5949 51.3829 33.9737C50.6288 33.9502 49.9786 34.3734 49.4326 34.5995C48.8703 34.8323 48.2027 34.8743 47.6589 35.0689C47.4032 35.1605 47.2041 35.2414 46.7726 35.3818C46.3152 35.5305 45.72 36.0543 45.2653 35.6947C45.3694 35.3959 45.7836 35.3698 46.1519 35.3036C46.3182 35.1543 46.0991 35.1621 46.1519 34.9125C46.5919 34.9105 46.6126 35.1823 46.9495 34.9125C46.8428 34.7984 46.562 34.8375 46.6835 34.5213C46.3141 34.7863 46.0658 34.7015 45.5309 34.756C45.2416 34.3075 45.1988 33.6412 44.8216 33.2696C44.7307 32.3589 44.1743 31.8589 43.9353 31.0792C44.8522 31.0759 45.1138 31.9342 45.5309 32.6438C45.8874 33.2498 46.2605 33.5151 45.9742 34.443C47.4834 33.7899 49.0653 33.0059 50.6735 32.3309C50.9355 32.221 51.1183 32.0658 51.3829 31.9397C52.4047 31.453 53.6549 31.024 54.7522 30.5315C55.2975 30.2871 55.8882 30.0468 56.4372 29.8275C57.0527 29.5814 57.6844 29.2352 58.1219 29.1234C59.2612 28.832 59.88 29.4282 60.0725 30.3751C60.4863 30.3751 60.9001 30.3751 61.3139 30.3751C62.2681 31.0482 62.8197 31.8253 62.8212 33.1914C62.772 33.3648 62.9904 33.3029 62.9982 33.426C62.8666 33.988 62.5722 34.4063 62.4662 34.9907C61.4879 35.4783 60.357 35.4783 59.2742 35.6947C58.8526 35.7792 58.0258 36.0742 57.4122 36.2424C56.7919 36.4122 56.1974 36.5611 55.5502 36.7117C54.9635 36.8483 54.4345 37.096 53.8655 37.2594C52.476 37.658 50.8065 37.836 49.6092 38.4328C49.1304 38.4797 48.6878 38.5586 48.4565 38.824C47.0995 39.0423 45.8009 39.3051 44.4665 39.7627C44.0173 39.917 43.4941 40.4085 43.0479 39.841C43.0549 39.5864 43.4498 39.6741 43.6685 39.6062C44.1868 39.3055 44.8622 39.1453 45.5327 38.9804ZM58.3007 29.6711C54.9982 31.0078 51.7394 32.3834 48.5474 33.8173C48.9793 33.7491 49.1355 33.9241 49.434 33.9737C49.7108 33.5287 50.2609 33.8104 50.764 33.5826C50.7544 33.0197 51.5728 33.4538 51.3847 32.8785C51.7083 32.9163 52.1003 33.1878 52.4491 32.9567C52.5799 32.5805 51.9392 32.8846 52.0057 32.5656C52.0807 32.4492 52.291 32.4524 52.4491 32.4091C52.7321 32.4202 52.7121 32.6982 52.9807 32.722C53.1388 32.6786 53.349 32.6816 53.424 32.5656C53.2582 32.4772 52.997 32.473 53.0694 32.1743C53.4868 32.0284 53.8256 32.6519 53.956 32.2527C53.8596 32.0766 53.3982 32.2229 53.5127 31.8615C54.096 31.9107 54.2383 31.945 54.5767 31.705C54.7644 31.8412 55.0459 32.1727 55.3747 31.9397C55.3614 31.6124 54.7961 31.7722 54.9314 31.3139C55.32 31.3618 55.8058 31.3243 55.7294 31.7832C56.0002 31.8396 56.0522 31.7031 56.261 31.705C56.2348 31.4413 55.8683 31.4781 55.8177 31.2357C55.9857 31.0967 56.4036 31.1785 56.7043 31.1574C56.8458 31.2151 56.684 31.5404 56.9703 31.4703C57.0837 31.4658 57.0933 31.3699 57.2367 31.3921C57.2415 31.0488 56.943 30.9729 56.882 30.688C57.4088 30.614 57.5333 30.8956 57.6796 31.1574C58.1282 31.2138 58.3506 31.071 58.5663 30.9227C58.5172 30.7835 58.5209 30.5978 58.3893 30.5315C58.3192 30.7825 58.3155 31.0922 57.8573 31.001C57.9545 30.6548 57.7074 30.612 57.68 30.3751C57.9903 30.2653 58.2475 30.5945 58.3897 30.3751C58.1525 30.2831 57.9083 29.9693 58.2124 29.8275C58.4252 29.8787 58.7411 30.2418 59.0104 29.984C58.8042 29.8523 58.6324 29.6912 58.3007 29.6711ZM54.5767 32.1743C54.4877 32.1747 54.471 32.1112 54.3994 32.0961C54.157 32.2223 54.529 32.3586 54.5767 32.1743ZM61.4927 33.739C61.8987 33.7553 61.963 33.0623 61.7587 32.8002C61.5038 32.917 61.2204 33.4173 61.4927 33.739ZM60.1627 33.9737C60.1926 34.2162 59.9573 34.3473 60.1627 34.5213C59.6787 35.0422 58.8519 34.7765 58.4776 35.3818C59.1548 35.171 60.0223 35.1276 60.6943 34.9125C60.8576 34.4832 60.9378 33.9799 61.049 33.5044C60.995 33.4594 60.6282 33.3211 60.606 33.5044C61.0279 33.6667 60.4113 33.9209 60.1627 33.9737ZM47.5721 34.2084C47.9537 34.1063 47.9204 34.37 48.0154 34.5213C48.3992 34.547 48.6024 34.4134 48.7247 34.2084C48.4377 34.2009 48.3793 33.9913 48.2814 33.8173C48.1462 34.0366 47.7269 34.0059 47.5721 34.2084ZM56.084 34.5213C56.3929 34.4288 56.8927 34.505 56.7934 34.0519C56.5004 34.1585 56.0312 34.1096 56.084 34.5213ZM61.3153 34.5213C61.3379 34.3587 61.7047 34.5001 61.7583 34.3648C61.7417 34.1449 61.6042 34.0317 61.3153 34.0519C61.2459 34.1063 61.1177 34.4884 61.3153 34.5213ZM59.276 34.6777C59.2919 34.4571 59.6975 34.5803 59.6307 34.2866C59.4164 34.2863 59.064 34.5604 59.276 34.6777ZM47.2174 34.443C46.7674 34.2299 46.8875 34.7162 47.2174 34.443V34.443ZM57.8573 34.3648C57.7284 34.4076 57.3992 34.2736 57.414 34.443C57.5426 34.4004 57.8721 34.5347 57.8573 34.3648ZM54.8427 34.8343C55.2417 34.7951 55.6695 34.7815 55.7294 34.443C55.409 34.5517 54.9055 34.4984 54.8427 34.8343ZM47.3947 34.8343C47.4187 34.6728 47.7874 34.8157 47.7494 34.5995C47.5935 34.6445 47.2285 34.505 47.2178 34.6777C47.3345 34.6788 47.2983 34.815 47.3947 34.8343ZM54.9314 35.3036C55.0466 35.0927 55.5856 35.2554 55.6407 34.9907C55.3562 35.0047 54.767 35.1533 54.9314 35.3036ZM53.7787 35.6947C53.9571 35.5396 54.4618 35.6716 54.3994 35.3036C54.1633 35.36 53.5219 35.463 53.7787 35.6947ZM55.6407 36.1642C56.5894 35.9842 57.4336 35.712 58.212 35.3818C57.2452 35.5663 56.2303 35.5184 55.6407 36.1642ZM54.9314 35.9294C55.115 35.8046 55.3887 35.7596 55.463 35.5383C55.2339 35.3117 54.7958 35.8473 54.9314 35.9294ZM52.5374 36.1642C52.6401 36.2296 52.7753 36.2672 52.9807 36.2424C52.9098 35.919 53.3029 36.005 53.2467 35.6947C52.8846 35.7404 52.5008 35.7668 52.5374 36.1642ZM51.562 36.3988C51.753 36.5443 52.165 36.4105 52.0937 36.086C51.8144 36.0996 51.5654 36.141 51.562 36.3988ZM54.3994 36.4771C54.5538 36.3004 55.0511 36.4259 55.1087 36.1642C54.8401 36.1922 54.2508 36.3409 54.3994 36.4771ZM50.4094 36.79C50.8021 36.7978 51.0729 36.6975 51.1187 36.3988C50.6913 36.361 50.5069 36.5373 50.4094 36.79ZM52.2714 36.6335C52.3445 36.8546 52.1465 36.8363 52.1827 37.0246C52.7435 36.8936 53.3664 36.8173 53.7787 36.5553C53.2618 36.5383 52.7431 36.864 52.2714 36.6335ZM48.3701 37.0246C48.6168 36.9295 48.8969 36.8636 49.0794 36.7117C48.7502 36.7342 48.4702 36.8001 48.3701 37.0246ZM49.434 37.1029C49.7762 37.1179 49.9435 36.9788 49.9657 36.7117C49.6978 36.7619 49.4544 36.834 49.434 37.1029ZM51.3843 37.2594C51.7006 37.2518 51.9932 37.2228 52.0937 37.0246C51.8136 37.0632 52.0608 36.6364 51.7394 36.7117C51.572 36.851 51.3467 36.9393 51.3843 37.2594ZM48.1927 37.4941C48.5363 37.481 49.2031 37.3467 48.9021 37.0246C48.7402 37.247 48.3641 37.2802 48.1927 37.4941ZM49.877 37.6505C50.4559 37.6136 50.9691 37.5185 51.0297 37.0246C50.4179 37.0325 50.0259 37.234 49.877 37.6505ZM47.4834 37.4159C47.6131 37.3181 48.0542 37.2241 47.6603 37.1029C47.7058 37.2583 47.1716 37.2818 47.4834 37.4159ZM49.0794 37.9634C49.1355 37.8047 49.4939 37.9119 49.5227 37.7288C49.1806 37.6407 49.8641 37.4256 49.5227 37.3376C49.2733 37.408 48.8876 37.7633 49.0794 37.9634ZM46.2421 37.807C46.4441 37.7503 46.6954 37.7372 46.8631 37.6505C46.8679 37.5159 46.7944 37.4501 46.6858 37.4159C46.5982 37.5997 46.2417 37.5456 46.2421 37.807ZM47.6603 37.6505C47.5854 37.584 47.4073 37.7072 47.3944 37.7288C47.3109 37.8659 47.7217 37.7046 47.6603 37.6505ZM47.7494 38.2763C48.2518 38.3262 48.7879 37.9957 48.5474 37.6505C48.3316 37.9035 47.6906 37.7816 47.7494 38.2763ZM45.2667 38.1981C45.5774 38.2428 45.8449 37.8504 45.5327 37.807C45.4529 37.9455 45.3185 38.0355 45.2667 38.1981ZM45.9761 38.3545C46.3004 38.3539 46.4512 38.2001 46.5967 38.0417C46.3806 38.1382 46.0211 38.1079 45.9761 38.3545ZM45.6214 38.9022C46.2627 38.7118 47.152 38.7398 47.3947 38.1981C47.3748 38.1375 47.3921 38.0439 47.3064 38.0417C46.9713 38.529 46.1031 38.545 45.6214 38.9022ZM43.8481 39.1369C43.9282 38.973 44.3483 39.1092 44.3797 38.9022C44.0756 38.8224 43.6486 39.031 43.8481 39.1369Z" fill="#0C0703"/>
<path fill-rule="evenodd" clip-rule="evenodd" d="M26.3807 62.0582C26.6604 62.9269 25.0404 62.9371 24.2528 62.6841C24.0355 62.3017 23.6461 62.0716 23.6321 61.5106C23.1688 61.7277 22.6043 61.8555 22.2131 62.1364C21.1941 62.1502 21.022 62.911 20.1737 63.0752C19.7038 61.7782 22.0527 61.672 22.922 61.0412C22.4953 60.4532 22.7979 59.2214 22.3014 58.6944C19.8604 59.0698 18.0047 59.9626 17.3364 61.9018C17.6109 61.4402 17.881 60.9741 18.7551 61.0412C18.567 61.5442 18.2179 62.0524 18.134 62.7623C18.0627 63.3709 18.3239 64.0613 17.9571 64.5616C17.898 64.5616 17.8389 64.5616 17.7797 64.5616C17.3601 64.3842 17.4779 63.733 17.0704 63.5446C17.0704 63.3884 17.0704 63.2317 17.0704 63.0755C16.7409 62.9748 16.5425 62.7591 16.3611 62.528C16.2687 61.8724 16.5192 61.5197 16.5384 60.963C17.0431 60.4868 17.2356 59.8424 17.7794 59.4766C17.9364 59.3713 18.2766 59.2821 18.4887 59.1637C19.1844 58.7752 20.4154 58.3765 21.592 58.2249C22.0154 58.1705 22.2345 58.1611 22.5674 58.0685C22.6959 58.033 23.2364 58.1969 23.0994 57.8338C22.8799 57.6709 22.6557 58.1689 22.124 57.9899C21.1842 57.5675 19.8627 57.4817 18.666 57.2861C17.8374 56.3601 18.529 54.8783 19.198 54.1566C19.0831 53.9973 18.768 54.0142 18.843 53.6876C17.4158 54.9836 16.1808 56.4498 14.587 57.5991C11.9473 57.8782 13.3941 54.2707 12.459 52.9053C12.0944 52.3727 10.9111 52.0186 10.863 51.4189C10.781 50.3967 12.7919 49.6186 13.6117 49.2281C13.8965 49.82 13.0959 50.0036 12.725 50.2451C12.2647 50.5454 11.9038 50.7869 11.661 51.1839C11.9034 51.5174 12.3984 51.6285 12.725 51.8879C12.9393 51.6429 12.084 51.6745 12.1044 51.3404C12.2595 50.9394 12.8547 51.3729 13.257 51.2622C13.8681 51.4398 14.5298 52.5259 14.9417 51.7315C14.7481 51.224 14.1551 51.0695 13.8777 50.6363C13.9978 50.2278 14.3945 50.9026 14.6757 50.6363C14.7377 50.3292 14.3768 50.4238 14.2324 50.2451C13.8707 49.7992 14.0454 49.0817 13.6117 48.6806C13.983 48.1502 13.7107 47.6551 14.0546 47.1159C14.4193 46.5455 15.7094 46.2227 16.5377 46.2551C16.8827 46.2687 17.6985 46.2404 17.513 46.803C16.1834 46.8033 15.6809 47.5332 15.0303 48.1329C14.938 49.101 15.1238 49.8236 15.385 50.4795C15.4098 50.6842 15.3525 50.8162 15.119 50.7927C15.2923 51.1354 15.6909 51.2787 15.9166 51.5747C16.1143 51.5799 15.3736 51.1197 16.0053 51.1836C15.7131 50.6333 15.344 50.1506 15.296 49.3842C16.3393 49.3765 16.2643 50.3553 16.626 50.9488C16.9289 51.0076 16.739 50.6311 17.0693 50.7142C16.7261 50.398 16.0496 49.5877 16.8033 49.2275C17.2758 49.4103 17.3652 49.9313 17.6013 50.3227C17.7325 50.2321 17.8244 50.2321 17.956 50.3227C17.857 50.1229 18.0106 49.827 17.956 49.5404C17.8182 48.8203 16.9607 47.9243 17.69 47.2718C17.878 47.1593 17.8758 47.3471 18.0446 47.4282C18.6579 47.7232 18.7806 48.0331 19.3746 47.5064C19.3 47.129 18.9379 47.0048 19.02 46.4894C19.5453 46.4692 19.4633 46.9849 19.7293 47.1935C20.1578 47.0132 20.221 46.7362 19.9953 46.3327C20.4745 46.2387 20.4652 46.5748 20.7933 46.4109C21.0626 46.3144 20.6972 46.1419 20.7933 45.9414C21.0763 45.8747 21.1299 46.0096 21.2366 46.098C21.7066 45.9529 21.4417 45.5748 21.5913 45.2374C21.8946 45.2042 21.858 45.4718 22.0346 45.5503C22.3686 45.1931 22.7391 44.8681 23.2756 44.6894C23.2963 45.0985 22.7425 45.0015 22.7439 45.3935C22.7011 45.64 23.1507 45.4522 23.1873 45.6282C22.809 45.9317 23.2183 46.1553 22.6553 46.4106C22.2164 46.3835 22.7292 46.2052 22.6553 46.0194C22.4222 45.9963 22.5858 46.3231 22.3006 46.2541C22.4554 46.5612 22.5045 46.7867 22.1237 46.9581C21.7483 46.8979 22.0808 46.2137 21.769 46.0977C21.6123 46.1683 21.4945 46.2726 21.4143 46.4106C21.5857 46.7026 21.6323 47.1048 21.5913 47.584C22.2422 47.4804 22.3154 46.8672 22.9213 46.7235C22.9904 46.7932 23.017 46.9001 23.0099 47.0363C22.8999 47.3043 22.3889 47.2189 22.4783 47.6622C22.3305 47.6622 22.1824 47.6622 22.035 47.6622C21.8285 47.8454 21.9123 48.2841 21.6803 48.4445C21.4136 48.5231 21.5229 48.2702 21.503 48.1316C21.2732 48.3458 21.295 48.7823 21.1483 49.0704C20.6747 48.8885 20.9751 48.0237 20.6167 47.7405C20.432 47.7864 20.33 47.9047 20.1734 47.9751C20.2517 48.1669 20.4394 48.2623 20.3503 48.601C20.4205 48.9677 20.6725 48.7669 20.7937 48.9922C20.8099 49.3452 20.7072 49.5938 20.439 49.6962C20.0478 49.8067 20.4375 49.2278 20.173 49.2268C19.8361 49.2168 19.7544 49.4315 19.7297 49.6962C19.9118 49.9749 19.8047 49.3543 20.0843 49.4615C20.2166 49.6751 20.0773 50.2053 19.9957 50.4782C19.4408 50.1167 19.4603 50.7859 19.2863 51.1823C18.9583 51.2371 18.8947 51.0588 18.9317 50.7914C18.6819 51.0401 18.7163 51.5399 18.577 51.8863C18.355 51.8997 18.2996 51.7663 18.2223 51.6517C17.9523 52.2996 17.1273 52.4588 17.0697 53.2945C16.8281 53.3516 16.8916 53.139 16.715 53.138C16.6153 53.3121 16.6031 53.7987 16.2717 53.5291C15.9798 53.6107 16.2595 54.1961 15.74 54.0768C15.8372 53.6886 16.0881 53.2648 16.006 52.8251C15.9647 52.6034 15.637 52.4089 15.6514 52.1992C15.3621 52.5793 15.9661 53.1993 15.74 53.5291C15.2553 53.3313 15.3551 52.6168 15.2081 52.121C14.9251 52.0542 14.9339 52.2442 14.7651 52.2774C14.652 52.7077 15.1161 53.052 15.2081 53.5291C15.3861 54.4523 15.0721 55.3311 14.5874 55.8761C14.3166 55.8194 14.2641 55.9559 14.0554 55.9543C14.6624 54.4536 14.2486 52.4538 12.9914 51.8863C13.2086 52.387 13.7425 52.7492 13.8781 53.5291C14.0665 54.613 13.4089 56.2412 14.3214 56.8931C15.3015 56.3839 16.0515 55.5638 16.804 54.7808C16.9651 54.6133 17.203 54.4725 17.336 54.3118C17.4979 54.1159 17.5197 53.8815 17.6907 53.686C17.8976 53.4486 18.2729 53.2987 18.4883 53.0601C18.7517 52.7684 18.9439 52.3514 19.198 52.0431C19.8926 51.1982 20.8945 50.2842 21.4147 49.2265C22.4107 48.5671 22.6265 47.2189 23.8083 46.7231C24.3514 46.7137 24.2531 47.2694 24.961 47.1142C25.1006 47.8621 24.1922 47.9073 23.8083 47.5834C23.5578 47.7141 23.2955 47.832 23.099 48.0527C22.8936 48.2828 22.8189 48.717 22.567 49.0697C22.2906 49.4566 21.8765 49.7937 21.5917 50.1646C21.4509 50.3481 21.3135 50.5943 21.1483 50.7908C20.8487 51.1467 20.4634 51.2309 20.7937 51.4946C21.1435 51.595 21.0083 51.2667 21.237 51.2599C22.4174 51.5483 23.3088 52.0917 24.2516 52.5898C24.2753 50.7856 25.7497 50.2604 26.291 48.913C25.9611 48.4572 25.8125 47.055 26.3796 46.7225C26.4838 47.4647 26.6999 48.1088 27.089 48.6001C27.4318 48.042 27.57 47.303 27.9756 46.8007C27.8877 46.5393 27.4344 46.6002 27.5323 46.1749C26.1853 45.919 25.2558 46.5843 23.9856 46.6439C23.4924 46.2987 23.5057 45.1035 24.0739 44.8447C23.7584 44.6011 23.2154 44.5591 23.0099 44.2188C22.697 44.7511 22.1706 44.8078 21.5026 45.1576C21.0973 45.3697 20.4216 45.8248 19.907 46.018C19.5139 46.1654 18.9136 46.1155 18.7543 46.5657C18.4662 46.4757 18.2087 46.8046 18.045 46.5657C18.1034 46.3552 18.5899 46.0021 18.8426 45.8619C20.0119 45.2133 21.3053 44.6536 22.3897 43.9062C22.2319 43.7585 21.8048 43.8485 21.8577 43.5151C21.4132 43.5828 21.0992 43.6398 21.1483 43.1239C23.007 43.0568 23.8168 44.1017 25.493 43.9062C26.2607 43.8165 27.1839 43.3514 27.7983 42.9674C28.5309 42.5098 28.7958 42.2441 29.3056 41.5593C29.4689 41.3396 29.5816 40.6802 30.1923 41.0117C29.5099 42.6783 28.1589 43.7553 26.3796 44.4538C26.9512 44.7322 27.2881 45.2169 27.7983 45.549C28.0133 45.4776 28.0333 45.2345 28.0647 45.0011C28.4131 44.8394 28.7666 44.682 29.04 44.4535C30.6057 44.402 31.1262 45.2726 31.2567 46.4875C31.8363 45.5351 32.5183 44.8573 33.6503 44.2188C34.7084 43.6217 36.6956 43.6897 38.35 43.28C38.5291 43.1151 39.0094 42.9214 39.3253 43.1235C39.1062 43.5767 38.4094 43.8384 37.7293 44.0623C36.5386 44.4544 34.674 44.564 33.7393 45.2361C33.5217 45.3922 33.3396 45.7306 33.1186 45.9398C32.4762 46.5494 31.9948 47.037 31.6113 48.0521C30.8033 48.1127 30.6279 47.6159 30.4587 47.1133C30.0061 46.6257 29.3067 46.3565 28.5967 46.0964C28.2915 46.1139 28.3118 46.4187 28.1533 46.5654C28.1633 46.7134 28.4467 46.6198 28.4197 46.8004C27.7998 48.4768 27.198 50.6369 27.0007 52.6677C26.9501 53.1905 27.0402 53.6593 26.8237 54.0755C26.7698 54.1791 26.7535 54.4823 26.469 54.3884C26.2119 54.215 26.2252 53.7831 26.203 53.5278C26.0708 52.0099 26.6737 50.5711 26.9124 49.3817C26.3287 50.2435 25.299 50.9098 25.2273 52.1979C25.1789 53.0729 25.749 54.0925 25.1387 54.9361C24.5261 54.9813 24.6314 54.3926 24.518 53.9973C24.2764 54.3839 24.5989 55.2678 24.252 55.5619C23.8737 55.5306 24.1674 54.906 24.0747 54.6231C23.7337 54.6609 24.0241 55.2564 23.6317 55.249C23.317 55.0703 23.5807 54.6534 23.5431 54.3102C23.4862 53.7965 23.2375 53.2088 23.0111 52.902C22.9671 53.2841 23.2711 54.8891 22.6564 55.249C22.3605 55.174 22.6335 54.7115 22.6564 54.3881C22.6808 54.0494 22.6375 53.7382 22.6564 53.4493C22.339 54.447 22.3139 55.703 21.4154 56.1873C21.3859 56.5006 21.1738 56.6526 21.0604 56.8914C21.2082 56.8914 21.3563 56.8914 21.5037 56.8914C21.8425 56.6166 21.7509 55.9618 22.3904 55.9527C22.322 56.3357 22.1041 56.5863 22.0357 56.9697C22.4332 57.0838 22.3328 56.0856 22.922 56.1088C22.8171 56.4856 22.6871 56.8403 22.4791 57.1258C22.6675 57.2464 22.8093 57.4081 23.0107 57.517C23.3262 57.1809 22.8965 57.0108 22.922 56.7347C23.062 55.2137 27.6949 55.3849 29.6607 55.3269C29.7338 56.0127 28.3403 56.1587 27.5327 56.1873C26.7938 56.2135 26.1443 56.0834 25.493 56.2657C24.8051 56.4582 24.4201 56.8905 23.8083 57.0476C24.7508 58.5904 23.3033 62.2355 26.3807 62.0582ZM24.3414 45.7081C25.0138 45.7182 25.9045 45.2693 26.735 45.1605C25.9954 44.5702 24.4393 44.7185 24.3414 45.7081ZM22.1248 46.0993C22.4015 46.0308 22.5877 45.8818 22.5677 45.5516C22.2725 45.6041 22.0867 45.7527 22.1248 46.0993ZM20.9721 47.1944C21.0508 47.0553 21.2196 46.9957 21.1491 46.7251C20.8358 46.6781 20.6359 47.1303 20.9721 47.1944ZM19.9964 47.7421C20.2336 47.6791 20.753 47.3389 20.3511 47.1944C20.1841 47.3337 19.9587 47.422 19.9964 47.7421ZM21.2381 48.1332C21.3556 47.9722 21.4062 47.348 21.2381 47.1944C20.9909 47.361 20.9163 47.8937 21.2381 48.1332ZM18.5781 48.4462C18.6527 48.0645 18.1728 47.7646 18.0465 47.8203C18.2711 47.9869 18.1418 48.466 18.5781 48.4462ZM19.1101 48.5244C19.3236 48.3738 19.6495 48.3227 19.6417 47.9768C19.2656 47.9836 19.0831 48.1612 19.1101 48.5244ZM19.3761 48.9156C19.5013 48.8249 19.9609 48.3468 19.7308 48.4465C19.6395 48.5798 19.1212 48.736 19.3761 48.9156ZM18.6668 48.9938C18.7048 48.8445 18.9202 48.8519 18.8437 48.6027C18.5803 48.5097 18.4632 48.9325 18.6668 48.9938ZM19.5534 49.3849C19.6044 49.1653 20.1996 49.0215 19.9081 48.7591C19.9037 49.0199 19.2305 49.0952 19.5534 49.3849ZM18.8437 49.4631C18.87 49.3706 19.201 49.1675 18.9324 49.072C18.9065 49.1646 18.5755 49.3677 18.8437 49.4631ZM18.9328 49.7761C19.157 49.8582 19.3259 49.512 19.1101 49.4631C19.1748 49.6767 18.9339 49.6205 18.9328 49.7761ZM19.1101 50.3237C19.1315 50.1862 19.2627 50.1454 19.4648 50.1672C19.4777 49.9733 19.4814 49.7878 19.2874 49.7764C19.2882 49.9655 18.7761 50.0988 19.1101 50.3237ZM18.3121 50.4801C18.3775 50.3031 18.6502 50.3093 18.6668 50.0893C18.4525 50.0887 18.1001 50.3628 18.3121 50.4801ZM18.4891 51.0278C18.3679 50.7067 18.8807 50.5457 18.6664 50.4019C18.5648 50.5258 18.2035 50.8207 18.4891 51.0278ZM16.8048 51.3407C17.0634 51.4557 17.0634 50.9909 16.8048 51.106C16.8048 51.1843 16.8048 51.2625 16.8048 51.3407ZM17.6914 51.8883C17.6135 51.6057 18.0376 51.3661 17.7797 51.1843C17.6131 51.2934 17.3009 51.7641 17.6914 51.8883ZM15.4748 51.5754C15.2938 51.5525 15.3008 51.3639 15.1201 51.3407C15.0828 51.5135 15.3858 51.772 15.4748 51.5754ZM17.0708 52.4359C17.1306 52.1282 17.4428 51.6223 16.9825 51.4971C16.6973 51.7543 16.8731 52.1836 17.0708 52.4359ZM16.1841 52.0447C16.1893 51.9971 16.1971 51.9522 16.2724 51.9665C16.2628 51.8711 16.2462 51.7814 16.0955 51.81C16.1091 51.9023 16.0803 52.0321 16.1841 52.0447ZM22.1248 53.2964C22.1695 52.7351 22.0653 52.3056 21.8584 51.9665C21.9356 52.4203 21.9005 52.9731 22.1248 53.2964ZM16.2724 52.9835C16.6725 52.9715 16.5388 52.4881 16.6271 52.2013C16.5137 52.1969 16.5044 52.1009 16.3611 52.1229C16.0851 52.2922 16.207 52.6921 16.2724 52.9835ZM20.2628 54.2352C20.4996 54.2349 20.4553 54.4826 20.7057 54.4699C20.6699 54.2251 20.5406 54.0938 20.5288 53.8441C20.5014 53.272 21.1236 52.5458 20.6174 52.1229C20.821 52.887 20.4124 53.5487 20.2628 54.2352ZM19.8194 53.8441C20.0928 53.7251 20.2081 52.7038 20.0854 52.7492C20.0282 53.1419 19.8505 53.4285 19.8194 53.8441ZM21.4154 55.6433C21.2111 56.0462 20.664 56.574 20.4397 56.8168C21.2887 56.705 21.1047 55.6825 21.7701 55.4087C21.8211 54.8538 22.2031 54.5915 22.1248 53.9223C21.6268 54.351 21.7018 55.0778 21.4154 55.6433Z" fill="#030201"/>
</g>
<path d="M83.4238 38.8193C83.4238 40.9189 83.0527 42.7598 82.3105 44.3418C81.5684 45.9238 80.5039 47.1445 79.1172 48.0039C77.7402 48.8633 76.1582 49.293 74.3711 49.293C72.6035 49.293 71.0264 48.8682 69.6396 48.0186C68.2529 47.1689 67.1787 45.958 66.417 44.3857C65.6553 42.8037 65.2695 40.9873 65.2598 38.9365V37.8818C65.2598 35.7822 65.6357 33.9365 66.3877 32.3447C67.1494 30.7432 68.2188 29.5176 69.5957 28.668C70.9824 27.8086 72.5645 27.3789 74.3418 27.3789C76.1191 27.3789 77.6963 27.8086 79.0732 28.668C80.46 29.5176 81.5293 30.7432 82.2812 32.3447C83.043 33.9365 83.4238 35.7773 83.4238 37.8672V38.8193ZM78.9707 37.8525C78.9707 35.6162 78.5703 33.917 77.7695 32.7549C76.9688 31.5928 75.8262 31.0117 74.3418 31.0117C72.8672 31.0117 71.7295 31.5879 70.9287 32.7402C70.1279 33.8828 69.7227 35.5625 69.7129 37.7793V38.8193C69.7129 40.9971 70.1133 42.6865 70.9141 43.8877C71.7148 45.0889 72.8672 45.6895 74.3711 45.6895C75.8457 45.6895 76.9785 45.1133 77.7695 43.9609C78.5605 42.7988 78.9609 41.1094 78.9707 38.8926V37.8525ZM100.533 31.2314H91.0117V35.3623H94.4395C96.9492 35.3623 98.9365 35.9727 100.401 37.1934C101.876 38.4043 102.613 40.04 102.613 42.1006C102.613 44.1709 101.881 45.8359 100.416 47.0957C98.9609 48.3457 97.0225 48.9805 94.6006 49H86.5732V27.6719H100.533V31.2314ZM91.0117 38.9072V45.4697H94.5127C95.6357 45.4697 96.5293 45.1621 97.1934 44.5469C97.8672 43.9316 98.2041 43.1064 98.2041 42.0713C98.2041 41.1045 97.8818 40.3428 97.2373 39.7861C96.6025 39.2197 95.7285 38.9268 94.6152 38.9072H91.0117ZM109.806 27.6719V45.4697H115.724V27.6719H120.133V45.4697H125.992V27.6719H130.387V45.6016H133.199L132.906 54.127H128.98V49H105.396V27.6719H109.806ZM148.902 39.7568H140.465V45.4697H150.367V49H136.07V27.6719H150.338V31.2314H140.465V36.3145H148.902V39.7568ZM169.688 41.8955C169.522 44.1904 168.673 45.9971 167.14 47.3154C165.616 48.6338 163.604 49.293 161.104 49.293C158.37 49.293 156.217 48.375 154.645 46.5391C153.082 44.6934 152.301 42.1641 152.301 38.9512V37.6475C152.301 35.5967 152.662 33.79 153.385 32.2275C154.107 30.665 155.138 29.4688 156.476 28.6387C157.823 27.7988 159.386 27.3789 161.163 27.3789C163.624 27.3789 165.606 28.0381 167.11 29.3564C168.614 30.6748 169.483 32.5254 169.718 34.9082H165.323C165.216 33.5312 164.83 32.5352 164.166 31.9199C163.512 31.2949 162.511 30.9824 161.163 30.9824C159.698 30.9824 158.6 31.5098 157.867 32.5645C157.145 33.6094 156.773 35.2354 156.754 37.4424V39.0537C156.754 41.3584 157.101 43.043 157.794 44.1074C158.497 45.1719 159.601 45.7041 161.104 45.7041C162.462 45.7041 163.473 45.3965 164.137 44.7812C164.811 44.1562 165.196 43.1943 165.294 41.8955H169.688ZM188.189 31.2314H181.656V49H177.262V31.2314H170.816V27.6719H188.189V31.2314ZM190.709 49V27.6719H198.18C200.768 27.6719 202.73 28.1699 204.068 29.166C205.406 30.1523 206.075 31.6025 206.075 33.5166C206.075 34.5615 205.807 35.4844 205.27 36.2852C204.732 37.0762 203.985 37.6572 203.028 38.0283C204.122 38.3018 204.981 38.8535 205.606 39.6836C206.241 40.5137 206.559 41.5293 206.559 42.7305C206.559 44.7812 205.904 46.334 204.596 47.3887C203.287 48.4434 201.422 48.9805 199 49H190.709ZM195.104 39.7129V45.4697H198.868C199.903 45.4697 200.709 45.2256 201.285 44.7373C201.871 44.2393 202.164 43.5557 202.164 42.6865C202.164 40.7334 201.153 39.7422 199.132 39.7129H195.104ZM195.104 36.6074H198.355C200.572 36.5684 201.681 35.6846 201.681 33.9561C201.681 32.9893 201.397 32.2959 200.831 31.876C200.274 31.4463 199.391 31.2314 198.18 31.2314H195.104V36.6074ZM227.389 38.8193C227.389 40.9189 227.018 42.7598 226.275 44.3418C225.533 45.9238 224.469 47.1445 223.082 48.0039C221.705 48.8633 220.123 49.293 218.336 49.293C216.568 49.293 214.991 48.8682 213.604 48.0186C212.218 47.1689 211.144 45.958 210.382 44.3857C209.62 42.8037 209.234 40.9873 209.225 38.9365V37.8818C209.225 35.7822 209.601 33.9365 210.353 32.3447C211.114 30.7432 212.184 29.5176 213.561 28.668C214.947 27.8086 216.529 27.3789 218.307 27.3789C220.084 27.3789 221.661 27.8086 223.038 28.668C224.425 29.5176 225.494 30.7432 226.246 32.3447C227.008 33.9365 227.389 35.7773 227.389 37.8672V38.8193ZM222.936 37.8525C222.936 35.6162 222.535 33.917 221.734 32.7549C220.934 31.5928 219.791 31.0117 218.307 31.0117C216.832 31.0117 215.694 31.5879 214.894 32.7402C214.093 33.8828 213.688 35.5625 213.678 37.7793V38.8193C213.678 40.9971 214.078 42.6865 214.879 43.8877C215.68 45.0889 216.832 45.6895 218.336 45.6895C219.811 45.6895 220.943 45.1133 221.734 43.9609C222.525 42.7988 222.926 41.1094 222.936 38.8926V37.8525ZM255.572 38.8193C255.572 40.9189 255.201 42.7598 254.459 44.3418C253.717 45.9238 252.652 47.1445 251.266 48.0039C249.889 48.8633 248.307 49.293 246.52 49.293C244.752 49.293 243.175 48.8682 241.788 48.0186C240.401 47.1689 239.327 45.958 238.565 44.3857C237.804 42.8037 237.418 40.9873 237.408 38.9365V37.8818C237.408 35.7822 237.784 33.9365 238.536 32.3447C239.298 30.7432 240.367 29.5176 241.744 28.668C243.131 27.8086 244.713 27.3789 246.49 27.3789C248.268 27.3789 249.845 27.8086 251.222 28.668C252.608 29.5176 253.678 30.7432 254.43 32.3447C255.191 33.9365 255.572 35.7773 255.572 37.8672V38.8193ZM251.119 37.8525C251.119 35.6162 250.719 33.917 249.918 32.7549C249.117 31.5928 247.975 31.0117 246.49 31.0117C245.016 31.0117 243.878 31.5879 243.077 32.7402C242.276 33.8828 241.871 35.5625 241.861 37.7793V38.8193C241.861 40.9971 242.262 42.6865 243.062 43.8877C243.863 45.0889 245.016 45.6895 246.52 45.6895C247.994 45.6895 249.127 45.1133 249.918 43.9609C250.709 42.7988 251.109 41.1094 251.119 38.8926V37.8525ZM266.075 35.0254L270.074 27.6719H275.128L268.917 38.248L275.289 49H270.177L266.075 41.5293L261.974 49H256.861L263.233 38.248L257.022 27.6719H262.076L266.075 35.0254ZM294.654 38.8193C294.654 40.9189 294.283 42.7598 293.541 44.3418C292.799 45.9238 291.734 47.1445 290.348 48.0039C288.971 48.8633 287.389 49.293 285.602 49.293C283.834 49.293 282.257 48.8682 280.87 48.0186C279.483 47.1689 278.409 45.958 277.647 44.3857C276.886 42.8037 276.5 40.9873 276.49 38.9365V37.8818C276.49 35.7822 276.866 33.9365 277.618 32.3447C278.38 30.7432 279.449 29.5176 280.826 28.668C282.213 27.8086 283.795 27.3789 285.572 27.3789C287.35 27.3789 288.927 27.8086 290.304 28.668C291.69 29.5176 292.76 30.7432 293.512 32.3447C294.273 33.9365 294.654 35.7773 294.654 37.8672V38.8193ZM290.201 37.8525C290.201 35.6162 289.801 33.917 289 32.7549C288.199 31.5928 287.057 31.0117 285.572 31.0117C284.098 31.0117 282.96 31.5879 282.159 32.7402C281.358 33.8828 280.953 35.5625 280.943 37.7793V38.8193C280.943 40.9971 281.344 42.6865 282.145 43.8877C282.945 45.0889 284.098 45.6895 285.602 45.6895C287.076 45.6895 288.209 45.1133 289 43.9609C289.791 42.7988 290.191 41.1094 290.201 38.8926V37.8525ZM312.643 31.2314H306.109V49H301.715V31.2314H295.27V27.6719H312.643V31.2314ZM332.521 49H328.126V39.8594H319.557V49H315.162V27.6719H319.557V36.3145H328.126V27.6719H332.521V49ZM349.161 27.6719H353.57V49H349.161V34.835L340.621 49H336.227V27.6719H340.621V41.8662L349.161 27.6719ZM364.337 40.2842H361.803V49H357.408V27.6719H361.803V36.2119H363.81L369.024 27.6719H374.386L367.809 37.7646L375.074 49H369.83L364.337 40.2842ZM393.824 38.8193C393.824 40.9189 393.453 42.7598 392.711 44.3418C391.969 45.9238 390.904 47.1445 389.518 48.0039C388.141 48.8633 386.559 49.293 384.771 49.293C383.004 49.293 381.427 48.8682 380.04 48.0186C378.653 47.1689 377.579 45.958 376.817 44.3857C376.056 42.8037 375.67 40.9873 375.66 38.9365V37.8818C375.66 35.7822 376.036 33.9365 376.788 32.3447C377.55 30.7432 378.619 29.5176 379.996 28.668C381.383 27.8086 382.965 27.3789 384.742 27.3789C386.52 27.3789 388.097 27.8086 389.474 28.668C390.86 29.5176 391.93 30.7432 392.682 32.3447C393.443 33.9365 393.824 35.7773 393.824 37.8672V38.8193ZM389.371 37.8525C389.371 35.6162 388.971 33.917 388.17 32.7549C387.369 31.5928 386.227 31.0117 384.742 31.0117C383.268 31.0117 382.13 31.5879 381.329 32.7402C380.528 33.8828 380.123 35.5625 380.113 37.7793V38.8193C380.113 40.9971 380.514 42.6865 381.314 43.8877C382.115 45.0889 383.268 45.6895 384.771 45.6895C386.246 45.6895 387.379 45.1133 388.17 43.9609C388.961 42.7988 389.361 41.1094 389.371 38.8926V37.8525ZM397.018 49V27.6719H404.488C407.076 27.6719 409.039 28.1699 410.377 29.166C411.715 30.1523 412.384 31.6025 412.384 33.5166C412.384 34.5615 412.115 35.4844 411.578 36.2852C411.041 37.0762 410.294 37.6572 409.337 38.0283C410.431 38.3018 411.29 38.8535 411.915 39.6836C412.55 40.5137 412.867 41.5293 412.867 42.7305C412.867 44.7812 412.213 46.334 410.904 47.3887C409.596 48.4434 407.73 48.9805 405.309 49H397.018ZM401.412 39.7129V45.4697H405.177C406.212 45.4697 407.018 45.2256 407.594 44.7373C408.18 44.2393 408.473 43.5557 408.473 42.6865C408.473 40.7334 407.462 39.7422 405.44 39.7129H401.412ZM401.412 36.6074H404.664C406.881 36.5684 407.989 35.6846 407.989 33.9561C407.989 32.9893 407.706 32.2959 407.14 31.876C406.583 31.4463 405.699 31.2314 404.488 31.2314H401.412V36.6074Z" fill="#623B00"/>
</svg>
