<svg width="450" height="74" viewBox="0 0 450 74" fill="none" xmlns="http://www.w3.org/2000/svg">
<mask id="mask0" mask-type="alpha" maskUnits="userSpaceOnUse" x="0" y="0" width="64" height="70">
<rect width="64" height="70" fill="#C4C4C4"/>
</mask>
<g mask="url(#mask0)">
<path fill-rule="evenodd" clip-rule="evenodd" d="M38.0843 20.2051C37.7644 20.5171 37.201 20.3274 36.7543 20.3616C36.3679 20.3913 35.9907 20.508 35.6904 20.518C30.2854 20.7016 27.8818 17.0864 24.4297 15.3548C24.0389 14.8392 23.4607 14.4892 22.8341 14.1815C22.69 13.891 22.3712 13.7554 22.2131 13.4774C21.3951 12.933 20.5687 12.3747 19.8195 11.7563C19.2579 11.2931 18.7289 10.8378 18.1344 10.3481C17.619 9.92308 17.162 9.32856 16.6271 8.78352C16.4472 8.60001 16.2536 8.42502 16.0955 8.23588C15.9425 8.05337 15.8904 7.78933 15.7408 7.61013C15.4308 7.23948 14.9701 6.9627 14.6768 6.59305C14.3624 6.1971 14.1023 5.87173 13.7901 5.49787C12.5544 4.01928 11.4479 2.45998 10.0662 1.11702C9.08865 2.99577 9.39307 6.32259 10.1548 8.23588C10.494 9.08701 11.081 10.0033 11.6622 10.8175C12.254 11.6471 12.8355 12.4731 13.5241 13.008C14.0355 13.4053 14.6443 13.5921 14.9428 14.1032C15.2723 14.2157 15.6156 14.3624 15.9181 14.5726C16.2214 14.7835 16.848 15.1485 17.0708 15.5896C16.4084 15.6264 16.0434 15.4012 15.4752 15.3548C13.7126 14.2939 11.9141 12.6354 10.7755 10.6611C10.4881 10.1623 10.2597 9.79107 9.97753 9.17465C9.74441 8.66556 9.57595 7.97677 9.35687 7.2189C9.21611 6.73129 8.97375 6.2476 8.91354 5.81079C8.68374 4.13925 8.98964 1.50293 9.71153 0.334656C10.7784 0.257454 11.507 1.43868 12.1055 2.21221C13.0897 3.48408 13.9139 4.30289 14.8538 5.49787C15.231 5.97704 15.6289 6.31828 16.0064 6.82777C16.4147 7.37802 17.1905 8.04262 17.6024 8.70532C18.4473 9.52442 19.4881 10.1712 20.1737 11.1304C21.3072 11.5565 21.9836 12.5279 22.922 13.1645C23.3735 13.4702 23.9262 13.8851 24.4294 14.2597C25.3563 14.9494 26.4665 15.6916 27.444 16.4501C27.8197 16.7416 28.2756 17.0238 28.6853 17.3106C29.0806 17.5877 29.4375 17.9508 29.838 18.1712C30.6271 18.606 31.632 18.7126 32.3207 19.3447C33.8114 19.7416 35.2836 19.991 37.286 20.0487C37.4958 20.0549 37.9912 19.9122 38.0843 20.2051Z" fill="#030201"/>
<path fill-rule="evenodd" clip-rule="evenodd" d="M10.687 5.6543C10.7457 5.6543 10.8048 5.6543 10.864 5.6543C11.6915 6.09763 11.9819 7.01482 12.8146 7.45354C12.9036 7.68896 12.617 7.59208 12.4599 7.61005C12.7219 8.23951 13.825 8.12637 14.0556 8.78354C13.4013 8.83926 13.0466 8.63095 12.6369 8.47062C12.3329 9.23531 13.0278 9.7943 13.7896 9.87873C13.9093 9.66549 13.5339 9.21995 13.1689 9.17467C13.4888 8.50415 14.1147 9.16293 14.4099 9.40929C15.1233 10.0042 15.9009 10.736 16.6265 11.2868C17.6067 11.7484 18.3042 12.5542 19.1982 13.1644C19.7258 13.5246 20.3974 13.9252 20.7938 14.4943C21.9864 15.0849 23.0958 15.7489 23.9862 16.6066C25.0011 16.9886 25.6797 17.6675 26.4688 18.2494C26.4969 18.5636 26.5309 18.8726 26.7348 19.0317C26.931 18.9527 26.5165 18.7624 26.6462 18.484C27.3614 18.7138 27.869 19.1265 28.4199 19.5011C28.5303 19.8332 28.1247 19.7103 28.0652 19.8922C28.3323 20.1732 28.4853 19.6943 28.8628 19.814C28.8148 20.4757 27.8531 20.3312 27.2672 20.5181C27.1239 20.1226 26.5346 20.1213 26.3805 19.7357C25.9476 20.0789 24.8067 20.2896 24.1639 19.9704C24.0907 19.7495 24.2888 19.7677 24.2526 19.5793C23.0053 19.6888 22.2158 19.3945 21.8586 18.7187C21.883 18.3491 22.4604 18.4674 22.7452 18.3276C21.9967 18.1001 20.8315 18.5091 19.8192 18.3276C19.4557 18.2624 19.1568 18.1145 18.8435 18.0147C18.8435 17.8843 18.8435 17.7539 18.8435 17.6235C19.8521 17.4194 20.7399 17.9785 21.9469 17.8583C21.9432 17.4964 21.2737 17.7219 21.1489 17.467C21.0713 17.2157 21.379 17.3047 21.4152 17.1541C21.304 16.7564 20.8175 16.6906 20.3509 16.6066C20.3564 16.9931 20.8267 16.9693 20.7055 17.467C20.2759 17.4029 20.1747 17.0485 19.9079 16.8412C19.7439 16.8529 19.8536 17.1062 19.7306 17.1541C19.6046 17.1473 19.4794 17.1411 19.4646 17.2324C18.7335 17.2471 18.0097 17.2086 17.4249 16.9977C17.3562 16.9729 17.3111 16.7871 17.2479 16.763C16.9021 16.631 16.3336 16.6571 16.2722 16.2936C17.3141 15.6456 18.5569 17.0244 19.7302 16.763C19.7228 16.1955 18.6895 16.5339 18.6662 15.9807C18.8432 15.9807 19.0209 15.9807 19.1982 15.9807C19.0863 15.7141 18.9378 15.4803 18.5772 15.4331C18.2561 15.3581 18.487 15.7708 18.3112 15.8242C17.5856 15.656 18.0925 14.4004 17.4245 14.1814C17.0942 14.0986 17.1386 14.346 16.9816 14.4161C16.5685 14.4457 16.8523 14.1293 16.5382 14.025C16.3823 13.9731 16.181 14.0921 16.0062 14.025C15.9837 14.0161 16.0288 13.8783 16.0062 13.8684C15.8403 13.7961 15.3512 13.8906 15.3856 13.6338C15.6349 13.2146 16.321 13.669 16.6265 13.712C16.5183 12.7644 14.9371 13.1165 14.4099 12.5385C14.9193 12.3257 15.6283 12.6096 16.0949 12.695C16.1196 12.3602 15.8241 12.3081 15.9176 11.9127C15.2141 11.8805 14.766 11.4248 14.1442 11.7563C14.0936 11.2269 13.2158 11.428 13.0802 10.9739C13.5077 10.7673 13.4368 11.0121 14.0556 10.9739C14.1775 10.1265 13.1552 9.93646 12.5486 10.1917C12.0972 9.49473 12.3188 8.20397 11.7506 7.61005C11.7259 7.43175 11.772 7.316 11.9276 7.29713C11.5474 6.72047 10.8573 6.41638 10.687 5.6543ZM14.4996 11.1304C14.9507 11.2021 15.2529 11.4045 15.741 11.4434C15.3638 11.0463 14.9888 10.647 14.4996 10.3481C14.4996 10.6089 14.4996 10.8696 14.4996 11.1304ZM16.7163 12.8515C16.9221 12.8264 17.0569 12.8642 17.1596 12.9297C16.9882 12.5855 16.959 12.1158 16.539 11.9909C16.4684 12.3922 16.7255 12.5043 16.7163 12.8515ZM17.071 13.7902C17.2187 13.7902 17.3665 13.7902 17.5143 13.7902C17.5069 13.5356 17.4009 13.3688 17.1596 13.3209C17.1005 13.3209 17.0414 13.3209 16.9827 13.3209C16.9176 13.5601 17.1352 13.551 17.071 13.7902ZM18.401 13.8684C18.4586 13.5044 18.3699 13.27 17.9576 13.3209C17.9218 13.6653 17.9336 13.9675 18.401 13.8684ZM18.667 14.9637C18.6038 14.7065 18.6248 14.375 18.3123 14.3379C18.323 14.6413 18.2048 15.0585 18.667 14.9637ZM19.2876 15.1201C19.4653 15.1521 19.9452 15.3138 20.0856 15.1201C19.8961 14.8177 19.8658 14.375 19.1993 14.4943C19.131 14.7889 19.3068 14.8682 19.2876 15.1201ZM20.7059 16.1371C20.6235 15.7144 20.0886 15.6913 19.6419 15.5896C19.7051 16.0293 20.0804 16.1938 20.7059 16.1371ZM21.8589 16.3718C21.8316 16.0804 21.467 15.6788 21.2383 15.8242C21.5198 15.941 21.3 16.4999 21.8589 16.3718ZM24.2529 17.467C23.8972 17.2069 23.5126 16.9729 23.1003 16.763C23.3489 17.0665 23.6633 17.7245 24.2529 17.467ZM21.9476 17.2324C22.2055 17.2187 22.5738 17.5072 22.7456 17.3106C22.5136 17.0981 22.3603 16.8161 21.8589 16.8412C21.7854 17.0625 21.9838 17.044 21.9476 17.2324ZM23.5436 18.3276C23.4568 17.987 23.1054 17.8794 22.6569 17.8583C22.7249 18.2155 23.1775 18.2334 23.5436 18.3276ZM24.7846 18.1712C24.5252 18.1914 24.5123 17.9945 24.2529 18.0147C24.1369 18.3465 24.7469 18.4371 24.7846 18.1712ZM25.7603 18.2494C25.5951 18.324 25.4636 18.015 25.4056 18.2494C25.4603 18.2722 25.747 18.4439 25.7603 18.2494ZM22.8343 18.7969C22.8442 18.8925 22.8605 18.9822 23.0112 18.9534C23.326 18.7093 24.3434 19.0858 24.5186 18.7187C23.9747 18.7602 23.2351 18.6295 22.8343 18.7969ZM25.3169 18.8752C25.2552 18.8139 24.8222 18.7012 24.7849 18.8752C24.8463 18.9365 25.2796 19.0492 25.3169 18.8752ZM25.1392 19.4228C25.4521 19.4906 25.6077 19.2318 25.3166 19.1882C25.2955 19.2996 25.1706 19.3202 25.1392 19.4228ZM27.7105 19.5011C27.5931 19.5124 27.3806 19.238 27.3559 19.4228C27.4745 19.411 27.6237 19.7409 27.7105 19.5011Z" fill="#140C06"/>
<path fill-rule="evenodd" clip-rule="evenodd" d="M42.1629 33.2696C42.0961 32.8977 42.3865 32.841 42.5176 32.6437C42.8054 32.0633 42.9236 31.3331 43.4933 31.0009C43.4623 31.6519 43.193 32.092 42.8726 32.4873C43.0422 33.1676 42.4736 33.6647 42.4293 34.2084C42.3913 34.6729 42.8398 35.1537 42.4293 35.6166C42.0946 35.5207 42.167 35.0656 42.1629 34.6778C41.3302 35.0904 41.8408 36.6883 41.4536 37.494C40.8455 37.2815 40.6102 37.765 40.301 38.0417C40.2614 38.6845 40.2755 39.3749 39.6803 39.5281C39.4911 39.2429 39.8125 38.8396 39.8576 38.5111C39.1472 38.3028 39.5044 39.7112 38.705 39.6845C38.6931 39.4918 38.6917 39.3077 38.7933 39.2152C38.4467 39.2024 38.0481 40.0398 37.2863 39.6845C37.1906 39.2614 37.5264 39.2187 37.4633 38.824C37.1581 38.6881 36.8644 39.2324 36.3993 39.2152C36.0671 39.6259 36.1174 40.3746 35.3353 40.3885C35.1225 40.1245 35.5924 39.9218 35.6899 39.6845C35.5329 39.4775 35.3305 39.7995 35.2466 39.5281C35.2943 39.2832 35.5776 39.2461 35.8673 39.2152C35.9977 38.8084 36.059 38.3409 36.3106 38.0417C36.7798 38.1124 36.3963 38.4485 36.4879 38.824C38.0917 38.5042 37.5002 36.4627 37.6406 35.1471C38.0677 35.2394 38.0189 35.7518 38.0836 36.1641C38.8213 36.1113 38.6957 34.9986 38.5269 34.2084C38.1512 34.3733 37.6254 35.081 37.0196 35.3036C36.8186 34.7843 37.6476 34.5839 37.9953 34.2084C38.156 34.0343 38.0828 33.8241 38.3499 33.739C38.3695 33.487 38.1929 33.4078 38.2613 33.1132C38.4999 33.0591 38.4327 33.2748 38.5273 33.3479C39.2329 32.7533 38.2679 32.224 38.3503 31.4703C38.5834 31.4472 38.4197 31.7738 38.705 31.7051C38.8513 31.3911 38.9813 31.0625 39.1483 30.7663C39.0441 30.3888 38.7859 30.1473 38.6163 29.8275C38.1874 30.4136 38.2631 31.4455 37.5523 31.7833C37.3572 31.3237 38.4829 30.1049 38.3503 29.3581C38.276 28.9392 37.9136 28.9839 37.7293 28.5758C37.9561 28.3988 38.3547 28.5442 38.5273 28.654C38.7988 28.2551 38.4896 27.6983 38.2613 27.4806C38.0311 27.5644 38.1368 27.9444 37.9066 28.0282C37.5224 27.9291 37.8859 27.6188 37.9066 27.4023C37.9945 26.4721 37.9084 25.0665 37.6406 24.3514C37.5353 24.0792 36.8297 24.337 36.9313 23.8819C36.8987 23.5501 37.3151 23.8136 37.4629 23.8037C37.375 23.5166 37.1363 23.3617 37.1082 23.0215C36.6948 22.9384 36.4089 23.2259 36.1329 23.0215C36.1026 22.6818 36.3767 22.6111 36.6645 22.552C36.6586 22.3226 36.4617 22.2616 36.3099 22.1609C35.7276 22.2991 35.3811 22.6453 34.6252 22.6303C34.6499 22.5039 34.5413 22.4953 34.5365 22.3956C34.7113 21.8979 35.7346 22.1492 35.7779 21.5351C35.588 21.1547 34.6581 21.4275 34.2705 21.2221C34.4375 20.5882 35.3305 20.9865 35.8662 21.066C36.0524 21.2411 36.2589 21.3975 36.4872 21.5354C36.7059 21.5455 36.9143 21.5471 37.0188 21.4572C37.1592 21.3202 37.1374 21.0402 37.1962 20.8313C38.1552 20.3737 39.4952 20.2521 41.0084 20.2838C41.1529 20.5481 41.4991 20.6331 41.4518 21.066C40.5019 21.4839 39.4099 20.8919 38.2598 20.9878C38.8949 21.3662 39.2765 21.9683 39.1464 23.0218C39.4305 23.1883 39.6977 23.3699 40.0327 23.4911C40.332 23.1199 39.8842 22.7382 39.8558 22.3959C40.4993 22.3901 40.5415 23.2838 40.3874 23.7258C40.7868 24.1567 41.0901 24.3409 41.4514 24.8211C41.4994 24.885 41.7056 25.1089 41.7178 25.134C42.0214 25.7827 41.8179 26.6151 41.9838 27.4027C42.0573 27.7521 42.4345 28.0438 42.3384 28.4197C42.0554 28.4868 42.0643 28.2968 41.8951 28.2632C41.6612 28.5569 41.6476 29.2291 41.8951 29.5149C42.5634 28.8317 42.6894 27.5044 42.9591 26.6986C43.6404 27.2919 42.7371 28.3929 42.6044 28.9672C42.5775 29.2117 42.8605 28.7685 42.8708 29.0456C43.272 30.9651 41.1673 31.8797 42.0728 33.8175C42.2158 33.6402 42.846 33.0398 42.1629 33.2696ZM37.7296 21.3003C37.0258 21.3418 38.1641 21.2749 37.7296 21.3003V21.3003ZM37.198 21.848C37.225 22.085 37.4721 22.1274 37.375 22.4738C38.1264 22.3585 38.4475 22.6228 38.8823 22.7868C38.8162 22.141 38.6499 21.5837 38.0843 21.3786C38.0861 21.7972 37.4551 21.6579 37.198 21.848ZM38.7053 24.2732C38.7057 23.8555 38.4903 23.628 38.439 23.2561C38.1722 23.1786 38.0437 22.9794 37.6413 23.0215C37.7511 23.6548 38.0189 24.1486 38.7053 24.2732ZM39.1487 24.5861C39.4771 24.7151 39.8107 25.251 40.124 25.1336C39.9939 25.0659 39.8428 25.0167 39.858 24.8207C39.9788 24.1405 39.6282 23.8761 39.06 23.8037C39.1516 24.0097 39.166 24.2839 39.1487 24.5861ZM38.8827 25.916C38.8199 25.3192 38.8768 24.6173 38.1733 24.5861C38.2897 25.1354 38.2162 25.8518 38.8827 25.916ZM41.5427 26.7765C41.5205 25.8052 41.164 25.1291 40.5673 24.6643C40.37 25.8293 41.062 26.2097 41.5427 26.7765ZM40.124 26.8548C40.2976 25.9453 39.8262 25.6047 39.326 25.2902C39.1963 26.1605 39.4867 26.6604 40.124 26.8548ZM38.7936 27.4023C38.9521 26.7413 38.7707 26.39 38.3507 26.0724C38.16 26.6527 38.272 27.2381 38.7936 27.4023ZM41.3653 28.4976C41.6284 27.5494 41.2242 26.8941 40.5673 26.5419C40.2699 27.4857 40.8928 28.0047 41.3653 28.4976ZM39.858 28.4976C39.8506 27.8258 40.0024 27.0141 39.237 27.0112C39.002 27.7466 39.3105 28.2446 39.858 28.4976ZM40.922 30.0621C41.2563 29.2587 40.973 28.5826 40.39 28.1847C39.9625 28.8767 40.2437 29.7431 40.922 30.0621ZM39.5033 29.8275C39.7996 29.2597 39.3851 28.6941 38.9713 28.4976C38.7101 29.1429 38.8657 29.6147 39.5033 29.8275ZM42.4293 30.2186C42.4943 29.9344 42.7415 29.4028 42.5176 29.1235C42.4371 29.4986 41.874 29.9553 42.4293 30.2186ZM41.6313 31.8615C41.7547 31.4231 42.0953 31.1757 42.1629 30.688C41.891 30.4067 41.799 29.9664 41.4536 29.7492C41.0413 30.3868 41.2105 31.3459 41.6313 31.8615ZM40.301 31.2356C40.8422 30.836 40.3154 30.1127 39.9463 29.8275C39.6223 30.262 39.9363 30.9524 40.301 31.2356ZM38.8827 32.0962C39.0903 32.3563 39.1845 32.7161 39.5037 32.8785C39.9714 32.413 40.1111 31.3579 39.3264 31.0792C39.2466 31.4785 39.0079 31.7373 38.8827 32.0962ZM40.8333 32.8785C41.6605 32.6411 40.9889 31.866 40.922 31.3138C40.8333 31.3138 40.7447 31.3138 40.6556 31.3138C40.3457 31.856 40.6002 32.4016 40.8333 32.8785ZM40.0353 34.0519C40.5407 33.8198 40.6327 32.8123 40.0353 32.5655C39.7996 33.0965 39.5229 33.6063 40.0353 34.0519ZM41.454 34.9907C41.543 34.8867 41.5382 34.6996 41.7204 34.6778C41.6465 34.1011 41.7196 33.1109 41.3657 32.9567C40.8987 33.4926 41.2297 34.3974 41.454 34.9907ZM38.7936 33.9737C39.057 33.9838 39.3659 33.3338 38.971 33.2696C38.9418 33.5304 38.7146 33.6167 38.7936 33.9737ZM39.1487 34.9907C39.7398 34.9503 39.6541 34.1312 39.3256 33.8954C39.0327 34.1706 38.8716 34.5966 39.1487 34.9907ZM40.4787 36.3206C40.653 36.1091 40.7679 35.8457 41.0103 35.6948C40.9471 35.0464 40.9475 34.342 40.5673 33.9737C39.8898 34.445 40.2367 35.5895 40.4787 36.3206ZM39.5033 37.4158C39.6371 37.2352 39.8824 37.0628 39.9463 36.7118C39.9943 36.4487 39.8011 35.0826 39.5916 35.1471C38.971 35.5549 39.4102 36.717 39.5033 37.4158ZM38.0843 36.8682C38.0584 36.9458 38.1785 37.1837 38.173 37.2594C38.1198 37.9876 37.8253 38.9009 37.8183 39.4498C38.1593 39.1509 38.651 38.985 38.8823 38.5893C38.7855 38.3125 38.4471 38.866 38.3507 38.5893C38.1874 38.2871 38.7545 38.2194 38.8823 37.8069C39.0434 37.2893 38.8361 36.5918 38.7936 36.0859C38.6289 36.3415 38.2166 36.4774 38.0843 36.8682ZM40.39 37.3376C40.8045 37.3118 40.7738 36.8937 41.188 36.8682C41.1333 36.656 41.3007 36.2475 41.0993 36.1641C40.823 36.5198 40.4369 36.7792 40.39 37.3376ZM39.4147 38.1982C39.5635 38.0652 40.0737 37.8461 39.7693 37.5723C39.6603 37.7412 39.2591 38.0557 39.4147 38.1982Z" fill="#030201"/>
<path fill-rule="evenodd" clip-rule="evenodd" d="M33.651 27.7934C33.0392 26.0013 32.8016 23.6204 30.548 23.5689C29.5121 23.5455 29.0004 24.1817 27.888 23.9602C27.7015 23.6551 27.8437 23.0604 27.7994 22.6303C27.9963 22.449 28.1455 22.657 28.4204 22.6303C29.3034 22.1038 30.4361 21.4743 31.878 21.6915C32.2848 22.0887 32.6225 22.5471 33.1194 22.8649C33.4615 23.5425 33.849 24.834 34.0947 25.9941C34.2672 26.8103 34.531 27.4965 33.651 27.7934Z" fill="#030201"/>
<path fill-rule="evenodd" clip-rule="evenodd" d="M43.6708 22.8651C42.7967 23.1698 41.8066 22.5365 40.8335 22.3175C40.2949 22.1962 39.7677 22.2761 39.3262 22.0046C39.5852 21.5711 40.3639 21.6884 40.9222 21.6916C41.6976 21.6958 42.52 21.7751 43.0502 21.8481C43.1787 22.2558 43.6852 22.3308 43.6708 22.8651Z" fill="#030201"/>
<path fill-rule="evenodd" clip-rule="evenodd" d="M45.0893 24.8207C44.8455 25.0188 44.6006 25.0947 44.2027 24.9771C43.6057 24.2264 42.5513 23.8783 41.5427 23.4908C42.2901 22.7671 43.5211 23.6615 44.38 23.8036C44.6024 24.1551 44.9907 24.3601 45.0893 24.8207Z" fill="#030201"/>
<path fill-rule="evenodd" clip-rule="evenodd" d="M4.92358 23.5691C5.40866 23.6885 6.14496 23.5867 6.34224 23.9602C7.26216 24.0156 7.99624 23.9068 8.73623 23.8038C8.49868 24.6168 6.81587 24.416 6.16491 24.4297C5.89559 24.1457 5.40238 24.0593 4.92358 23.9602C4.92358 23.8299 4.92358 23.6995 4.92358 23.5691Z" fill="#030201"/>
<path fill-rule="evenodd" clip-rule="evenodd" d="M42.9614 25.0554C44.5792 25.1927 45.5859 25.8693 45.9761 27.0894C45.5379 27.3684 45.2734 26.7941 44.9121 26.62C44.6594 26.4985 44.2822 26.5173 44.0254 26.3853C43.561 26.1471 43.3035 25.6516 42.9614 25.3683C42.9614 25.264 42.9614 25.1597 42.9614 25.0554Z" fill="#030201"/>
<path fill-rule="evenodd" clip-rule="evenodd" d="M31.5235 29.671C31.593 29.844 32.0725 29.656 31.9668 29.9839C31.5276 30.4494 30.8777 30.4223 30.3708 30.6879C30.1998 30.7776 30.0062 30.9533 29.8392 31.0792C29.66 31.2141 29.4413 31.3389 29.3072 31.4703C28.9319 31.8373 28.8181 32.5508 28.1546 32.722C26.9668 31.8504 28.8413 30.896 29.4849 30.5315C28.4915 30.1303 27.4061 29.8102 27.5343 28.4193C28.2 28.3808 28.63 28.1342 29.2189 28.0281C28.7494 27.6862 28.3112 27.3166 27.8003 27.0112C27.794 26.2234 28.8554 26.3775 29.2189 25.916C31.986 25.324 32.9315 28.4206 31.5235 29.671Z" fill="#030201"/>
<path fill-rule="evenodd" clip-rule="evenodd" d="M44.114 27.0896C44.1731 27.0896 44.2322 27.0896 44.2913 27.0896C45.4791 27.4762 46.7415 28.2132 46.508 29.593C46.0333 29.5424 46.0037 29.0992 45.7987 28.8106C45.1148 28.3448 44.2466 28.0417 44.114 27.0896Z" fill="#030201"/>
<path fill-rule="evenodd" clip-rule="evenodd" d="M23.7208 27.8718C23.8094 27.8718 23.8981 27.8718 23.9871 27.8718C23.9007 28.8164 23.0765 29.3921 23.5438 30.3751C22.233 29.9322 23.4636 28.5638 23.7208 27.8718Z" fill="#030201"/>
<path fill-rule="evenodd" clip-rule="evenodd" d="M33.4741 28.4975C33.4649 29.0109 32.9602 29.0875 32.7648 29.4363C32.1234 29.1934 32.8601 28.1181 33.4741 28.4975Z" fill="#030201"/>
<path fill-rule="evenodd" clip-rule="evenodd" d="M46.6854 31.1576C46.5879 31.4102 46.4464 31.6243 46.3308 31.8617C45.6177 31.9693 45.5051 31.5474 45.4441 31.0794C45.0957 30.2394 44.5464 29.5767 44.1141 28.8107C44.0997 28.7198 44.1337 28.6715 44.2028 28.6542C44.5512 28.5095 44.7407 29.0946 45.0894 29.2019C45.518 29.9454 46.183 30.4797 46.6854 31.1576Z" fill="#030201"/>
<path fill-rule="evenodd" clip-rule="evenodd" d="M37.4644 29.4375C37.5531 29.4375 37.6418 29.4375 37.7304 29.4375C37.9672 30.6731 36.9786 31.2427 36.2231 31.9408C35.8795 32.2586 35.5828 32.7499 35.0708 32.7232C35.0061 32.3415 35.4713 32.2459 35.6915 32.0191C36.2135 31.4812 36.7292 30.8981 37.2875 30.298C37.2162 29.8964 37.382 29.7037 37.4644 29.4375Z" fill="#030201"/>
<path fill-rule="evenodd" clip-rule="evenodd" d="M43.9368 33.426C44.0251 33.426 44.1138 33.426 44.2028 33.426C44.8641 34.059 45.4685 35.7575 44.8235 36.7899C44.1699 36.6331 44.4296 35.8553 44.3801 35.3036C44.3159 34.5848 44.0831 33.9251 43.9368 33.426Z" fill="#030201"/>
<path fill-rule="evenodd" clip-rule="evenodd" d="M35.2475 33.8171C35.3491 34.4322 34.305 34.975 33.7401 34.9906C33.7265 34.5222 34.7591 34.3345 34.9815 33.8171C35.0698 33.8171 35.1588 33.8171 35.2475 33.8171Z" fill="#030201"/>
<path fill-rule="evenodd" clip-rule="evenodd" d="M17.2483 36.2425C17.3916 36.2206 17.4009 36.3165 17.5143 36.3207C17.1518 36.9896 17.3661 37.7321 17.4256 38.2765C16.4865 38.1249 16.7654 36.648 17.2483 36.2425Z" fill="#030201"/>
<path fill-rule="evenodd" clip-rule="evenodd" d="M17.8688 36.3987C18.4303 36.6859 17.98 37.8652 18.2234 38.4327C17.2869 38.4933 17.5063 36.7628 17.8688 36.3987Z" fill="#030201"/>
<path fill-rule="evenodd" clip-rule="evenodd" d="M20.795 36.7115C20.7783 37.0359 20.6217 37.237 20.2633 37.2592C19.7461 37.8332 19.8078 38.6217 19.7313 39.4497C19.3988 39.831 18.592 39.9822 18.224 39.5279C18.1146 39.1077 18.6433 39.05 18.8447 38.7456C19.0671 38.4105 19.0183 37.9679 19.1997 37.6503C19.4934 37.1347 20.0986 36.6095 20.795 36.7115Z" fill="#030201"/>
<path fill-rule="evenodd" clip-rule="evenodd" d="M27.001 37.4939C27.5781 37.8916 27.297 38.1559 27.0897 39.0584C26.8662 40.0327 26.7336 40.8633 26.1144 41.4836C25.183 42.4172 23.6897 42.6049 22.3017 42.1877C21.9962 41.7874 22.3863 41.6133 22.6564 41.4054C22.7927 41.3004 23.0018 41.3539 23.1884 41.2489C23.6975 40.9628 24.4341 40.2352 25.1387 40.0755C25.8391 39.2847 26.5115 38.4701 27.001 37.4939ZM25.9374 40.3884C25.9297 40.2176 26.1801 39.8825 26.0261 39.8408C25.9884 40.0371 25.5417 40.2717 25.9374 40.3884ZM24.1641 41.4836C24.6876 41.8327 25.3929 41.2216 25.4941 40.7014C24.8679 40.5325 24.3813 41.0433 24.1641 41.4836ZM23.3661 41.8747C23.5682 41.8966 23.6993 41.8559 23.7208 41.7183C23.495 41.6779 23.3768 41.585 23.3661 41.8747Z" fill="#030201"/>
<path fill-rule="evenodd" clip-rule="evenodd" d="M42.5178 37.4939C42.6065 37.4939 42.6951 37.4939 42.7842 37.4939C43.3513 38.604 42.7853 40.4386 41.7202 40.8578C41.48 40.5276 41.9345 40.2413 42.0748 39.9972C42.1864 39.2355 42.4321 38.5917 42.4295 37.7285C42.4048 37.6024 42.5134 37.5939 42.5178 37.4939Z" fill="#030201"/>
<path fill-rule="evenodd" clip-rule="evenodd" d="M41.6315 39.4497C41.7582 39.7476 41.5151 40.1091 41.3655 40.4667C41.1837 40.9015 40.5878 41.981 39.8582 41.7966C40.3152 41.0006 40.8146 40.2414 41.2768 39.4497C41.395 39.4497 41.5133 39.4497 41.6315 39.4497Z" fill="#030201"/>
<path fill-rule="evenodd" clip-rule="evenodd" d="M17.337 40.0756C17.4397 40.0629 17.4948 40.0929 17.514 40.1539C17.9074 40.4029 17.5576 40.8485 17.514 41.1708C17.3721 42.2228 18.1435 43.5286 19.199 43.596C19.7439 43.6309 19.7366 43.3192 20.3513 43.3613C20.3735 43.9641 19.4185 44.3558 18.401 44.2998C17.473 43.9079 16.8822 42.9451 16.8937 41.7964C16.9 41.1702 17.1867 40.6089 17.337 40.0756Z" fill="#030201"/>
<path fill-rule="evenodd" clip-rule="evenodd" d="M37.6414 40.3884C37.7474 40.7366 37.2065 40.9162 36.932 41.0143C36.3812 41.2111 35.4328 41.3207 34.8923 41.249C35.353 40.7212 36.7174 40.8605 37.2863 40.3884C37.4049 40.3884 37.5231 40.3884 37.6414 40.3884Z" fill="#030201"/>
<path fill-rule="evenodd" clip-rule="evenodd" d="M39.6808 40.4667C39.7011 40.9331 39.1629 41.173 38.8828 41.4054C38.6128 41.6297 38.3538 42.0965 37.7302 41.9531C38.0689 41.2608 38.9212 41.0221 39.3262 40.3885C39.5116 40.3555 39.5611 40.4423 39.6808 40.4667Z" fill="#030201"/>
<path fill-rule="evenodd" clip-rule="evenodd" d="M18.0462 40.6233C18.2231 40.6233 18.4009 40.6233 18.5778 40.6233C18.6561 41.6758 19.2269 42.2935 19.4645 43.2049C18.0381 43.186 18.0248 41.92 18.0462 40.6233Z" fill="#030201"/>
<path fill-rule="evenodd" clip-rule="evenodd" d="M37.2867 42.266C36.2537 42.2338 34.6466 42.0976 33.651 42.5007C32.6949 43.2759 31.6918 44.42 29.8387 44.1436C29.8309 44.0197 29.8812 43.845 29.75 43.8306C29.9344 43.3333 30.7797 43.2342 31.346 42.9702C32.0498 42.6416 33.1847 42.0024 34.1833 41.8749C34.7183 41.8068 35.5314 41.871 36.134 41.8749C36.5984 41.8778 37.314 41.6673 37.2867 42.266Z" fill="#030201"/>
<path fill-rule="evenodd" clip-rule="evenodd" d="M40.3902 43.0483C41.0803 43.3521 41.2831 44.0858 41.8975 44.4564C41.8942 45.2101 41.664 45.7629 41.0995 46.0211C41.0855 45.9294 40.9377 45.9552 40.8335 45.9428C40.5483 45.5572 40.8317 45.2264 41.0105 44.8479C40.7496 44.3388 40.1257 43.7634 40.3902 43.0483Z" fill="#030201"/>
<path fill-rule="evenodd" clip-rule="evenodd" d="M39.1487 47.1946C38.4701 47.2604 38.1793 46.3364 37.7297 45.9426C37.3385 45.9227 37.2317 45.6518 36.9321 45.5517C36.324 45.5723 35.3176 46.0296 34.5381 45.8647C34.6969 45.5211 35.1916 45.6105 35.6021 45.4735C36.341 45.2272 36.993 44.7372 37.9961 45.1606C38.2262 45.2578 39.1517 46.0371 39.237 46.3341C39.308 46.5796 39.2644 46.9003 39.1487 47.1946Z" fill="#030201"/>
<path fill-rule="evenodd" clip-rule="evenodd" d="M24.7845 59.4768C25.1577 59.6949 24.9079 60.115 24.9619 60.4156C25.0653 60.9925 25.4395 61.4398 25.5825 61.902C24.7328 61.6741 24.312 60.3654 24.7845 59.4768Z" fill="#030201"/>
<path fill-rule="evenodd" clip-rule="evenodd" d="M19.4648 62.4494C19.2376 63.0821 19.1881 63.4612 19.3762 64.1702C18.072 64.27 18.5645 62.4156 19.4648 62.4494Z" fill="#030201"/>
<path fill-rule="evenodd" clip-rule="evenodd" d="M9.06134 40.7863C9.12354 40.7769 9.12755 40.8184 9.17676 40.8202C9.1548 40.914 9.13604 41.0106 8.9844 40.9898C8.96596 40.8832 9.03906 40.8573 9.06134 40.7863Z" fill="#030201"/>
<path fill-rule="evenodd" clip-rule="evenodd" d="M24.6961 22.5519C26.1277 22.1465 26.7916 21.0633 28.4201 20.8309C28.2827 21.4926 27.4045 21.5992 26.9128 21.9261C26.4536 22.2316 25.868 22.6625 25.4938 23.0214C25.3582 23.1517 25.3504 23.3499 25.2278 23.4907C24.8628 23.9103 24.3241 24.2405 23.8978 24.5859C23.6617 25.5251 22.734 25.854 22.3904 26.6982C22.1026 26.7568 22.076 27.0469 21.7698 27.0893C21.4942 27.6548 21.3342 28.3221 20.7054 28.5757C19.8971 30.2961 18.4396 31.9976 17.6911 33.8953C17.5707 34.2004 17.4902 34.7513 17.3365 35.2252C17.1052 35.9371 16.8322 36.3776 16.6268 37.2593C16.5665 37.5187 16.4055 37.8202 16.5385 38.2763C16.6404 38.628 17.1883 38.9252 17.0701 39.3715C16.6415 39.4999 15.9584 39.1505 15.8291 38.8238C15.5336 38.0807 15.5284 37.4695 15.7405 36.6334C16.0283 35.4981 16.486 34.368 16.9818 33.2695C17.0509 33.1163 16.9929 32.9537 17.0701 32.8002C17.7857 31.379 18.8567 29.712 19.8188 28.341C20.7812 26.969 21.8891 25.7659 22.8334 24.6642C22.4858 24.5612 21.9301 24.4666 21.5921 24.5859C21.6165 25.0781 22.2478 24.5625 22.3901 24.8988C22.2744 25.1359 21.9741 25.2101 21.5921 25.2118C21.4561 25.9785 20.984 26.4485 20.0848 26.5418C19.8897 26.2291 20.4583 26.0107 20.6167 25.7594C19.0684 25.8272 19.2993 27.4655 18.0454 27.7934C17.7569 27.7872 17.5677 27.6934 17.5134 27.4804C17.1691 27.8814 16.8333 28.6168 16.0061 28.341C15.8347 27.4596 16.7697 27.5541 16.9818 27.0111C15.9887 26.7865 14.9399 26.8667 14.0554 27.0893C13.8323 26.8931 14.225 26.8419 14.3218 26.6982C13.2962 26.6261 12.4295 26.3191 11.7505 26.5418C11.4553 26.5955 11.6075 26.38 11.6618 26.307C10.8801 26.4384 9.98381 26.7542 9.17916 26.62C9.34615 26.1512 10.0551 26.3217 10.5092 26.2288C11.0545 26.1173 11.5883 25.8461 12.1052 25.8376C12.2943 25.8012 12.274 25.9494 12.2821 26.0723C12.8865 25.9534 13.3483 25.7092 13.9671 25.603C12.6512 25.0775 11.4812 25.6365 9.97679 25.7594C9.17141 25.8253 8.3276 26.2376 7.67184 25.9159C7.84067 25.6574 8.29102 25.6626 8.64717 25.603C9.47472 25.464 10.7305 25.4243 11.5732 25.2118C11.6256 24.9312 11.0434 25.2098 11.1298 24.8988C10.265 25.1785 9.05946 25.158 8.02687 25.2901C7.9648 25.0005 8.16726 24.9442 8.4702 24.9771C8.43067 24.7512 7.8004 25.0465 7.7605 24.8206C7.7605 24.7424 7.7605 24.6642 7.7605 24.5859C7.79154 24.3004 8.33277 24.4647 8.5585 24.3513C9.11082 24.1866 9.54639 23.9187 10.2435 23.8818C10.3455 23.9744 10.3436 24.1586 10.3322 24.3513C11.3489 24.2313 11.9308 23.7277 12.9035 23.5689C12.6819 24.2078 11.8222 24.2838 11.2185 24.5859C12.1366 25.1958 13.3247 24.6867 14.1445 24.3513C13.9254 24.1759 12.8012 24.6179 12.7258 24.1166C12.9538 23.8125 13.6154 23.9738 14.0558 23.8818C14.5889 23.7707 15.3939 23.4666 16.2725 23.4907C16.5654 23.436 16.7376 23.275 16.9822 23.1778C16.9822 23.3343 16.9822 23.4907 16.9822 23.6472C18.467 23.6008 19.2624 22.9474 20.7058 22.8649C20.9733 23.1977 20.357 23.3069 20.1742 23.4907C20.6422 23.5477 20.8776 23.1856 21.2382 23.0214C21.9198 22.7104 22.792 22.65 23.5435 22.3955C24.3219 22.1318 25.0342 21.798 25.6715 21.4568C25.6245 21.3938 25.5791 21.3297 25.5828 21.222C25.0098 21.2129 24.0511 21.5389 23.5435 21.8479C22.055 22.1031 20.2968 22.5813 18.6668 22.7085C16.2581 22.8965 13.6886 22.6882 11.3075 22.8649C9.40452 23.0063 7.55546 23.0135 5.36688 22.7085C3.51154 22.4499 2.14571 21.7932 0.756234 21.0656C0.290736 21.4665 0.826059 21.9174 1.0226 22.239C1.69905 23.3483 2.5654 24.3877 3.85992 25.2118C4.23639 25.4511 4.61174 25.94 5.10125 26.2288C5.48104 26.453 5.85676 26.5437 6.34221 26.7764C7.70804 27.4309 9.6635 28.2035 12.0169 28.0281C12.8828 27.9635 13.7237 27.6917 14.6768 27.5587C15.0951 27.3905 15.6289 26.9596 16.0955 27.0893C15.9071 28.4375 13.7115 28.768 12.1055 28.8886C11.6467 28.9232 11.2026 28.9284 10.6869 28.8886C7.08258 28.6113 3.58764 26.53 1.55386 24.1948C0.799828 23.3287 -0.530536 21.5891 0.223867 20.3615C1.14267 20.117 1.46113 20.7872 2.08586 21.0656C2.25876 21.1425 2.59938 21.1292 2.88386 21.2217C3.50009 21.4228 4.60842 21.8045 5.54348 21.9258C6.78074 22.0865 8.23117 21.9072 9.53383 22.004C11.2891 22.1344 13.4584 21.9164 15.5628 21.9258C18.5157 21.9391 22.0809 21.5412 24.6067 20.7523C25.0693 20.6079 25.7986 20.2103 26.6461 20.283C26.6161 20.7256 26.1052 20.7445 25.8484 20.987C25.7871 21.302 26.2216 21.179 26.2031 21.4565C25.9574 22.0484 25.0608 22.0656 24.6961 22.5519ZM23.9868 22.7085C24.1398 22.7283 24.5118 22.5611 24.2528 22.4737C24.2432 22.6214 23.9595 22.5281 23.9868 22.7085ZM23.1001 23.4907C23.3809 23.4256 23.5509 23.2625 23.7208 23.0996C23.3281 23.066 23.1593 23.23 23.1001 23.4907ZM19.2875 23.8036C20.0969 23.669 19.2251 23.5735 19.2875 23.8036V23.8036ZM23.2771 23.9602C23.4345 23.9422 23.7212 24.039 23.6321 23.8036C23.467 23.8144 23.3358 23.8551 23.2771 23.9602ZM21.1495 24.1166C21.4986 24.1639 21.6098 24.0012 21.7705 23.8818C21.5056 23.9093 21.23 23.9272 21.1495 24.1166ZM14.8542 24.3513C15.1375 24.1837 15.6049 24.1791 15.8299 23.9602C15.3869 23.937 14.7533 24.155 14.8542 24.3513ZM15.5631 24.5859C15.9725 24.5377 16.0737 24.7616 16.4498 24.7424C16.5732 24.4601 17.1347 24.5647 17.0705 24.1166C16.4945 24.1932 15.9137 24.1618 15.5631 24.5859ZM17.1595 24.8206C17.7517 25.0188 18.164 24.6919 18.4008 24.3513C17.7203 24.2727 17.3431 24.4611 17.1595 24.8206ZM18.5782 24.8988C18.8445 24.8988 19.1102 24.8988 19.3762 24.8988C19.3832 24.6182 19.7194 24.628 19.8195 24.4295C19.1209 24.3346 18.788 24.5625 18.5782 24.8988ZM20.1742 24.8988C20.6419 24.9464 20.923 24.8295 20.9722 24.5077C20.4786 24.4376 20.3522 24.6912 20.1742 24.8988ZM9.0022 24.8206C8.20753 24.9008 9.27263 24.9008 9.5342 24.8206C9.52016 24.7288 9.54935 24.5987 9.44553 24.5859C9.36462 24.7235 9.13483 24.7291 9.0022 24.8206ZM13.5242 25.0553C14.2963 25.1871 15.2129 25.4598 15.6522 24.8988C14.8361 24.6329 14.2121 24.698 13.5242 25.0553ZM15.8295 25.4465C16.2839 25.5952 17.1078 25.5811 17.1595 25.1335C16.5451 25.087 16.152 25.2355 15.8295 25.4465ZM17.4255 25.6812C18.0336 25.7484 18.249 25.4687 18.5782 25.2901C18.017 25.2643 17.506 25.2828 17.4255 25.6812ZM18.9328 25.6812C19.467 25.7356 19.7131 25.5354 19.9085 25.2901C19.4471 25.3008 19.1556 25.4605 18.9328 25.6812ZM20.4402 25.4465C20.7993 25.3382 20.7206 25.6163 20.9722 25.603C20.9522 25.455 21.0723 25.4302 21.0605 25.2901C20.7808 25.2776 20.5255 25.287 20.4402 25.4465ZM13.3465 26.2288C14.4984 26.4439 15.5048 26.5482 16.0951 25.8376C15.101 25.6307 13.9306 25.825 13.3465 26.2288ZM15.8295 26.5418C16.0959 26.6457 16.5078 26.6213 16.8935 26.62C16.8119 26.2089 17.2992 26.2998 17.3368 25.9941C16.5259 25.9045 16.3478 26.3732 15.8295 26.5418ZM17.7798 26.5418C18.4596 26.4765 18.945 26.5936 19.1988 26.0723C18.5541 26.0645 17.5086 25.9866 17.7798 26.5418ZM17.6028 27.324C17.6195 27.104 17.8921 27.1099 17.9575 26.9329C17.8393 26.9329 17.7211 26.9329 17.6028 26.9329C17.7181 27.1271 17.3427 27.2576 17.6028 27.324Z" fill="#030201"/>
<path fill-rule="evenodd" clip-rule="evenodd" d="M26.1147 32.8002C26.0253 32.6271 25.8095 32.9929 25.4936 32.8785C25.4936 32.7742 25.4936 32.6699 25.4936 32.5656C23.918 32.6112 23.8219 31.1629 23.9867 29.9057C24.1515 29.8949 24.283 29.8542 24.3414 29.7493C24.3794 29.4291 24.1537 29.3409 23.9867 29.2016C24.0595 27.3362 25.197 26.4104 26.2033 25.3683C26.4557 25.4726 26.1346 25.7162 26.1147 25.8378C26.5643 25.5565 27.3405 25.5636 27.3556 24.899C27.5943 24.8449 27.5271 25.0606 27.622 25.1337C27.96 25.1304 28.1547 24.7223 28.5083 24.9772C28.4233 25.544 27.6774 25.6559 27.2673 25.9942C26.8887 26.3065 26.7062 26.7139 26.2916 27.0112C25.6555 28.6208 25.8243 30.365 26.735 31.6268C26.9655 31.9459 27.4092 32.0528 27.3556 32.4873C26.9891 32.5812 26.4797 32.5489 26.6463 33.1131C26.3644 33.1252 26.2562 33.2905 25.937 33.2696C25.9385 33.0623 25.8882 32.809 26.1147 32.8002ZM24.7843 27.8717C25.1767 27.8529 25.3063 27.6019 25.4053 27.3241C25.0728 27.3959 24.866 27.5784 24.7843 27.8717ZM24.4296 28.654C24.5822 28.6583 24.6569 28.5938 24.696 28.4976C24.5434 28.4934 24.4688 28.5579 24.4296 28.654ZM24.8734 29.9057C25.132 30.0208 25.132 29.556 24.8734 29.6711C24.8734 29.7493 24.8734 29.8275 24.8734 29.9057ZM24.2527 30.3751C24.4995 30.5006 24.4976 30.0374 24.3414 30.0622C24.3133 30.1681 24.215 30.2115 24.2527 30.3751ZM25.4053 31.001C25.16 31.2982 25.7305 31.3448 25.4053 31.001V31.001ZM24.5187 31.3921C24.4455 31.6131 24.6439 31.5948 24.6074 31.7832C24.8578 31.8478 24.8371 31.6731 25.0507 31.705C25.0507 31.6007 25.0507 31.4964 25.0507 31.3921C24.8848 31.2389 24.7259 31.368 24.5187 31.3921ZM25.139 32.1744C25.4504 32.1607 25.4308 32.4388 25.671 32.4873C25.61 32.225 25.8195 32.2015 26.0256 32.1744C26.0611 31.8823 25.9551 31.7155 25.671 31.705C25.5576 31.9176 25.2169 31.9302 25.139 32.1744Z" fill="#030201"/>
<path fill-rule="evenodd" clip-rule="evenodd" d="M45.5327 38.9804C44.7602 38.899 43.9622 39.4716 43.0501 39.528C42.9688 39.1955 43.2625 39.1939 43.5821 39.2151C43.4276 37.9953 43.5211 36.5569 43.3157 35.3818C44.5094 35.7143 44.3113 37.4432 44.1137 38.5893C44.6413 38.5593 44.9195 38.3093 44.9117 37.807C45.529 37.3346 46.9665 37.5859 47.0397 36.6335C47.2994 36.6651 47.3992 36.8379 47.5717 36.9464C47.7475 36.8405 47.9167 36.7291 47.8377 36.3988C48.2075 36.6567 48.5053 36.6364 48.9903 36.4771C49.1126 36.376 49.0779 36.1375 49.079 35.9294C49.3945 36.0416 49.7222 36.2933 50.143 36.086C50.2088 35.7994 49.9247 35.6514 50.143 35.4601C50.5014 35.4047 50.6491 35.535 50.5863 35.8512C50.7452 35.861 50.7733 35.7554 50.941 35.773C51.2347 35.7456 51.0799 35.3222 51.118 35.0689C51.2953 35.0689 51.4726 35.0689 51.65 35.0689C51.5539 35.4952 51.988 35.5005 51.7386 35.8512C52.4273 35.9376 51.9825 35.0233 52.3593 34.8343C52.7406 34.8105 52.5459 35.2955 52.714 35.4601C53.7325 35.611 52.9563 34.6516 53.4233 34.3648C53.8245 34.376 53.7798 34.7801 53.778 35.1472C54.1071 35.1768 54.3827 35.1592 54.3986 34.9125C54.389 34.6354 54.1057 35.0787 54.1326 34.8343C54.133 34.5477 54.5475 34.6265 54.3986 34.2084C55.4556 34.374 56.3072 33.7807 57.1473 33.5044C57.2123 33.5773 57.3087 33.6229 57.4133 33.6608C57.5149 33.9068 57.274 33.8508 57.2363 33.9737C57.3024 34.1504 57.7336 34.0043 57.9456 34.0519C58.2889 33.7113 57.775 33.0786 58.4773 33.1131C58.6642 33.2872 58.3838 33.4903 58.4773 33.8173C58.8423 33.8785 58.9321 33.6973 59.2753 33.739C59.3832 33.2986 59.0407 32.9476 59.2753 32.6438C59.733 32.6835 59.651 33.1993 59.8073 33.5044C60.1682 33.323 59.7075 32.8993 59.9842 32.6438C60.3799 32.66 60.1963 33.1868 60.5162 33.2696C60.7316 33.1729 60.9862 33.1109 60.9592 32.8002C61.097 32.4704 60.4671 32.8175 60.6049 32.4873C60.6016 32.25 60.916 32.2924 61.1365 32.2527C61.1343 32.4368 61.2891 32.4831 61.2252 32.722C61.5252 32.752 61.3645 32.3758 61.7568 32.4873C61.6574 31.9492 61.3427 31.601 60.9588 31.3139C59.3366 31.2109 58.0602 32.0323 56.7028 32.3309C56.5565 32.3631 56.3227 32.2917 56.1712 32.3309C55.4094 32.5277 54.3388 33.0062 53.5112 33.2696C52.8015 33.4952 51.9725 33.5949 51.3829 33.9737C50.6288 33.9502 49.9786 34.3734 49.4326 34.5995C48.8703 34.8323 48.2027 34.8743 47.6589 35.0689C47.4032 35.1605 47.2041 35.2414 46.7726 35.3818C46.3152 35.5305 45.72 36.0543 45.2653 35.6947C45.3694 35.3959 45.7836 35.3698 46.1519 35.3036C46.3182 35.1543 46.0991 35.1621 46.1519 34.9125C46.5919 34.9105 46.6126 35.1823 46.9495 34.9125C46.8428 34.7984 46.562 34.8375 46.6835 34.5213C46.3141 34.7863 46.0658 34.7015 45.5309 34.756C45.2416 34.3075 45.1988 33.6412 44.8216 33.2696C44.7307 32.3589 44.1743 31.8589 43.9353 31.0792C44.8522 31.0759 45.1138 31.9342 45.5309 32.6438C45.8874 33.2498 46.2605 33.5151 45.9742 34.443C47.4834 33.7899 49.0653 33.0059 50.6735 32.3309C50.9355 32.221 51.1183 32.0658 51.3829 31.9397C52.4047 31.453 53.6549 31.024 54.7522 30.5315C55.2975 30.2871 55.8882 30.0468 56.4372 29.8275C57.0527 29.5814 57.6844 29.2352 58.1219 29.1234C59.2612 28.832 59.88 29.4282 60.0725 30.3751C60.4863 30.3751 60.9001 30.3751 61.3139 30.3751C62.2681 31.0482 62.8197 31.8253 62.8212 33.1914C62.772 33.3648 62.9904 33.3029 62.9982 33.426C62.8666 33.988 62.5722 34.4063 62.4662 34.9907C61.4879 35.4783 60.357 35.4783 59.2742 35.6947C58.8526 35.7792 58.0258 36.0742 57.4122 36.2424C56.7919 36.4122 56.1974 36.5611 55.5502 36.7117C54.9635 36.8483 54.4345 37.096 53.8655 37.2594C52.476 37.658 50.8065 37.836 49.6092 38.4328C49.1304 38.4797 48.6878 38.5586 48.4565 38.824C47.0995 39.0423 45.8009 39.3051 44.4665 39.7627C44.0173 39.917 43.4941 40.4085 43.0479 39.841C43.0549 39.5864 43.4498 39.6741 43.6685 39.6062C44.1868 39.3055 44.8622 39.1453 45.5327 38.9804ZM58.3007 29.6711C54.9982 31.0078 51.7394 32.3834 48.5474 33.8173C48.9793 33.7491 49.1355 33.9241 49.434 33.9737C49.7108 33.5287 50.2609 33.8104 50.764 33.5826C50.7544 33.0197 51.5728 33.4538 51.3847 32.8785C51.7083 32.9163 52.1003 33.1878 52.4491 32.9567C52.5799 32.5805 51.9392 32.8846 52.0057 32.5656C52.0807 32.4492 52.291 32.4524 52.4491 32.4091C52.7321 32.4202 52.7121 32.6982 52.9807 32.722C53.1388 32.6786 53.349 32.6816 53.424 32.5656C53.2582 32.4772 52.997 32.473 53.0694 32.1743C53.4868 32.0284 53.8256 32.6519 53.956 32.2527C53.8596 32.0766 53.3982 32.2229 53.5127 31.8615C54.096 31.9107 54.2383 31.945 54.5767 31.705C54.7644 31.8412 55.0459 32.1727 55.3747 31.9397C55.3614 31.6124 54.7961 31.7722 54.9314 31.3139C55.32 31.3618 55.8058 31.3243 55.7294 31.7832C56.0002 31.8396 56.0522 31.7031 56.261 31.705C56.2348 31.4413 55.8683 31.4781 55.8177 31.2357C55.9857 31.0967 56.4036 31.1785 56.7043 31.1574C56.8458 31.2151 56.684 31.5404 56.9703 31.4703C57.0837 31.4658 57.0933 31.3699 57.2367 31.3921C57.2415 31.0488 56.943 30.9729 56.882 30.688C57.4088 30.614 57.5333 30.8956 57.6796 31.1574C58.1282 31.2138 58.3506 31.071 58.5663 30.9227C58.5172 30.7835 58.5209 30.5978 58.3893 30.5315C58.3192 30.7825 58.3155 31.0922 57.8573 31.001C57.9545 30.6548 57.7074 30.612 57.68 30.3751C57.9903 30.2653 58.2475 30.5945 58.3897 30.3751C58.1525 30.2831 57.9083 29.9693 58.2124 29.8275C58.4252 29.8787 58.7411 30.2418 59.0104 29.984C58.8042 29.8523 58.6324 29.6912 58.3007 29.6711ZM54.5767 32.1743C54.4877 32.1747 54.471 32.1112 54.3994 32.0961C54.157 32.2223 54.529 32.3586 54.5767 32.1743ZM61.4927 33.739C61.8987 33.7553 61.963 33.0623 61.7587 32.8002C61.5038 32.917 61.2204 33.4173 61.4927 33.739ZM60.1627 33.9737C60.1926 34.2162 59.9573 34.3473 60.1627 34.5213C59.6787 35.0422 58.8519 34.7765 58.4776 35.3818C59.1548 35.171 60.0223 35.1276 60.6943 34.9125C60.8576 34.4832 60.9378 33.9799 61.049 33.5044C60.995 33.4594 60.6282 33.3211 60.606 33.5044C61.0279 33.6667 60.4113 33.9209 60.1627 33.9737ZM47.5721 34.2084C47.9537 34.1063 47.9204 34.37 48.0154 34.5213C48.3992 34.547 48.6024 34.4134 48.7247 34.2084C48.4377 34.2009 48.3793 33.9913 48.2814 33.8173C48.1462 34.0366 47.7269 34.0059 47.5721 34.2084ZM56.084 34.5213C56.3929 34.4288 56.8927 34.505 56.7934 34.0519C56.5004 34.1585 56.0312 34.1096 56.084 34.5213ZM61.3153 34.5213C61.3379 34.3587 61.7047 34.5001 61.7583 34.3648C61.7417 34.1449 61.6042 34.0317 61.3153 34.0519C61.2459 34.1063 61.1177 34.4884 61.3153 34.5213ZM59.276 34.6777C59.2919 34.4571 59.6975 34.5803 59.6307 34.2866C59.4164 34.2863 59.064 34.5604 59.276 34.6777ZM47.2174 34.443C46.7674 34.2299 46.8875 34.7162 47.2174 34.443V34.443ZM57.8573 34.3648C57.7284 34.4076 57.3992 34.2736 57.414 34.443C57.5426 34.4004 57.8721 34.5347 57.8573 34.3648ZM54.8427 34.8343C55.2417 34.7951 55.6695 34.7815 55.7294 34.443C55.409 34.5517 54.9055 34.4984 54.8427 34.8343ZM47.3947 34.8343C47.4187 34.6728 47.7874 34.8157 47.7494 34.5995C47.5935 34.6445 47.2285 34.505 47.2178 34.6777C47.3345 34.6788 47.2983 34.815 47.3947 34.8343ZM54.9314 35.3036C55.0466 35.0927 55.5856 35.2554 55.6407 34.9907C55.3562 35.0047 54.767 35.1533 54.9314 35.3036ZM53.7787 35.6947C53.9571 35.5396 54.4618 35.6716 54.3994 35.3036C54.1633 35.36 53.5219 35.463 53.7787 35.6947ZM55.6407 36.1642C56.5894 35.9842 57.4336 35.712 58.212 35.3818C57.2452 35.5663 56.2303 35.5184 55.6407 36.1642ZM54.9314 35.9294C55.115 35.8046 55.3887 35.7596 55.463 35.5383C55.2339 35.3117 54.7958 35.8473 54.9314 35.9294ZM52.5374 36.1642C52.6401 36.2296 52.7753 36.2672 52.9807 36.2424C52.9098 35.919 53.3029 36.005 53.2467 35.6947C52.8846 35.7404 52.5008 35.7668 52.5374 36.1642ZM51.562 36.3988C51.753 36.5443 52.165 36.4105 52.0937 36.086C51.8144 36.0996 51.5654 36.141 51.562 36.3988ZM54.3994 36.4771C54.5538 36.3004 55.0511 36.4259 55.1087 36.1642C54.8401 36.1922 54.2508 36.3409 54.3994 36.4771ZM50.4094 36.79C50.8021 36.7978 51.0729 36.6975 51.1187 36.3988C50.6913 36.361 50.5069 36.5373 50.4094 36.79ZM52.2714 36.6335C52.3445 36.8546 52.1465 36.8363 52.1827 37.0246C52.7435 36.8936 53.3664 36.8173 53.7787 36.5553C53.2618 36.5383 52.7431 36.864 52.2714 36.6335ZM48.3701 37.0246C48.6168 36.9295 48.8969 36.8636 49.0794 36.7117C48.7502 36.7342 48.4702 36.8001 48.3701 37.0246ZM49.434 37.1029C49.7762 37.1179 49.9435 36.9788 49.9657 36.7117C49.6978 36.7619 49.4544 36.834 49.434 37.1029ZM51.3843 37.2594C51.7006 37.2518 51.9932 37.2228 52.0937 37.0246C51.8136 37.0632 52.0608 36.6364 51.7394 36.7117C51.572 36.851 51.3467 36.9393 51.3843 37.2594ZM48.1927 37.4941C48.5363 37.481 49.2031 37.3467 48.9021 37.0246C48.7402 37.247 48.3641 37.2802 48.1927 37.4941ZM49.877 37.6505C50.4559 37.6136 50.9691 37.5185 51.0297 37.0246C50.4179 37.0325 50.0259 37.234 49.877 37.6505ZM47.4834 37.4159C47.6131 37.3181 48.0542 37.2241 47.6603 37.1029C47.7058 37.2583 47.1716 37.2818 47.4834 37.4159ZM49.0794 37.9634C49.1355 37.8047 49.4939 37.9119 49.5227 37.7288C49.1806 37.6407 49.8641 37.4256 49.5227 37.3376C49.2733 37.408 48.8876 37.7633 49.0794 37.9634ZM46.2421 37.807C46.4441 37.7503 46.6954 37.7372 46.8631 37.6505C46.8679 37.5159 46.7944 37.4501 46.6858 37.4159C46.5982 37.5997 46.2417 37.5456 46.2421 37.807ZM47.6603 37.6505C47.5854 37.584 47.4073 37.7072 47.3944 37.7288C47.3109 37.8659 47.7217 37.7046 47.6603 37.6505ZM47.7494 38.2763C48.2518 38.3262 48.7879 37.9957 48.5474 37.6505C48.3316 37.9035 47.6906 37.7816 47.7494 38.2763ZM45.2667 38.1981C45.5774 38.2428 45.8449 37.8504 45.5327 37.807C45.4529 37.9455 45.3185 38.0355 45.2667 38.1981ZM45.9761 38.3545C46.3004 38.3539 46.4512 38.2001 46.5967 38.0417C46.3806 38.1382 46.0211 38.1079 45.9761 38.3545ZM45.6214 38.9022C46.2627 38.7118 47.152 38.7398 47.3947 38.1981C47.3748 38.1375 47.3921 38.0439 47.3064 38.0417C46.9713 38.529 46.1031 38.545 45.6214 38.9022ZM43.8481 39.1369C43.9282 38.973 44.3483 39.1092 44.3797 38.9022C44.0756 38.8224 43.6486 39.031 43.8481 39.1369Z" fill="#0C0703"/>
<path fill-rule="evenodd" clip-rule="evenodd" d="M26.3807 62.0582C26.6604 62.9269 25.0404 62.9371 24.2528 62.6841C24.0355 62.3017 23.6461 62.0716 23.6321 61.5106C23.1688 61.7277 22.6043 61.8555 22.2131 62.1364C21.1941 62.1502 21.022 62.911 20.1737 63.0752C19.7038 61.7782 22.0527 61.672 22.922 61.0412C22.4953 60.4532 22.7979 59.2214 22.3014 58.6944C19.8604 59.0698 18.0047 59.9626 17.3364 61.9018C17.6109 61.4402 17.881 60.9741 18.7551 61.0412C18.567 61.5442 18.2179 62.0524 18.134 62.7623C18.0627 63.3709 18.3239 64.0613 17.9571 64.5616C17.898 64.5616 17.8389 64.5616 17.7797 64.5616C17.3601 64.3842 17.4779 63.733 17.0704 63.5446C17.0704 63.3884 17.0704 63.2317 17.0704 63.0755C16.7409 62.9748 16.5425 62.7591 16.3611 62.528C16.2687 61.8724 16.5192 61.5197 16.5384 60.963C17.0431 60.4868 17.2356 59.8424 17.7794 59.4766C17.9364 59.3713 18.2766 59.2821 18.4887 59.1637C19.1844 58.7752 20.4154 58.3765 21.592 58.2249C22.0154 58.1705 22.2345 58.1611 22.5674 58.0685C22.6959 58.033 23.2364 58.1969 23.0994 57.8338C22.8799 57.6709 22.6557 58.1689 22.124 57.9899C21.1842 57.5675 19.8627 57.4817 18.666 57.2861C17.8374 56.3601 18.529 54.8783 19.198 54.1566C19.0831 53.9973 18.768 54.0142 18.843 53.6876C17.4158 54.9836 16.1808 56.4498 14.587 57.5991C11.9473 57.8782 13.3941 54.2707 12.459 52.9053C12.0944 52.3727 10.9111 52.0186 10.863 51.4189C10.781 50.3967 12.7919 49.6186 13.6117 49.2281C13.8965 49.82 13.0959 50.0036 12.725 50.2451C12.2647 50.5454 11.9038 50.7869 11.661 51.1839C11.9034 51.5174 12.3984 51.6285 12.725 51.8879C12.9393 51.6429 12.084 51.6745 12.1044 51.3404C12.2595 50.9394 12.8547 51.3729 13.257 51.2622C13.8681 51.4398 14.5298 52.5259 14.9417 51.7315C14.7481 51.224 14.1551 51.0695 13.8777 50.6363C13.9978 50.2278 14.3945 50.9026 14.6757 50.6363C14.7377 50.3292 14.3768 50.4238 14.2324 50.2451C13.8707 49.7992 14.0454 49.0817 13.6117 48.6806C13.983 48.1502 13.7107 47.6551 14.0546 47.1159C14.4193 46.5455 15.7094 46.2227 16.5377 46.2551C16.8827 46.2687 17.6985 46.2404 17.513 46.803C16.1834 46.8033 15.6809 47.5332 15.0303 48.1329C14.938 49.101 15.1238 49.8236 15.385 50.4795C15.4098 50.6842 15.3525 50.8162 15.119 50.7927C15.2923 51.1354 15.6909 51.2787 15.9166 51.5747C16.1143 51.5799 15.3736 51.1197 16.0053 51.1836C15.7131 50.6333 15.344 50.1506 15.296 49.3842C16.3393 49.3765 16.2643 50.3553 16.626 50.9488C16.9289 51.0076 16.739 50.6311 17.0693 50.7142C16.7261 50.398 16.0496 49.5877 16.8033 49.2275C17.2758 49.4103 17.3652 49.9313 17.6013 50.3227C17.7325 50.2321 17.8244 50.2321 17.956 50.3227C17.857 50.1229 18.0106 49.827 17.956 49.5404C17.8182 48.8203 16.9607 47.9243 17.69 47.2718C17.878 47.1593 17.8758 47.3471 18.0446 47.4282C18.6579 47.7232 18.7806 48.0331 19.3746 47.5064C19.3 47.129 18.9379 47.0048 19.02 46.4894C19.5453 46.4692 19.4633 46.9849 19.7293 47.1935C20.1578 47.0132 20.221 46.7362 19.9953 46.3327C20.4745 46.2387 20.4652 46.5748 20.7933 46.4109C21.0626 46.3144 20.6972 46.1419 20.7933 45.9414C21.0763 45.8747 21.1299 46.0096 21.2366 46.098C21.7066 45.9529 21.4417 45.5748 21.5913 45.2374C21.8946 45.2042 21.858 45.4718 22.0346 45.5503C22.3686 45.1931 22.7391 44.8681 23.2756 44.6894C23.2963 45.0985 22.7425 45.0015 22.7439 45.3935C22.7011 45.64 23.1507 45.4522 23.1873 45.6282C22.809 45.9317 23.2183 46.1553 22.6553 46.4106C22.2164 46.3835 22.7292 46.2052 22.6553 46.0194C22.4222 45.9963 22.5858 46.3231 22.3006 46.2541C22.4554 46.5612 22.5045 46.7867 22.1237 46.9581C21.7483 46.8979 22.0808 46.2137 21.769 46.0977C21.6123 46.1683 21.4945 46.2726 21.4143 46.4106C21.5857 46.7026 21.6323 47.1048 21.5913 47.584C22.2422 47.4804 22.3154 46.8672 22.9213 46.7235C22.9904 46.7932 23.017 46.9001 23.0099 47.0363C22.8999 47.3043 22.3889 47.2189 22.4783 47.6622C22.3305 47.6622 22.1824 47.6622 22.035 47.6622C21.8285 47.8454 21.9123 48.2841 21.6803 48.4445C21.4136 48.5231 21.5229 48.2702 21.503 48.1316C21.2732 48.3458 21.295 48.7823 21.1483 49.0704C20.6747 48.8885 20.9751 48.0237 20.6167 47.7405C20.432 47.7864 20.33 47.9047 20.1734 47.9751C20.2517 48.1669 20.4394 48.2623 20.3503 48.601C20.4205 48.9677 20.6725 48.7669 20.7937 48.9922C20.8099 49.3452 20.7072 49.5938 20.439 49.6962C20.0478 49.8067 20.4375 49.2278 20.173 49.2268C19.8361 49.2168 19.7544 49.4315 19.7297 49.6962C19.9118 49.9749 19.8047 49.3543 20.0843 49.4615C20.2166 49.6751 20.0773 50.2053 19.9957 50.4782C19.4408 50.1167 19.4603 50.7859 19.2863 51.1823C18.9583 51.2371 18.8947 51.0588 18.9317 50.7914C18.6819 51.0401 18.7163 51.5399 18.577 51.8863C18.355 51.8997 18.2996 51.7663 18.2223 51.6517C17.9523 52.2996 17.1273 52.4588 17.0697 53.2945C16.8281 53.3516 16.8916 53.139 16.715 53.138C16.6153 53.3121 16.6031 53.7987 16.2717 53.5291C15.9798 53.6107 16.2595 54.1961 15.74 54.0768C15.8372 53.6886 16.0881 53.2648 16.006 52.8251C15.9647 52.6034 15.637 52.4089 15.6514 52.1992C15.3621 52.5793 15.9661 53.1993 15.74 53.5291C15.2553 53.3313 15.3551 52.6168 15.2081 52.121C14.9251 52.0542 14.9339 52.2442 14.7651 52.2774C14.652 52.7077 15.1161 53.052 15.2081 53.5291C15.3861 54.4523 15.0721 55.3311 14.5874 55.8761C14.3166 55.8194 14.2641 55.9559 14.0554 55.9543C14.6624 54.4536 14.2486 52.4538 12.9914 51.8863C13.2086 52.387 13.7425 52.7492 13.8781 53.5291C14.0665 54.613 13.4089 56.2412 14.3214 56.8931C15.3015 56.3839 16.0515 55.5638 16.804 54.7808C16.9651 54.6133 17.203 54.4725 17.336 54.3118C17.4979 54.1159 17.5197 53.8815 17.6907 53.686C17.8976 53.4486 18.2729 53.2987 18.4883 53.0601C18.7517 52.7684 18.9439 52.3514 19.198 52.0431C19.8926 51.1982 20.8945 50.2842 21.4147 49.2265C22.4107 48.5671 22.6265 47.2189 23.8083 46.7231C24.3514 46.7137 24.2531 47.2694 24.961 47.1142C25.1006 47.8621 24.1922 47.9073 23.8083 47.5834C23.5578 47.7141 23.2955 47.832 23.099 48.0527C22.8936 48.2828 22.8189 48.717 22.567 49.0697C22.2906 49.4566 21.8765 49.7937 21.5917 50.1646C21.4509 50.3481 21.3135 50.5943 21.1483 50.7908C20.8487 51.1467 20.4634 51.2309 20.7937 51.4946C21.1435 51.595 21.0083 51.2667 21.237 51.2599C22.4174 51.5483 23.3088 52.0917 24.2516 52.5898C24.2753 50.7856 25.7497 50.2604 26.291 48.913C25.9611 48.4572 25.8125 47.055 26.3796 46.7225C26.4838 47.4647 26.6999 48.1088 27.089 48.6001C27.4318 48.042 27.57 47.303 27.9756 46.8007C27.8877 46.5393 27.4344 46.6002 27.5323 46.1749C26.1853 45.919 25.2558 46.5843 23.9856 46.6439C23.4924 46.2987 23.5057 45.1035 24.0739 44.8447C23.7584 44.6011 23.2154 44.5591 23.0099 44.2188C22.697 44.7511 22.1706 44.8078 21.5026 45.1576C21.0973 45.3697 20.4216 45.8248 19.907 46.018C19.5139 46.1654 18.9136 46.1155 18.7543 46.5657C18.4662 46.4757 18.2087 46.8046 18.045 46.5657C18.1034 46.3552 18.5899 46.0021 18.8426 45.8619C20.0119 45.2133 21.3053 44.6536 22.3897 43.9062C22.2319 43.7585 21.8048 43.8485 21.8577 43.5151C21.4132 43.5828 21.0992 43.6398 21.1483 43.1239C23.007 43.0568 23.8168 44.1017 25.493 43.9062C26.2607 43.8165 27.1839 43.3514 27.7983 42.9674C28.5309 42.5098 28.7958 42.2441 29.3056 41.5593C29.4689 41.3396 29.5816 40.6802 30.1923 41.0117C29.5099 42.6783 28.1589 43.7553 26.3796 44.4538C26.9512 44.7322 27.2881 45.2169 27.7983 45.549C28.0133 45.4776 28.0333 45.2345 28.0647 45.0011C28.4131 44.8394 28.7666 44.682 29.04 44.4535C30.6057 44.402 31.1262 45.2726 31.2567 46.4875C31.8363 45.5351 32.5183 44.8573 33.6503 44.2188C34.7084 43.6217 36.6956 43.6897 38.35 43.28C38.5291 43.1151 39.0094 42.9214 39.3253 43.1235C39.1062 43.5767 38.4094 43.8384 37.7293 44.0623C36.5386 44.4544 34.674 44.564 33.7393 45.2361C33.5217 45.3922 33.3396 45.7306 33.1186 45.9398C32.4762 46.5494 31.9948 47.037 31.6113 48.0521C30.8033 48.1127 30.6279 47.6159 30.4587 47.1133C30.0061 46.6257 29.3067 46.3565 28.5967 46.0964C28.2915 46.1139 28.3118 46.4187 28.1533 46.5654C28.1633 46.7134 28.4467 46.6198 28.4197 46.8004C27.7998 48.4768 27.198 50.6369 27.0007 52.6677C26.9501 53.1905 27.0402 53.6593 26.8237 54.0755C26.7698 54.1791 26.7535 54.4823 26.469 54.3884C26.2119 54.215 26.2252 53.7831 26.203 53.5278C26.0708 52.0099 26.6737 50.5711 26.9124 49.3817C26.3287 50.2435 25.299 50.9098 25.2273 52.1979C25.1789 53.0729 25.749 54.0925 25.1387 54.9361C24.5261 54.9813 24.6314 54.3926 24.518 53.9973C24.2764 54.3839 24.5989 55.2678 24.252 55.5619C23.8737 55.5306 24.1674 54.906 24.0747 54.6231C23.7337 54.6609 24.0241 55.2564 23.6317 55.249C23.317 55.0703 23.5807 54.6534 23.5431 54.3102C23.4862 53.7965 23.2375 53.2088 23.0111 52.902C22.9671 53.2841 23.2711 54.8891 22.6564 55.249C22.3605 55.174 22.6335 54.7115 22.6564 54.3881C22.6808 54.0494 22.6375 53.7382 22.6564 53.4493C22.339 54.447 22.3139 55.703 21.4154 56.1873C21.3859 56.5006 21.1738 56.6526 21.0604 56.8914C21.2082 56.8914 21.3563 56.8914 21.5037 56.8914C21.8425 56.6166 21.7509 55.9618 22.3904 55.9527C22.322 56.3357 22.1041 56.5863 22.0357 56.9697C22.4332 57.0838 22.3328 56.0856 22.922 56.1088C22.8171 56.4856 22.6871 56.8403 22.4791 57.1258C22.6675 57.2464 22.8093 57.4081 23.0107 57.517C23.3262 57.1809 22.8965 57.0108 22.922 56.7347C23.062 55.2137 27.6949 55.3849 29.6607 55.3269C29.7338 56.0127 28.3403 56.1587 27.5327 56.1873C26.7938 56.2135 26.1443 56.0834 25.493 56.2657C24.8051 56.4582 24.4201 56.8905 23.8083 57.0476C24.7508 58.5904 23.3033 62.2355 26.3807 62.0582ZM24.3414 45.7081C25.0138 45.7182 25.9045 45.2693 26.735 45.1605C25.9954 44.5702 24.4393 44.7185 24.3414 45.7081ZM22.1248 46.0993C22.4015 46.0308 22.5877 45.8818 22.5677 45.5516C22.2725 45.6041 22.0867 45.7527 22.1248 46.0993ZM20.9721 47.1944C21.0508 47.0553 21.2196 46.9957 21.1491 46.7251C20.8358 46.6781 20.6359 47.1303 20.9721 47.1944ZM19.9964 47.7421C20.2336 47.6791 20.753 47.3389 20.3511 47.1944C20.1841 47.3337 19.9587 47.422 19.9964 47.7421ZM21.2381 48.1332C21.3556 47.9722 21.4062 47.348 21.2381 47.1944C20.9909 47.361 20.9163 47.8937 21.2381 48.1332ZM18.5781 48.4462C18.6527 48.0645 18.1728 47.7646 18.0465 47.8203C18.2711 47.9869 18.1418 48.466 18.5781 48.4462ZM19.1101 48.5244C19.3236 48.3738 19.6495 48.3227 19.6417 47.9768C19.2656 47.9836 19.0831 48.1612 19.1101 48.5244ZM19.3761 48.9156C19.5013 48.8249 19.9609 48.3468 19.7308 48.4465C19.6395 48.5798 19.1212 48.736 19.3761 48.9156ZM18.6668 48.9938C18.7048 48.8445 18.9202 48.8519 18.8437 48.6027C18.5803 48.5097 18.4632 48.9325 18.6668 48.9938ZM19.5534 49.3849C19.6044 49.1653 20.1996 49.0215 19.9081 48.7591C19.9037 49.0199 19.2305 49.0952 19.5534 49.3849ZM18.8437 49.4631C18.87 49.3706 19.201 49.1675 18.9324 49.072C18.9065 49.1646 18.5755 49.3677 18.8437 49.4631ZM18.9328 49.7761C19.157 49.8582 19.3259 49.512 19.1101 49.4631C19.1748 49.6767 18.9339 49.6205 18.9328 49.7761ZM19.1101 50.3237C19.1315 50.1862 19.2627 50.1454 19.4648 50.1672C19.4777 49.9733 19.4814 49.7878 19.2874 49.7764C19.2882 49.9655 18.7761 50.0988 19.1101 50.3237ZM18.3121 50.4801C18.3775 50.3031 18.6502 50.3093 18.6668 50.0893C18.4525 50.0887 18.1001 50.3628 18.3121 50.4801ZM18.4891 51.0278C18.3679 50.7067 18.8807 50.5457 18.6664 50.4019C18.5648 50.5258 18.2035 50.8207 18.4891 51.0278ZM16.8048 51.3407C17.0634 51.4557 17.0634 50.9909 16.8048 51.106C16.8048 51.1843 16.8048 51.2625 16.8048 51.3407ZM17.6914 51.8883C17.6135 51.6057 18.0376 51.3661 17.7797 51.1843C17.6131 51.2934 17.3009 51.7641 17.6914 51.8883ZM15.4748 51.5754C15.2938 51.5525 15.3008 51.3639 15.1201 51.3407C15.0828 51.5135 15.3858 51.772 15.4748 51.5754ZM17.0708 52.4359C17.1306 52.1282 17.4428 51.6223 16.9825 51.4971C16.6973 51.7543 16.8731 52.1836 17.0708 52.4359ZM16.1841 52.0447C16.1893 51.9971 16.1971 51.9522 16.2724 51.9665C16.2628 51.8711 16.2462 51.7814 16.0955 51.81C16.1091 51.9023 16.0803 52.0321 16.1841 52.0447ZM22.1248 53.2964C22.1695 52.7351 22.0653 52.3056 21.8584 51.9665C21.9356 52.4203 21.9005 52.9731 22.1248 53.2964ZM16.2724 52.9835C16.6725 52.9715 16.5388 52.4881 16.6271 52.2013C16.5137 52.1969 16.5044 52.1009 16.3611 52.1229C16.0851 52.2922 16.207 52.6921 16.2724 52.9835ZM20.2628 54.2352C20.4996 54.2349 20.4553 54.4826 20.7057 54.4699C20.6699 54.2251 20.5406 54.0938 20.5288 53.8441C20.5014 53.272 21.1236 52.5458 20.6174 52.1229C20.821 52.887 20.4124 53.5487 20.2628 54.2352ZM19.8194 53.8441C20.0928 53.7251 20.2081 52.7038 20.0854 52.7492C20.0282 53.1419 19.8505 53.4285 19.8194 53.8441ZM21.4154 55.6433C21.2111 56.0462 20.664 56.574 20.4397 56.8168C21.2887 56.705 21.1047 55.6825 21.7701 55.4087C21.8211 54.8538 22.2031 54.5915 22.1248 53.9223C21.6268 54.351 21.7018 55.0778 21.4154 55.6433Z" fill="#030201"/>
</g>
<g filter="url(#filter0_d)">
<path d="M76.898 62.9619C75.1429 62.9619 73.6686 62.5519 72.4752 61.7318C71.3051 60.8875 70.4275 59.7659 69.8425 58.3668C69.2809 56.9678 69 55.3998 69 53.6631C69 51.2509 69.55 48.875 70.6498 46.5351C71.7497 44.1712 73.3293 42.2295 75.3887 40.7098C77.4714 39.1901 79.9052 38.4303 82.6899 38.4303C84.445 38.4303 85.9077 38.8524 87.0777 39.6967C88.2712 40.5168 89.1488 41.6264 89.7104 43.0254C90.2955 44.4245 90.5879 45.9924 90.5879 47.7291C90.5879 50.1413 90.038 52.5294 88.9382 54.8933C87.8383 57.2331 86.2469 59.1628 84.1642 60.6825C82.1049 62.2021 79.6828 62.9619 76.898 62.9619ZM77.0034 61.8403C79.0159 61.8403 80.8295 61.0684 82.4442 59.5246C84.0823 57.9568 85.346 55.9667 86.2353 53.5545C87.1479 51.1424 87.6042 48.7423 87.6042 46.3542C87.6042 44.4486 87.1831 42.8204 86.3406 41.4696C85.4981 40.1188 84.2462 39.4434 82.5846 39.4434C80.6423 39.4434 78.8638 40.2394 77.249 41.8314C75.6344 43.3994 74.3473 45.4014 73.3878 47.8377C72.4518 50.274 71.9837 52.6741 71.9837 55.038C71.9837 56.9195 72.405 58.5236 73.2474 59.8502C74.0898 61.177 75.3419 61.8403 77.0034 61.8403ZM89.1957 62.6363C88.634 62.6363 88.3532 62.5036 88.3532 62.2383C88.3532 61.9489 88.7744 61.7318 89.6169 61.587C90.5998 61.3941 91.4188 61.0925 92.0741 60.6825C92.7294 60.2724 93.1736 59.6693 93.4079 58.8734L98.2522 42.5189C98.369 42.1571 98.4278 41.7952 98.4278 41.4334C98.4278 40.9993 98.2872 40.6615 98.0066 40.4203C97.7254 40.1791 97.2812 39.9982 96.6726 39.8776C96.0871 39.757 95.7947 39.5158 95.7947 39.154C95.7947 38.8886 96.1578 38.7559 96.8832 38.7559L97.901 38.7921C98.2284 38.7921 98.9657 38.8162 100.112 38.8644C101.259 38.9127 102.406 38.9368 103.553 38.9368C104.933 38.9368 106.466 38.8524 108.151 38.6835C109.227 38.5871 109.976 38.5388 110.397 38.5388C110.514 38.5388 110.585 38.563 110.608 38.6112C110.655 38.6595 110.679 38.7559 110.679 38.9006C110.679 38.9971 110.596 39.3469 110.432 39.9499C110.058 41.2284 109.824 42.1691 109.731 42.7722C109.707 42.8928 109.625 43.0254 109.485 43.1702C109.345 43.3149 109.227 43.3872 109.134 43.3872C109.017 43.3872 108.923 43.2908 108.853 43.0978C108.783 42.9049 108.748 42.724 108.748 42.5551C108.748 41.759 108.584 41.1319 108.256 40.6736C107.929 40.1912 107.402 39.9499 106.677 39.9499H102.394C102.043 39.9499 101.751 40.0223 101.517 40.167C101.306 40.2877 101.142 40.5771 101.025 41.0354L99.1651 47.9462C99.0944 48.1875 99.0594 48.4045 99.0594 48.5976C99.0594 48.9352 99.2 49.0921 99.4805 49.0679C99.8548 49.0197 100.112 48.9955 100.253 48.9955C100.955 48.899 101.505 48.8508 101.903 48.8508C102.956 48.8508 103.951 49.1041 104.887 49.6107C105.846 50.1172 106.618 50.8288 107.203 51.7454C107.812 52.662 108.116 53.7113 108.116 54.8933C108.116 56.5577 107.683 57.9688 106.817 59.1266C105.974 60.2845 104.828 61.1528 103.377 61.7318C101.926 62.2865 100.3 62.5639 98.4977 62.5639L96.2865 62.5278C95.3505 62.4796 94.6013 62.4554 94.0396 62.4554C93.1274 62.4554 92.2845 62.4916 91.5124 62.5639C90.5295 62.6122 89.7573 62.6363 89.1957 62.6363ZM98.9188 61.5508C100.136 61.5508 101.213 61.2735 102.149 60.7187C103.085 60.1397 103.81 59.3557 104.325 58.3668C104.84 57.3778 105.097 56.2682 105.097 55.038C105.097 53.3736 104.688 52.1072 103.869 51.2389C103.073 50.3705 101.973 49.9363 100.569 49.9363C99.235 49.9363 98.4278 50.4428 98.1466 51.456L97.6205 53.2651C96.9182 55.6049 96.4152 57.3657 96.1109 58.5477C96.0172 58.8372 95.9703 59.1508 95.9703 59.4884C95.9703 60.188 96.2396 60.7066 96.7776 61.0443C97.3162 61.382 98.0297 61.5508 98.9188 61.5508ZM137.214 69.8366C137.049 69.8366 136.91 69.7522 136.792 69.5834C136.699 69.4386 136.652 69.2456 136.652 69.0044C136.652 68.6185 136.769 67.919 137.003 66.9058C137.307 65.6515 137.459 64.6746 137.459 63.9751C137.459 63.372 137.331 62.9619 137.073 62.7448C136.816 62.5519 136.371 62.4554 135.739 62.4554H124.156H112.15L110.571 62.4916C109.869 62.5398 109.202 62.5639 108.57 62.5639C108.009 62.5639 107.727 62.4313 107.727 62.166C107.727 61.8282 108.16 61.587 109.026 61.4423C109.915 61.2735 110.594 61.0081 111.062 60.6463C111.53 60.2603 111.881 59.6573 112.115 58.8372L116.96 42.4827C117.053 42.1691 117.1 41.8556 117.1 41.542C117.1 41.0595 116.936 40.6857 116.609 40.4203C116.304 40.155 115.824 39.9499 115.169 39.8052C114.841 39.7329 114.608 39.6484 114.467 39.552C114.35 39.4554 114.292 39.3228 114.292 39.154C114.292 38.8886 114.643 38.7559 115.344 38.7559C116.164 38.7559 116.854 38.7921 117.416 38.8644C118.118 38.9127 118.691 38.9368 119.136 38.9368C119.651 38.9368 120.329 38.9127 121.172 38.8644C121.803 38.7921 122.529 38.7559 123.348 38.7559C123.909 38.7559 124.191 38.8886 124.191 39.154C124.191 39.4434 123.77 39.6605 122.927 39.8052C122.014 39.9741 121.277 40.2635 120.715 40.6736C120.177 41.0836 119.791 41.6867 119.557 42.4827L114.643 59.2714C114.502 59.7297 114.432 60.1036 114.432 60.393C114.432 60.779 114.561 61.0563 114.818 61.2252C115.076 61.3699 115.497 61.4423 116.082 61.4423H120.82C121.71 61.4423 122.377 61.2975 122.822 61.0081C123.29 60.6945 123.641 60.1156 123.874 59.2714L128.789 42.4827C128.882 42.1691 128.929 41.8556 128.929 41.542C128.929 41.0595 128.766 40.6857 128.438 40.4203C128.134 40.155 127.654 39.9499 126.999 39.8052C126.671 39.7329 126.437 39.6484 126.297 39.552C126.179 39.4554 126.121 39.3228 126.121 39.154C126.121 38.8886 126.472 38.7559 127.174 38.7559C127.993 38.7559 128.684 38.7921 129.245 38.8644C129.947 38.9127 130.521 38.9368 130.965 38.9368C131.48 38.9368 132.159 38.9127 133.001 38.8644C133.633 38.7921 134.358 38.7559 135.177 38.7559C135.739 38.7559 136.02 38.8886 136.02 39.154C136.02 39.4434 135.599 39.6605 134.756 39.8052C133.843 39.9741 133.106 40.2635 132.545 40.6736C132.007 41.0836 131.62 41.6867 131.387 42.4827L126.472 59.2714C126.332 59.7297 126.261 60.1036 126.261 60.393C126.261 60.779 126.39 61.0563 126.647 61.2252C126.905 61.3699 127.326 61.4423 127.911 61.4423H132.756C133.668 61.4423 134.346 61.2855 134.791 60.9719C135.259 60.6583 135.61 60.0915 135.844 59.2714L140.759 42.4827C140.852 42.1691 140.899 41.8556 140.899 41.542C140.899 41.0595 140.735 40.6857 140.408 40.4203C140.104 40.155 139.624 39.9499 138.969 39.8052C138.641 39.7329 138.407 39.6484 138.267 39.552C138.15 39.4554 138.091 39.3228 138.091 39.154C138.091 38.8886 138.442 38.7559 139.144 38.7559C139.963 38.7559 140.653 38.7921 141.215 38.8644C141.917 38.9127 142.49 38.9368 142.935 38.9368C143.45 38.9368 144.129 38.9127 144.971 38.8644C145.603 38.7921 146.329 38.7559 147.147 38.7559C147.709 38.7559 147.99 38.8886 147.99 39.154C147.99 39.4434 147.569 39.6605 146.726 39.8052C145.814 39.9741 145.077 40.2635 144.515 40.6736C143.977 41.0836 143.591 41.6867 143.356 42.4827L138.512 58.8372C138.442 59.0784 138.407 59.3075 138.407 59.5246C138.407 60.4412 139.121 60.8996 140.548 60.8996C140.993 60.8996 141.215 61.1287 141.215 61.587C141.215 61.6594 141.063 62.0453 140.759 62.7448C140.478 63.4444 140.244 64.0112 140.057 64.4454C139.472 65.7239 138.863 67.135 138.232 68.6788C137.927 69.4507 137.588 69.8366 137.214 69.8366ZM142.725 62.6363C142.164 62.6363 141.882 62.5036 141.882 62.2383C141.882 61.9489 142.304 61.7318 143.147 61.587C144.293 61.3941 145.112 61.1046 145.603 60.7187C146.118 60.3086 146.504 59.6935 146.762 58.8734L151.571 42.5913C151.735 42.0847 151.816 41.6505 151.816 41.2887C151.816 40.8304 151.653 40.5048 151.325 40.3117C150.997 40.1188 150.424 39.962 149.605 39.8414C149.254 39.7932 149.009 39.7208 148.868 39.6243C148.751 39.5278 148.692 39.3951 148.692 39.2263C148.692 38.961 149.055 38.8283 149.781 38.8283C150.202 38.8283 150.6 38.8404 150.974 38.8644C152.191 38.9127 153.209 38.9368 154.028 38.9368H159.679C161.785 38.9368 163.096 38.8766 163.611 38.7559C164.149 38.6353 164.442 38.575 164.488 38.575C164.582 38.575 164.664 38.6353 164.734 38.7559C164.828 38.8524 164.875 38.9489 164.875 39.0454C164.875 39.1419 164.793 39.4434 164.629 39.9499C164.208 41.2043 163.939 42.2535 163.822 43.0978C163.798 43.339 163.716 43.5199 163.576 43.6406C163.459 43.737 163.342 43.7853 163.225 43.7853C163.108 43.7853 163.003 43.7008 162.909 43.532C162.839 43.3632 162.815 43.1461 162.839 42.8807C162.862 42.6878 162.874 42.4345 162.874 42.1209C162.874 41.3007 162.721 40.7339 162.418 40.4203C162.114 40.1067 161.563 39.9499 160.768 39.9499H156.485C155.947 39.9499 155.549 40.0344 155.292 40.2032C155.057 40.3479 154.883 40.6253 154.765 41.0354L152.413 48.7061C152.319 48.9714 152.273 49.2006 152.273 49.3935C152.273 49.7071 152.507 49.8518 152.975 49.8278L157.327 49.7192C157.889 49.6951 158.346 49.5745 158.696 49.3573C159.071 49.1162 159.422 48.7905 159.75 48.3805C159.82 48.284 159.925 48.1392 160.065 47.9462C160.23 47.7291 160.381 47.5603 160.522 47.4397C160.663 47.3191 160.791 47.2588 160.908 47.2588C161.119 47.2588 161.224 47.3915 161.224 47.6568C161.224 47.8257 161.166 48.0307 161.049 48.2719C160.698 48.9955 160.381 49.7313 160.101 50.479C159.844 51.2268 159.609 52.1072 159.399 53.1204C159.282 53.6269 159.129 53.8801 158.943 53.8801C158.779 53.8801 158.661 53.7716 158.591 53.5545C158.521 53.3374 158.486 53.1204 158.486 52.9033C158.486 51.5524 158.042 50.877 157.152 50.877L153.115 50.8046C152.624 50.8046 152.249 50.877 151.992 51.0218C151.735 51.1424 151.547 51.4439 151.43 51.9263L149.64 58.5115C149.43 59.2593 149.324 59.8624 149.324 60.3207C149.324 60.779 149.442 61.0925 149.675 61.2614C149.91 61.4302 150.296 61.5146 150.834 61.5146H156.275C157.257 61.5146 158.193 61.189 159.082 60.5378C159.715 60.0794 160.347 59.3196 160.978 58.2582C161.002 58.2341 161.072 58.1256 161.189 57.9326C161.306 57.7155 161.446 57.607 161.61 57.607C161.774 57.607 161.856 57.8482 161.856 58.3306C161.856 58.6442 161.692 59.199 161.364 59.995C161.06 60.791 160.768 61.4182 160.487 61.8765C160.183 62.383 159.797 62.6363 159.329 62.6363C158.908 62.6363 156.45 62.6001 151.957 62.5278C150.108 62.4554 148.435 62.4192 146.937 62.4192C146.165 62.4192 145.475 62.4554 144.867 62.5278C144.679 62.5278 144.375 62.5398 143.954 62.5639C143.556 62.6122 143.147 62.6363 142.725 62.6363ZM173.235 62.9619C171.924 62.9619 170.579 62.576 169.198 61.8042C167.817 61.0323 166.671 59.9468 165.758 58.5477C164.846 57.1487 164.389 55.5566 164.389 53.7716C164.389 50.9494 165.045 48.3684 166.355 46.0286C167.666 43.6647 169.421 41.8073 171.62 40.4565C173.82 39.0816 176.172 38.3941 178.676 38.3941C180.01 38.3941 181.309 38.6233 182.572 39.0816C182.806 39.1539 183.134 39.2745 183.555 39.4434C184 39.5881 184.339 39.6605 184.573 39.6605C184.69 39.6605 184.936 39.564 185.311 39.3711C185.381 39.3469 185.497 39.2987 185.661 39.2263C185.849 39.154 186 39.1178 186.118 39.1178C186.351 39.1178 186.468 39.2142 186.468 39.4072C186.468 39.5278 186.433 39.6243 186.363 39.6967C185.918 40.3239 185.45 41.156 184.959 42.1933C184.468 43.2063 184.152 44.0868 184.012 44.8345C183.988 45.0034 183.906 45.1723 183.766 45.3412C183.625 45.4859 183.497 45.5582 183.38 45.5582C183.192 45.5582 183.041 45.4617 182.923 45.2688C182.829 45.0758 182.806 44.8587 182.853 44.6175C182.947 44.0868 182.994 43.6647 182.994 43.3511C182.994 42.5551 182.771 41.8676 182.326 41.2887C181.905 40.7339 181.367 40.2997 180.712 39.9861C180.056 39.6725 179.343 39.5158 178.571 39.5158C176.862 39.5158 175.142 40.1791 173.41 41.5058C171.702 42.8084 170.286 44.5813 169.163 46.8246C168.04 49.0438 167.478 51.456 167.478 54.0611C167.478 55.8943 167.806 57.3899 168.461 58.5477C169.14 59.7055 169.983 60.5498 170.988 61.0805C172.018 61.587 173.083 61.8403 174.182 61.8403C175.306 61.8403 176.242 61.6594 176.991 61.2975C177.763 60.9116 178.395 60.4171 178.887 59.8141C179.378 59.211 179.905 58.4151 180.466 57.4261C180.606 57.209 180.735 57.0401 180.852 56.9195C180.969 56.7989 181.11 56.7386 181.274 56.7386C181.367 56.7386 181.425 56.7989 181.449 56.9195C181.496 57.016 181.519 57.1969 181.519 57.4623C181.519 57.7035 181.332 58.2703 180.957 59.1628C180.606 60.0312 180.22 60.8514 179.799 61.6232C179.402 62.3951 179.132 62.781 178.992 62.781C178.898 62.781 178.769 62.7208 178.606 62.6001C178.465 62.4796 178.372 62.4072 178.325 62.383C178.068 62.166 177.821 62.0574 177.588 62.0574C177.4 62.0574 176.92 62.1901 176.149 62.4554C175.212 62.7931 174.241 62.9619 173.235 62.9619ZM187.376 62.6363C186.815 62.6363 186.534 62.5036 186.534 62.2383C186.534 62.0936 186.628 61.9851 186.815 61.9127C187.025 61.8162 187.364 61.7318 187.832 61.6594C188.722 61.4906 189.448 61.177 190.009 60.7187C190.57 60.2603 190.968 59.6091 191.203 58.7648L195.485 43.2787C195.766 42.1933 195.906 41.4334 195.906 40.9993C195.906 40.4927 195.731 40.2394 195.38 40.2394H192.466C191.436 40.2394 190.606 40.4444 189.974 40.8545C189.366 41.2405 188.792 41.7712 188.254 42.4466C188.02 42.7118 187.821 42.9893 187.658 43.2787C187.213 43.9059 186.908 44.2195 186.745 44.2195C186.604 44.2195 186.499 44.1953 186.428 44.1471C186.382 44.0748 186.358 43.9421 186.358 43.7491C186.358 43.5079 186.475 43.134 186.71 42.6275C186.78 42.4586 186.99 42.0123 187.341 41.2887C187.716 40.5409 187.997 39.8052 188.184 39.0816C188.23 38.9127 188.312 38.7559 188.429 38.6112C188.57 38.4423 188.687 38.3579 188.78 38.3579C188.921 38.3579 189.131 38.5026 189.413 38.7921C189.553 38.9368 189.787 39.0454 190.114 39.1178C190.442 39.1901 191.097 39.2263 192.08 39.2263H204.611C205.571 39.2263 206.226 39.1901 206.578 39.1178C206.952 39.0213 207.221 38.9006 207.385 38.7559C207.408 38.7318 207.49 38.6595 207.63 38.5388C207.771 38.4183 207.888 38.3579 207.982 38.3579C208.215 38.3579 208.333 38.4906 208.333 38.7559C208.333 38.9971 208.215 39.3349 207.982 39.769C207.818 40.0585 207.607 40.6133 207.349 41.4334C207.116 42.2535 206.917 43.0978 206.753 43.9662C206.683 44.3039 206.554 44.4727 206.366 44.4727C206.203 44.4727 206.074 44.4004 205.98 44.2557C205.91 44.1109 205.875 43.9059 205.875 43.6406C205.875 42.4827 205.688 41.6264 205.314 41.0716C204.962 40.5168 204.366 40.2394 203.524 40.2394H200.013C199.686 40.2394 199.428 40.3117 199.241 40.4565C199.054 40.6012 198.867 40.8907 198.679 41.3249C198.516 41.759 198.305 42.4466 198.048 43.3872L193.8 58.7648C193.706 59.0784 193.659 59.4041 193.659 59.7417C193.659 60.7548 194.292 61.3941 195.555 61.6594C195.906 61.7318 196.14 61.8041 196.258 61.8765C196.374 61.9489 196.433 62.0694 196.433 62.2383C196.433 62.5036 196.082 62.6363 195.38 62.6363C194.56 62.6363 193.882 62.6001 193.344 62.5278C192.642 62.4796 192.068 62.4554 191.624 62.4554C191.085 62.4554 190.395 62.4796 189.553 62.5278C188.921 62.6001 188.195 62.6363 187.376 62.6363ZM202.613 62.6363C202.309 62.6363 202.099 62.6001 201.981 62.5278C201.841 62.4796 201.77 62.383 201.77 62.2383C201.77 62.0694 201.876 61.9368 202.087 61.8403C202.274 61.7438 202.59 61.6594 203.035 61.587C203.947 61.4182 204.673 61.1287 205.211 60.7187C205.749 60.3086 206.147 59.6935 206.404 58.8734L211.213 42.5913C211.377 41.9882 211.459 41.5781 211.459 41.3611C211.459 40.951 211.33 40.6495 211.073 40.4565C210.815 40.2635 210.394 40.1067 209.809 39.9861C209.435 39.9138 209.177 39.8414 209.037 39.769C208.92 39.6725 208.862 39.5399 208.862 39.3711C208.862 39.2263 208.967 39.1178 209.177 39.0454C209.411 38.973 209.692 38.9368 210.02 38.9368C210.558 38.9368 211.038 38.973 211.459 39.0454C211.927 39.0936 212.325 39.1178 212.652 39.1178C212.934 39.1178 213.284 39.0936 213.706 39.0454C214.127 38.9971 214.419 38.961 214.583 38.9368C215.285 38.8162 215.835 38.7559 216.233 38.7559C218.456 38.7559 220.094 39.2022 221.147 40.0947C222.2 40.9631 222.727 42.0847 222.727 43.4596C222.727 44.5451 222.4 45.4979 221.744 46.318C221.112 47.1382 220.304 47.8015 219.322 48.3081C218.363 48.7905 217.403 49.0921 216.444 49.2126C216.279 49.2368 216.198 49.2971 216.198 49.3935C216.198 49.4659 216.244 49.5262 216.338 49.5745C217.813 50.1534 218.912 50.8891 219.638 51.7816C220.363 52.6741 220.726 53.9163 220.726 55.5084C220.726 56.8833 220.316 58.1135 219.497 59.199C218.678 60.2603 217.555 61.0925 216.128 61.6956C214.7 62.2986 213.097 62.6001 211.318 62.6001C210.523 62.6001 209.634 62.5519 208.651 62.4554C208.019 62.383 207.434 62.3469 206.896 62.3469C206.357 62.3469 205.691 62.3951 204.895 62.4916C204.052 62.5881 203.292 62.6363 202.613 62.6363ZM212.477 49.0317C213.343 49.0317 214.419 48.887 215.706 48.5976C216.97 48.0427 217.976 47.3432 218.725 46.499C219.497 45.6306 219.883 44.6175 219.883 43.4596C219.883 42.4224 219.497 41.5661 218.725 40.8907C217.953 40.1912 216.9 39.8414 215.566 39.8414C215.122 39.8414 214.794 39.8896 214.583 39.9861C214.396 40.0585 214.279 40.2032 214.232 40.4203L212.056 48.489C212.033 48.5372 212.021 48.6096 212.021 48.7061C212.021 48.9232 212.172 49.0317 212.477 49.0317ZM211.213 61.6956C212.266 61.6956 213.308 61.4061 214.338 60.8272C215.39 60.2242 216.244 59.4161 216.9 58.4029C217.555 57.3899 217.883 56.2682 217.883 55.038C217.883 53.3736 217.392 52.1072 216.408 51.2389C215.449 50.3705 214.009 49.9363 212.091 49.9363C211.716 49.9363 211.471 50.1654 211.354 50.6237L209.107 58.5477C209.013 58.8372 208.967 59.1628 208.967 59.5246C208.967 60.0794 209.13 60.5136 209.458 60.8272C209.763 61.1166 210.031 61.3337 210.266 61.4785C210.523 61.6232 210.839 61.6956 211.213 61.6956ZM231.617 62.9619C229.862 62.9619 228.388 62.5519 227.194 61.7318C226.024 60.8875 225.147 59.7659 224.562 58.3668C224 56.9678 223.719 55.3998 223.719 53.6631C223.719 51.2509 224.269 48.875 225.369 46.5351C226.469 44.1712 228.048 42.2295 230.108 40.7098C232.19 39.1901 234.624 38.4303 237.409 38.4303C239.164 38.4303 240.627 38.8524 241.797 39.6967C242.99 40.5168 243.868 41.6264 244.429 43.0254C245.015 44.4245 245.307 45.9924 245.307 47.7291C245.307 50.1413 244.757 52.5294 243.657 54.8933C242.557 57.2331 240.966 59.1628 238.883 60.6825C236.824 62.2021 234.402 62.9619 231.617 62.9619ZM231.722 61.8403C233.735 61.8403 235.549 61.0684 237.163 59.5246C238.801 57.9568 240.065 55.9667 240.955 53.5545C241.867 51.1424 242.324 48.7423 242.324 46.3542C242.324 44.4486 241.902 42.8204 241.059 41.4696C240.217 40.1188 238.965 39.4434 237.304 39.4434C235.361 39.4434 233.583 40.2394 231.968 41.8314C230.353 43.3994 229.066 45.4014 228.107 47.8377C227.171 50.274 226.703 52.6741 226.703 55.038C226.703 56.9195 227.124 58.5236 227.966 59.8502C228.809 61.177 230.061 61.8403 231.722 61.8403ZM259.858 62.9619C258.103 62.9619 256.629 62.5519 255.435 61.7318C254.265 60.8875 253.387 59.7659 252.802 58.3668C252.241 56.9678 251.96 55.3998 251.96 53.6631C251.96 51.2509 252.51 48.875 253.61 46.5351C254.709 44.1712 256.289 42.2295 258.348 40.7098C260.432 39.1901 262.865 38.4303 265.65 38.4303C267.405 38.4303 268.868 38.8524 270.037 39.6967C271.231 40.5168 272.109 41.6264 272.67 43.0254C273.255 44.4245 273.548 45.9924 273.548 47.7291C273.548 50.1413 272.998 52.5294 271.898 54.8933C270.799 57.2331 269.207 59.1628 267.124 60.6825C265.065 62.2021 262.643 62.9619 259.858 62.9619ZM259.964 61.8403C261.976 61.8403 263.789 61.0684 265.404 59.5246C267.042 57.9568 268.306 55.9667 269.195 53.5545C270.108 51.1424 270.564 48.7423 270.564 46.3542C270.564 44.4486 270.143 42.8204 269.301 41.4696C268.458 40.1188 267.206 39.4434 265.544 39.4434C263.603 39.4434 261.824 40.2394 260.209 41.8314C258.595 43.3994 257.307 45.4014 256.348 47.8377C255.412 50.274 254.944 52.6741 254.944 55.038C254.944 56.9195 255.365 58.5236 256.207 59.8502C257.05 61.177 258.301 61.8403 259.964 61.8403ZM269.482 62.6363C268.921 62.6363 268.64 62.5036 268.64 62.2383C268.64 62.0694 268.769 61.9127 269.026 61.768C269.26 61.5991 269.576 61.4906 269.974 61.4423C270.863 61.3217 271.729 61.0202 272.571 60.5378C273.414 60.0312 274.385 59.1748 275.485 57.9688L280.821 52.1796C281.124 51.8419 281.347 51.5524 281.487 51.3113C281.628 51.07 281.698 50.7926 281.698 50.479C281.698 50.2861 281.663 50.0449 281.593 49.7554L279.767 43.3149C279.51 42.3983 279.217 41.7108 278.89 41.2525C278.586 40.7942 278.258 40.4927 277.907 40.3479C277.556 40.1791 277.099 40.0465 276.538 39.9499C276.21 39.9017 275.941 39.8052 275.73 39.6605C275.52 39.5158 275.415 39.3589 275.415 39.1901C275.415 39.0454 275.555 38.9368 275.836 38.8644C276.116 38.7921 276.421 38.7559 276.749 38.7559C277.053 38.7559 277.65 38.7801 278.539 38.8283C278.796 38.8524 279.194 38.8766 279.732 38.9006C280.294 38.9248 280.774 38.9368 281.171 38.9368L283.137 38.9006C283.371 38.8766 283.675 38.8644 284.05 38.8644C284.611 38.8644 284.892 38.9971 284.892 39.2625C284.892 39.4313 284.775 39.5881 284.541 39.7329C284.307 39.8776 283.992 39.962 283.594 39.9861C282.985 40.0344 282.564 40.155 282.33 40.3479C282.096 40.5168 281.979 40.8184 281.979 41.2525C281.979 41.6626 282.108 42.3621 282.365 43.3511L283.594 48.091C283.71 48.4528 283.839 48.6337 283.98 48.6337C284.12 48.6337 284.307 48.489 284.541 48.1996L288.297 43.6406C289.374 42.338 289.912 41.4093 289.912 40.8545C289.912 40.4444 289.607 40.167 289 40.0223C288.765 39.9741 288.567 39.8776 288.402 39.7329C288.238 39.5881 288.157 39.4434 288.157 39.2987C288.157 39.0333 288.508 38.9006 289.21 38.9006L291.912 38.9368C291.983 38.9368 292.72 38.9006 294.124 38.8283C294.756 38.7559 295.283 38.7197 295.704 38.7197C296.266 38.7197 296.546 38.8524 296.546 39.1178C296.546 39.2625 296.441 39.3951 296.231 39.5158C296.02 39.6123 295.692 39.7208 295.248 39.8414C294.569 40.0344 293.679 40.5168 292.58 41.2887C291.503 42.0606 290.532 42.9289 289.666 43.8939L285.033 49.0679C284.728 49.4297 284.53 49.7071 284.436 49.9001C284.366 50.069 284.354 50.2619 284.401 50.479L286.507 58.4391C286.694 59.1387 286.904 59.6693 287.139 60.0312C287.373 60.3689 287.701 60.6463 288.122 60.8634C288.567 61.0563 289.257 61.2735 290.193 61.5146C290.52 61.6111 290.743 61.7197 290.86 61.8403C291 61.9368 291.07 62.0694 291.07 62.2383C291.07 62.5036 290.719 62.6363 290.017 62.6363L288.157 62.5639C286.753 62.4674 285.723 62.4192 285.068 62.4192L282.014 62.4554C281.452 62.4554 281.171 62.3227 281.171 62.0574C281.171 61.8403 281.616 61.5991 282.505 61.3337C283.114 61.1649 283.547 60.9478 283.804 60.6825C284.085 60.393 284.225 60.0071 284.225 59.5246C284.225 59.2352 284.167 58.8734 284.05 58.4391L282.505 52.6862C282.435 52.3967 282.33 52.2519 282.19 52.2519C282.072 52.2519 281.955 52.3364 281.839 52.5052L276.714 58.8372C276.199 59.4643 275.941 59.9829 275.941 60.393C275.941 60.8514 276.257 61.177 276.889 61.3699C277.24 61.4906 277.462 61.587 277.556 61.6594C277.673 61.7318 277.732 61.8524 277.732 62.0212C277.732 62.166 277.626 62.2865 277.415 62.383C277.205 62.4554 276.959 62.4916 276.678 62.4916C276.257 62.4916 275.906 62.4796 275.625 62.4554L273.66 62.4192C273.285 62.4192 272.852 62.4312 272.361 62.4554C271.893 62.4796 271.53 62.5036 271.273 62.5278C270.594 62.6001 269.997 62.6363 269.482 62.6363ZM300.474 62.9619C298.719 62.9619 297.244 62.5519 296.051 61.7318C294.881 60.8875 294.003 59.7659 293.418 58.3668C292.857 56.9678 292.576 55.3998 292.576 53.6631C292.576 51.2509 293.126 48.875 294.226 46.5351C295.325 44.1712 296.905 42.2295 298.964 40.7098C301.047 39.1901 303.481 38.4303 306.266 38.4303C308.021 38.4303 309.483 38.8524 310.653 39.6967C311.847 40.5168 312.725 41.6264 313.287 43.0254C313.871 44.4245 314.164 45.9924 314.164 47.7291C314.164 50.1413 313.614 52.5294 312.514 54.8933C311.414 57.2331 309.822 59.1628 307.74 60.6825C305.681 62.2021 303.259 62.9619 300.474 62.9619ZM300.579 61.8403C302.591 61.8403 304.405 61.0684 306.02 59.5246C307.658 57.9568 308.922 55.9667 309.811 53.5545C310.723 51.1424 311.18 48.7423 311.18 46.3542C311.18 44.4486 310.759 42.8204 309.916 41.4696C309.074 40.1188 307.822 39.4434 306.16 39.4434C304.218 39.4434 302.44 40.2394 300.825 41.8314C299.21 43.3994 297.923 45.4014 296.964 47.8377C296.028 50.274 295.56 52.6741 295.56 55.038C295.56 56.9195 295.981 58.5236 296.823 59.8502C297.665 61.177 298.917 61.8403 300.579 61.8403ZM316.728 62.6363C316.166 62.6363 315.886 62.5036 315.886 62.2383C315.886 62.0936 315.98 61.9851 316.167 61.9127C316.378 61.8162 316.717 61.7318 317.185 61.6594C318.074 61.4906 318.799 61.177 319.361 60.7187C319.923 60.2603 320.32 59.6091 320.555 58.7648L324.837 43.2787C325.118 42.1933 325.258 41.4334 325.258 40.9993C325.258 40.4927 325.083 40.2394 324.731 40.2394H321.818C320.789 40.2394 319.958 40.4444 319.326 40.8545C318.718 41.2405 318.144 41.7712 317.606 42.4466C317.372 42.7118 317.173 42.9893 317.009 43.2787C316.564 43.9059 316.26 44.2195 316.097 44.2195C315.956 44.2195 315.851 44.1953 315.781 44.1471C315.734 44.0748 315.71 43.9421 315.71 43.7491C315.71 43.5079 315.827 43.134 316.062 42.6275C316.131 42.4586 316.342 42.0123 316.693 41.2887C317.067 40.5409 317.349 39.8052 317.536 39.0816C317.582 38.9127 317.665 38.7559 317.782 38.6112C317.922 38.4423 318.039 38.3579 318.133 38.3579C318.273 38.3579 318.483 38.5026 318.765 38.7921C318.905 38.9368 319.139 39.0454 319.466 39.1178C319.794 39.1901 320.449 39.2263 321.433 39.2263H333.964C334.923 39.2263 335.578 39.1901 335.93 39.1178C336.304 39.0213 336.573 38.9006 336.737 38.7559C336.76 38.7318 336.842 38.6595 336.982 38.5388C337.123 38.4183 337.24 38.3579 337.334 38.3579C337.568 38.3579 337.685 38.4906 337.685 38.7559C337.685 38.9971 337.568 39.3349 337.334 39.769C337.17 40.0585 336.959 40.6133 336.702 41.4334C336.467 42.2535 336.269 43.0978 336.105 43.9662C336.034 44.3039 335.906 44.4727 335.719 44.4727C335.555 44.4727 335.427 44.4004 335.333 44.2557C335.262 44.1109 335.227 43.9059 335.227 43.6406C335.227 42.4827 335.04 41.6264 334.665 41.0716C334.315 40.5168 333.718 40.2394 332.875 40.2394H329.365C329.038 40.2394 328.78 40.3117 328.593 40.4565C328.406 40.6012 328.219 40.8907 328.031 41.3249C327.867 41.759 327.657 42.4466 327.399 43.3872L323.152 58.7648C323.059 59.0784 323.012 59.4041 323.012 59.7417C323.012 60.7548 323.644 61.3941 324.907 61.6594C325.258 61.7318 325.493 61.8041 325.609 61.8765C325.726 61.9489 325.785 62.0694 325.785 62.2383C325.785 62.5036 325.434 62.6363 324.731 62.6363C323.913 62.6363 323.234 62.6001 322.696 62.5278C321.994 62.4796 321.421 62.4554 320.976 62.4554C320.438 62.4554 319.747 62.4796 318.905 62.5278C318.273 62.6001 317.547 62.6363 316.728 62.6363ZM331.93 62.6363C331.392 62.6363 331.123 62.5036 331.123 62.2383C331.123 62.0936 331.205 61.9851 331.369 61.9127C331.532 61.8162 331.849 61.6956 332.316 61.5508C333.159 61.3097 333.744 61.0925 334.072 60.8996C334.399 60.6825 334.633 60.3327 334.773 59.8502L340.004 42.5189C340.214 41.7712 340.32 41.2767 340.32 41.0354C340.32 40.746 340.214 40.5289 340.004 40.3841C339.817 40.2153 339.489 40.0706 339.021 39.9499C338.693 39.8776 338.471 39.7932 338.354 39.6967C338.237 39.5761 338.179 39.4193 338.179 39.2263C338.179 38.961 338.53 38.8283 339.231 38.8283C339.91 38.8283 340.553 38.8524 341.162 38.9006L342.566 38.9368L344.041 38.9006C344.743 38.8524 345.41 38.8283 346.041 38.8283C346.603 38.8283 346.884 38.961 346.884 39.2263C346.884 39.564 346.451 39.8052 345.585 39.9499C344.743 40.1188 344.087 40.4083 343.619 40.8184C343.151 41.2284 342.812 41.7952 342.602 42.5189L340.46 49.6468V49.7554C340.46 49.9001 340.577 49.9725 340.811 49.9725H352.571C352.664 49.9725 352.734 49.9363 352.781 49.864C352.828 49.7916 352.875 49.683 352.921 49.5383L355.062 42.4827C355.18 42.0726 355.238 41.759 355.238 41.542C355.238 40.7218 354.712 40.1912 353.658 39.9499C353.331 39.8776 353.109 39.7932 352.992 39.6967C352.875 39.5761 352.816 39.4193 352.816 39.2263C352.816 38.961 353.167 38.8283 353.869 38.8283C354.524 38.8283 355.203 38.8524 355.905 38.9006L357.625 38.9368L358.784 38.9006C359.299 38.8524 359.907 38.8283 360.609 38.8283C361.171 38.8283 361.451 38.961 361.451 39.2263C361.451 39.564 361.018 39.8052 360.153 39.9499C359.357 40.0947 358.807 40.36 358.503 40.746C358.222 41.1078 357.953 41.6867 357.695 42.4827L352.606 59.5246C352.512 59.8141 352.465 60.0915 352.465 60.3569C352.465 61.0081 352.91 61.4182 353.799 61.587C354.126 61.6594 354.349 61.7438 354.466 61.8403C354.606 61.9368 354.676 62.0694 354.676 62.2383C354.676 62.5036 354.326 62.6363 353.623 62.6363C352.828 62.6363 352.184 62.6001 351.693 62.5278C351.178 62.4796 350.71 62.4554 350.289 62.4554C349.868 62.4554 349.353 62.4796 348.744 62.5278C348.229 62.6001 347.563 62.6363 346.744 62.6363C346.182 62.6363 345.901 62.5036 345.901 62.2383C345.901 61.9489 346.322 61.7318 347.165 61.587C348.709 61.3217 349.715 60.4412 350.183 58.9457L352.36 51.8901C352.383 51.8419 352.406 51.7696 352.43 51.6731C352.453 51.5524 352.465 51.468 352.465 51.4198C352.465 51.3715 352.43 51.3474 352.36 51.3474H340.249C340.132 51.3474 340.039 51.4801 339.969 51.7454L337.897 58.6925C337.757 59.1508 337.687 59.5608 337.687 59.9226C337.687 60.4292 337.839 60.803 338.144 61.0443C338.448 61.2855 338.916 61.4664 339.547 61.587C339.875 61.6594 340.097 61.7438 340.214 61.8403C340.355 61.9368 340.425 62.0694 340.425 62.2383C340.425 62.5036 340.074 62.6363 339.372 62.6363C338.553 62.6363 337.862 62.6001 337.301 62.5278C336.599 62.4796 336.025 62.4554 335.581 62.4554C335.159 62.4554 334.621 62.4796 333.966 62.5278C333.451 62.6001 332.773 62.6363 331.93 62.6363ZM356.712 62.6363C356.173 62.6363 355.905 62.5036 355.905 62.2383C355.905 61.9489 356.326 61.7318 357.168 61.587C358.01 61.4182 358.607 61.1528 358.958 60.791C359.333 60.4051 359.66 59.7659 359.941 58.8734L364.785 42.5189C364.996 41.7712 365.101 41.2767 365.101 41.0354C365.101 40.746 364.996 40.5289 364.785 40.3841C364.598 40.2153 364.27 40.0706 363.802 39.9499C363.475 39.8776 363.252 39.7932 363.136 39.6967C363.018 39.5761 362.96 39.4193 362.96 39.2263C362.96 38.961 363.311 38.8283 364.013 38.8283C364.691 38.8283 365.335 38.8524 365.944 38.9006L367.347 38.9368L368.857 38.9006C369.513 38.8524 370.167 38.8283 370.823 38.8283C371.384 38.8283 371.665 38.961 371.665 39.2263C371.665 39.564 371.233 39.8052 370.367 39.9499C369.524 40.1188 368.869 40.4083 368.401 40.8184C367.933 41.2284 367.594 41.7952 367.382 42.5189L363.592 55.2913V55.3998C363.592 55.5205 363.627 55.6049 363.697 55.6531C363.79 55.7014 363.872 55.6893 363.943 55.6169L379.668 42.8807C379.88 42.7118 380.019 42.5189 380.09 42.3018L380.23 41.9038C380.277 41.7108 380.301 41.554 380.301 41.4334C380.301 41.0957 380.172 40.7942 379.914 40.5289C379.657 40.2635 379.247 40.0706 378.685 39.9499C378.358 39.8776 378.136 39.7932 378.019 39.6967C377.902 39.5761 377.843 39.4193 377.843 39.2263C377.843 38.961 378.194 38.8283 378.896 38.8283C379.551 38.8283 380.23 38.8524 380.932 38.9006L382.652 38.9368L383.811 38.9006C384.326 38.8524 384.934 38.8283 385.636 38.8283C386.198 38.8283 386.478 38.961 386.478 39.2263C386.478 39.564 386.045 39.8052 385.18 39.9499C384.384 40.0947 383.834 40.36 383.53 40.746C383.249 41.1078 382.98 41.6867 382.722 42.4827L377.843 58.8372C377.633 59.5126 377.527 60.0312 377.527 60.393C377.527 60.7307 377.621 60.9961 377.808 61.189C378.019 61.3579 378.358 61.4906 378.826 61.587C379.153 61.6594 379.376 61.7438 379.493 61.8403C379.633 61.9368 379.704 62.0694 379.704 62.2383C379.704 62.5036 379.353 62.6363 378.65 62.6363C377.831 62.6363 377.188 62.6001 376.72 62.5278C376.158 62.4796 375.69 62.4554 375.316 62.4554C374.895 62.4554 374.38 62.4796 373.771 62.5278C373.233 62.6001 372.566 62.6363 371.771 62.6363C371.209 62.6363 370.928 62.5036 370.928 62.2383C370.928 61.9489 371.349 61.7318 372.192 61.587C373.759 61.3217 374.766 60.4412 375.211 58.9457L379.107 45.703C379.153 45.5582 379.165 45.4135 379.142 45.2688C379.118 45.124 379.072 45.0879 379.002 45.1602L362.995 58.0773C362.971 58.0773 362.925 58.1015 362.854 58.1497C362.808 58.198 362.761 58.3065 362.714 58.4753L362.539 58.9457C362.421 59.2593 362.363 59.5367 362.363 59.7779C362.363 60.2362 362.539 60.6221 362.889 60.9357C363.264 61.2493 363.743 61.4664 364.329 61.587C364.656 61.6594 364.879 61.7438 364.996 61.8403C365.136 61.9368 365.206 62.0694 365.206 62.2383C365.206 62.5036 364.855 62.6363 364.153 62.6363C363.334 62.6363 362.644 62.6001 362.082 62.5278C361.38 62.4796 360.807 62.4554 360.362 62.4554C359.894 62.4554 359.356 62.4796 358.747 62.5278C358.186 62.6001 357.507 62.6363 356.712 62.6363ZM401.179 62.9619C400.267 62.9619 399.506 62.6725 398.898 62.0936C398.29 61.5146 397.81 60.8272 397.459 60.0312C397.108 59.211 396.675 58.0532 396.16 56.5577C395.715 55.2792 395.317 54.2541 394.967 53.4822C394.616 52.6862 394.159 52.0349 393.598 51.5283C393.036 50.9977 392.346 50.7323 391.527 50.7323C391.082 50.7323 390.801 50.7926 390.684 50.9132C390.567 51.0097 390.474 51.1786 390.403 51.4198L388.157 58.9096C388.063 59.2231 388.016 59.5367 388.016 59.8502C388.016 60.3327 388.168 60.7066 388.473 60.9719C388.801 61.2373 389.292 61.4423 389.947 61.587C390.274 61.6594 390.497 61.7438 390.614 61.8403C390.754 61.9368 390.824 62.0694 390.824 62.2383C390.824 62.5036 390.474 62.6363 389.772 62.6363C388.952 62.6363 388.262 62.6001 387.7 62.5278C386.999 62.4796 386.425 62.4554 385.98 62.4554C385.465 62.4554 384.787 62.4796 383.944 62.5278C383.313 62.6001 382.587 62.6363 381.768 62.6363C381.207 62.6363 380.926 62.5036 380.926 62.2383C380.926 61.9489 381.347 61.7318 382.189 61.587C383.102 61.4182 383.828 61.1287 384.366 60.7187C384.927 60.3086 385.325 59.7055 385.559 58.9096L390.403 42.5551C390.544 42.0726 390.614 41.6867 390.614 41.3972C390.614 40.9872 390.485 40.6736 390.228 40.4565C389.97 40.2394 389.549 40.0706 388.964 39.9499C388.636 39.8776 388.414 39.7932 388.297 39.6967C388.18 39.5761 388.121 39.4193 388.121 39.2263C388.121 38.961 388.473 38.8283 389.175 38.8283C389.807 38.8283 390.497 38.8524 391.245 38.9006L392.966 38.9368L394.545 38.9006C395.247 38.8524 395.914 38.8283 396.546 38.8283C397.108 38.8283 397.389 38.961 397.389 39.2263C397.389 39.564 396.956 39.8052 396.09 39.9499C395.201 40.1188 394.522 40.3962 394.054 40.7822C393.586 41.144 393.235 41.735 393.001 42.5551L391.316 48.2719C391.245 48.489 391.21 48.6819 391.21 48.8508C391.21 49.285 391.457 49.5021 391.948 49.5021C393.282 49.5021 394.663 48.9835 396.09 47.9462C397.541 46.909 398.851 45.3894 400.021 43.3872C400.723 42.133 401.32 41.1802 401.812 40.5289C402.303 39.8534 402.83 39.3349 403.391 38.973C403.976 38.5871 404.655 38.3941 405.427 38.3941C405.966 38.3941 406.398 38.563 406.726 38.9006C407.053 39.2384 407.217 39.7208 407.217 40.3479C407.217 40.8304 407.124 41.2163 406.937 41.5058C406.749 41.7952 406.527 41.94 406.27 41.94C405.544 41.6988 404.994 41.542 404.62 41.4696C404.245 41.3731 403.847 41.3249 403.426 41.3249C403.145 41.3249 402.853 41.4938 402.548 41.8314C402.268 42.1691 401.917 42.736 401.496 43.532C400.747 44.9069 399.975 46.0045 399.179 46.8246C398.407 47.6206 397.307 48.501 395.879 49.4659C395.762 49.5383 395.68 49.5865 395.634 49.6107C395.611 49.6348 395.657 49.6951 395.774 49.7916C396.336 50.274 396.815 50.9373 397.213 51.7816C397.611 52.6259 398.079 53.8078 398.617 55.3274L398.863 56.0511C399.471 57.7637 400.068 59.0663 400.653 59.9588C401.261 60.8513 402.022 61.2975 402.935 61.2975C403.614 61.2975 403.953 61.4664 403.953 61.8042C403.953 62.1177 403.66 62.383 403.075 62.6001C402.513 62.8414 401.882 62.9619 401.179 62.9619ZM412.589 62.9619C410.834 62.9619 409.36 62.5519 408.166 61.7318C406.996 60.8875 406.118 59.7659 405.533 58.3668C404.972 56.9678 404.691 55.3998 404.691 53.6631C404.691 51.2509 405.241 48.875 406.341 46.5351C407.44 44.1712 409.02 42.2295 411.079 40.7098C413.162 39.1901 415.596 38.4303 418.381 38.4303C420.136 38.4303 421.599 38.8524 422.768 39.6967C423.962 40.5168 424.84 41.6264 425.401 43.0254C425.986 44.4245 426.279 45.9924 426.279 47.7291C426.279 50.1413 425.729 52.5294 424.629 54.8933C423.529 57.2331 421.938 59.1628 419.855 60.6825C417.795 62.2021 415.374 62.9619 412.589 62.9619ZM412.694 61.8403C414.707 61.8403 416.52 61.0684 418.135 59.5246C419.773 57.9568 421.037 55.9667 421.926 53.5545C422.839 51.1424 423.295 48.7423 423.295 46.3542C423.295 44.4486 422.874 42.8204 422.031 41.4696C421.189 40.1188 419.937 39.4434 418.275 39.4434C416.333 39.4434 414.554 40.2394 412.94 41.8314C411.325 43.3994 410.038 45.4014 409.079 47.8377C408.143 50.274 407.675 52.6741 407.675 55.038C407.675 56.9195 408.096 58.5236 408.938 59.8502C409.781 61.177 411.032 61.8403 412.694 61.8403ZM424.886 62.6363C424.582 62.6363 424.372 62.6001 424.255 62.5278C424.114 62.4796 424.044 62.383 424.044 62.2383C424.044 62.0694 424.149 61.9368 424.36 61.8403C424.547 61.7438 424.863 61.6594 425.308 61.587C426.22 61.4182 426.946 61.1287 427.484 60.7187C428.022 60.3086 428.42 59.6935 428.677 58.8734L433.486 42.5913C433.65 41.9882 433.732 41.5781 433.732 41.3611C433.732 40.951 433.603 40.6495 433.346 40.4565C433.088 40.2635 432.667 40.1067 432.083 39.9861C431.708 39.9138 431.451 39.8414 431.31 39.769C431.193 39.6725 431.135 39.5399 431.135 39.3711C431.135 39.2263 431.24 39.1178 431.451 39.0454C431.684 38.973 431.966 38.9368 432.293 38.9368C432.831 38.9368 433.311 38.973 433.732 39.0454C434.2 39.0936 434.598 39.1178 434.925 39.1178C435.207 39.1178 435.558 39.0936 435.979 39.0454C436.4 38.9971 436.692 38.961 436.856 38.9368C437.558 38.8162 438.108 38.7559 438.506 38.7559C440.729 38.7559 442.368 39.2022 443.42 40.0947C444.473 40.9631 445 42.0847 445 43.4596C445 44.5451 444.673 45.4979 444.017 46.318C443.385 47.1382 442.578 47.8015 441.595 48.3081C440.636 48.7905 439.676 49.0921 438.717 49.2126C438.553 49.2368 438.471 49.2971 438.471 49.3935C438.471 49.4659 438.517 49.5262 438.611 49.5745C440.086 50.1534 441.185 50.8891 441.911 51.7816C442.636 52.6741 442.999 53.9163 442.999 55.5084C442.999 56.8833 442.589 58.1135 441.771 59.199C440.952 60.2603 439.828 61.0925 438.401 61.6956C436.974 62.2986 435.37 62.6001 433.592 62.6001C432.796 62.6001 431.907 62.5519 430.924 62.4554C430.292 62.383 429.707 62.3469 429.169 62.3469C428.63 62.3469 427.964 62.3951 427.168 62.4916C426.325 62.5881 425.565 62.6363 424.886 62.6363ZM434.751 49.0317C435.616 49.0317 436.692 48.887 437.98 48.5976C439.244 48.0427 440.249 47.3432 440.999 46.499C441.771 45.6306 442.156 44.6175 442.156 43.4596C442.156 42.4224 441.771 41.5661 440.999 40.8907C440.226 40.1912 439.173 39.8414 437.839 39.8414C437.395 39.8414 437.067 39.8896 436.856 39.9861C436.669 40.0585 436.552 40.2032 436.506 40.4203L434.329 48.489C434.306 48.5372 434.294 48.6096 434.294 48.7061C434.294 48.9232 434.446 49.0317 434.751 49.0317ZM433.486 61.6956C434.539 61.6956 435.581 61.4061 436.611 60.8272C437.663 60.2242 438.517 59.4161 439.173 58.4029C439.828 57.3899 440.156 56.2682 440.156 55.038C440.156 53.3736 439.665 52.1072 438.682 51.2389C437.722 50.3705 436.283 49.9363 434.364 49.9363C433.989 49.9363 433.744 50.1654 433.627 50.6237L431.38 58.5477C431.286 58.8372 431.24 59.1628 431.24 59.5246C431.24 60.0794 431.404 60.5136 431.731 60.8272C432.036 61.1166 432.305 61.3337 432.539 61.4785C432.796 61.6232 433.112 61.6956 433.486 61.6956Z" fill="black"/>
</g>
<defs>
<filter id="filter0_d" x="69" y="37.6584" width="380.197" height="35.6759" filterUnits="userSpaceOnUse" color-interpolation-filters="sRGB">
<feFlood flood-opacity="0" result="BackgroundImageFix"/>
<feColorMatrix in="SourceAlpha" type="matrix" values="0 0 0 0 0 0 0 0 0 0 0 0 0 0 0 0 0 0 127 0"/>
<feOffset dx="2.09858" dy="1.39906"/>
<feGaussianBlur stdDeviation="1.04929"/>
<feColorMatrix type="matrix" values="0 0 0 0 0.729412 0 0 0 0 0.533333 0 0 0 0 0.32549 0 0 0 1 0"/>
<feBlend mode="normal" in2="BackgroundImageFix" result="effect1_dropShadow"/>
<feBlend mode="normal" in="SourceGraphic" in2="effect1_dropShadow" result="shape"/>
</filter>
</defs>
</svg>
